<?xml version="1.0" encoding="UTF-8"?>
<svg id="Capa_2" xmlns="http://www.w3.org/2000/svg" viewBox="0 0 564.51 234">
  <defs>
    <style>
      .cls-1 {
        fill: #fff;
      }
    </style>
  </defs>
  <g id="Capa_1-2" data-name="Capa_1">
    <g id="Aw6lfO.tif">
      <g>
        <path class="cls-1" d="M67.68,74.19c21.29,0,42.58,0,63.87,0,.33,0,.66-.03.99,0,.69.07,1.67-.33,2.01.37.43.89-.62,1.32-1.12,1.84-6.88,6.96-13.8,13.89-20.68,20.84-11.32,11.44-22.64,22.89-33.94,34.34-1.57,1.59-3.1,3.22-4.61,4.86-.86.93-1.86,1.36-3.14,1.36-23-.01-46-.02-69,0-1.56,0-2.04-.65-2.04-2.14C.04,115.88.05,96.1,0,76.33c0-2.04,1.07-2.16,2.62-2.15,21.68.02,43.37.02,65.05.02Z"/>
        <path class="cls-1" d="M148.58,137.79c-20.83,0-41.67,0-62.5,0-.59,0-1.18.02-1.77,0-.51-.02-1.17.15-1.44-.39-.34-.7.39-1.03.77-1.42,14.63-14.92,29.27-29.82,43.9-44.74,5.02-5.11,10.05-10.2,15.01-15.37,1.13-1.18,2.29-1.72,3.95-1.72,22.02.05,44.03.03,66.05.05.74,0,1.76-.38,2.15.47.34.73-.54,1.26-.97,1.8-2.52,3.12-5.07,6.2-7.63,9.29-5.1,6.18-10.19,12.37-15.34,18.51-.88,1.05-.48,1.71.19,2.55,6.36,8.04,12.7,16.09,19.04,24.14,1.38,1.75,2.73,3.53,4.14,5.26.85,1.05.57,1.5-.69,1.55-.66.03-1.31.02-1.97.02-20.96,0-41.93,0-62.89,0Z"/>
        <path class="cls-1" d="M76.56,33.47c0-10.12,0-20.24,0-30.35q0-3.11,3-3.11c18.72,0,37.45,0,56.17,0,2.88,0,2.89,0,2.89,2.79,0,20.43,0,40.87,0,61.3,0,2.68-.04,2.73-2.77,2.73-18.86,0-37.71,0-56.57,0-2.67,0-2.72-.06-2.72-2.8,0-10.18,0-20.37,0-30.55Z"/>
        <path class="cls-1" d="M75.72,177.38c0-9.79,0-19.58,0-29.37,0-2.51.16-2.68,2.69-2.68,19.58,0,39.16,0,58.74,0,2.38,0,2.58.21,2.58,2.6,0,19.65,0,39.29,0,58.94,0,.68.33,1.61-.48,1.95-.66.27-1.16-.49-1.65-.88-9.26-7.45-18.54-14.88-27.71-22.43-1.65-1.36-2.71-1.35-4.34-.02-9.25,7.57-18.59,15.03-27.91,22.52-.44.36-.85,1.01-1.49.74-.67-.29-.4-1.04-.4-1.59-.02-9.92-.01-19.84-.01-29.76Z"/>
        <path class="cls-1" d="M107.73,234c-9.66,0-19.32,0-28.99,0-2.96,0-3.01-.06-3.02-2.94,0-4.08.03-8.15-.02-12.23-.02-1.3.4-2.2,1.43-3.03,9.74-7.81,19.46-15.64,29.15-23.52,1.14-.93,1.93-.64,2.92.16,9.71,7.85,19.43,15.67,29.17,23.48,1.02.82,1.4,1.79,1.38,3.08-.05,4.14,0,8.28-.02,12.42,0,2.37-.19,2.56-2.61,2.56-9.79.01-19.59,0-29.38,0Z"/>
        <path class="cls-1" d="M539.79,128.38c-14.08-.03-23.49-9.68-23.45-24.07.04-15.06,9.66-24.59,24.78-24.55,13.81.03,23.43,9.81,23.39,23.79-.04,14.84-10.02,24.87-24.72,24.84ZM526.68,104.53c-.13,2.64.39,5.85,1.79,8.9,1.91,4.2,5.06,6.78,9.72,7.36,5.24.66,9.77-.69,12.71-5.26,4.51-7.02,4.43-14.44.89-21.78-3.96-8.23-15.82-7.99-20.34-3.26-3.62,3.79-4.8,8.31-4.76,14.04Z"/>
        <path class="cls-1" d="M318.35,80.99c4.74.08,10-.36,15.16,1.14,8.56,2.48,14.65,10.05,14.95,18.96.14,4.27.25,8.52-1.28,12.65-2.43,6.58-7.06,10.61-13.78,12.29-3.26.81-6.58,1.17-9.96,1.13-4.86-.06-9.72,0-14.59-.02-.64,0-1.46.25-1.85-.34-.48-.72.4-1.13.73-1.63,1.56-2.32,2.22-4.91,2.23-7.65.05-8.74.04-17.48,0-26.21-.01-3.14-.69-6.15-2.6-8.73-.95-1.29-.42-1.58.83-1.58,3.22,0,6.44,0,10.16,0ZM319.56,104.14c0,4.53,0,9.06,0,13.6,0,.07,0,.13,0,.2-.15,1.52.52,2.15,2.06,2.07,1.57-.09,3.15.03,4.73-.04,5.3-.22,9.24-3.18,10.88-8.19,1.73-5.29,1.67-10.61-.04-15.88-1.31-4.01-4.08-6.44-8.26-7.32-2.35-.49-4.71-.31-7.06-.46-1.89-.12-2.36.7-2.33,2.43.08,4.53.03,9.06.03,13.6Z"/>
        <path class="cls-1" d="M395.67,125.97c-2.8.54-5.6,1.08-8.41,1.62-.39.07-.78.09-1.17.15-3.81.64-3.67.57-5.36-2.98-2.74-5.76-6.27-11.09-9.43-16.61-.56-.97-1.13-1.93-1.71-2.88-.76-1.23-.65-1.92,1.02-1.92,1.24,0,2.49-.1,3.72-.28,4.09-.58,6.17-2.93,6.29-7,.13-4.24-1.93-7-5.99-7.75-2.12-.39-4.63-.91-6.33.25-1.36.93-.46,3.33-.48,5.06-.06,7.69-.07,15.37,0,23.06.03,3.17.37,6.31,2.43,8.96.75.97.35,1.46-.75,1.46-4.34.02-8.67.02-13.01,0-1.35,0-1.44-.61-.66-1.57,1.74-2.14,2.36-4.69,2.37-7.36.05-9.53.05-19.05,0-28.58-.01-2.53-.63-4.95-2.37-6.94-.3-.34-.74-.7-.52-1.19.25-.57.88-.5,1.39-.5,3.48-.01,6.96-.05,10.45,0,3.61.05,7.22-.23,10.82.39,10.4,1.78,15.35,10.86,11.13,20.49-1.16,2.65-3.22,4.45-5.79,5.66-1.17.55-1.41,1.17-.69,2.28,1.96,3.03,3.86,6.11,5.79,9.15,1.8,2.83,4.21,4.99,7.32,6.38-.02.21-.04.41-.06.62Z"/>
        <path class="cls-1" d="M280.52,80.98c2.3,0,4.6,0,6.9,0,1.29,0,2.14.2,1.18,1.79-1.13,1.86-1.15,3.94-.42,5.91,3.82,10.34,7.08,20.89,11.35,31.06.9,2.14,2.27,3.98,3.73,5.77.28.34.78.64.57,1.16-.2.52-.76.45-1.21.45-3.94,0-7.88,0-11.82,0-1.21,0-1.6-.34-1.15-1.67.82-2.43.09-4.79-.83-7.08-.36-.89-1.06-1.07-1.91-1.07-4.47,0-8.93.02-13.4-.01-1.2-.01-1.76.57-2.12,1.63-.73,2.16-1.01,4.37-.57,6.6.23,1.17-.15,1.6-1.25,1.6-3.61,0-7.22.02-10.84,0-.91,0-1.78-.25-.81-1.35,4.46-5.04,6.01-11.45,8.22-17.54,2.15-5.92,4.09-11.92,6.19-17.86.97-2.75,1.56-5.41-.11-8.12-.67-1.09.27-1.23,1.01-1.24,2.43-.04,4.86-.01,7.29-.01h0ZM280.16,92.6c-1.19,5.42-3.31,10.51-5.1,15.69-.5,1.45-.04,1.93,1.38,1.91,2.62-.03,5.25-.03,7.87,0,1.3.02,1.56-.44,1.14-1.68-1.8-5.27-3.78-10.48-5.29-15.92Z"/>
        <path class="cls-1" d="M227.7,103.86c0-4.6-.05-9.19.02-13.79.04-2.87-.59-5.47-2.46-7.69-.69-.82-.58-1.4.51-1.35,7.84.32,15.78-1.1,23.52,1.02,5.54,1.52,8.75,5.32,9.71,10.98.46,2.74.37,5.5-.28,8.21-1.6,6.67-6.98,10.64-14.79,10.92-1.51.06-3.02.06-4.53.01-1.34-.04-1.89.51-1.89,1.86,0,4.2-.41,8.47,2.74,11.95.52.58.17,1.07-.48,1.07-4.73.05-9.45.06-14.18.02-.84,0-1.02-.54-.46-1.18,2.44-2.79,2.66-6.15,2.6-9.63-.08-4.14-.02-8.27-.02-12.41ZM237.51,96.38c0,1.45-.02,2.89,0,4.34.08,4.57-.82,4.38,4.57,4.24,3.04-.08,5.7-1.2,6.62-4.33,1.7-5.77.87-12.77-8.21-12.49-.33.01-.66.03-.99,0-1.42-.13-2.05.47-2,1.93.06,2.1.02,4.21.01,6.31Z"/>
        <path class="cls-1" d="M465.08,80.99c2.91.15,6.59-.24,10.26.32,8.96,1.38,13.6,7.41,12.9,16.45-.44,5.69-2.48,10.2-7.85,12.67-3.15,1.45-6.55,1.8-10.01,1.77-4.53-.04-3.91-.44-3.99,4.01-.06,3.5.51,6.81,2.79,9.62.63.77.42,1.26-.52,1.26-4.6.03-9.2.03-13.8,0-.88,0-1.27-.46-.59-1.25,2.41-2.81,2.59-6.18,2.57-9.66-.05-8.21-.04-16.43,0-24.64.01-3.34-.22-6.55-2.53-9.27-1.02-1.21.16-1.26.93-1.27,3.02-.03,6.05-.01,9.83-.01ZM466.41,96.37v4.13q0,4.86,4.88,4.46c4.55-.38,7.01-2.95,7.16-7.52.03-.85.03-1.71-.05-2.56-.31-3.54-2.14-5.6-5.57-6.44-1.56-.38-3.13-.24-4.7-.31-1.26-.05-1.77.48-1.74,1.74.06,2.16.02,4.33.01,6.49Z"/>
        <path class="cls-1" d="M429.47,92.68c-3.46-5.12-8.68-4.6-13.75-4.57-5.22.03-4.69-.62-4.64,4.59.02,2-.92,4.5.5,5.88,1.32,1.29,3.77.34,5.72.44,2.23.11,4.47,0,6.69-.32,1.42-.2,2.12.21,1.83,1.81-.57,3.07-1.07,6.15-1.84,9.38-2.66-4.89-7.14-3.88-11.27-3.97-1.18-.02-1.66.53-1.65,1.67.02,3.62,0,7.23.01,10.85,0,.91.34,1.55,1.36,1.54,3.6-.04,7.24.38,10.79-.63,2.6-.74,4.8-2.09,6.6-4.11.29-.33.55-.92,1.05-.73.67.26.3.9.24,1.38-.45,3.32-.94,6.63-1.37,9.95-.14,1.05-.41,1.75-1.68,1.65-8.92-.75-17.87-.16-26.8-.34-.59-.01-1.18,0-1.77-.02-1.19-.05-1.41-.53-.63-1.45,2.18-2.58,2.59-5.73,2.62-8.9.09-8.48.08-16.96,0-25.44-.03-3.03-.37-6.05-2.38-8.58-.31-.39-.91-.76-.65-1.33.3-.65,1.04-.44,1.6-.44,6.64-.02,13.28,0,19.92-.02,2.5,0,5-.05,7.49-.18,1-.05,1.52.27,1.61,1.24.3,3.44.58,6.89.86,10.33-.15.11-.3.22-.45.33Z"/>
        <path class="cls-1" d="M501.89,127.14c-2.17,0-4.34,0-6.5,0-.51,0-1.14.11-1.4-.47-.23-.51.3-.8.58-1.15,1.64-2.09,2.46-4.46,2.46-7.12,0-9.52,0-19.05,0-28.57,0-2.72-.75-5.2-2.55-7.28-.9-1.03-.63-1.52.64-1.53,4.53-.03,9.06-.03,13.6,0,1.2,0,1.37.52.59,1.44-1.95,2.33-2.64,5.11-2.64,8.07-.02,9.06-.02,18.13,0,27.19,0,2.89.72,5.59,2.55,7.91.26.33.79.64.45,1.17-.29.44-.82.34-1.27.35-2.17.01-4.34,0-6.5,0Z"/>
        <path class="cls-1" d="M390.9,162.66c0-5.37,0-10.48,0-15.59,0-1.05.02-2.1,0-3.15-.03-1.16.32-1.88,1.67-1.86,1.25.02,1.57.7,1.57,1.76,0,7.75,0,15.5,0,23.25,0,.72,0,1.51-.91,1.76-1.16.32-1.98-.13-2.72-1.06-3.66-4.64-7.37-9.24-11.06-13.85-1.35-1.68-2.71-3.35-4.13-5.1-.76.68-.5,1.44-.5,2.09-.02,5.26,0,10.51-.03,15.77,0,.89.15,1.97-1.11,2.21-1.32.25-2.16-.13-2.14-1.71.04-3.61,0-7.23,0-10.84,0-3.94-.02-7.88.02-11.82,0-.84-.4-1.96.85-2.34,1.22-.37,1.95.4,2.64,1.26,4.65,5.87,9.31,11.72,13.97,17.58.44.56.81,1.2,1.88,1.66Z"/>
        <path class="cls-1" d="M493.9,155.55c0-3.81.04-7.62-.02-11.43-.02-1.51.55-2.12,2.08-2.09,3.15.07,6.3-.02,9.46.03,3.44.06,6.71,2.68,7.68,6.06,1.04,3.64-.36,8-3.43,9.7-1.61.89-1.5,1.59-.62,2.86,1.34,1.95,2.59,3.96,3.78,5.99.37.62,1.56,1.46.42,2.1-.89.5-2.23.5-3-.65-1.07-1.57-2.09-3.18-3.14-4.77-.04-.05-.07-.11-.1-.17-2.47-4.2-3.72-4.75-8.6-4-1.07.16-1.24.77-1.23,1.64,0,2.1-.03,4.2,0,6.3.02,1.21-.42,1.84-1.71,1.82-1.23-.02-1.56-.71-1.56-1.78.01-3.87,0-7.75,0-11.62ZM497.17,150.43c0,1.44.01,2.89,0,4.33,0,.93.33,1.52,1.36,1.52,2.49-.01,4.99,0,7.48-.04.9-.01,1.62-.48,2.27-1.07,1.87-1.68,2.53-4.34,1.66-6.66-.89-2.37-2.7-3.55-5.53-3.58-.59,0-1.18,0-1.77,0q-5.47,0-5.46,5.49Z"/>
        <path class="cls-1" d="M536.85,155.48c.1-5.48,2.31-9.83,7.28-12.34,5.71-2.89,11.54-1.09,15.46,4.48,4.02,5.71,2.85,14.42-2.58,18.69-3.9,3.06-8.27,3.76-12.75,1.64-4.49-2.13-6.82-5.97-7.41-10.88-.06-.52,0-1.05,0-1.57ZM540.13,155.42c0,.72-.06,1.45.01,2.17.54,5.27,5.56,9.26,10.65,8.49,3.88-.59,7.07-4.2,7.97-9.02,1.21-6.49-4.19-12.68-10.56-12.12-4.65.41-8.13,4.89-8.07,10.48Z"/>
        <path class="cls-1" d="M471.57,169.05c-8.11.06-13.44-7.82-12.64-14.98.37-3.35,1.74-6.29,4.22-8.69,5.6-5.43,14.12-4.52,18.41,2,5.24,7.95,1.87,18.57-6.72,21.22-1.15.35-2.31.47-3.27.45ZM480.88,155.63c.05-6.53-4.44-11.16-10.39-10.7-4.13.32-7.39,3.76-8.3,8.76-1.19,6.54,3.66,12.7,9.79,12.45,4.9-.2,8.86-4.87,8.9-10.51Z"/>
        <path class="cls-1" d="M321.57,141.74c2.99.14,5.48.84,7.73,2.36.92.62,1.16,1.32.55,2.32-.68,1.11-1.32.66-2.09.11-2.65-1.87-5.61-2.07-8.68-1.51-2.07.38-3.58,2.09-3.68,4.08-.1,1.76,1.15,3.38,3.22,3.97,2.4.68,4.86,1.18,7.25,1.87,4.36,1.27,6.33,3.78,5.94,7.6-.28,2.71-1.7,4.7-4.3,5.63-5.33,1.93-10.32,1.07-15.03-1.97-1.19-.77-1.14-1.61-.45-2.64.8-1.2,1.48-.3,2.11.15,2.99,2.15,6.33,2.79,9.92,2.4,2.49-.27,4.17-1.64,4.43-3.52.3-2.13-.82-3.71-3.47-4.57-2.06-.67-4.17-1.18-6.28-1.68-4.18-1-6.58-3.32-6.62-6.49-.04-3.78,2.26-6.52,6.45-7.59,1.08-.27,2.2-.37,3-.51Z"/>
        <path class="cls-1" d="M425.59,168.94c-.89.06-1.47-.47-1.84-1.35-.76-1.82-1.56-3.62-2.26-5.46-.38-1-1-1.44-2.07-1.42-2.89.04-5.78.03-8.67,0-.91,0-1.43.36-1.77,1.22-.7,1.84-1.5,3.64-2.26,5.46-.31.75-.67,1.46-1.62,1.52-.64.04-1.4.26-1.86-.3-.45-.54.07-1.12.29-1.65,3.15-7.58,6.29-15.16,9.47-22.73.42-.99.68-2.16,2.18-2.18,1.51-.02,1.78,1.1,2.21,2.12,3.13,7.52,6.26,15.04,9.39,22.56.71,1.7.45,2.23-1.18,2.2ZM415.19,146.18c-1.61,3.89-3.06,7.37-4.48,10.86-.31.76.09,1.12.84,1.12,2.3,0,4.59,0,6.89,0,1.1,0,1.4-.6,1.01-1.55-1.35-3.33-2.72-6.65-4.26-10.43Z"/>
        <path class="cls-1" d="M350.48,160.72c-4.5-1.18-6.97.73-7.88,5.12-.16.75-.58,1.46-.94,2.16-.62,1.21-1.76,1.17-2.73.77-1.11-.46-.36-1.38-.1-2.02,3.2-7.69,6.45-15.36,9.67-23.04.37-.89.72-1.64,1.89-1.67,1.18-.03,1.59.69,1.97,1.58,3.23,7.75,6.48,15.48,9.69,23.24.26.62.99,1.57-.23,1.96-1.01.32-2.15.34-2.69-.92-.69-1.63-1.4-3.26-1.97-4.93-.56-1.64-1.49-2.51-3.33-2.29-1.1.13-2.23.02-3.34.02ZM350.67,146.82c-.17.02-.35.05-.52.07-1.38,3.32-2.75,6.64-4.14,9.96-.34.81-.12,1.29.79,1.3,2.49.02,4.98.01,7.47,0,.75,0,.9-.45.65-1.05-1.41-3.43-2.83-6.86-4.25-10.28Z"/>
        <path class="cls-1" d="M440.26,156.9c0-3.22-.09-6.43.03-9.65.07-1.85-.65-2.45-2.41-2.33-1.7.11-3.41.01-5.12.01-.98,0-1.64-.3-1.64-1.46,0-1.17.71-1.42,1.67-1.42,6.17,0,12.34,0,18.51,0,1.02,0,1.62.38,1.61,1.49-.02,1.17-.76,1.39-1.72,1.39-1.77,0-3.55.1-5.31-.02-1.77-.12-2.42.46-2.39,2.32.1,6.56.01,13.12.05,19.69.01,1.54-.54,2.23-2.1,1.97-1.15-.19-1.17-1.09-1.17-1.96-.01-3.35,0-6.69,0-10.04h0Z"/>
        <path class="cls-1" d="M526.79,155.34c0,3.81,0,7.61,0,11.42,0,1.09.05,2.19-1.53,2.17-1.44-.02-1.46-1.01-1.46-2.05,0-7.61,0-15.23,0-22.84,0-1.07.1-1.99,1.53-1.97,1.47.02,1.45,1.02,1.45,2.04,0,3.74,0,7.48,0,11.22Z"/>
      </g>
    </g>
  </g>
</svg>