<?xml version="1.0" encoding="UTF-8"?>
<svg id="Capa_2" xmlns="http://www.w3.org/2000/svg" viewBox="0 0 778.59 234">
  <defs>
    <style>
      .cls-1 {
        fill: #fff;
      }
    </style>
  </defs>
  <g id="Capa_1-2" data-name="Capa_1">
    <g id="yyKPeK.tif">
      <g>
        <path class="cls-1" d="M138.72,234c-44.86,0-89.71,0-134.57,0-4.67,0-4.62-.09-3.56-4.68.9-3.92,1.4-7.93,2.09-11.9,1.55-8.81,3.11-17.61,4.66-26.42,1.45-8.27,2.85-16.55,4.35-24.8,1.27-7,2.73-13.96,3.97-20.96,1.1-6.21,1.98-12.47,3.05-18.69,1.04-6.11,2.2-12.21,3.29-18.31,1.25-7.01,2.45-14.03,3.74-21.03,1.21-6.55,2.56-13.08,3.74-19.64,1.06-5.85,1.96-11.74,2.97-17.6,1.17-6.83,2.38-13.65,3.56-20.47,1.21-7.01,2.41-14.03,3.63-21.04.36-2.07.56-4.21,1.27-6.16.34-.93,1.64-1.64,2.66-2.13.68-.32,1.63-.08,2.45-.08,89.44,0,178.88,0,268.32,0,4.76,0,5.12.38,4.29,5.06-2.57,14.54-5.17,29.08-7.76,43.62-1.99,11.19-3.96,22.38-5.98,33.56-2.76,15.25-5.61,30.49-8.33,45.74-1.87,10.47-3.53,20.98-5.41,31.45-3.12,17.42-6.36,34.82-9.51,52.24-1.08,5.95-2,11.93-3.02,17.9-.73,4.26-.84,4.35-5.05,4.35-44.95,0-89.9,0-134.85,0ZM141.48,219c38.61,0,77.22,0,115.83,0,.64,0,1.4.21,1.9-.06.78-.41,1.81-1.03,2-1.75.58-2.2.78-4.5,1.16-6.76,1.4-8.2,2.76-16.41,4.24-24.6,1.81-9.98,3.8-19.94,5.61-29.92,1.93-10.63,3.7-21.28,5.6-31.91,1.43-8.01,2.98-16,4.41-24.01,1.55-8.65,2.99-17.32,4.55-25.96,1.38-7.65,2.91-15.27,4.28-22.93,1.9-10.63,3.69-21.28,5.59-31.91.67-3.76.75-3.75-3.19-3.75-77.04,0-154.08,0-231.11,0-.83,0-1.75-.21-2.46.08-.78.33-1.83,1.03-1.98,1.73-1.51,7.33-2.92,14.67-4.24,22.04-1.86,10.44-3.58,20.9-5.42,31.33-1.09,6.2-2.33,12.38-3.45,18.59-.86,4.77-1.61,9.56-2.47,14.33-.8,4.48-1.71,8.95-2.51,13.43-.8,4.5-1.5,9.02-2.31,13.52-1.19,6.54-2.49,13.06-3.67,19.6-1.53,8.53-2.95,17.09-4.49,25.62-1.41,7.82-2.95,15.62-4.39,23.43-.93,5.04-1.67,10.12-2.69,15.14-.82,4.05-.43,4.71,3.62,4.71,38.52,0,77.04,0,115.56,0Z"/>
        <path class="cls-1" d="M637.82,88.65c.14-.86.32-1.71.42-2.57,1.11-9.38,2.04-18.78,3.37-28.12.93-6.61,2.44-13.14,3.57-19.73.32-1.83,1.17-2.46,2.95-2.44,5.98.06,11.95.09,17.93,0,2.39-.04,2.87,1.15,2.53,3.11-1.11,6.21-2.26,12.4-3.36,18.61-.91,5.12-1.73,10.26-2.66,15.38-1.15,6.29-2.43,12.56-3.55,18.86-1.45,8.19-2.8,16.41-4.2,24.61-.74,4.32-1.39,8.65-2.36,12.92-.18.78-1.68,1.77-2.59,1.8-5.51.17-11.04.21-16.54-.02-.99-.04-2.47-1.32-2.8-2.33-3.82-11.75-7.55-23.52-11.11-35.35-1.53-5.07-2.6-10.28-3.9-15.42-.14-.54-.49-1.02-1.19-1.42-.06,1.06-.18,2.13-.19,3.19-.1,10.31-1.63,20.44-3.71,30.52-1.22,5.9-2.17,11.86-3.04,17.83-.31,2.14-1.14,3.12-3.31,3.11-5.88-.04-11.77-.06-17.65.01-2.11.03-2.85-.88-2.52-2.85,1.07-6.51,2.08-13.04,3.23-19.54,1.46-8.32,3.05-16.61,4.54-24.92,1.54-8.58,3.03-17.16,4.55-25.74,1.14-6.4,2.37-12.79,3.4-19.21.38-2.36,1.37-3.27,3.82-3.18,4.68.17,9.38.05,14.07.05q4.96,0,6.4,4.77c2.81,9.25,5.76,18.46,8.4,27.76,1.89,6.65,3.36,13.42,5.01,20.14.18.06.35.11.53.17Z"/>
        <path class="cls-1" d="M520.44,90.66c3.37,4.01,4.87,9.26,5.92,14.67.58,2.95,1.06,5.92,1.48,8.9.64,4.54,1.18,9.08,1.76,13.63.38,2.94,0,3.4-2.96,3.41-6.43.02-12.87-.06-19.3.04-2.34.04-3.29-.8-3.37-3.18-.23-6.42-.39-12.86-1.07-19.24-.43-3.96-1.67-7.86-2.74-11.73-.41-1.48-1.3-3.05-3.33-2.54-2.04.51-4.17.66-4.64,3.69-1.55,10.03-3.43,20.01-5.12,30.02-.35,2.05-1.23,3.02-3.45,2.98-6.16-.11-12.32-.08-18.47-.01-2.28.02-2.83-.88-2.44-3.06,1.98-11.01,3.8-22.04,5.77-33.05,3.14-17.51,6.3-35.02,9.55-52.51,1.28-6.91,1.4-6.89,8.53-6.89,8.36,0,16.75-.36,25.08.13,5.31.32,10.81,1.23,15.77,3.09,8.26,3.1,12.93,9.36,13.48,18.54.56,9.45-.71,18.31-8.09,24.91-3.53,3.16-7.96,5.32-12.35,8.17ZM495.65,79.73c2.96-.57,5.06-.99,7.16-1.37,7.1-1.3,12.07-4.8,13.62-12.37.93-4.54-.16-9.61-3.37-11.03-3.96-1.75-8.2-2.28-12.73-1.64-1.52,8.59-3.02,17.02-4.68,26.41Z"/>
        <path class="cls-1" d="M702.71,132.27c-6.14.07-11.6-.41-16.84-2.87-8.29-3.9-12.08-10.84-13.61-19.36-1.98-11.03-.54-21.93,1.67-32.76,2.1-10.3,5.59-20.06,12.01-28.54,5.4-7.12,12.43-11.49,21.34-13.19,7.07-1.35,14.04-1.45,20.93.3,8.86,2.24,14.84,7.92,17.63,16.68,2.67,8.39,2.39,16.96,1.44,25.61-1.02,9.3-2.92,18.37-6.37,27.07-2.68,6.76-6.21,13-11.65,17.99-7.67,7.04-16.94,9.36-26.55,9.08ZM695.33,101.68c0,1.74-.12,3.5.02,5.23.83,10.19,8.98,10.77,14.37,7.11,2.09-1.42,3.89-3.67,5.07-5.94,4.41-8.53,6.28-17.86,7.82-27.25.75-4.59,1.72-9.19,1.9-13.81.15-3.96-.14-8.1-1.21-11.89-1.36-4.85-8.73-5.99-13.24-2.37-5.09,4.08-7.19,9.87-9.08,15.84-3.4,10.78-5.2,21.81-5.66,33.07Z"/>
        <path class="cls-1" d="M430.75,35.81c4.04,0,8.09.05,12.13-.02,1.9-.03,2.78.56,2.96,2.63,1.24,14.53,2.52,29.07,3.93,43.58,1.46,15.04,3.08,30.07,4.64,45.11.39,3.8.1,4.17-3.67,4.18-5.79.01-11.58.02-17.37,0-3.43,0-3.67-.31-3.75-3.85-.08-3.58-.25-7.16-.31-10.74-.03-1.67-.54-2.5-2.41-2.48-6.16.08-12.31.06-18.47.01-1.37,0-2.08.36-2.56,1.8-1.46,4.43-3.06,8.82-4.85,13.12-.39.93-1.79,2-2.75,2.03-6.98.17-13.97.09-20.95.1-2.13,0-2.5-.94-1.69-2.81,7.86-18.12,15.7-36.26,23.53-54.4,4.85-11.25,9.7-22.5,14.49-33.77,1.83-4.3,1.99-4.49,6.61-4.49,3.49,0,6.98,0,10.48,0ZM428.57,54.3c-.15-.03-.29-.06-.44-.09-5,13.87-10.01,27.74-15.09,41.83h16.75c-.41-14.03-.81-27.88-1.22-41.74Z"/>
        <path class="cls-1" d="M348.08,35.81c4.6,0,9.22-.33,13.78.08,5.51.5,11.04,1.01,16.25,3.42,6.98,3.24,10.9,8.71,11.82,16.05,1.27,10.08.33,19.99-4.75,29.08-4.05,7.25-10.25,12.03-17.95,14.96-7.17,2.73-14.6,4.04-22.24,4.12-1.74.02-2.38.73-2.66,2.38-1.18,7.15-2.53,14.26-3.69,21.41-.56,3.44-1.01,3.97-4.57,3.97-5.61,0-11.21.01-16.82,0-3.43,0-3.85-.49-3.25-3.9.99-5.59,2.04-11.16,3.05-16.74,1.55-8.56,3.09-17.12,4.62-25.68,1.83-10.27,3.64-20.55,5.46-30.82.92-5.21,1.88-10.41,2.71-15.64.3-1.88,1.15-2.73,3.08-2.71,5.05.05,10.11.02,15.17.02ZM345.73,87.55c1.95-.18,3.42-.2,4.85-.48,3.85-.74,7.5-2.05,9.87-5.4,5.03-7.09,6.56-15,5.01-23.5-.4-2.19-1.6-4.03-3.98-4.43-2.41-.4-4.87-.46-7.3-.73-1.78-.19-2.53.41-2.84,2.32-1.08,6.6-2.44,13.15-3.61,19.73-.72,4.04-1.3,8.11-1.99,12.47Z"/>
        <path class="cls-1" d="M570.34,35.82c3.22,0,6.44,0,9.65,0,1.74,0,2.53.75,2.18,2.59-1.26,6.63-2.5,13.27-3.69,19.91-1.86,10.35-3.71,20.7-5.53,31.06-1.82,10.35-3.58,20.72-5.41,31.07-.52,2.96-1.05,5.93-1.9,8.8-.24.81-1.6,1.81-2.46,1.83-6.34.15-12.68.07-19.03.07-2.02,0-2.85-.96-2.5-2.96,1-5.7,1.96-11.4,2.97-17.1,1.58-8.95,3.17-17.89,4.76-26.83,2.67-15,5.37-30,7.96-45.01.47-2.72,1.7-3.73,4.45-3.51,2.83.23,5.7.05,8.55.05h0Z"/>
        <path class="cls-1" d="M380.16,174.22c4.11,5.8,5.01,12.25,6.14,18.64.27,1.52.74,3.01.97,4.54.08.56-.23,1.68-.44,1.7-2.44.22-4.95.6-7.32.2-.87-.15-1.76-2.15-2.06-3.43-.93-4.1-1.51-8.27-2.36-12.38-.29-1.42-.89-2.79-1.48-4.13-1.49-3.42-4.84-4.66-8.09-2.89-.65.35-1.16,1.38-1.31,2.18-1.02,5.3-2,10.62-2.84,15.96-.75,4.8-3.19,6.47-7.78,4.82-.63-.23-1.25-1.74-1.14-2.55.73-5.16,1.64-10.29,2.53-15.43,2.12-12.18,4.31-24.36,6.35-36.55.34-2.01,1.59-2.9,3.14-2.8,6.72.44,13.54.53,20.09,1.91,7.56,1.59,9.48,9.64,8.39,15.79-1.28,7.24-5.54,11.93-12.8,14.44ZM365.96,169.52c3.64-.47,6.77-.59,9.75-1.31,6-1.46,9.1-5.94,8.56-12-.22-2.54-1.28-4.77-4.02-5.26-2.85-.51-5.79-.56-8.68-.87-1.94-.21-2.6.87-2.87,2.52-.29,1.79-.67,3.57-.96,5.37-.58,3.6-1.11,7.2-1.78,11.55Z"/>
        <path class="cls-1" d="M334.05,171.78c-2.58,0-4.41-.06-6.23.02-1.89.08-2.35-.74-2.13-2.53.53-4.33.95-4.79,5.26-4.79,3.03,0,6.07-.02,9.1,0,3.55.02,4.08.54,3.47,4.08-.96,5.61-2.11,11.18-3.14,16.78-.6,3.24-1.04,6.51-1.75,9.73-.23,1.02-.92,2.54-1.69,2.75-7.26,2-14.59,3.92-22.1,1.18-6.06-2.21-8.91-7.22-9.54-13.04-1.27-11.72.47-23.06,6.85-33.29,5.82-9.33,15.82-13.21,27.43-10.1.44.12.92.08,1.36.19,4.62,1.11,5.85,3.48,3.78,7.75-.25.51-1.73.74-2.54.59-3.11-.6-6.15-1.81-9.27-2.07-6.39-.52-10.93,2.83-13.73,8.25-4.35,8.41-6.14,17.42-5.27,26.91.58,6.4,5.13,9.86,11.41,8.62,5.22-1.03,5.25-1.03,6.21-6.28.86-4.74,1.63-9.5,2.53-14.76Z"/>
        <path class="cls-1" d="M397,182.23c.69-11.48,2.35-21.59,7.78-30.64,5.45-9.08,11.82-11.06,20.82-9.71,5.74.86,9.06,4.47,10.08,10.89,2.05,12.87-.27,25.2-6.15,36.8-4.24,8.37-12.71,12.28-21.58,10.28-5.19-1.17-8.32-4.5-9.59-9.5-.76-2.99-1.03-6.11-1.36-8.12ZM406.14,180.48c0,1.74-.28,3.54.05,5.22,1.2,6.21,1.98,8.32,8.6,7.35,2.88-.42,4.71-2.6,6.14-5.06,3.98-6.86,6.04-14.34,6.51-22.18.26-4.26.03-8.62-.61-12.84-.56-3.69-4.1-5.81-7-4.79-3.41,1.2-6,3.41-7.64,6.67-4.06,8.06-5.97,16.64-6.05,25.63Z"/>
        <path class="cls-1" d="M443.12,185.5c1.34-7.76,2.7-15.53,4.02-23.29.88-5.15,1.75-10.3,2.53-15.47.67-4.41,4.16-6.34,8.2-4.32.54.27,1.15,1.25,1.05,1.79-1.3,7.48-2.78,14.94-4.09,22.42-1.06,6.05-2.1,12.1-2.9,18.19-.59,4.44.49,6.53,3.28,7.59,3.66,1.39,8.73.47,10.52-2.44,1.55-2.52,2.88-5.37,3.46-8.24,1.63-8.09,2.81-16.27,4.21-24.41.74-4.34,1.52-8.67,2.37-12.99.4-2.02,2.78-2.8,6.29-2.35,2.26.29,2.61,1.65,2.27,3.52-1.12,6.21-2.26,12.42-3.37,18.63-.89,4.95-1.66,9.93-2.63,14.86-1.13,5.72-2.02,11.49-6.05,16.22-4.77,5.6-17.64,6.65-23.34,3.03-4.64-2.95-5.81-7.53-5.81-12.74Z"/>
        <path class="cls-1" d="M500.34,182.01c-.74,4.4-1.53,8.89-2.23,13.39-.58,3.75-4.95,5.95-8.16,3.88-.58-.38-.85-1.78-.72-2.63.97-6.44,2.02-12.87,3.16-19.29,1.51-8.57,3.13-17.12,4.68-25.68.44-2.43.52-4.97,1.31-7.27.36-1.04,2.09-2.37,3.11-2.3,6.44.42,13,.57,19.23,2.03,6.23,1.47,8.31,7.39,8.02,14.62-.15,3.64-1.15,7.46-2.67,10.78-3,6.6-8.94,9.67-15.75,11.1-3.12.66-6.33.89-9.98,1.38ZM511.47,150c-5.62-.09-5.56-.08-6.33,5.16-.43,2.88-1.16,5.72-1.67,8.59-.53,2.96-1.06,5.92-1.36,8.91-.06.62.93,1.96,1.37,1.93,5.54-.31,10.8-1.54,14-6.66,2.37-3.79,2.87-8.07,2.16-12.44-.55-3.4-2.56-5.12-5.95-5.38-.91-.07-1.83-.09-2.22-.11Z"/>
        <path class="cls-1" d="M774.73,49.1c-.75,1.93-1.39,3.91-2.3,5.75-.39.78-1.39,1.81-2.04,1.76-.7-.05-1.54-1.12-1.94-1.94-.89-1.83-1.54-3.77-2.67-5.55,0,1.74.2,3.5-.08,5.19-.15.89-1.12,1.65-1.71,2.46-.57-.86-1.58-1.69-1.63-2.59-.2-3.2-.19-6.42,0-9.62.06-.92.82-2.33,1.57-2.57,1.45-.46,3.09-.38,3.76,1.67.67,2.04,1.55,4.01,3.05,6.18.85-1.98,1.91-3.89,2.5-5.95.65-2.26,2.3-2.34,3.86-1.89.68.19,1.34,1.69,1.39,2.62.17,3.2.09,6.42.05,9.63-.01,1.13.25,2.8-1.59,2.41-.74-.16-1.55-1.55-1.72-2.49-.28-1.6-.08-3.28-.08-4.93-.14-.05-.28-.1-.42-.15Z"/>
        <path class="cls-1" d="M755.39,41.88c1.28,0,2.59-.16,3.83.07.59.11,1.41.94,1.44,1.49.03.53-.84,1.59-1.28,1.58-2.72-.11-2.56,1.66-2.54,3.47.03,2.1.14,4.23-.11,6.3-.08.72-1.11,1.32-1.71,1.98-.53-.69-1.46-1.36-1.52-2.09-.2-2.36-.14-4.75-.06-7.13.05-1.53-.31-2.36-2.06-2.48-.67-.05-1.26-1.07-1.89-1.64.68-.52,1.31-1.34,2.06-1.49,1.23-.25,2.55-.07,3.83-.07v.03Z"/>
        <path class="cls-1" d="M151.98,39.66c10.37,0,20.78-.54,31.11.15,10.72.72,21.15,3.23,29.46,10.88,5.78,5.32,9.13,12.12,9.99,19.72,1.72,15.22.86,30.28-5.84,44.45-6.51,13.78-17.31,22.75-31.41,28.22-12.37,4.8-25.26,6.3-38.32,6.96-1.76.09-2.42.78-2.7,2.37-1.72,9.91-3.48,19.82-5.25,29.72-.66,3.69-1.27,7.39-2.15,11.02-.19.79-1.4,1.89-2.15,1.89-11.58.13-23.16.1-34.73.11-1.85,0-2.1-1.17-1.86-2.61.61-3.8,1.22-7.6,1.9-11.39,1.25-6.91,2.58-13.8,3.83-20.71,1.89-10.43,3.78-20.87,5.61-31.31,1.45-8.27,2.8-16.56,4.25-24.82,1.47-8.35,3.03-16.69,4.51-25.04,1.23-6.92,2.41-13.85,3.6-20.77.98-5.68,1.93-11.36,2.92-17.04.38-2.15,2.03-2.32,3.79-2.31,7.81.01,15.62,0,23.43,0,0,.17,0,.34,0,.51ZM184.39,82.92c-.32-2.03-.55-5.33-1.39-8.46-.82-3.09-2.72-5.92-6.04-6.5-4.55-.8-9.22-.86-13.82-1.37-2.8-.31-3.78.83-4.2,3.58-1.16,7.59-2.68,15.12-4.04,22.67-1.72,9.54-3.4,19.08-5.13,28.61-.37,2.03.27,3.01,2.42,2.69,2.79-.41,5.62-.64,8.36-1.28,6-1.39,11.24-4.09,15-9.23,6.44-8.8,8.07-18.96,8.82-30.73Z"/>
      </g>
    </g>
  </g>
</svg>