<?xml version="1.0" encoding="UTF-8"?>
<svg id="Capa_2" xmlns="http://www.w3.org/2000/svg" viewBox="0 0 359.42 236">
  <defs>
    <style>
      .cls-1 {
        fill: #fff;
      }
    </style>
  </defs>
  <g id="Capa_1-2" data-name="Capa_1">
    <g>
      <g id="K6XWNK.tif">
        <g>
          <path class="cls-1" d="M111.75,162.36c0-7.52.05-15.03-.03-22.55-.02-2.03.52-2.77,2.71-2.67,4.12.2,8.26.13,12.39.02,2.79-.07,3.98,1.09,3.58,3.87-.05.37-.05.76,0,1.13.12.88-.47,2.12.6,2.54,1.15.45,1.5-1.02,1.89-1.61,6.19-9.51,23.32-8.16,27.99,1.14.78,1.55,1.5,3.13,2.22,4.7.17.38.02,1.06.65,1,.6-.05.53-.71.53-1.14.04-2.91.13-5.83.02-8.73-.08-2.1.48-3.33,2.83-2.9,3.2.59,4.09-.66,4-3.88-.2-7.01,0-7.01,6.9-7,3.19,0,6.4.17,9.58,0,2.16-.12,2.56.9,2.51,2.67-.05,1.87.14,3.76-.03,5.62-.24,2.59,1.17,3.25,3.33,3.25.28,0,.56-.07.84-.08,4.53-.24,4.99.19,4.95,4.65,0,.66-.05,1.31-.05,1.97q0,6.68-6.69,7.25c-1.03.09-2.32,0-2.26,1.47.26,6.03-.94,12.12.6,18.09.67,2.61,5.58,4.53,7.85,3.2.72-.42.61-1.1.64-1.72.29-7.18,5.05-10.66,10.97-13.03,5.69-2.28,11.75-2.33,17.77-2.57,1.22-.05,3.24,1.09,3.52-1.46.25-2.29-.28-4.24-2.58-5.26-4.27-1.9-5.95-1.46-9.07,2.23-.87,1.03-1.85,1.75-3.35,1.73-3.85-.06-7.71-.1-11.55.06-3.22.14-3.44-1.83-2.78-3.97,2.56-8.27,9.06-12.09,16.73-13.4,4.42-.75,8.94-.81,13.45-.2,9.71,1.3,18.3,7.02,18,18.7-.25,10.04-.1,20.1,0,30.15.02,1.93-.69,2.45-2.43,2.42-4.51-.06-9.02-.08-13.53-.02-2.02.03-3.29-.44-2.86-2.83.13-.74-.03-1.64-.71-1.98-.26-.13-.99.61-1.48.99-6.13,4.77-12.89,6.52-20.32,3.13-4.03-1.84-6.94-4-8.73-7.87-.15-.31-.25-.83-.72-.51-.24.16-.35.64-.36.98-.07,1.97-.11,3.94-.13,5.91,0,1.02-.14,1.92-1.43,1.97-7.14.27-14.33,1.03-21.05-2.36-3.78-1.91-5.41-5.3-5.53-9.24-.22-7.32-.15-14.65-.06-21.98.03-2.01-.44-2.6-2.59-2.78-3.59-.3-4.61.65-4.48,4.42.34,9.85.08,19.73.16,29.59.02,1.75-.35,2.59-2.26,2.57-4.88-.06-9.77-.1-14.65.04-2.32.07-2.01-1.39-2.01-2.77,0-8.46.1-16.91-.04-25.37-.09-5.44-4.83-10.61-11.28-6.99-2.74,1.53-3,4.53-3.09,7.04-.28,7.88-.25,15.78-.02,23.67.09,3.2-.37,4.78-4.11,4.45-4.19-.37-8.44-.15-12.67-.07-1.7.03-2.27-.56-2.26-2.28.07-7.8.03-15.59.03-23.39-.02,0-.04,0-.06,0ZM223.06,175.92c2.39.27,4.24-.07,5.89-1.37,1.98-1.56,3.12-3.7,2.38-6-.69-2.14-2.88-.87-4.43-.84-1.59.02-3.2.04-4.77.27-3.71.54-4.66,3.15-2.96,6.42,1.13,2.17,2.83,1.17,3.89,1.53Z"/>
          <path class="cls-1" d="M268.8,155.59c0-10.05.04-20.1-.04-30.15-.02-2.03.61-2.76,2.7-2.9,13.6-.91,27.21-.15,40.82-.44,1.92-.04,2.71.81,2.66,2.71-.08,3.29-.15,6.58-.02,9.86.09,2.16-.85,2.78-2.83,2.76-7.04-.07-14.08.02-21.12-.09-2.26-.04-3.24.61-3,3.01.31,3.16-1.28,7.25.59,9.28,1.9,2.06,6.03.52,9.18.66,2.53.11,5.09-.19,7.6.06,3.09.31,4.84-.78,6.58-3.48,3.71-5.76,9.19-9.27,16.16-10.01,3.46-.37,6.93-.37,10.41-.08,8.02.66,17.25,7.52,19.37,15.75.87,3.4,1.24,6.77,1.53,10.23.29,3.47-1.12,4.1-4.14,4.06-8.92-.12-17.84.07-26.76-.05-2.55-.04-3.23.98-2.81,3.19.93,4.92,9.31,8.59,12.86,5.16,3.21-3.11,6.58-3.46,10.51-3.27,2.72.13,5.45-.03,8.17,0,1.27,0,1.8.1,1.39,1.93-2.34,10.51-11.01,14.52-20.21,15.67-6.78.85-13.17-.37-19.2-3.08-4.92-2.21-7.96-6.5-9.81-11.58-.87-2.38-1.58-4.75-1.72-7.31-.1-1.88-.86-2.84-3.28-2.64-4.72.37-9.49.34-14.22.04-2.32-.15-2.21.98-2.21,2.43,0,5.92-.06,11.84.06,17.75.04,2.22-.46,3.18-2.96,3.06-4.5-.23-9.02-.19-13.52-.04-2.27.08-2.82-.69-2.8-2.89.12-9.86.05-19.73.05-29.59h-.02ZM336.85,156.91c1.03,0,2.06,0,3.09,0,1.62,0,1.92-.9,1.44-2.21-1.08-2.97-4.8-5.83-7.78-5.47-3.32.41-6.11,1.85-7.29,5.47-.61,1.87.24,2.16,1.64,2.18,2.96.04,5.93.01,8.9.02Z"/>
          <path class="cls-1" d="M9.06,169c1.69,0,3.4.16,5.07-.04,2.57-.3,4.28.45,5.84,2.7,1.99,2.89,10.25,3.96,14.02,2.09,1.49-.74,3.45-.85,3.89-3.02.61-3.01-.76-4.86-3.53-5.47-5.16-1.13-10.39-1.96-15.58-2.99-6.11-1.22-11.63-3.32-15.04-9.15-4.75-8.1-2.91-21.47,6.2-27.28,8.58-5.47,17.58-5.87,27.14-4.23,4.36.75,8.48,2.1,11.81,4.89,4.27,3.58,6.93,8.21,6.69,14.07-.04,1.09-.48,1.62-1.75,1.59-4.68-.08-9.37-.06-14.06.01-1.2.02-1.54-.54-1.91-1.54-2.49-6.69-12.53-6.48-16.68-2.98-1.91,1.62-.64,5.94,1.8,7.04,3.77,1.7,7.88,2.23,11.85,2.74,5.55.71,10.8,2.3,15.67,4.69,3.28,1.61,5.15,5.25,6.06,8.87,1.96,7.8.7,14.95-5.16,20.88-3.34,3.38-7.73,4.77-12.11,6.1-8.04,2.45-16.12,1.87-24.05-.25-7.19-1.92-14.8-7.66-15.23-16.4-.09-1.86.4-2.54,2.29-2.42,2.24.14,4.5.03,6.76.03,0,.02,0,.04,0,.05Z"/>
          <path class="cls-1" d="M108.06,167.93c0,5.92-.06,11.83.04,17.75.03,1.82-.49,2.45-2.38,2.38-4.13-.15-8.27-.24-12.39,0-2.5.15-3.38-.57-3.13-3.03.08-.74.56-1.88-.32-2.3-.91-.44-1.44.81-1.9,1.26-3.9,3.78-8.71,5.76-13.84,5.15-10.93-1.29-17.2-6.79-16.12-18.6.48-5.29,4.5-9.08,9.88-10.85,6.15-2.02,12.49-2.54,18.91-2.6,1.25-.01,3.04.64,3.44-1.42.39-1.98-.15-4.01-1.82-4.96-3.37-1.91-7.85-1.91-10.32,1.95-.83,1.29-1.79,1.67-3.24,1.64-3.47-.09-6.94-.04-10.42-.03-3.57,0-4.74-1.68-3.25-5.05,3.27-7.41,8.99-11.43,17.04-12.48,4.84-.63,9.56-1.35,14.39.13,6.36,1.95,11.98,5.08,14.91,11.16,1.2,2.49.54,5.91.6,8.92.08,3.66.02,7.32.02,10.99-.03,0-.06,0-.09,0ZM82.81,176.01c2.44.23,4.9-.5,6.66-3.13,1.11-1.67,1.21-3.53.51-5.03-.7-1.49-2.46-.56-3.81-.38-1.29.18-2.6.25-3.9.34-3.68.24-5.51,1.73-5.47,4.46.06,3.86,2.84,3.71,6,3.75Z"/>
          <path class="cls-1" d="M125.42,225.77c0-2.44.04-4.87-.01-7.31-.03-1.45.68-2.06,2.02-2.09,1.77-.03,3.54-.03,5.31-.03,6.4,0,9.05,3.73,5.95,9.2-1.59,2.81-.93,4.7.35,6.96.45.79,1.89,1.71.47,2.47-.98.52-2.57.62-3.43-.85-.82-1.41-1.9-2.73-2.44-4.24-.65-1.83-1.91-1.83-3.29-1.54-1.65.35-.64,1.88-1.06,2.79-.61,1.33,1.75,4.13-1.96,3.97-1.43-.06-1.99-.61-1.94-2.04.07-2.43.02-4.87.02-7.31,0,0,.01,0,.02,0ZM132.25,225.44c2.44.3,4.1-.69,3.88-3.3-.25-2.99-2.8-3.2-5.02-3.15-3.41.06-1.36,2.78-1.73,4.24-.61,2.42,1.07,2.5,2.87,2.21Z"/>
          <path class="cls-1" d="M160.27,225.77c-.03,6.03-3.65,10.05-9.21,10.22-4.84.15-8.41-4.59-8.36-11.07.05-5.58,3.12-8.76,8.33-8.92,5.43-.17,9.73,3.77,9.24,9.77ZM156.48,226.24c0-4.36-1.76-6.96-4.57-7.35-2.65-.36-4.07,1.28-5.04,3.14-1.45,2.76-.59,7.62,1.01,9.09,1.87,1.72,4.25,1.72,5.97.81,2.02-1.06,2.91-3.45,2.63-5.7Z"/>
          <path class="cls-1" d="M214.65,216.09c3.72-.22,5.98,1.31,8,3.14.95.86,1.35,2.56.37,3.45-.84.77-2.52.49-3.2-.71-1.45-2.53-3.39-3.8-6.17-2.54-2.86,1.3-4.08,5.67-2.86,9.12,1.03,2.95,2.95,4.19,6.14,3.74,1.79-.25,2.28-1.69,3.28-2.69.81-.81,1.76-1.77,2.81-.87.8.68.47,1.89-.06,2.87-1.32,2.43-5.72,4.83-8.05,4.34-4.61-.96-7.37-3.64-7.7-7.53-.37-4.34-.51-8.56,3.95-11.28,1.38-.84,2.79-.96,3.49-1.04Z"/>
          <path class="cls-1" d="M188.28,225.75c0-2.44-.03-4.88.02-7.31.01-.81-.08-1.77,1.05-2.02.87-.19,1.45.03,2.13.8,2.46,2.76,4.34,5.93,6.55,8.87.48.64,1.31,1.73,1.66,1.61.88-.29.62-1.41.64-2.21.05-2.25.03-4.5.06-6.75.02-1.05.05-2.16,1.46-2.3,1.63-.16,1.5,1.18,1.51,2.11.05,4.97.01,9.94-.01,14.92,0,.72.14,1.58-1,1.65-1.22.07-2.15-.35-2.86-1.38-1.98-2.92-3.97-5.84-6.01-8.71-.45-.63-1.43-1.63-1.69-1.5-.84.42-.44,1.47-.46,2.27-.04,2.53-.03,5.07-.01,7.6,0,1.07-.23,1.77-1.56,1.75-1.37-.02-1.45-.74-1.43-1.81.05-2.53.02-5.06.02-7.59h-.05Z"/>
          <path class="cls-1" d="M234.68,235.08c-2.2.44-2.01-.94-1.61-2.16,1.64-4.9,3.9-9.57,5.27-14.58.34-1.26,1.67-2.08,3.31-1.93,1.37.12,1.72.79,2.14,2.04,1.47,4.32,3.25,8.54,4.83,12.83.4,1.1.83,2.4.16,3.49-.4.66-1.38.39-2.12.29-1.48-.21-1.51-1.38-1.69-2.53-.47-2.88-3.14-1.95-4.75-2.27-1.19-.24-3.31.48-3.26,2.65.04,1.74-.68,2.41-2.28,2.16ZM239.53,225.31c-.5,1.75.86,2.28,1.77,2.47.5.11,1.28-1.09,1.94-1.7-1.27-1.13-.44-3.86-1.77-4.03-1.54-.21-1.8,1.95-1.94,3.26Z"/>
          <path class="cls-1" d="M177.79,218.69c-1.04,3.1-1.84,6.45-3.31,9.47-.86,1.76-.43,3.79-1.84,5.45-.8.94-1.31,1.56-2.54,1.6-1.37.04-2.45-.47-2.89-1.72-1.47-4.24-2.83-8.52-4.23-12.79-.17-.52-.21-1.2-.56-1.53-1-.95-1.31-2.23-.15-2.75,1.18-.53,2.87-.3,3.44,1.43.9,2.7,1.74,5.42,2.52,8.16.23.82.34,1.66.96,2.28.37.37.83.96,1.23.94.73-.03.48-.85.58-1.35.66-3.4,2.57-6.39,3.1-9.87.14-.94,1.43-1.95,2.88-1.56,1.23.33.65,1.34.82,2.23Z"/>
          <path class="cls-1" d="M114.36,216.37c5.16-.07,7.47,1.07,8.27,4.09,1.28,4.8-1.2,8.31-6.13,8.11-2.81-.11-3.7.82-3.5,3.47.11,1.53-.03,3.16-2.27,3.04-2.11-.11-1.52-1.75-1.54-2.94-.05-3.46,0-6.92,0-10.39q-.02-5.31,5.17-5.38ZM115.36,225.71c2.46.32,4.34-.76,4.15-3.17-.16-2.01-1.82-3.51-4.2-3.62-2.78-.12-2.25,2.1-2.27,3.55-.02,1.43-.65,3.78,2.31,3.24Z"/>
          <path class="cls-1" d="M184.45,226.08c0,2.34-.06,4.68.02,7.02.04,1.34-.2,2.15-1.8,2.06-1.3-.07-2.1-.32-2.09-1.89.05-4.77-.01-9.55-.03-14.32,0-1.65.58-2.71,2.46-2.61,2.04.1,1.39,1.66,1.43,2.72.09,2.34.03,4.68.03,7.02-.01,0-.02,0-.03,0Z"/>
          <path class="cls-1" d="M230.14,226.23c0,2.43-.03,4.86.01,7.28.02,1.02-.29,1.6-1.38,1.6-1.07,0-2.25.01-2.26-1.42-.06-5.23-.03-10.45-.01-15.68,0-1.21.84-1.55,1.89-1.57,1.33-.03,1.78.7,1.77,1.94-.03,2.61,0,5.23,0,7.84Z"/>
        </g>
      </g>
      <rect class="cls-1" x="191.83" width="50.74" height="18.04"/>
      <rect class="cls-1" x="191.83" y="29.31" width="50.74" height="18.04"/>
      <rect class="cls-1" x="191.83" y="58.63" width="24.8" height="18.04"/>
      <path class="cls-1" d="M125.27,35.85c-1.34,0-2.28-.04-2.68-.06l.92-17.45c4.52.22,17.71-.41,24.46-5.93C162.56.46,182.96.05,183.82.04l.24,17.47c-.12,0-15.22.4-25.03,8.42-10.93,8.94-27.21,9.92-33.77,9.92Z"/>
      <path class="cls-1" d="M125.27,65.16c-1.34,0-2.28-.04-2.68-.06l.92-17.45c4.52.22,17.71-.41,24.46-5.93,14.6-11.94,35-12.35,35.86-12.36l.24,17.47c-.12,0-15.22.4-25.03,8.42-10.93,8.94-27.21,9.92-33.77,9.92Z"/>
      <path class="cls-1" d="M125.27,94.48c-1.34,0-2.28-.04-2.68-.06l.92-17.45c4.52.22,17.71-.41,24.46-5.93,14.6-11.94,35-12.35,35.86-12.36l.24,17.47c-.12,0-15.22.4-25.03,8.42-10.93,8.94-27.21,9.92-33.77,9.92Z"/>
    </g>
  </g>
</svg>