<?xml version="1.0" encoding="UTF-8"?>
<svg id="Capa_2" xmlns="http://www.w3.org/2000/svg" viewBox="0 0 428.7 234">
  <defs>
    <style>
      .cls-1 {
        fill: #fff;
      }
    </style>
  </defs>
  <g id="Capa_1-2" data-name="Capa_1">
    <g id="cy7MRA.tif">
      <g>
        <path class="cls-1" d="M214.8.4c4.65,0,9.3-.1,13.95.03,5.31.14,10.63.36,15.93.77,5.61.43,11.22,1.05,16.81,1.71,4.02.47,8.03,1.04,12.01,1.74,3.97.69,7.89,1.62,11.84,2.39,2.19.43,4.42.7,6.6,1.15,2.02.42,4,.99,6,1.47,1.25.3,2.5.55,3.75.85,2.71.64,5.44,1.23,8.13,1.96,2.52.68,5,1.51,7.5,2.27,2.29.69,4.6,1.32,6.88,2.06,2.28.73,4.52,1.57,6.78,2.35,2.05.7,4.12,1.33,6.15,2.07,1.71.63,3.38,1.39,5.07,2.09,3.23,1.34,6.49,2.64,9.69,4.05,2.57,1.14,5.12,2.36,7.61,3.66,3.07,1.59,6.08,3.3,9.1,4.97,6.42,3.55,12.54,7.54,18.45,11.9,5.53,4.09,10.91,8.37,15.59,13.4,4.01,4.31,7.86,8.81,11.39,13.52,2.77,3.7,5.17,7.73,7.34,11.82,1.62,3.06,2.68,6.43,3.84,9.71.95,2.67,1.85,5.38,2.47,8.14.53,2.35.79,4.79.88,7.2.14,3.57.23,7.16-.02,10.71-.2,2.88-.87,5.75-1.47,8.59-.55,2.61-1.14,5.23-1.97,7.76-.81,2.46-1.8,4.89-2.99,7.19-2.07,3.99-4.15,8.02-6.63,11.76-2.34,3.52-4.99,6.89-7.87,9.98-3.8,4.09-7.78,8.05-12.01,11.69-4.3,3.7-8.91,7.06-13.54,10.33-4.19,2.96-8.53,5.72-12.95,8.34-3.43,2.03-7.05,3.72-10.61,5.51-2.85,1.43-5.71,2.87-8.63,4.16-2.99,1.32-6.04,2.5-9.08,3.69-3.6,1.41-7.2,2.82-10.84,4.15-2.03.75-4.13,1.32-6.19,1.99-2.49.8-4.96,1.68-7.47,2.41-2.51.73-5.07,1.32-7.6,1.97-1.57.4-3.14.8-4.71,1.18-2.11.52-4.22,1-6.32,1.53-1.83.46-3.65,1.02-5.49,1.45-1.58.37-3.17.64-4.77.92-2.16.37-4.33.68-6.49,1.06-2.59.46-5.17.96-7.75,1.45-.17.03-.33.1-.49.12-3.18.37-6.37.71-9.55,1.12-3.74.49-7.46,1.04-11.19,1.56-.28.04-.56.05-.85.06-8.08.39-16.16.81-24.25,1.14-5.99.24-11.99.57-17.98.49-7.13-.1-14.25-.58-21.37-.95-3.27-.17-6.54-.35-9.79-.71-3.29-.36-6.56-.95-9.83-1.43-.22-.03-.45-.06-.68-.08-3.53-.38-7.07-.64-10.57-1.18-4.03-.62-8.03-1.51-12.04-2.24-2.26-.41-4.54-.72-6.8-1.14-1.64-.31-3.26-.73-4.89-1.11-2.17-.51-4.34-1-6.49-1.56-2.7-.7-5.39-1.44-8.07-2.18-2.47-.68-4.95-1.34-7.4-2.1-3.29-1.03-6.56-2.13-9.82-3.24-2.74-.93-5.49-1.83-8.19-2.88-4.08-1.58-8.12-3.24-12.15-4.92-2.9-1.21-5.79-2.46-8.64-3.8-2.45-1.15-4.87-2.36-7.23-3.69-3.72-2.09-7.42-4.23-11.04-6.49-3.93-2.47-7.84-5-11.62-7.69-8.1-5.78-15.38-12.52-21.91-20-5.35-6.12-10.02-12.78-13.28-20.29-1.67-3.86-3.1-7.84-4.42-11.84C.1,126.97-.38,119.2.26,111.41c.32-3.88,1.33-7.72,2.27-11.52.76-3.08,1.64-6.16,2.9-9.06,1.47-3.39,3.29-6.65,5.17-9.85,5.17-8.81,11.78-16.46,19.29-23.34,6.83-6.26,14.15-11.87,22.08-16.67,4.05-2.45,8.02-5.06,12.17-7.33,3.67-2.01,7.51-3.74,11.34-5.43,4.92-2.17,9.87-4.26,14.87-6.24,3.96-1.57,7.99-2.95,12.02-4.35,4.15-1.44,8.3-2.88,12.5-4.15,2.66-.8,5.43-1.24,8.12-1.93,2.97-.76,5.9-1.63,8.86-2.41,1.24-.32,2.51-.54,3.77-.78,2.14-.4,4.29-.76,6.43-1.18,2.25-.44,4.48-.94,6.72-1.42.22-.05.43-.14.65-.17,2.84-.37,5.69-.75,8.53-1.1,4.97-.62,9.94-1.23,14.91-1.82,2.12-.25,4.25-.52,6.38-.67,5.58-.39,11.16-.75,16.74-1.06,6.27-.35,12.54-.62,18.81-.93,0,.13,0,.27.01.4ZM214.39,220.2c0,.16,0,.32.01.48,9.67-.39,19.34-.73,29-1.2,4.85-.24,9.68-.71,14.52-1.08.22-.02.45-.08.67-.11,3.4-.5,6.79-1.01,10.19-1.49,2.68-.38,5.38-.64,8.04-1.12,3.8-.69,7.58-1.53,11.36-2.32,1.31-.27,2.61-.63,3.92-.9,1.98-.39,3.97-.7,5.94-1.1,1.42-.29,2.83-.63,4.23-1.01,2.74-.75,5.46-1.57,8.2-2.33,2.46-.68,4.96-1.25,7.41-2,2.28-.7,4.51-1.59,6.77-2.38,3.6-1.27,7.23-2.45,10.79-3.81,3.27-1.25,6.49-2.64,9.69-4.06,3.94-1.76,7.9-3.48,11.72-5.47,4.04-2.11,8.03-4.35,11.85-6.82,4.95-3.2,9.92-6.43,14.51-10.11,4.49-3.6,8.63-7.66,12.71-11.73,4.8-4.78,8.75-10.25,11.92-16.24,1.5-2.83,2.88-5.73,4.13-8.68.82-1.94,1.42-4,1.91-6.06.52-2.18.68-4.44,1.18-6.63,1.39-5.99.58-11.94-.55-17.8-.67-3.47-1.98-6.85-3.24-10.18-1.07-2.83-2.13-5.76-3.78-8.26-3.19-4.81-6.58-9.54-10.3-13.95-4.52-5.35-9.72-10.08-15.37-14.24-4.01-2.94-8.06-5.86-12.29-8.46-4.76-2.94-9.71-5.58-14.65-8.22-2.64-1.41-5.42-2.58-8.17-3.8-3.12-1.39-6.26-2.76-9.42-4.07-1.79-.74-3.62-1.37-5.44-2.04-2.18-.8-4.35-1.64-6.55-2.38-2.11-.71-4.25-1.32-6.37-1.99-2.38-.75-4.74-1.59-7.15-2.28-2.58-.73-5.2-1.34-7.8-1.98-3.31-.82-6.61-1.66-9.93-2.42-1.8-.41-3.63-.65-5.44-1.03-3.67-.78-7.31-1.68-11-2.38-3.59-.68-7.2-1.24-10.83-1.72-4.97-.66-9.95-1.24-14.94-1.77-3.25-.34-6.52-.61-9.78-.78-6.89-.37-13.79-.86-20.69-.91-7.75-.05-15.5.25-23.25.54-4.68.17-9.36.59-14.03.93-4.06.3-8.11.61-12.16.97-3.31.29-6.62.61-9.92,1.01-2.18.26-4.35.65-6.51,1.04-2.48.45-4.95.99-7.43,1.44-2.21.4-4.44.69-6.66,1.07-1.65.29-3.3.59-4.92.98-3.09.75-6.17,1.58-9.26,2.35-2.71.67-5.46,1.21-8.15,1.98-3.31.95-6.55,2.1-9.84,3.14-3.18,1-6.41,1.84-9.53,2.99-4.05,1.49-8.05,3.15-12.01,4.85-4.83,2.08-9.71,4.08-14.38,6.48-5,2.57-9.8,5.54-14.66,8.4-6.35,3.73-12.19,8.15-17.71,13.01-6.79,5.98-13.07,12.46-17.67,20.31-2.49,4.24-4.67,8.68-6.67,13.17-1.03,2.3-1.44,4.9-1.98,7.4-.59,2.68-1.29,5.38-1.46,8.1-.42,6.39.33,12.7,2.44,18.78,1.22,3.5,2.28,7.09,3.88,10.42,3.04,6.32,7.14,11.97,11.79,17.22,4.7,5.3,9.96,9.95,15.54,14.32,6.19,4.85,12.72,9.11,19.58,12.88,3.42,1.89,6.92,3.64,10.44,5.35,3.65,1.76,7.34,3.44,11.06,5.06,2.39,1.04,4.86,1.89,7.31,2.81,2.22.84,4.45,1.68,6.68,2.48,1.99.71,4,1.36,6.01,2.02,2.38.77,4.75,1.57,7.15,2.26,2.47.71,4.97,1.32,7.46,1.96,3.18.82,6.36,1.65,9.55,2.42,1.85.45,3.72.75,5.58,1.16,1.96.44,3.9,1.02,5.87,1.39,2.37.45,4.78.73,7.16,1.13,4.6.76,9.17,1.66,13.79,2.3,4.91.68,9.84,1.22,14.78,1.67,4.73.43,9.47.86,14.21.97,6.97.16,13.95.04,20.92.04Z"/>
        <path class="cls-1" d="M299.46,120.66c.41-3.54.41-6.24,1.07-8.78,1.8-6.92,5.12-13.11,10.45-17.93,2.39-2.16,5.3-3.83,8.16-5.4,5.79-3.18,12.11-4.18,18.65-3.74,2.91.2,5.84.45,8.67,1.09,2.24.51,4.36,1.56,6.48,2.52,3.6,1.63,6.74,3.93,9.47,6.78,2.42,2.52,4.65,5.19,6.01,8.46,1.18,2.84,2.3,5.71,3.41,8.58.16.41.07.9.12,1.35.22,1.9.56,3.79.64,5.69.05,1.15-.32,2.31-.49,3.47-.38,2.6-.48,5.28-1.2,7.77-1.35,4.69-3.83,8.86-7.02,12.56-3.8,4.42-8.57,7.58-13.95,9.66-2.86,1.1-5.82,2.25-9.06,2.11-1.32-.06-2.69.68-3.99.56-3.5-.34-6.96-1.04-10.45-1.43-4.24-.48-7.69-2.83-11.35-4.65-1.15-.57-2.04-1.66-3.08-2.48-3.44-2.69-5.89-6.19-8.05-9.92-1.34-2.31-2.38-4.69-2.77-7.4-.46-3.26-1.24-6.47-1.71-8.87ZM314.87,119.63c.37,2.02.7,4.05,1.13,6.05.89,4.15,3.02,7.56,6.05,10.52,2.95,2.89,6.59,4.52,10.45,5.24,5.58,1.05,11-.17,15.67-3.44,4.27-2.99,6.87-7.33,8.13-12.38.85-3.4,1.16-6.83.23-10.36-.88-3.33-1.98-6.56-4.09-9.23-3.88-4.93-9.22-7.34-15.37-7.97-2.83-.29-5.46.66-8.18,1.45-3.03.88-5.46,2.47-7.47,4.62-4.02,4.29-6.37,9.39-6.55,15.49Z"/>
        <path class="cls-1" d="M118.67,85.82h45.35v12.93c-.65,0-1.31,0-1.96,0-8.9,0-17.81.03-26.71-.03-1.45,0-2.01.35-1.96,1.89.1,3.51.11,7.03,0,10.55-.05,1.56.54,1.9,1.98,1.89,7.14-.06,14.29.04,21.43-.07,1.8-.03,2.23.58,2.17,2.24-.11,3.06-.08,6.12,0,9.18.03,1.29-.42,1.64-1.66,1.63-7.26-.05-14.52.03-21.77-.06-1.7-.02-2.15.6-2.12,2.16.07,3.63.09,7.26,0,10.89-.04,1.48.41,1.96,1.92,1.95,8.96-.06,17.92,0,26.88-.06,1.52-.01,2.09.36,2.03,1.97-.12,3.17-.07,6.35-.01,9.52.02,1.14-.27,1.61-1.5,1.6-14.18-.03-28.35-.03-42.53,0-1.1,0-1.53-.39-1.5-1.48.04-2.15,0-4.31,0-6.46,0-19.17,0-38.33,0-57.5,0-.84,0-1.68,0-2.72Z"/>
        <path class="cls-1" d="M63.37,134.12c2.88,1.74,5.65,3.52,8.53,5.11,1.33.73,2.83,1.24,4.31,1.56,2.5.54,5.05,1.2,7.57,1.15,3.16-.06,6.69.14,8.89-2.88,2.56-3.52,2.19-6.56-1.93-8.93-3.18-1.83-6.7-2.58-10.17-3.57-4.95-1.41-9.98-2.71-14.52-5.22-3.23-1.79-5.77-4.43-7.2-7.85-1.65-3.94-1.78-8.25-.99-12.28,1.14-5.83,4.64-10.42,9.85-13.4,1.77-1.01,3.92-1.36,5.88-2.05,3.96-1.4,8.06-1,12.1-.76,2.42.14,4.84.82,7.18,1.49,2.47.71,4.93,1.57,7.27,2.63,1.57.71,2.93,1.9,4.5,2.96-2.2,3.23-4.5,6.24-6.37,9.49-1.12,1.95-1.88,1.19-3.25.49-2.5-1.28-5.17-2.2-7.73-3.35-2.77-1.25-5.67-.8-8.5-.67-3.71.16-7.29,3.07-6.36,7.55.58,2.79,2.69,3.89,4.95,4.66,3.94,1.34,8.01,2.3,11.97,3.6,4.53,1.49,9.12,2.91,12.95,5.93,2.35,1.86,4.43,3.94,5.17,6.98.57,2.32,1.54,4.7,1.42,7.01-.47,8.76-3.33,15.55-13.03,19.26-3.35,1.28-6.8,1.9-10.35,1.91-3,0-6.08.22-8.98-.37-4.08-.84-8.13-1.88-11.95-3.85-3.16-1.63-6-3.64-8.81-5.73-.34-.25-.64-1.18-.47-1.39,2.66-3.22,5.41-6.37,8.08-9.48Z"/>
        <path class="cls-1" d="M222.63,105.53c-2.95-1.89-5.54-4.08-8.52-5.33-3.98-1.66-8.14-2.79-12.7-1.74-4.03.93-7.51,2.59-10.39,5.48-1.78,1.78-3.15,3.85-4.22,6.18-2.15,4.69-2.19,9.59-1.58,14.5.34,2.75,1.65,5.25,3.1,7.72,1.79,3.04,4.13,5.37,7.14,6.92,2.14,1.1,4.55,1.95,6.93,2.27,3.21.43,6.61.54,9.64-.85,2.87-1.31,5.55-3.07,8.27-4.72.94-.57,1.74-1.4,2.43-1.96,3.03,2.91,6.02,5.74,8.94,8.64.25.25.33,1.15.13,1.32-2.19,1.9-4.33,3.9-6.74,5.5-2.4,1.58-5.04,2.82-7.66,4.03-1.24.57-2.66.9-4.03,1.05-3.57.38-7.2,1.05-10.73.77-3.96-.32-8.05-1.07-11.73-2.53-5.91-2.35-10.83-6.18-14.71-11.47-2.62-3.58-4.44-7.44-5.67-11.55-1.51-5.03-1.54-10.3-.83-15.47.4-2.95,1.24-5.95,2.47-8.65,2.27-4.97,5.27-9.45,9.68-12.97,2.91-2.32,6.03-4.15,9.39-5.57,2.34-.99,4.89-1.83,7.4-2.02,4.45-.32,8.95-.32,13.41-.04,4.08.26,7.84,1.88,11.51,3.7,2.78,1.38,5.03,3.36,7.3,5.38.81.72.73,1.3.13,1.99-2.83,3.21-5.66,6.41-8.34,9.43Z"/>
        <path class="cls-1" d="M287.82,105.55c-2.9-1.89-5.68-3.85-8.63-5.55-1.26-.72-2.82-.95-4.28-1.26-1.59-.33-3.24-.8-4.81-.64-2.24.22-4.41,1.04-6.64,1.45-4.02.73-6.78,3.45-9.01,6.41-1.95,2.59-3.9,5.46-3.95,9.06-.02,1.5-.74,3.01-.66,4.49.28,4.75,1.1,9.4,3.9,13.43,2.75,3.96,6.39,6.61,11.08,8.05,3.16.97,6.31.85,9.38.45,2.38-.31,4.75-1.42,6.88-2.61,2.29-1.29,4.28-3.12,6.45-4.64.29-.2,1.1-.12,1.36.14,2.52,2.57,4.97,5.21,7.46,7.81.75.79.79,1.38-.02,2.26-2.9,3.16-6.32,5.66-10.12,7.48-1.87.9-3.73,1.99-6.05,2.11-3.43.18-6.84,1.45-10.24,1.38-4.09-.08-8.29-.38-12.15-2.15-2.79-1.28-5.59-2.52-8.34-3.87-.71-.35-1.2-1.11-1.86-1.59-4.55-3.33-7.75-7.77-9.98-12.83-1.54-3.48-2.91-7.12-2.73-11.09.04-.86-.34-1.74-.45-2.61-.08-.67-.12-1.35-.05-2.02.14-1.34.52-2.66.53-4,.02-2.29.96-4.32,1.45-6.47.55-2.41,1.78-4.36,2.76-6.51,1.73-3.81,4.56-6.69,7.63-9.34,3.4-2.95,7.37-4.83,11.65-6.36,6.68-2.39,13.42-2,20.18-1.33,4.21.41,8.13,2.22,11.8,4.27,2.16,1.2,3.87,3.19,5.84,4.75.86.69.75,1.15.06,1.9-2.87,3.14-5.69,6.35-8.45,9.45Z"/>
      </g>
    </g>
  </g>
</svg>