<?xml version="1.0" encoding="UTF-8"?>
<svg id="Capa_2" xmlns="http://www.w3.org/2000/svg" viewBox="0 0 221.99 221.99">
  <defs>
    <style>
      .cls-1 {
        fill: #fff;
      }
    </style>
  </defs>
  <g id="Capa_1-2" data-name="Capa_1">
    <g id="_x33_5FfEg.tif">
      <path class="cls-1" d="M121.29,177.46c0,1.04,0,1.85,0,2.65,0,10.3.02,20.6,0,30.89,0,6.2-4.36,10.89-10.15,10.98-5.89.09-10.44-4.59-10.46-10.88-.03-10.3,0-20.6,0-30.89,0-.81,0-1.63,0-2.73-1.74.65-3.25,1.24-4.79,1.77-32.52,11.1-67.65-1.94-85.52-31.72C-5.97,120.31-2.79,86.5,18.42,62.71c6.04-6.78,13.19-12.17,21.29-16.31.82-.42,1.62-1.25,2.03-2.08C53.79,19.87,73.1,4.94,100.11.86c33.13-5,64.84,12.08,79.36,42.18,1.03,2.14,2.58,3.25,4.55,4.35,18.92,10.55,31.46,26.26,36.06,47.45,6,27.66-2.33,51.13-23.08,70.06-12.93,11.8-28.44,17.93-46.02,18.34-9,.21-17.76-1.33-26.22-4.47-1.08-.4-2.16-.81-3.48-1.31ZM121.29,94.3c1.22-.6,2.08-1.01,2.93-1.43,9.39-4.67,18.79-9.34,28.17-14.03,3.14-1.57,6.3-1.86,9.49-.3,3.81,1.86,5.84,5.04,5.86,9.21.02,4.45-2.28,7.61-6.27,9.6-12.89,6.42-25.75,12.89-38.65,19.29-1.15.57-1.57,1.21-1.56,2.49.05,11.12.05,22.25,0,33.37,0,1.25.37,1.98,1.45,2.63,8.13,4.89,16.93,7.55,26.39,7.55,16.14.01,29.43-6.5,39.86-18.66,22.84-26.62,12.89-67.6-19.57-80.86-3.2-1.31-5.25-3.56-6.46-6.76-8.08-21.4-28.52-35.71-51.23-35.89-23.26-.19-44,13.64-52.35,35.1-1.53,3.94-4,6.43-7.88,8.04-19.25,7.98-32.01,28.58-30.86,49.39.79,14.13,6.64,25.82,16.74,35.57,16.45,15.87,42.77,18.6,62,6.29.65-.42,1.22-1.46,1.26-2.24.14-3.22-.05-6.46.1-9.68.08-1.82-.49-2.76-2.18-3.59-12.86-6.32-25.67-12.75-38.48-19.17-4.1-2.05-6.41-6.3-5.77-10.45,1.19-7.66,8.56-11.19,15.79-7.56,9.37,4.7,18.75,9.4,28.13,14.09.75.37,1.51.72,2.46,1.17v-2.84c0-13.87-.07-27.74.08-41.61.02-2.15.64-4.56,1.74-6.39,2.39-3.99,7.12-5.57,11.28-4.32,4.52,1.36,7.48,5.35,7.5,10.2.03,7.13,0,14.27,0,21.78Z"/>
    </g>
  </g>
</svg>