<svg width="67" height="67" viewBox="0 0 67 67" fill="none" xmlns="http://www.w3.org/2000/svg">
<path d="M49.3684 9.80269C46.2637 9.80033 43.2166 10.6028 40.5526 12.1242C38.6211 7.89427 35.2293 4.42325 30.9418 2.28916C26.6543 0.155076 21.7301 -0.513288 16.9889 0.395369C12.2478 1.30403 7.97603 3.73486 4.88485 7.2831C1.79368 10.8313 0.0697046 15.2828 0 19.8963V33.3545C0.00506323 38.1217 1.77813 42.7333 5.0052 46.3727C8.23227 50.0121 12.7051 52.4445 17.6316 53.239V63.6354C17.6316 64.5278 18.0031 65.3836 18.6644 66.0145C19.3257 66.6455 20.2227 67 21.1579 67C22.0931 67 22.9901 66.6455 23.6514 66.0145C24.3127 65.3836 24.6842 64.5278 24.6842 63.6354V53.239C28.2766 52.6442 31.6506 51.1851 34.4874 48.9997C35.7463 50.9276 37.4014 52.5922 39.3529 53.8933C41.3044 55.1943 43.5118 56.1048 45.8421 56.5699V63.6354C45.8421 64.5278 46.2136 65.3836 46.8749 66.0145C47.5363 66.6455 48.4332 67 49.3684 67C50.3037 67 51.2006 66.6455 51.8619 66.0145C52.5232 65.3836 52.8947 64.5278 52.8947 63.6354V56.5699C56.8772 55.7943 60.4566 53.7296 63.0269 50.7254C65.5973 47.7211 67.0008 43.9618 67 40.0836V26.6254C67 22.1638 65.1424 17.8848 61.8358 14.73C58.5293 11.5751 54.0446 9.80269 49.3684 9.80269ZM31.7368 26.6254V40.0836C31.7706 40.7261 31.8412 41.3663 31.9484 42.0014C30.0625 44.1445 27.5233 45.6734 24.6842 46.3753V36.7191C24.6842 35.8267 24.3127 34.9709 23.6514 34.34C22.9901 33.709 22.0931 33.3545 21.1579 33.3545C20.2227 33.3545 19.3257 33.709 18.6644 34.34C18.0031 34.9709 17.6316 35.8267 17.6316 36.7191V46.3417C14.6114 45.5977 11.9348 43.9194 10.0207 41.5695C8.10654 39.2196 7.06276 36.3307 7.05263 33.3545V19.8963C7.04343 17.2301 7.86444 14.6214 9.41151 12.4011C10.9586 10.1808 13.162 8.44898 15.7422 7.42532C18.3224 6.40165 21.1632 6.13228 23.9041 6.65138C26.645 7.17048 29.1625 8.45467 31.1374 10.341C33.0463 12.1869 34.3459 14.5265 34.8753 17.0701C32.8368 19.8774 31.7422 23.2102 31.7368 26.6254ZM59.9474 40.0836C59.9412 42.1661 59.2602 44.1958 57.9975 45.8944C56.7349 47.593 54.9525 48.8775 52.8947 49.5716V36.7191C52.8947 35.8267 52.5232 34.9709 51.8619 34.34C51.2006 33.709 50.3037 33.3545 49.3684 33.3545C48.4332 33.3545 47.5363 33.709 46.8749 34.34C46.2136 34.9709 45.8421 35.8267 45.8421 36.7191V49.5716C43.7843 48.8775 42.0019 47.593 40.7393 45.8944C39.4767 44.1958 38.7956 42.1661 38.7895 40.0836V26.6254C38.7895 23.9484 39.904 21.3811 41.888 19.4881C43.8719 17.5952 46.5627 16.5318 49.3684 16.5318C52.1741 16.5318 54.8649 17.5952 56.8489 19.4881C58.8328 21.3811 59.9474 23.9484 59.9474 26.6254V40.0836Z" fill="white"/>
</svg>
