<svg width="82" height="67" viewBox="0 0 82 67" fill="none" xmlns="http://www.w3.org/2000/svg">
<path d="M26.3321 23.3007H28.8049L29.262 23.2949V23.3007H45.6694C46.0659 22.5277 46.521 21.7936 47.0347 21.0983L41.4562 14.2521C40.0279 12.4996 39.3358 10.2663 39.5245 8.01842C39.7131 5.77059 40.7679 3.68215 42.4685 2.18933C44.1691 0.696516 46.384 -0.0852312 48.6506 0.00738165C50.9172 0.0999945 53.0602 1.0598 54.6319 2.68633L75.6479 24.4194C78.41 26.6989 80.404 29.7644 81.3622 33.204C82.3203 36.6436 82.1965 40.2924 81.0075 43.66C79.8185 47.0276 77.6212 49.9526 74.711 52.0418C71.8008 54.1311 68.3171 55.2844 64.7283 55.3469C64.7283 58.4375 63.4935 61.4015 61.2957 63.5869C59.0978 65.7723 56.1169 67 53.0087 67H26.3321C22.4468 67 18.7207 65.4653 15.9734 62.7336C13.2261 60.0019 11.6827 56.2968 11.6827 52.4336V46.3157C8.13357 45.5847 4.98278 43.5719 2.83885 40.6661C0.694928 37.7602 -0.290024 34.1675 0.0742297 30.5819C0.438483 26.9962 2.1261 23.6719 4.81114 21.2511C7.49617 18.8303 10.9881 17.4847 14.6126 17.4742C16.8872 17.4719 19.131 17.9974 21.1655 19.0089C23.2001 20.0204 24.9691 21.49 26.3321 23.3007ZM50.4099 6.72414C49.8873 6.17296 49.1698 5.84536 48.4088 5.81052C47.6478 5.77569 46.9029 6.03636 46.3316 6.53747C45.7604 7.03858 45.4073 7.74088 45.3472 8.49601C45.287 9.25113 45.5244 9.99994 46.0092 10.5842L54.8223 21.4013L52.8945 23.2541C51.7529 24.3518 50.8833 25.6982 50.3542 27.1871L49.6628 29.1273H28.8899C25.8476 29.2234 22.9623 30.4926 20.8445 32.6664C18.7267 34.8402 17.5424 37.7481 17.5425 40.7746V52.4336C17.5425 54.7515 18.4685 56.9745 20.1169 58.6136C21.7653 60.2526 24.001 61.1734 26.3321 61.1734H40.9815V59.7168C40.9815 57.7852 40.2098 55.9326 38.8362 54.5668C37.4625 53.2009 35.5995 52.4336 33.6568 52.4336H29.262C28.4849 52.4336 27.7397 52.1266 27.1903 51.5803C26.6408 51.034 26.3321 50.2929 26.3321 49.5203C26.3321 48.7476 26.6408 48.0066 27.1903 47.4603C27.7397 46.9139 28.4849 46.607 29.262 46.607H33.6568C37.1536 46.607 40.5071 47.9882 42.9797 50.4468C45.4522 52.9053 46.8413 56.2399 46.8413 59.7168V61.1734H53.0087C54.5628 61.1734 56.0533 60.5596 57.1522 59.4669C58.2511 58.3742 58.8685 56.8922 58.8685 55.3469V48.7133L62.3199 49.3338C62.9996 49.4581 63.6999 49.5203 64.4206 49.5203C66.8423 49.5206 69.2045 48.775 71.1826 47.386C73.1608 45.997 74.6576 44.0328 75.4672 41.7634C76.2769 39.4941 76.3597 37.0311 75.7043 34.713C75.0488 32.395 73.6873 30.3358 71.8069 28.8185L71.6692 28.7078L50.4099 6.72414ZM11.6885 40.2852C11.7729 37.2864 12.632 34.3597 14.1832 31.7866C15.7344 29.2136 17.9254 27.0808 20.5456 25.5935C19.5837 24.7205 18.4388 24.0709 17.1936 23.6918C15.9483 23.3126 14.6339 23.2134 13.3454 23.4011C12.0568 23.5889 10.8264 24.0591 9.74291 24.7776C8.65947 25.4961 7.75013 26.445 7.08065 27.5557C6.41118 28.6664 5.99829 29.9112 5.87184 31.2C5.74539 32.4888 5.90854 33.7895 6.3495 35.0079C6.79046 36.2263 7.4982 37.3321 8.42155 38.2453C9.34491 39.1585 10.4608 39.8533 11.6885 40.2852Z" fill="white"/>
</svg>
