<svg width="67" height="67" viewBox="0 0 67 67" fill="none" xmlns="http://www.w3.org/2000/svg">
<path d="M35.6833 2.5125V8.375H41.4373C42.4599 8.375 43.4592 8.7301 44.3041 9.39005L49.2482 13.2559C49.3705 13.3497 49.5065 13.3978 49.656 13.4H61.6069C62.1864 13.4 62.7422 13.6647 63.1519 14.1359C63.5617 14.6071 63.7919 15.2461 63.7919 15.9125C63.7919 16.5789 63.5617 17.2179 63.1519 17.6891C62.7422 18.1603 62.1864 18.425 61.6069 18.425H57.0095L66.816 44.153C67.0122 44.6674 67.0528 45.2426 66.9314 45.7867C66.8099 46.3308 66.5334 46.8124 66.146 47.1546C65.8546 47.4025 65.5536 47.6325 65.2428 47.8447C64.5053 48.3548 63.736 48.8016 62.9412 49.1813C60.306 50.4485 57.4769 51.0966 54.6205 51.0875C51.7649 51.1018 48.9361 50.4546 46.3027 49.1847C45.5079 48.8038 44.7386 48.3559 44.0011 47.8447C43.6912 47.6404 43.3925 47.4144 43.1067 47.168L43.0921 47.1546C42.7047 46.8124 42.4282 46.3308 42.3067 45.7867C42.1853 45.2426 42.2259 44.6674 42.4221 44.153L52.2344 18.425H49.6531C48.6305 18.425 47.6312 18.0699 46.7863 17.4099L41.8423 13.5441C41.7219 13.4503 41.5798 13.4001 41.4344 13.4H35.6833V61.975H48.7558C49.3353 61.975 49.8911 62.2397 50.3009 62.7109C50.7107 63.1821 50.9409 63.8211 50.9409 64.4875C50.9409 65.1539 50.7107 65.7929 50.3009 66.2641C49.8911 66.7353 49.3353 67 48.7558 67H18.2408C17.6612 67 17.1055 66.7353 16.6957 66.2641C16.2859 65.7929 16.0557 65.1539 16.0557 64.4875C16.0557 63.8211 16.2859 63.1821 16.6957 62.7109C17.1055 62.2397 17.6612 61.975 18.2408 61.975H31.3132V13.4H25.5592C25.4138 13.4001 25.2718 13.4503 25.1514 13.5441L20.2102 17.4099C19.3653 18.0699 18.366 18.425 17.3434 18.425H14.7621L24.5745 44.153C24.7644 44.6528 24.8077 45.2101 24.6979 45.7408C24.588 46.2714 24.331 46.7465 23.9656 47.0943C23.7325 47.3121 23.4995 47.5164 23.0625 47.8414C22.3261 48.3908 21.5548 48.8757 20.755 49.2919C18.1244 50.6688 15.2664 51.3773 12.3761 51.3689C9.48569 51.3773 6.62775 50.6688 3.99709 49.2919C3.19737 48.8757 2.42605 48.3908 1.68967 47.8414C1.37956 47.6111 1.07914 47.364 0.789429 47.101C0.42617 46.7499 0.170629 46.2738 0.0604762 45.7431C-0.0496769 45.2123 -0.00861353 44.6549 0.177613 44.153L9.98707 18.425H5.39262C4.8131 18.425 4.25733 18.1603 3.84755 17.6891C3.43777 17.2179 3.20756 16.5789 3.20756 15.9125C3.20756 15.2461 3.43777 14.6071 3.84755 14.1359C4.25733 13.6647 4.8131 13.4 5.39262 13.4H17.3434C17.491 13.4 17.628 13.352 17.7542 13.2559L22.6924 9.39005C23.5373 8.72675 24.5395 8.375 25.5622 8.375H31.3132V2.5125C31.3132 1.84614 31.5434 1.20708 31.9532 0.735894C32.363 0.264709 32.9188 0 33.4983 0C34.0778 0 34.6336 0.264709 35.0434 0.735894C35.4531 1.20708 35.6833 1.84614 35.6833 2.5125ZM4.92647 44.2133C7.21884 45.6187 9.77821 46.3496 12.3761 46.3406C14.9739 46.3496 17.5333 45.6187 19.8257 44.2133L12.3761 24.6828L4.92647 44.2133ZM47.2 44.1329C47.4389 44.2669 47.706 44.4076 48.0012 44.555C49.5453 45.302 51.8032 46.0625 54.6205 46.0625C57.1888 46.0704 59.7255 45.4108 62.041 44.1329L54.6205 24.6794L47.2 44.1329Z" fill="white"/>
</svg>
