<svg width="54" height="75" viewBox="0 0 54 75" fill="none" xmlns="http://www.w3.org/2000/svg">
<path d="M44.9207 72.3409V67.8708C44.9193 64.2684 45.6765 60.7138 47.134 57.4813L48.0634 55.4187C49.9346 51.2627 50.9081 46.6943 50.9092 42.0642V24.2256C50.9092 21.4801 48.897 19.2503 46.4186 19.2503C43.9369 19.2503 41.9248 21.4801 41.9248 24.2256M17.9707 72.3409V67.8848C17.9643 63.9024 14.154 61.8747 11.0368 59.8923C7.47244 57.6241 4.61711 53.9623 3.29804 49.5584C2.4325 46.6597 4.8311 44.1407 7.69921 44.1407C10.5673 44.1407 13.001 46.8722 15.0771 48.9661C15.351 49.246 15.6471 49.499 15.9618 49.7222C20.0116 52.5408 25.4188 49.1508 25.4188 44.1407C25.4188 39.1306 20.0116 35.7405 15.9618 38.5557C14.9525 39.134 14.1189 39.9005 13.4546 40.6984C11.9439 42.5101 9.95408 44.1407 7.67365 44.1407C4.75764 44.1407 2.31113 41.5729 3.17667 38.6184C4.27859 34.9097 6.43209 31.6789 9.32645 29.3919C12.2208 27.105 15.7064 25.8803 19.2802 25.8945C22.4645 25.8945 23.9624 26.877 23.9624 26.877L17.1116 9.44261C15.9139 6.20589 18.0601 2.65909 21.2189 2.65909C22.8989 2.65909 24.4351 3.71128 25.1889 5.37668L32.9436 22.5672M32.9436 22.5672L34.3745 25.7377M32.9436 22.5672V10.9547C32.9436 8.20576 34.9558 5.97594 37.4342 5.97594C39.9159 5.97594 41.9248 8.20576 41.9248 10.9547V24.2291V35.8416" stroke="white" stroke-width="5" stroke-linecap="round" stroke-linejoin="round"/>
</svg>
