<svg width="54" height="46" viewBox="0 0 54 46" fill="none" xmlns="http://www.w3.org/2000/svg">
<path d="M27 43.9676C23.3486 41.4175 19.1216 39.7926 14.6892 39.2456C11.5455 38.612 8.34275 38.3127 5.13514 38.3527C4.7247 38.3562 4.31763 38.2791 3.93741 38.1257C3.55719 37.9723 3.21136 37.7457 2.91988 37.459C2.62839 37.1723 2.39703 36.8312 2.23915 36.4553C2.08126 36.0794 1.99998 35.6762 2 35.269L2.05676 6.0601C2.05503 5.27638 2.35415 4.52141 2.89332 3.94863C3.43248 3.37585 4.17125 3.02824 4.95946 2.97645C8.22472 2.91179 11.4873 3.20132 14.6892 3.83987C19.1169 4.4064 23.3406 6.02742 27 8.56456M27 43.9676V8.56456M27 43.9676C30.6514 41.4175 34.8784 39.7926 39.3108 39.2456C42.4545 38.612 45.6573 38.3127 48.8649 38.3527C49.2753 38.3562 49.6824 38.2791 50.0626 38.1257C50.4428 37.9723 50.7886 37.7457 51.0801 37.459C51.3716 37.1723 51.603 36.8312 51.7609 36.4553C51.9187 36.0794 52 35.6762 52 35.269L51.9405 6.0601C51.9423 5.27681 51.6436 4.52221 51.105 3.9495C50.5664 3.37679 49.8283 3.02889 49.0405 2.97645C45.7753 2.91179 42.5127 3.20132 39.3108 3.83987C34.8831 4.4064 30.6594 6.02742 27 8.56456" stroke="white" stroke-width="4" stroke-linecap="round" stroke-linejoin="round"/>
</svg>
