<svg width="70" height="70" viewBox="0 0 70 70" fill="none" xmlns="http://www.w3.org/2000/svg">
<g clip-path="url(#clip0_88_799)">
<mask id="mask0_88_799" style="mask-type:luminance" maskUnits="userSpaceOnUse" x="0" y="0" width="70" height="70">
<path d="M0 0H70V70H0V0Z" fill="white"/>
</mask>
<g mask="url(#mask0_88_799)">
<path fill-rule="evenodd" clip-rule="evenodd" d="M6.65881 46.725C6.99316 48.9359 8.10773 50.9541 9.80091 52.4145C11.4941 53.875 13.654 54.6813 15.8901 54.6875C17.7845 54.6812 19.6319 54.0964 21.1848 53.0112C22.7377 51.926 23.922 50.3923 24.5791 48.6154C25.2362 46.8385 25.3348 44.9033 24.8617 43.0688C24.3886 41.2343 23.3663 39.5882 21.9317 38.3508C20.4971 37.1134 18.7188 36.3438 16.8347 36.1451C14.9507 35.9463 13.0509 36.3279 11.3897 37.2387C9.72854 38.1496 8.38528 39.5462 7.53978 41.2415C6.69428 42.9369 6.3869 44.8501 6.65881 46.725ZM15.9251 61.25H15.8594C12.1828 61.25 8.62037 59.973 5.78107 57.6372C2.94177 55.3014 1.00194 52.052 0.293181 48.4443C-0.3656 45.1812 0.0264963 41.7932 1.41318 38.7668L13.0376 13.0375C14.1026 10.6712 15.9694 8.75725 18.3084 7.63352C20.6474 6.50979 23.3082 6.24853 25.8211 6.89586C28.334 7.54318 30.5374 9.05746 32.0423 11.1714C33.5473 13.2853 34.2571 15.863 34.0463 18.4493L33.5694 24.5C34.5126 24.285 35.4919 24.285 36.4351 24.5L35.9538 18.4537C35.746 15.8693 36.4572 13.2944 37.962 11.183C39.4668 9.07157 41.6687 7.55911 44.1795 6.9122C46.6903 6.26528 49.3488 6.52543 51.6866 7.6468C54.0243 8.76816 55.8912 10.6788 56.9582 13.0418L68.5869 38.7668C69.9745 41.7945 70.3667 45.1842 69.7069 48.4487C68.9973 52.0556 67.0571 55.304 64.2178 57.6389C61.3786 59.9738 57.8167 61.2502 54.1407 61.25H54.0751C50.0714 61.2495 46.2149 59.741 43.2734 57.025C40.332 54.3089 38.5215 50.5846 38.2026 46.5937L37.4413 37.0737C36.7199 36.5918 35.8674 36.3442 35.0001 36.365C34.1327 36.3442 33.2802 36.5918 32.5588 37.0737L31.7976 46.5937C31.4786 50.5846 29.6681 54.3089 26.7267 57.025C23.7852 59.741 19.9287 61.2495 15.9251 61.25ZM15.8594 29.5312C19.8407 29.5312 23.4807 31.0012 26.2676 33.425L27.5057 17.9287C27.5941 16.8824 27.3092 15.8386 26.7015 14.9823C26.0938 14.1259 25.2026 13.5124 24.1858 13.2503C23.169 12.9882 22.0923 13.0946 21.1464 13.5505C20.2005 14.0065 19.4466 14.7825 19.0182 15.7412L12.6438 29.8593C13.7032 29.6409 14.7777 29.5309 15.8594 29.5312ZM63.3413 46.725C63.6132 44.8501 63.3058 42.9369 62.4603 41.2415C61.6148 39.5462 60.2716 38.1496 58.6104 37.2387C56.9492 36.3279 55.0494 35.9463 53.1654 36.1451C51.2813 36.3438 49.503 37.1134 48.0684 38.3508C46.6338 39.5882 45.6115 41.2343 45.1384 43.0688C44.6653 44.9033 44.7639 46.8385 45.421 48.6154C46.0781 50.3923 47.2624 51.926 48.8153 53.0112C50.3682 54.0964 52.2156 54.6812 54.1101 54.6875C56.3461 54.6813 58.506 53.875 60.1992 52.4145C61.8924 50.9541 63.007 48.9359 63.3413 46.725ZM50.9776 15.7412L57.3607 29.8593C54.9681 29.3585 52.4919 29.4199 50.1271 30.0386C47.7622 30.6573 45.5733 31.8165 43.7326 33.425L42.4944 17.9287C42.4061 16.8824 42.691 15.8386 43.2986 14.9823C43.9063 14.1259 44.7975 13.5124 45.8143 13.2503C46.8311 12.9882 47.9079 13.0946 48.8537 13.5505C49.7996 14.0065 50.5492 14.7825 50.9776 15.7412Z" fill="#CDD0D3"/>
</g>
</g>
<defs>
<clipPath id="clip0_88_799">
<rect width="70" height="70" fill="white"/>
</clipPath>
</defs>
</svg>
