<svg width="44" height="46" viewBox="0 0 44 46" fill="none" xmlns="http://www.w3.org/2000/svg">
<path d="M42 9.00201H2M38.0776 14.8353L36.9953 30.9353C36.5788 37.128 36.3718 40.2243 34.3365 42.112C32.3012 44.002 29.1694 44.002 22.9106 44.002H21.0894C14.8306 44.002 11.6988 44.002 9.66353 42.112C7.62824 40.2243 7.41882 37.128 7.00471 30.9353L5.92235 14.8353M16.1176 20.6687L17.2941 32.3353M27.8824 20.6687L26.7059 32.3353" stroke="white" stroke-width="3.5" stroke-linecap="round"/>
<path d="M9.05884 9H9.31766C10.2646 8.97601 11.1822 8.66918 11.9504 8.11966C12.7187 7.57014 13.3018 6.8035 13.6235 5.92L13.7035 5.67967L13.9318 5.00067C14.1271 4.41967 14.2259 4.13033 14.3553 3.883C14.6099 3.39858 14.9753 2.97998 15.4223 2.6607C15.8693 2.34143 16.3854 2.13034 16.9294 2.04433C17.2047 2 17.513 2 18.1294 2H25.8706C26.4871 2 26.7953 2 27.0706 2.04433C27.6146 2.13034 28.1307 2.34143 28.5777 2.6607C29.0247 2.97998 29.3901 3.39858 29.6447 3.883C29.7741 4.13033 29.873 4.41967 30.0683 5.00067L30.2965 5.67967C30.5947 6.66264 31.2113 7.52069 32.051 8.12094C32.8907 8.7212 33.9065 9.03017 34.9412 9" stroke="white" stroke-width="3.5"/>
</svg>
