<svg width="44" height="44" viewBox="0 0 44 44" fill="none" xmlns="http://www.w3.org/2000/svg">
<circle cx="22" cy="22" r="20.25" stroke="white" stroke-width="3.5"/>
<path d="M26.7143 22C26.7143 24.6036 24.6037 26.7143 22.0001 26.7143C19.3964 26.7143 17.2858 24.6036 17.2858 22C17.2858 19.3964 19.3964 17.2857 22.0001 17.2857C24.6037 17.2857 26.7143 19.3964 26.7143 22Z" fill="white"/>
<path d="M18.5539 22.3032C19.335 23.0842 20.6013 23.0842 21.3824 22.3032C22.1634 21.5221 22.1634 20.2558 21.3824 19.4747L18.5539 22.3032ZM5.98251 9.73174L18.5539 22.3032L21.3824 19.4747L8.81094 6.90331L5.98251 9.73174Z" fill="white"/>
<path d="M20 9.42857C20 10.5331 20.8954 11.4286 22 11.4286C23.1046 11.4286 24 10.5331 24 9.42857H20ZM20 3.14286V9.42857H24V3.14286H20Z" fill="white"/>
<path d="M13.7161 33.1124C14.4971 32.3314 14.4971 31.065 13.7161 30.284C12.935 29.5029 11.6687 29.5029 10.8876 30.284L13.7161 33.1124ZM9.27139 37.5571L13.7161 33.1124L10.8876 30.284L6.44296 34.7286L9.27139 37.5571Z" fill="white"/>
<path d="M33.1968 29.352C32.3785 28.61 31.1137 28.6719 30.3717 29.4901C29.6297 30.3084 29.6915 31.5732 30.5098 32.3152L33.1968 29.352ZM37.8531 33.5744L33.1968 29.352L30.5098 32.3152L35.1662 36.5375L37.8531 33.5744Z" fill="white"/>
<path d="M30.1119 12.3066C29.3221 13.0787 29.3078 14.345 30.0799 15.1348C30.8521 15.9247 32.1183 15.939 32.9082 15.1668L30.1119 12.3066ZM34.6066 7.9125L30.1119 12.3066L32.9082 15.1668L37.4029 10.7728L34.6066 7.9125Z" fill="white"/>
<path d="M24 34.5714C24 33.4669 23.1046 32.5714 22 32.5714C20.8954 32.5714 20 33.4669 20 34.5714H24ZM24 40.8571V34.5714H20V40.8571H24Z" fill="white"/>
<path d="M34.5715 20C33.4669 20 32.5715 20.8954 32.5715 22C32.5715 23.1046 33.4669 24 34.5715 24V20ZM40.8572 20H34.5715V24H40.8572V20Z" fill="white"/>
<path d="M9.42854 24C10.5331 24 11.4285 23.1046 11.4285 22C11.4285 20.8954 10.5331 20 9.42854 20V24ZM3.14282 24H9.42854V20H3.14282L3.14282 24Z" fill="white"/>
</svg>
