<svg width="37" height="46" viewBox="0 0 37 46" fill="none" xmlns="http://www.w3.org/2000/svg">
<path d="M35 28.88V23C35 20.995 34.2177 19.072 32.8253 17.6543C31.4328 16.2365 29.5442 15.44 27.575 15.44H24.275C23.6186 15.44 22.9891 15.1745 22.5249 14.7019C22.0608 14.2293 21.8 13.5883 21.8 12.92V9.56C21.8 7.55496 21.0177 5.63205 19.6253 4.21427C18.2328 2.7965 16.3442 2 14.375 2H10.25M21.7582 32.1974L25.1 35.6M21.7582 32.1974C22.2945 31.6514 22.7202 31.0036 23.0104 30.2902C23.3006 29.5768 23.45 28.8122 23.45 28.04C23.45 26.4805 22.8416 24.9849 21.7585 23.8822C20.6755 22.7795 19.2066 22.16 17.675 22.16C16.1434 22.16 14.6745 22.7795 13.5915 23.8822C12.5084 24.9849 11.9 26.4805 11.9 28.04C11.9 28.8122 12.0494 29.5768 12.3396 30.2902C12.6298 31.0036 13.0552 31.6518 13.5915 32.1978C14.1277 32.7438 14.7643 33.1769 15.465 33.4724C16.1657 33.7679 16.9166 33.92 17.675 33.92C18.4334 33.92 19.1843 33.7679 19.885 33.4724C20.5857 33.1769 21.2219 32.7434 21.7582 32.1974ZM15.2 2H4.475C3.1088 2 2 3.12896 2 4.52V41.48C2 42.871 3.1088 44 4.475 44H32.525C33.8912 44 35 42.871 35 41.48V22.16C35 16.8132 32.9139 11.6855 29.2007 7.90473C25.4875 4.12399 20.4513 2 15.2 2Z" stroke="white" stroke-width="3.5" stroke-linecap="round" stroke-linejoin="round"/>
</svg>
