<svg width="49" height="49" viewBox="0 0 49 49" fill="none" xmlns="http://www.w3.org/2000/svg">
<mask id="path-1-outside-1_735_3959" maskUnits="userSpaceOnUse" x="9.13635" y="0" width="31" height="31" fill="black">
<rect fill="white" x="9.13635" width="31" height="31"/>
<path fill-rule="evenodd" clip-rule="evenodd" d="M36.5359 10.4131L36.4184 10.3217C36.1925 8.60617 35.3713 6.81886 34.0892 5.31225C32.0069 2.86433 28.6124 1 24.0691 1C19.591 1 16.4355 3.04189 14.5738 5.57336C13.7049 6.74412 13.0842 8.08002 12.7499 9.49917C12.6892 9.76493 12.6404 10.0333 12.6037 10.3034L12.4627 10.4118C10.9953 11.5489 9.91818 12.9276 10.1741 14.5086C10.4195 16.0361 11.8008 16.9656 13.0855 17.5336C13.4127 17.678 13.7639 17.8138 14.139 17.9409C13.9503 19.4126 14.0773 20.9077 14.5115 22.3265C14.9458 23.7453 15.6774 25.0553 16.6576 26.1692C17.6378 27.2831 18.844 28.1754 20.1961 28.7867C21.5481 29.3979 23.0149 29.714 24.4986 29.714C25.9824 29.714 27.4492 29.3979 28.8012 28.7867C30.1532 28.1754 31.3595 27.2831 32.3397 26.1692C33.3199 25.0553 34.0515 23.7453 34.4857 22.3265C34.92 20.9077 35.047 19.4126 34.8582 17.9409C35.2333 17.8147 35.5845 17.6789 35.9118 17.5336C37.1965 16.9656 38.5764 16.0361 38.8232 14.5086C39.0791 12.9276 38.002 11.5489 36.5345 10.4118M15.2879 12.3205C15.1182 11.8322 15.0738 11.0476 15.2945 10.0775C15.5112 9.131 15.9603 8.09308 16.6653 7.13219V10.7917C16.6653 11.1379 16.8028 11.47 17.0477 11.7148C17.2925 11.9597 17.6246 12.0972 17.9709 12.0972C18.3171 12.0972 18.6492 11.9597 18.894 11.7148C19.1389 11.47 19.2764 11.1379 19.2764 10.7917V4.79917C20.3509 4.18817 21.6499 3.76125 23.1931 3.64375V8.18056C23.1931 8.52681 23.3306 8.85888 23.5755 9.10372C23.8203 9.34856 24.1524 9.48611 24.4986 9.48611C24.8449 9.48611 25.177 9.34856 25.4218 9.10372C25.6666 8.85888 25.8042 8.52681 25.8042 8.18056V3.72469C27.1828 3.89833 28.5138 4.34197 29.7209 5.03025V10.7917C29.7209 11.1379 29.8584 11.47 30.1032 11.7148C30.3481 11.9597 30.6802 12.0972 31.0264 12.0972C31.3727 12.0972 31.7047 11.9597 31.9496 11.7148C32.1944 11.47 32.332 11.1379 32.332 10.7917V7.29017C33.7746 9.13883 34.1127 11.1337 33.7067 12.3309C33.6061 12.6272 33.6153 12.9498 33.7326 13.2399C33.8499 13.53 34.0675 13.7683 34.3457 13.9115C34.6239 14.0546 34.9444 14.0931 35.2486 14.0199C35.5528 13.9466 35.8206 13.7666 36.0032 13.5124C36.2604 13.8715 36.2512 14.0621 36.246 14.0921C36.2291 14.1966 36.0293 14.6274 34.8556 15.147C34.3464 15.3716 33.7407 15.5739 33.0605 15.7528L33.0291 15.7606C32.2915 15.9512 31.4703 16.1131 30.5917 16.2463C28.9621 16.4811 27.3197 16.6163 25.6736 16.651C24.5421 16.6797 23.4099 16.6675 22.2792 16.6144C20.9787 16.5555 19.682 16.4318 18.3939 16.2437C17.5774 16.1253 16.7677 15.9641 15.9681 15.7606L15.9368 15.7528C15.3231 15.5995 14.7228 15.3969 14.1417 15.147C12.968 14.6274 12.7682 14.1966 12.7512 14.0921C12.746 14.0621 12.7369 13.8715 12.9941 13.5124C13.177 13.7677 13.4458 13.9485 13.7512 14.0216C14.0565 14.0948 14.3781 14.0554 14.6568 13.9108C14.9355 13.7661 15.1527 13.5258 15.2686 13.234C15.3846 12.9421 15.3914 12.6183 15.2879 12.3218M16.694 18.6002C17.1283 18.6846 17.5757 18.7617 18.0361 18.8313C19.4305 19.0402 20.9319 19.1733 22.4594 19.236C23.8209 19.2921 25.1842 19.2921 26.5457 19.236C28.0654 19.1733 29.5616 19.0402 30.9494 18.8313C31.4142 18.7634 31.8654 18.6864 32.3032 18.6002C32.3961 19.6814 32.2633 20.7701 31.9132 21.7973C31.5632 22.8244 31.0035 23.7677 30.2697 24.5672C29.5359 25.3666 28.6441 26.0049 27.6506 26.4416C26.6572 26.8783 25.5838 27.1037 24.4986 27.1037C23.4135 27.1037 22.3401 26.8783 21.3467 26.4416C20.3532 26.0049 19.4613 25.3666 18.7275 24.5672C17.9938 23.7677 17.4341 22.8244 17.084 21.7973C16.734 20.7701 16.6012 19.6814 16.694 18.6002Z"/>
</mask>
<path fill-rule="evenodd" clip-rule="evenodd" d="M36.5359 10.4131L36.4184 10.3217C36.1925 8.60617 35.3713 6.81886 34.0892 5.31225C32.0069 2.86433 28.6124 1 24.0691 1C19.591 1 16.4355 3.04189 14.5738 5.57336C13.7049 6.74412 13.0842 8.08002 12.7499 9.49917C12.6892 9.76493 12.6404 10.0333 12.6037 10.3034L12.4627 10.4118C10.9953 11.5489 9.91818 12.9276 10.1741 14.5086C10.4195 16.0361 11.8008 16.9656 13.0855 17.5336C13.4127 17.678 13.7639 17.8138 14.139 17.9409C13.9503 19.4126 14.0773 20.9077 14.5115 22.3265C14.9458 23.7453 15.6774 25.0553 16.6576 26.1692C17.6378 27.2831 18.844 28.1754 20.1961 28.7867C21.5481 29.3979 23.0149 29.714 24.4986 29.714C25.9824 29.714 27.4492 29.3979 28.8012 28.7867C30.1532 28.1754 31.3595 27.2831 32.3397 26.1692C33.3199 25.0553 34.0515 23.7453 34.4857 22.3265C34.92 20.9077 35.047 19.4126 34.8582 17.9409C35.2333 17.8147 35.5845 17.6789 35.9118 17.5336C37.1965 16.9656 38.5764 16.0361 38.8232 14.5086C39.0791 12.9276 38.002 11.5489 36.5345 10.4118M15.2879 12.3205C15.1182 11.8322 15.0738 11.0476 15.2945 10.0775C15.5112 9.131 15.9603 8.09308 16.6653 7.13219V10.7917C16.6653 11.1379 16.8028 11.47 17.0477 11.7148C17.2925 11.9597 17.6246 12.0972 17.9709 12.0972C18.3171 12.0972 18.6492 11.9597 18.894 11.7148C19.1389 11.47 19.2764 11.1379 19.2764 10.7917V4.79917C20.3509 4.18817 21.6499 3.76125 23.1931 3.64375V8.18056C23.1931 8.52681 23.3306 8.85888 23.5755 9.10372C23.8203 9.34856 24.1524 9.48611 24.4986 9.48611C24.8449 9.48611 25.177 9.34856 25.4218 9.10372C25.6666 8.85888 25.8042 8.52681 25.8042 8.18056V3.72469C27.1828 3.89833 28.5138 4.34197 29.7209 5.03025V10.7917C29.7209 11.1379 29.8584 11.47 30.1032 11.7148C30.3481 11.9597 30.6802 12.0972 31.0264 12.0972C31.3727 12.0972 31.7047 11.9597 31.9496 11.7148C32.1944 11.47 32.332 11.1379 32.332 10.7917V7.29017C33.7746 9.13883 34.1127 11.1337 33.7067 12.3309C33.6061 12.6272 33.6153 12.9498 33.7326 13.2399C33.8499 13.53 34.0675 13.7683 34.3457 13.9115C34.6239 14.0546 34.9444 14.0931 35.2486 14.0199C35.5528 13.9466 35.8206 13.7666 36.0032 13.5124C36.2604 13.8715 36.2512 14.0621 36.246 14.0921C36.2291 14.1966 36.0293 14.6274 34.8556 15.147C34.3464 15.3716 33.7407 15.5739 33.0605 15.7528L33.0291 15.7606C32.2915 15.9512 31.4703 16.1131 30.5917 16.2463C28.9621 16.4811 27.3197 16.6163 25.6736 16.651C24.5421 16.6797 23.4099 16.6675 22.2792 16.6144C20.9787 16.5555 19.682 16.4318 18.3939 16.2437C17.5774 16.1253 16.7677 15.9641 15.9681 15.7606L15.9368 15.7528C15.3231 15.5995 14.7228 15.3969 14.1417 15.147C12.968 14.6274 12.7682 14.1966 12.7512 14.0921C12.746 14.0621 12.7369 13.8715 12.9941 13.5124C13.177 13.7677 13.4458 13.9485 13.7512 14.0216C14.0565 14.0948 14.3781 14.0554 14.6568 13.9108C14.9355 13.7661 15.1527 13.5258 15.2686 13.234C15.3846 12.9421 15.3914 12.6183 15.2879 12.3218M16.694 18.6002C17.1283 18.6846 17.5757 18.7617 18.0361 18.8313C19.4305 19.0402 20.9319 19.1733 22.4594 19.236C23.8209 19.2921 25.1842 19.2921 26.5457 19.236C28.0654 19.1733 29.5616 19.0402 30.9494 18.8313C31.4142 18.7634 31.8654 18.6864 32.3032 18.6002C32.3961 19.6814 32.2633 20.7701 31.9132 21.7973C31.5632 22.8244 31.0035 23.7677 30.2697 24.5672C29.5359 25.3666 28.6441 26.0049 27.6506 26.4416C26.6572 26.8783 25.5838 27.1037 24.4986 27.1037C23.4135 27.1037 22.3401 26.8783 21.3467 26.4416C20.3532 26.0049 19.4613 25.3666 18.7275 24.5672C17.9938 23.7677 17.4341 22.8244 17.084 21.7973C16.734 20.7701 16.6012 19.6814 16.694 18.6002Z" fill="white"/>
<path d="M36.4184 10.3217L36.1209 10.3608L36.137 10.4829L36.2342 10.5585L36.4184 10.3217ZM34.0892 5.31225L33.8607 5.50663L33.8608 5.50667L34.0892 5.31225ZM14.5738 5.57336L14.8147 5.75216L14.8155 5.7511L14.5738 5.57336ZM12.7499 9.49917L12.4579 9.43038L12.4575 9.43236L12.7499 9.49917ZM12.6037 10.3034L12.7865 10.5413L12.8844 10.4661L12.901 10.3438L12.6037 10.3034ZM12.4627 10.4118L12.2799 10.1739L12.279 10.1746L12.4627 10.4118ZM10.1741 14.5086L10.4703 14.461L10.4702 14.4607L10.1741 14.5086ZM13.0855 17.5336L12.9642 17.8079L12.9643 17.808L13.0855 17.5336ZM14.139 17.9409L14.4366 17.9791L14.4678 17.7355L14.2353 17.6568L14.139 17.9409ZM34.8582 17.9409L34.7626 17.6566L34.5294 17.735L34.5607 17.9791L34.8582 17.9409ZM35.9118 17.5336L35.7905 17.2592L35.79 17.2594L35.9118 17.5336ZM38.8232 14.5086L38.527 14.4607L38.527 14.4607L38.8232 14.5086ZM15.2945 10.0775L15.002 10.0106L15.0019 10.011L15.2945 10.0775ZM16.6653 7.13219H16.9653V6.21617L16.4234 6.95473L16.6653 7.13219ZM19.2764 4.79917L19.1281 4.53838L18.9764 4.62465V4.79917H19.2764ZM23.1931 3.64375H23.4931V3.32004L23.1703 3.34462L23.1931 3.64375ZM25.8042 3.72469L25.8417 3.42705L25.5042 3.38454V3.72469H25.8042ZM29.7209 5.03025H30.0209V4.85597L29.8695 4.76964L29.7209 5.03025ZM32.332 7.29017L32.5685 7.1056L32.032 6.4181V7.29017H32.332ZM33.7067 12.3309L33.9908 12.4274L33.9908 12.4273L33.7067 12.3309ZM36.0032 13.5124L36.2471 13.3377L36.0036 12.9978L35.7596 13.3374L36.0032 13.5124ZM36.246 14.0921L35.9504 14.0407L35.9499 14.044L36.246 14.0921ZM34.8556 15.147L34.9767 15.4215L34.977 15.4213L34.8556 15.147ZM33.0605 15.7528L33.1332 16.0438L33.1368 16.0429L33.0605 15.7528ZM33.0291 15.7606L32.9564 15.4696L32.9541 15.4702L33.0291 15.7606ZM30.5917 16.2463L30.6344 16.5432L30.6366 16.5429L30.5917 16.2463ZM25.6736 16.651L25.6673 16.3511L25.666 16.3511L25.6736 16.651ZM22.2792 16.6144L22.2932 16.3148L22.2928 16.3148L22.2792 16.6144ZM18.3939 16.2437L18.4372 15.9468L18.4369 15.9468L18.3939 16.2437ZM15.9681 15.7606L16.0421 15.4699L16.0409 15.4696L15.9681 15.7606ZM15.9368 15.7528L16.0096 15.4617L16.0095 15.4617L15.9368 15.7528ZM14.1417 15.147L14.0202 15.4213L14.0231 15.4226L14.1417 15.147ZM12.7512 14.0921L13.0474 14.044L13.0468 14.0407L12.7512 14.0921ZM12.9941 13.5124L13.2379 13.3377L12.994 12.9973L12.7502 13.3377L12.9941 13.5124ZM16.694 18.6002L16.7513 18.3057L16.4237 18.242L16.3951 18.5745L16.694 18.6002ZM18.0361 18.8313L17.9913 19.1279L17.9917 19.128L18.0361 18.8313ZM22.4594 19.236L22.4717 18.9363L22.4717 18.9363L22.4594 19.236ZM26.5457 19.236L26.5581 19.5357H26.5581L26.5457 19.236ZM30.9494 18.8313L30.906 18.5344L30.9047 18.5346L30.9494 18.8313ZM32.3032 18.6002L32.6021 18.5745L32.5735 18.2412L32.2453 18.3058L32.3032 18.6002ZM36.72 10.1763L36.6025 10.0849L36.2342 10.5585L36.3517 10.6499L36.72 10.1763ZM36.7158 10.2825C36.4815 8.50324 35.6328 6.66323 34.3177 5.11783L33.8608 5.50667C35.1098 6.97449 35.9035 8.7091 36.1209 10.3608L36.7158 10.2825ZM34.3178 5.11787C32.178 2.60246 28.6998 0.7 24.0691 0.7V1.3C28.5251 1.3 31.8358 3.12621 33.8607 5.50663L34.3178 5.11787ZM24.0691 0.7C19.4897 0.7 16.2467 2.79221 14.3321 5.39562L14.8155 5.7511C16.6243 3.29157 19.6924 1.3 24.0691 1.3V0.7ZM14.3329 5.39457C13.4396 6.59813 12.8016 7.97147 12.4579 9.43039L13.0419 9.56795C13.3669 8.18858 13.9701 6.8901 14.8147 5.75216L14.3329 5.39457ZM12.4575 9.43236C12.3948 9.70684 12.3444 9.98399 12.3064 10.263L12.901 10.3438C12.9365 10.0826 12.9837 9.82302 13.0424 9.56598L12.4575 9.43236ZM12.4209 10.0655L12.2799 10.1739L12.6455 10.6496L12.7865 10.5413L12.4209 10.0655ZM12.279 10.1746C10.7985 11.3219 9.59343 12.7987 9.87793 14.5565L10.4702 14.4607C10.2429 13.0564 11.1921 11.7759 12.6465 10.6489L12.279 10.1746ZM9.87787 14.5562C10.1497 16.248 11.6677 17.2348 12.9642 17.8079L13.2068 17.2592C11.9339 16.6965 10.6893 15.8242 10.4703 14.461L9.87787 14.5562ZM12.9643 17.808C13.3005 17.9564 13.6601 18.0954 14.0428 18.225L14.2353 17.6568C13.8677 17.5322 13.5249 17.3996 13.2066 17.2591L12.9643 17.808ZM13.8415 17.9027C13.6473 19.4167 13.7779 20.9547 14.2247 22.4143L14.7984 22.2387C14.3766 20.8606 14.2533 19.4085 14.4366 17.9791L13.8415 17.9027ZM14.2247 22.4143C14.6714 23.8738 15.424 25.2215 16.4324 26.3674L16.8828 25.971C15.9308 24.8891 15.2202 23.6167 14.7984 22.2387L14.2247 22.4143ZM16.4324 26.3674C17.4407 27.5133 18.6816 28.4312 20.0725 29.06L20.3197 28.5133C19.0065 27.9196 17.8348 27.0529 16.8828 25.971L16.4324 26.3674ZM20.0725 29.06C21.4634 29.6888 22.9722 30.014 24.4986 30.014V29.414C23.0575 29.414 21.6329 29.107 20.3197 28.5133L20.0725 29.06ZM24.4986 30.014C26.025 30.014 27.5339 29.6888 28.9248 29.06L28.6776 28.5133C27.3644 29.107 25.9398 29.414 24.4986 29.414V30.014ZM28.9248 29.06C30.3156 28.4312 31.5566 27.5133 32.5649 26.3674L32.1145 25.971C31.1624 27.0529 29.9908 27.9196 28.6776 28.5133L28.9248 29.06ZM32.5649 26.3674C33.5732 25.2214 34.3258 23.8738 34.7726 22.4143L34.1989 22.2387C33.7771 23.6167 33.0665 24.8891 32.1145 25.971L32.5649 26.3674ZM34.7726 22.4143C35.2193 20.9547 35.35 19.4167 35.1558 17.9027L34.5607 17.9791C34.744 19.4085 34.6207 20.8606 34.1989 22.2387L34.7726 22.4143ZM34.9539 18.2252C35.337 18.0964 35.6969 17.9572 36.0336 17.8077L35.79 17.2594C35.4721 17.4006 35.1297 17.533 34.7626 17.6566L34.9539 18.2252ZM36.0331 17.8079C37.3298 17.2347 38.8461 16.2479 39.1194 14.5564L38.527 14.4607C38.3068 15.8243 37.0632 16.6966 35.7905 17.2592L36.0331 17.8079ZM39.1193 14.5565C39.4038 12.7987 38.1988 11.3219 36.7183 10.1746L36.3508 10.6489C37.8052 11.7759 38.7543 13.0564 38.527 14.4607L39.1193 14.5565ZM15.5713 12.222C15.4255 11.8024 15.3746 11.078 15.587 10.1441L15.0019 10.011C14.7731 11.0171 14.811 11.862 15.0046 12.419L15.5713 12.222ZM15.5869 10.1445C15.7945 9.23768 16.2265 8.2374 16.9072 7.30966L16.4234 6.95473C15.6941 7.94877 15.2278 9.02433 15.002 10.0106L15.5869 10.1445ZM16.3653 7.13219V10.7917H16.9653V7.13219H16.3653ZM16.3653 10.7917C16.3653 11.2175 16.5345 11.6259 16.8356 11.927L17.2598 11.5027C17.0712 11.3141 16.9653 11.0584 16.9653 10.7917H16.3653ZM16.8356 11.927C17.1367 12.2281 17.545 12.3972 17.9709 12.3972V11.7972C17.7042 11.7972 17.4484 11.6913 17.2598 11.5027L16.8356 11.927ZM17.9709 12.3972C18.3967 12.3972 18.8051 12.2281 19.1062 11.927L18.6819 11.5027C18.4933 11.6913 18.2375 11.7972 17.9709 11.7972V12.3972ZM19.1062 11.927C19.4073 11.6259 19.5764 11.2175 19.5764 10.7917H18.9764C18.9764 11.0584 18.8705 11.3141 18.6819 11.5027L19.1062 11.927ZM19.5764 10.7917V4.79917H18.9764V10.7917H19.5764ZM19.4247 5.05995C20.46 4.47124 21.716 4.05708 23.2159 3.94288L23.1703 3.34462C21.5838 3.46542 20.2418 3.90509 19.1281 4.53838L19.4247 5.05995ZM22.8931 3.64375V8.18056H23.4931V3.64375H22.8931ZM22.8931 8.18056C22.8931 8.60638 23.0622 9.01476 23.3633 9.31586L23.7876 8.89159C23.599 8.70301 23.4931 8.44725 23.4931 8.18056H22.8931ZM23.3633 9.31586C23.6644 9.61696 24.0728 9.78611 24.4986 9.78611V9.18611C24.2319 9.18611 23.9762 9.08017 23.7876 8.89159L23.3633 9.31586ZM24.4986 9.78611C24.9245 9.78611 25.3328 9.61696 25.6339 9.31586L25.2097 8.89159C25.0211 9.08017 24.7653 9.18611 24.4986 9.18611V9.78611ZM25.6339 9.31586C25.935 9.01476 26.1042 8.60638 26.1042 8.18056H25.5042C25.5042 8.44725 25.3982 8.70301 25.2097 8.89159L25.6339 9.31586ZM26.1042 8.18056V3.72469H25.5042V8.18056H26.1042ZM25.7667 4.02234C27.1062 4.19105 28.3994 4.62211 29.5723 5.29086L29.8695 4.76964C28.6281 4.06183 27.2594 3.60561 25.8417 3.42705L25.7667 4.02234ZM29.4209 5.03025V10.7917H30.0209V5.03025H29.4209ZM29.4209 10.7917C29.4209 11.2175 29.59 11.6259 29.8911 11.927L30.3154 11.5027C30.1268 11.3141 30.0209 11.0584 30.0209 10.7917H29.4209ZM29.8911 11.927C30.1922 12.2281 30.6006 12.3972 31.0264 12.3972V11.7972C30.7597 11.7972 30.504 11.6913 30.3154 11.5027L29.8911 11.927ZM31.0264 12.3972C31.4522 12.3972 31.8606 12.2281 32.1617 11.927L31.7374 11.5027C31.5489 11.6913 31.2931 11.7972 31.0264 11.7972V12.3972ZM32.1617 11.927C32.4628 11.6259 32.632 11.2175 32.632 10.7917H32.032C32.032 11.0584 31.926 11.3141 31.7374 11.5027L32.1617 11.927ZM32.632 10.7917V7.29017H32.032V10.7917H32.632ZM32.0955 7.47473C33.4971 9.27083 33.7865 11.1616 33.4226 12.2346L33.9908 12.4273C34.439 11.1059 34.0521 9.00684 32.5685 7.1056L32.0955 7.47473ZM33.4226 12.2345C33.2989 12.5989 33.3102 12.9956 33.4545 13.3523L34.0107 13.1275C33.9204 12.904 33.9133 12.6556 33.9908 12.4274L33.4226 12.2345ZM33.4545 13.3523C33.5987 13.7091 33.8663 14.0022 34.2085 14.1783L34.4829 13.6447C34.2686 13.5345 34.1011 13.3509 34.0107 13.1275L33.4545 13.3523ZM34.2085 14.1783C34.5506 14.3543 34.9447 14.4016 35.3188 14.3115L35.1784 13.7282C34.944 13.7846 34.6973 13.755 34.4829 13.6447L34.2085 14.1783ZM35.3188 14.3115C35.6929 14.2215 36.0222 14 36.2468 13.6875L35.7596 13.3374C35.6189 13.5331 35.4127 13.6718 35.1784 13.7282L35.3188 14.3115ZM35.7593 13.6872C35.9888 14.0074 35.9371 14.1173 35.9505 14.0407L36.5416 14.1435C36.5653 14.0069 36.532 13.7355 36.2471 13.3377L35.7593 13.6872ZM35.9499 14.044C35.9562 14.0052 35.953 14.0828 35.7798 14.2447C35.6124 14.401 35.3004 14.622 34.7342 14.8727L34.977 15.4213C35.5845 15.1524 35.9592 14.8982 36.1894 14.6831C36.4137 14.4735 36.5189 14.2835 36.5421 14.1402L35.9499 14.044ZM34.7345 14.8725C34.2438 15.0889 33.6539 15.2865 32.9842 15.4626L33.1368 16.0429C33.8274 15.8613 34.4491 15.6542 34.9767 15.4215L34.7345 14.8725ZM32.9877 15.4617L32.9564 15.4696L33.1019 16.0517L33.1332 16.0438L32.9877 15.4617ZM32.9541 15.4702C32.2284 15.6577 31.4175 15.8177 30.5467 15.9497L30.6366 16.5429C31.5231 16.4085 32.3546 16.2448 33.1042 16.0511L32.9541 15.4702ZM30.5489 15.9493C28.9314 16.1824 27.3011 16.3166 25.6673 16.3511L25.68 16.9509C27.3382 16.9159 28.9928 16.7798 30.6344 16.5432L30.5489 15.9493ZM25.666 16.3511C24.5417 16.3796 23.4167 16.3675 22.2932 16.3148L22.2651 16.9141C23.403 16.9675 24.5425 16.9798 25.6812 16.9509L25.666 16.3511ZM22.2928 16.3148C21.0023 16.2563 19.7155 16.1335 18.4372 15.9468L18.3505 16.5405C19.6485 16.73 20.9552 16.8547 22.2656 16.9141L22.2928 16.3148ZM18.4369 15.9468C17.6308 15.83 16.8315 15.6708 16.0421 15.4699L15.8941 16.0513C16.7039 16.2574 17.5239 16.4207 18.3508 16.5406L18.4369 15.9468ZM16.0409 15.4696L16.0096 15.4617L15.864 16.0438L15.8954 16.0517L16.0409 15.4696ZM16.0095 15.4617C15.4114 15.3124 14.8264 15.1149 14.2602 14.8714L14.0231 15.4226C14.6191 15.6789 15.2347 15.8867 15.8641 16.0438L16.0095 15.4617ZM14.2631 14.8727C13.6969 14.622 13.3848 14.401 13.2175 14.2447C13.0442 14.0828 13.041 14.0052 13.0474 14.044L12.4551 14.1402C12.4784 14.2835 12.5836 14.4735 12.8079 14.6831C13.0381 14.8982 13.4128 15.1524 14.0202 15.4213L14.2631 14.8727ZM13.0468 14.0407C13.0601 14.1173 13.0085 14.0074 13.238 13.6872L12.7502 13.3377C12.4653 13.7355 12.4319 14.0069 12.4557 14.1435L13.0468 14.0407ZM12.7502 13.6872C12.9752 14.0011 13.3057 14.2234 13.6813 14.3134L13.821 13.7299C13.5858 13.6735 13.3788 13.5343 13.2379 13.3377L12.7502 13.6872ZM13.6813 14.3134C14.0568 14.4034 14.4522 14.3549 14.795 14.177L14.5186 13.6445C14.3039 13.7559 14.0563 13.7862 13.821 13.7299L13.6813 14.3134ZM14.795 14.177C15.1377 13.9991 15.4049 13.7036 15.5475 13.3447L14.9898 13.1232C14.9006 13.348 14.7332 13.5331 14.5186 13.6445L14.795 14.177ZM15.5475 13.3447C15.69 12.9858 15.6984 12.5875 15.5712 12.2229L15.0047 12.4206C15.0844 12.649 15.0791 12.8984 14.9898 13.1232L15.5475 13.3447ZM16.6368 18.8947C17.0754 18.98 17.5269 19.0577 17.9913 19.1279L18.081 18.5347C17.6245 18.4656 17.1813 18.3893 16.7513 18.3057L16.6368 18.8947ZM17.9917 19.128C19.3983 19.3387 20.9106 19.4727 22.4471 19.5358L22.4717 18.9363C20.9531 18.874 19.4626 18.7416 18.0806 18.5346L17.9917 19.128ZM22.447 19.5357C23.8168 19.5922 25.1883 19.5922 26.5581 19.5357L26.5334 18.9363C25.1801 18.992 23.825 18.992 22.4717 18.9363L22.447 19.5357ZM26.5581 19.5357C28.0868 19.4727 29.5939 19.3387 30.994 19.1279L30.9047 18.5346C29.5293 18.7417 28.0441 18.874 26.5334 18.9363L26.5581 19.5357ZM30.9927 19.1281C31.4621 19.0596 31.9183 18.9817 32.3612 18.8946L32.2453 18.3058C31.8126 18.391 31.3662 18.4672 30.906 18.5344L30.9927 19.1281ZM32.0043 18.6259C32.0936 19.6657 31.9659 20.7127 31.6293 21.7005L32.1972 21.894C32.5606 20.8275 32.6985 19.6971 32.6021 18.5745L32.0043 18.6259ZM31.6293 21.7005C31.2926 22.6883 30.7544 23.5954 30.0487 24.3643L30.4907 24.77C31.2526 23.9399 31.8337 22.9605 32.1972 21.894L31.6293 21.7005ZM30.0487 24.3643C29.343 25.1332 28.4853 25.747 27.5299 26.167L27.7713 26.7162C28.8028 26.2629 29.7289 25.6001 30.4907 24.77L30.0487 24.3643ZM27.5299 26.167C26.5745 26.5869 25.5423 26.8037 24.4986 26.8037V27.4037C25.6254 27.4037 26.7398 27.1696 27.7713 26.7162L27.5299 26.167ZM24.4986 26.8037C23.455 26.8037 22.4228 26.5869 21.4674 26.167L21.2259 26.7162C22.2574 27.1696 23.3719 27.4037 24.4986 27.4037V26.8037ZM21.4674 26.167C20.512 25.747 19.6542 25.1332 18.9486 24.3643L18.5065 24.77C19.2684 25.6001 20.1944 26.2629 21.2259 26.7162L21.4674 26.167ZM18.9486 24.3643C18.2429 23.5954 17.7047 22.6883 17.368 21.7005L16.8001 21.894C17.1635 22.9605 17.7446 23.9399 18.5065 24.77L18.9486 24.3643ZM17.368 21.7005C17.0314 20.7127 16.9036 19.6657 16.9929 18.6259L16.3951 18.5745C16.2987 19.6971 16.4366 20.8275 16.8001 21.894L17.368 21.7005Z" fill="white" mask="url(#path-1-outside-1_735_3959)"/>
<path d="M31.0536 30.2142L30.8778 30.1834V30.3619V36.1H18.1222V30.3619V30.1835L17.9464 30.2142C17.0692 30.3673 16.1961 30.5428 15.3278 30.7405L15.3277 30.7405C11.7667 31.5538 8.16047 32.7748 5.44056 34.3507C2.73144 35.9203 0.85 37.8732 0.85 40.1667V48V48.15H1H48H48.15V48V40.1667C48.15 37.8732 46.2686 35.9203 43.5595 34.3507C40.8395 32.7748 37.2333 31.5538 33.6723 30.7405L33.6722 30.7405C32.7923 30.5402 31.9151 30.3647 31.0536 30.2142ZM37.4056 34.8103V45.2389H12.9V34.3898C13.6571 34.1605 14.4315 33.9507 15.2111 33.7593V38.8611V39.0111H15.3611H33.6389H33.7889V38.8611V33.7601C35.0092 34.0571 36.2159 34.4075 37.4056 34.8103ZM9.98889 35.4007V45.2389H3.76111V40.1667C3.76111 39.8411 3.8985 39.3368 4.56654 38.6243L4.56658 38.6242C5.24741 37.8975 6.33132 37.1288 7.80725 36.3785L7.80739 36.3784C8.48552 36.0328 9.21701 35.7065 9.98889 35.4007ZM41.1926 36.3784L41.1928 36.3785C42.6687 37.1288 43.7526 37.8975 44.4334 38.6242L44.4335 38.6243C45.1015 39.3368 45.2389 39.8411 45.2389 40.1667V45.2389H40.3167V35.956C40.6185 36.0937 40.9104 36.2345 41.1926 36.3784ZM40.1667 45.2389V35.8881V45.2389Z" fill="white" stroke="white" stroke-width="0.3"/>
</svg>
