<svg width="65" height="44" viewBox="0 0 65 44" fill="none" xmlns="http://www.w3.org/2000/svg">
<path d="M63.5211 39.1879L47.7679 14.0265C47.4854 13.5714 47.0911 13.1958 46.6224 12.9353C46.1538 12.6749 45.6263 12.5382 45.0899 12.5382C44.5535 12.5382 44.026 12.6749 43.5574 12.9353C43.0887 13.1958 42.6944 13.5714 42.4119 14.0265L39.2612 19.1532L28.8956 1.54021C28.6167 1.07088 28.2202 0.682086 27.7451 0.412043C27.2701 0.142 26.7328 0 26.1861 0C25.6394 0 25.1021 0.142 24.6271 0.412043C24.152 0.682086 23.7555 1.07088 23.4766 1.54021L1.42214 39.2822C1.1464 39.759 1.00084 40.2996 1 40.8501C0.999166 41.4006 1.14308 41.9417 1.41736 42.4192C1.69165 42.8968 2.08669 43.2942 2.56301 43.5715C3.03933 43.8489 3.58024 43.9967 4.13168 44H60.8431C61.406 44.0011 61.959 43.8517 62.4444 43.5672C62.9299 43.2827 63.3301 42.8735 63.6035 42.3823C63.8769 41.891 64.0135 41.3356 63.999 40.7738C63.9845 40.2121 63.8195 39.6644 63.5211 39.1879ZM27.6039 37.7097H9.61378L26.1861 9.40313L35.4175 25.129L27.6039 37.7097ZM35.0079 37.7097L41.9393 26.9217L45.0899 21.6378L55.1719 37.7097H35.0079Z" fill="white"/>
</svg>
