<svg width="35" height="44" viewBox="0 0 35 44" fill="none" xmlns="http://www.w3.org/2000/svg">
<path d="M20.1294 43.0475C19.874 42.7169 19.7164 42.3213 19.6746 41.9057C19.6328 41.4901 19.7084 41.071 19.8929 40.6962C20.3769 39.7557 20.5666 38.6805 20.4429 37.6217C20.3415 36.8663 20.092 36.1383 19.7086 35.4795C19.3303 34.8293 18.8242 34.2624 18.2209 33.813C16.1648 32.2677 14.722 30.0446 14.1481 27.5375C9.45114 33.6947 11.2524 37.19 13.5019 40.27C13.7656 40.631 13.9046 41.0682 13.8976 41.5153C13.8907 41.9624 13.7382 42.395 13.4634 42.7477C13.1833 43.1046 12.8075 43.3745 12.3799 43.526C11.9572 43.6744 11.5004 43.6964 11.0654 43.5892C8.02664 42.8467 5.16664 41.4332 3.22789 39.181C2.1289 37.9299 1.28279 36.4777 0.736386 34.9047C0.183752 33.3183 -0.0617034 31.6412 0.0131362 29.963C0.0131362 29.963 -0.352614 23.1897 7.81489 16.554C7.81489 16.554 17.4674 8.36448 14.1179 2.30898C13.9945 2.01111 13.9579 1.68438 14.0124 1.3666C14.0669 1.04881 14.2103 0.752948 14.4259 0.513228C14.6355 0.278193 14.9123 0.11333 15.2188 0.0410122C15.5253 -0.0313059 15.8466 -0.00757719 16.1391 0.108978L16.5406 0.268478C20.1763 2.56667 23.0179 5.92667 24.6806 9.89348C26.2756 13.7792 26.2646 18.3085 25.1866 22.3427C26.0804 21.5397 26.8256 20.58 27.3894 19.502L27.4691 19.326C28.0136 18.0142 29.7269 18.4322 30.3704 19.2902C30.6069 19.667 36.6734 28.4835 33.4146 35.9222C32.2232 38.176 30.4829 40.0931 28.3546 41.4965C26.5688 42.6815 24.5733 43.515 22.4751 43.9522C22.0415 44.0435 21.5906 44.0072 21.1771 43.8477C20.76 43.6855 20.3969 43.4091 20.1294 43.0502V43.0475ZM15.2729 21.7047C15.5296 21.5709 15.8271 21.5379 16.107 21.6122C16.3868 21.6865 16.6288 21.8627 16.7854 22.1062C16.8954 22.2685 16.9669 22.4527 16.9916 22.6507L17.1154 23.6105C17.1704 25.0157 17.1539 26.4842 17.7011 27.8345C18.2676 29.2205 19.1476 30.447 20.2641 31.404C21.7025 32.3504 22.8159 33.7153 23.4541 35.3145C24.0591 36.8655 24.1416 38.587 23.6851 40.1902C25.0818 39.7497 26.3799 39.0427 27.5076 38.1085L27.7909 37.8775C28.7149 37.1157 29.4766 36.1642 30.0266 35.0807C30.5794 34 30.9121 32.812 31.0001 31.591C31.1789 28.7722 30.2191 25.9425 28.7259 23.418C28.0439 24.408 27.1034 25.1752 26.0171 25.629C25.3379 25.9177 24.6174 26.0965 23.8831 26.1515C23.4626 26.1785 23.0432 26.083 22.6759 25.8765C22.3029 25.6645 21.997 25.352 21.7931 24.9745C21.6244 24.6701 21.528 24.331 21.5113 23.9833C21.4946 23.6357 21.5581 23.2889 21.6969 22.9697C22.8299 20.2967 23.1819 17.3322 22.7006 14.453C22.1309 11.1588 20.5533 8.12261 18.1851 5.76298C17.7561 11.8267 11.5384 17.4725 10.2624 18.688C10.0646 18.8743 9.85908 19.0523 9.64639 19.2215C2.97488 24.6252 3.43139 29.5477 3.43139 29.765C3.2989 31.7205 3.73742 33.6723 4.69364 35.3832C5.69739 37.157 7.14114 38.62 8.87364 39.6182C6.87439 35.2237 6.87439 29.9492 14.2526 22.3867L15.2756 21.6992L15.2729 21.7047Z" fill="white"/>
</svg>
