<svg width="47" height="46" viewBox="0 0 47 46" fill="none" xmlns="http://www.w3.org/2000/svg">
<path d="M18.2778 0H2.61111C1.9186 0 1.25445 0.269245 0.764777 0.748505C0.275098 1.22776 0 1.87778 0 2.55556V17.8889C0 18.5667 0.275098 19.2167 0.764777 19.6959C1.25445 20.1752 1.9186 20.4444 2.61111 20.4444H18.2778C18.9703 20.4444 19.6344 20.1752 20.1241 19.6959C20.6138 19.2167 20.8889 18.5667 20.8889 17.8889V2.55556C20.8889 1.87778 20.6138 1.22776 20.1241 0.748505C19.6344 0.269245 18.9703 0 18.2778 0ZM15.6667 15.3333H5.22222V5.11111H15.6667V15.3333ZM44.3889 0H28.7222C28.0297 0 27.3656 0.269245 26.8759 0.748505C26.3862 1.22776 26.1111 1.87778 26.1111 2.55556V17.8889C26.1111 18.5667 26.3862 19.2167 26.8759 19.6959C27.3656 20.1752 28.0297 20.4444 28.7222 20.4444H44.3889C45.0814 20.4444 45.7455 20.1752 46.2352 19.6959C46.7249 19.2167 47 18.5667 47 17.8889V2.55556C47 1.87778 46.7249 1.22776 46.2352 0.748505C45.7455 0.269245 45.0814 0 44.3889 0ZM41.7778 15.3333H31.3333V5.11111H41.7778V15.3333ZM18.2778 25.5556H2.61111C1.9186 25.5556 1.25445 25.8248 0.764777 26.3041C0.275098 26.7833 0 27.4333 0 28.1111V43.4444C0 44.1222 0.275098 44.7722 0.764777 45.2515C1.25445 45.7308 1.9186 46 2.61111 46H18.2778C18.9703 46 19.6344 45.7308 20.1241 45.2515C20.6138 44.7722 20.8889 44.1222 20.8889 43.4444V28.1111C20.8889 27.4333 20.6138 26.7833 20.1241 26.3041C19.6344 25.8248 18.9703 25.5556 18.2778 25.5556ZM15.6667 40.8889H5.22222V30.6667H15.6667V40.8889ZM36.5556 25.5556C30.7954 25.5556 26.1111 30.1402 26.1111 35.7778C26.1111 41.4153 30.7954 46 36.5556 46C42.3157 46 47 41.4153 47 35.7778C47 30.1402 42.3157 25.5556 36.5556 25.5556ZM36.5556 40.8889C33.6755 40.8889 31.3333 38.5966 31.3333 35.7778C31.3333 32.959 33.6755 30.6667 36.5556 30.6667C39.4356 30.6667 41.7778 32.959 41.7778 35.7778C41.7778 38.5966 39.4356 40.8889 36.5556 40.8889Z" fill="white"/>
</svg>
