<svg width="46" height="46" viewBox="0 0 46 46" fill="none" xmlns="http://www.w3.org/2000/svg">
<path d="M14.6932 37.1973L14.6927 37.1973C7.10794 36.9984 0.730332 30.4421 0.750046 22.8454C0.750046 22.8453 0.750046 22.8452 0.750046 22.8451L1.00005 22.8458L14.6932 37.1973ZM14.6932 37.1973C16.8915 37.2503 19.0706 36.7967 21.0625 35.874M14.6932 37.1973L21.0625 35.874M21.0625 35.874V43.1973C21.0625 43.678 21.2535 44.1391 21.5934 44.479C21.9333 44.8189 22.3943 45.0098 22.875 45.0098C23.3558 45.0098 23.8168 44.8189 24.1567 44.479C24.4966 44.1391 24.6875 43.678 24.6875 43.1973V35.8736C26.567 36.7421 28.6136 37.1944 30.6872 37.1973H30.6875H31.043V37.1974L31.0496 37.1973C38.6421 36.9984 45.0219 30.442 45 22.8451C44.9995 20.1135 44.2142 17.4396 42.7376 15.1415C41.2785 12.8706 39.2051 11.0613 36.7591 9.92296C35.6053 7.21749 33.6859 4.90732 31.236 3.2773C28.759 1.62926 25.8502 0.75 22.875 0.75C19.8999 0.75 16.9911 1.62926 14.5141 3.2773C12.0642 4.90732 10.1448 7.21749 8.99104 9.92296L21.0625 35.874ZM31.439 16.587L24.6875 19.9535V15.0723C24.6875 14.5916 24.4966 14.1306 24.1567 13.7907C23.8168 13.4508 23.3558 13.2598 22.875 13.2598C22.3943 13.2598 21.9333 13.4508 21.5934 13.7907C21.2535 14.1306 21.0625 14.5916 21.0625 15.0723V24.6404L14.3111 21.2628L14.3111 21.2628C13.8809 21.0477 13.3829 21.0123 12.9266 21.1644C12.4703 21.3165 12.0931 21.6436 11.878 22.0738C11.6629 22.504 11.6275 23.002 11.7796 23.4583C11.9317 23.9146 12.2588 24.2918 12.689 24.5069L12.6891 24.5069L21.0625 28.6917V31.7258C19.2144 32.9776 17.0195 33.6199 14.786 33.5607L14.7853 33.5607C9.13066 33.4253 4.35979 28.5155 4.37505 22.8543L4.37505 22.8534C4.3736 20.7233 5.01137 18.6418 6.20585 16.8782C7.40033 15.1145 9.09655 13.7499 11.0751 12.9608L11.0756 12.9606C11.3113 12.866 11.5244 12.7229 11.7012 12.5406C11.878 12.3583 12.0145 12.1409 12.102 11.9025L12.1021 11.9022C12.9087 9.69333 14.3748 7.78576 16.3018 6.43797C18.2288 5.09018 20.5235 4.36732 22.875 4.36732C25.2266 4.36732 27.5213 5.09018 29.4483 6.43797C31.3753 7.78576 32.8414 9.69333 33.648 11.9022L33.6481 11.9025C33.7355 12.1409 33.8721 12.3583 34.0489 12.5406C34.2257 12.7229 34.4388 12.866 34.6745 12.9606L34.675 12.9608C36.6532 13.7503 38.3492 15.1151 39.5436 16.8786C40.738 18.6422 41.376 20.7235 41.375 22.8535L41.3751 22.8543C41.3903 28.5154 36.6194 33.4256 30.9643 33.5724C28.7308 33.6306 26.5362 32.9884 24.6875 31.7375V24.0159L33.061 19.8311L33.0611 19.8311C33.2741 19.7246 33.464 19.5772 33.6201 19.3973C33.7761 19.2173 33.8952 19.0085 33.9705 18.7825C34.0458 18.5566 34.0759 18.318 34.059 18.0805C34.0421 17.8429 33.9786 17.611 33.8721 17.398C33.7656 17.185 33.6182 16.9951 33.4383 16.839C33.2583 16.683 33.0495 16.5639 32.8235 16.4886C32.5976 16.4133 32.359 16.3832 32.1215 16.4001C31.8839 16.417 31.652 16.4805 31.439 16.587Z" fill="white" stroke="white" stroke-width="0.5"/>
</svg>
