<svg width="47" height="46" viewBox="0 0 47 46" fill="none" xmlns="http://www.w3.org/2000/svg">
<path d="M23.5 25.3333C12.75 25.3333 10.0625 17.5563 10.0625 13.6667V4.33333L16.7812 9L23.5 2L30.2188 9L36.9375 4.33333V13.6667C36.9375 17.5563 34.25 25.3333 23.5 25.3333ZM23.5 25.3333V44M23.5 44H26.1875M23.5 44H20.8125M26.1875 44C41.2375 44 45 33.1103 45 27.6667C29.95 27.6667 26.1875 38.5563 26.1875 44ZM20.8125 44C5.7625 44 2 33.1103 2 27.6667C17.05 27.6667 20.8125 38.5563 20.8125 44Z" stroke="white" stroke-width="3.5" stroke-linecap="round" stroke-linejoin="round"/>
</svg>
