<svg width="59" height="47" viewBox="0 0 59 47" fill="none" xmlns="http://www.w3.org/2000/svg">
<path d="M20.9303 45C18.7231 42.3399 18.9811 38.4042 19.7665 35.8731C32.5997 42.1335 34.2738 30.6676 33.3106 27.8011C37.6247 30.6676 41.8097 40.4681 37.3638 45" stroke="white" stroke-width="3.5" stroke-linecap="round" stroke-linejoin="round"/>
<path d="M20.1047 45C10.8631 41.93 8.5069 27.9387 12.4053 20.4314C15.2575 26.5686 19.9155 26.5686 19.9155 26.5686C16.8111 14.2857 23.0199 5.07 34.9931 2C32.6484 6.30258 30.7708 13.0245 35.5292 17.3328C36.5382 15.4151 39.9235 11.2129 44.7592 11.2129C44.7592 11.2129 41.0414 17.8115 45.0745 23.5616C49.7326 30.1975 48.5401 40.0811 41.6147 44.9971M53.5966 45H4.86648M5.027 45H2M53.436 45H56.463" stroke="white" stroke-width="3.5" stroke-linecap="round" stroke-linejoin="round"/>
</svg>
