<svg width="56" height="47" viewBox="0 0 56 47" fill="none" xmlns="http://www.w3.org/2000/svg">
<path d="M28 43.9676C24.3486 41.4175 20.1216 39.7926 15.6892 39.2456C12.5455 38.612 9.34275 38.3127 6.13514 38.3527C5.7247 38.3562 5.31763 38.2791 4.93741 38.1257C4.55719 37.9723 4.21136 37.7457 3.91988 37.459C3.62839 37.1723 3.39703 36.8312 3.23915 36.4553C3.08126 36.0794 2.99998 35.6762 3 35.269L3.05676 6.0601C3.05503 5.27638 3.35415 4.52141 3.89332 3.94863C4.43248 3.37585 5.17125 3.02824 5.95946 2.97645C9.22472 2.91179 12.4873 3.20132 15.6892 3.83987C20.1169 4.4064 24.3406 6.02742 28 8.56456M28 43.9676V8.56456M28 43.9676C31.6514 41.4175 35.8784 39.7926 40.3108 39.2456C43.4545 38.612 46.6573 38.3127 49.8649 38.3527C50.2753 38.3562 50.6824 38.2791 51.0626 38.1257C51.4428 37.9723 51.7886 37.7457 52.0801 37.459C52.3716 37.1723 52.603 36.8312 52.7609 36.4553C52.9187 36.0794 53 35.6762 53 35.269L52.9405 6.0601C52.9423 5.27681 52.6436 4.52221 52.105 3.9495C51.5664 3.37679 50.8283 3.02889 50.0405 2.97645C46.7753 2.91179 43.5127 3.20132 40.3108 3.83987C35.8831 4.4064 31.6594 6.02742 28 8.56456" stroke="white" stroke-width="5" stroke-linecap="round" stroke-linejoin="round"/>
</svg>
