<svg width="39" height="43" viewBox="0 0 39 43" fill="none" xmlns="http://www.w3.org/2000/svg">
<path d="M21.021 0.275324L36.1877 5.95494C37.0138 6.2642 37.7258 6.81793 38.2283 7.54211C38.7309 8.26629 39.0001 9.12641 39 10.0075V21.6112C39.0001 25.2276 37.9917 28.7726 36.0879 31.8489C34.184 34.9253 31.4599 37.4114 28.2208 39.0287L20.9538 42.6572C20.5025 42.8826 20.0047 43 19.5 43C18.9953 43 18.4975 42.8826 18.0462 42.6572L10.7792 39.0287C7.54008 37.4114 4.816 34.9253 2.91215 31.8489C1.0083 28.7726 -7.80687e-05 25.2276 3.36219e-08 21.6112V10.0075C-0.000109847 9.12641 0.269108 8.26629 0.771665 7.54211C1.27422 6.81793 1.98617 6.2642 2.81233 5.95494L17.979 0.275324C18.9597 -0.0917748 20.0403 -0.0917748 21.021 0.275324ZM19.5 4.32787L4.33333 10.0075V21.6112C4.33383 24.4237 5.11852 27.1805 6.59948 29.5727C8.08045 31.965 10.1992 33.8982 12.7183 35.1558L19.5 38.5462L26.2817 35.1601C28.8015 33.9022 30.9206 31.9683 32.4017 29.5752C33.8827 27.1821 34.667 24.4244 34.6667 21.6112V10.0075L19.5 4.32787ZM19.5 25.8174C20.0746 25.8174 20.6257 26.0453 21.0321 26.4511C21.4384 26.8569 21.6667 27.4072 21.6667 27.981C21.6667 28.5549 21.4384 29.1052 21.0321 29.511C20.6257 29.9167 20.0746 30.1447 19.5 30.1447C18.9254 30.1447 18.3743 29.9167 17.9679 29.511C17.5616 29.1052 17.3333 28.5549 17.3333 27.981C17.3333 27.4072 17.5616 26.8569 17.9679 26.4511C18.3743 26.0453 18.9254 25.8174 19.5 25.8174ZM19.5 10.6717C20.0746 10.6717 20.6257 10.8997 21.0321 11.3055C21.4384 11.7112 21.6667 12.2616 21.6667 12.8354V21.49C21.6667 22.0639 21.4384 22.6142 21.0321 23.02C20.6257 23.4258 20.0746 23.6537 19.5 23.6537C18.9254 23.6537 18.3743 23.4258 17.9679 23.02C17.5616 22.6142 17.3333 22.0639 17.3333 21.49V12.8354C17.3333 12.2616 17.5616 11.7112 17.9679 11.3055C18.3743 10.8997 18.9254 10.6717 19.5 10.6717Z" fill="white"/>
</svg>
