<svg width="55" height="43" viewBox="0 0 55 43" fill="none" xmlns="http://www.w3.org/2000/svg">
<path d="M45.375 0C45.7907 7.40354e-05 46.1967 0.125758 46.5397 0.360573C46.8827 0.595388 47.1468 0.928374 47.2972 1.31587C48.0535 3.25875 49.2085 4.68737 50.3498 5.6155C51.5542 6.5945 52.5525 6.875 52.9375 6.875C53.4845 6.875 54.0091 7.0923 54.3959 7.47909C54.7827 7.86589 55 8.39049 55 8.9375C55 9.48451 54.7827 10.0091 54.3959 10.3959C54.0091 10.7827 53.4845 11 52.9375 11C51.26 11 49.3666 10.131 47.7483 8.8165C46.8543 8.08542 46.056 7.24463 45.3723 6.314C43.0925 9.35413 39.8365 10.9904 36.4375 10.9904C33.0385 10.9904 29.7798 9.35413 27.5 6.31125C25.2202 9.35413 21.9629 10.9918 18.5625 10.9918C15.1649 10.9918 11.9075 9.3555 9.62775 6.31675C8.94355 7.24747 8.1448 8.08826 7.25037 8.81925C5.632 10.1365 3.74 11 2.0625 11C1.51549 11 0.990886 10.7827 0.604092 10.3959C0.217298 10.0091 0 9.48451 0 8.9375C0 8.39049 0.217298 7.86589 0.604092 7.47909C0.990886 7.0923 1.51549 6.875 2.0625 6.875C2.44887 6.875 3.44712 6.5945 4.65025 5.61825C5.7915 4.6915 6.9465 3.26425 7.70275 1.31725C7.85338 0.929926 8.11751 0.597141 8.46052 0.362503C8.80352 0.127865 9.20942 0.00231969 9.625 0.00231969C10.0406 0.00231969 10.4465 0.127865 10.7895 0.362503C11.1325 0.597141 11.3966 0.929926 11.5472 1.31725C13.0556 5.20025 15.9349 6.86675 18.5625 6.86675C21.1887 6.86675 24.0694 5.20025 25.5777 1.31725C25.7284 0.929926 25.9925 0.597141 26.3355 0.362503C26.6785 0.127865 27.0844 0.00231969 27.5 0.00231969C27.9156 0.00231969 28.3215 0.127865 28.6645 0.362503C29.0075 0.597141 29.2716 0.929926 29.4223 1.31725C30.9306 5.20025 33.8099 6.86675 36.4375 6.86538C39.0638 6.86538 41.9444 5.19887 43.4528 1.31587C43.6032 0.928374 43.8673 0.595388 44.2103 0.360573C44.5533 0.125758 44.9593 7.40354e-05 45.375 0ZM45.375 15.5C45.7907 15.5001 46.1967 15.6258 46.5397 15.8606C46.8827 16.0954 47.1468 16.4284 47.2972 16.8159C48.0535 18.7588 49.2085 20.1874 50.3498 21.1155C51.5542 22.0945 52.5525 22.375 52.9375 22.375C53.4845 22.375 54.0091 22.5923 54.3959 22.9791C54.7827 23.3659 55 23.8905 55 24.4375C55 24.9845 54.7827 25.5091 54.3959 25.8959C54.0091 26.2827 53.4845 26.5 52.9375 26.5C51.26 26.5 49.3666 25.6324 47.7483 24.3165C46.8543 23.5854 46.056 22.7446 45.3723 21.814C43.0925 24.8541 39.8365 26.4904 36.4375 26.4917C33.0385 26.4917 29.7798 24.8541 27.5 21.8113C25.2202 24.8541 21.9629 26.4917 18.5625 26.4917C15.1649 26.4917 11.9075 24.8555 9.62775 21.8167C8.94355 22.7475 8.1448 23.5883 7.25037 24.3193C5.632 25.6365 3.74 26.5 2.0625 26.5C1.51549 26.5 0.990886 26.2827 0.604092 25.8959C0.217298 25.5091 0 24.9845 0 24.4375C0 23.8905 0.217298 23.3659 0.604092 22.9791C0.990886 22.5923 1.51549 22.375 2.0625 22.375C2.44887 22.375 3.44712 22.0945 4.65025 21.1182C5.7915 20.1915 6.9465 18.7642 7.70275 16.8186C7.85324 16.4312 8.11725 16.0984 8.46018 15.8636C8.8031 15.6288 9.20895 15.5032 9.62453 15.503C10.0401 15.5029 10.446 15.6283 10.7891 15.8628C11.1322 16.0973 11.3965 16.43 11.5472 16.8172C13.0556 20.7002 15.9349 22.3667 18.5625 22.3667C21.1887 22.3667 24.0694 20.7002 25.5777 16.8172C25.7284 16.4299 25.9925 16.0971 26.3355 15.8625C26.6785 15.6279 27.0844 15.5023 27.5 15.5023C27.9156 15.5023 28.3215 15.6279 28.6645 15.8625C29.0075 16.0971 29.2716 16.4299 29.4223 16.8172C30.9306 20.7002 33.8099 22.3667 36.4375 22.3667C39.0638 22.3667 41.9444 20.6989 43.4528 16.8159C43.6032 16.4284 43.8673 16.0954 44.2103 15.8606C44.5533 15.6258 44.9593 15.5001 45.375 15.5ZM47.2972 33.3159C48.0535 35.2588 49.2085 36.6874 50.3498 37.6155C51.5542 38.5945 52.5525 38.875 52.9375 38.875C53.4845 38.875 54.0091 39.0923 54.3959 39.4791C54.7827 39.8659 55 40.3905 55 40.9375C55 41.4845 54.7827 42.0091 54.3959 42.3959C54.0091 42.7827 53.4845 43 52.9375 43C51.26 43 49.3666 42.131 47.7483 40.8165C46.8543 40.0854 46.056 39.2446 45.3723 38.314C43.0925 41.3541 39.8365 42.9904 36.4375 42.9904C33.0385 42.9904 29.7798 41.3541 27.5 38.3112C25.2202 41.3541 21.9629 42.9917 18.5625 42.9917C15.1649 42.9917 11.9075 41.3555 9.62775 38.3168C8.94355 39.2475 8.1448 40.0883 7.25037 40.8193C5.632 42.1365 3.74 43 2.0625 43C1.51549 43 0.990886 42.7827 0.604092 42.3959C0.217298 42.0091 0 41.4845 0 40.9375C0 40.3905 0.217298 39.8659 0.604092 39.4791C0.990886 39.0923 1.51549 38.875 2.0625 38.875C2.44887 38.875 3.44712 38.5945 4.65025 37.6182C5.7915 36.6915 6.9465 35.2643 7.70275 33.3186C7.85324 32.9312 8.11725 32.5984 8.46018 32.3636C8.8031 32.1288 9.20895 32.0032 9.62453 32.003C10.0401 32.0029 10.446 32.1283 10.7891 32.3628C11.1322 32.5973 11.3965 32.93 11.5472 33.3172C13.0556 37.2002 15.9349 38.8667 18.5625 38.8667C21.1887 38.8667 24.0694 37.2002 25.5777 33.3172C25.7284 32.9299 25.9925 32.5971 26.3355 32.3625C26.6785 32.1279 27.0844 32.0023 27.5 32.0023C27.9156 32.0023 28.3215 32.1279 28.6645 32.3625C29.0075 32.5971 29.2716 32.9299 29.4223 33.3172C30.9306 37.2002 33.8099 38.8667 36.4375 38.8654C39.0638 38.8654 41.9444 37.1989 43.4528 33.3159C43.6034 32.9286 43.8675 32.5958 44.2105 32.3611C44.5535 32.1265 44.9594 32.0009 45.375 32.0009C45.7906 32.0009 46.1965 32.1265 46.5395 32.3611C46.8825 32.5958 47.1466 32.9286 47.2972 33.3159Z" fill="white"/>
</svg>
