<svg width="58" height="47" viewBox="0 0 58 47" fill="none" xmlns="http://www.w3.org/2000/svg">
<path d="M55.1672 0.935288L55.1672 0.935291C55.6609 0.964243 56.1266 1.17423 56.4761 1.5252C56.8255 1.87616 57.0344 2.34366 57.0632 2.83889C57.774 14.9947 54.0874 24.8062 47.1386 29.0297C44.8768 30.4106 42.2789 31.1369 39.6318 31.1283L39.6304 31.1283C36.9389 31.0947 34.2926 30.4342 31.8993 29.1997C30.1083 31.4811 29.1369 34.3048 29.1452 37.2125L29.1452 37.213L29.1452 44.1249C29.1452 44.6618 28.9329 45.1768 28.5547 45.5566C28.1765 45.9365 27.6634 46.15 27.1282 46.15C26.5931 46.15 26.08 45.9365 25.7018 45.5566C25.3236 45.1768 25.1113 44.6618 25.1113 44.1249V37.4671L19.3966 31.7277C17.6921 32.5579 15.8258 33.0009 13.9306 33.0245L13.9287 33.0245C11.9346 33.0244 9.97914 32.4717 8.27763 31.4274C8.27755 31.4274 8.27746 31.4273 8.27738 31.4273L8.35585 31.2994C3.27069 28.2056 0.542577 21.0639 1.06299 12.1972L55.1672 0.935288ZM55.1672 0.935288C43.0632 0.2307 33.2937 3.92423 29.0838 10.9032L29.0838 10.9033C26.3148 15.4966 26.3095 21.064 28.9964 26.3692C27.5261 28.1478 26.436 30.2107 25.7933 32.4292L22.2516 28.859C24.0491 25.021 23.9671 21.0168 21.9663 17.6819L21.9662 17.6816C18.8442 12.5056 11.6633 9.76302 2.80916 10.2849C2.80915 10.2849 2.80914 10.2849 2.80912 10.2849L2.81795 10.4346L55.1672 0.935288ZM19.1391 25.7374L13.6173 20.1916L13.6173 20.1916L13.6146 20.1889C13.2333 19.8251 12.7254 19.6252 12.1993 19.632C11.6731 19.6387 11.1705 19.8517 10.7987 20.2251C10.4268 20.5986 10.215 21.1031 10.2083 21.6309C10.2016 22.1588 10.4004 22.6685 10.7626 23.0514L10.7626 23.0515L10.7653 23.0542L16.2884 28.6013C14.1657 29.2463 12.1223 29.0371 10.3591 27.9649C6.87319 25.8447 4.85598 20.8192 4.87384 14.2729C11.3907 14.2483 16.3939 16.2809 18.5051 19.7819L18.5051 19.782C19.5727 21.5506 19.7811 23.6051 19.1391 25.7374ZM34.8534 26.1135L47.2251 13.6859L47.2252 13.6859L47.2278 13.6831C47.59 13.3002 47.7888 12.7905 47.7821 12.2626C47.7754 11.7348 47.5636 11.2303 47.1917 10.8568C46.8199 10.4833 46.3173 10.2704 45.7911 10.2636C45.265 10.2569 44.7571 10.4568 44.3758 10.8206L44.3758 10.8206L44.3732 10.8232L32.0002 23.2337C30.5299 19.5932 30.7036 16.0285 32.5424 12.9945L32.5425 12.9942C35.7386 7.69801 43.3255 4.70073 53.1142 4.89996C53.3059 14.73 50.3258 22.3596 45.0479 25.5695C42.0247 27.4071 38.4779 27.5835 34.8534 26.1135Z" fill="white" stroke="white" stroke-width="0.3"/>
</svg>
