<svg width="42" height="44" viewBox="0 0 42 44" fill="none" xmlns="http://www.w3.org/2000/svg">
<path d="M2.77695 41.1202L16.0039 27.2203M32.6602 21.0392L28.7008 33.5216C28.6377 33.7217 28.5295 33.9028 28.3855 34.0495C28.2415 34.1963 28.0659 34.3044 27.8736 34.3646L3.60208 41.9458C3.38341 42.014 3.15112 42.0179 2.93048 41.9571C2.70985 41.8962 2.50932 41.7729 2.35073 41.6007C2.19213 41.4284 2.08154 41.2137 2.031 40.9799C1.98045 40.7461 1.99189 40.5023 2.06406 40.2749L9.94535 15.4326C10.0018 15.2542 10.0942 15.0907 10.2161 14.9531C10.338 14.8156 10.4867 14.7072 10.652 14.6354L21.8484 9.79096C22.076 9.69217 22.3263 9.66641 22.5679 9.71695C22.8094 9.76748 23.0313 9.89203 23.2055 10.0749L32.3588 19.6982C32.5226 19.8703 32.6375 20.0869 32.6908 20.3237C32.744 20.5606 32.7334 20.8084 32.6602 21.0392Z" stroke="white" stroke-width="3" stroke-linecap="round" stroke-linejoin="round"/>
<path d="M32.9052 20.2704L38.783 14.0915C39.5622 13.2724 40 12.1615 40 11.0032C40 9.84485 39.5622 8.73396 38.783 7.91479L34.3767 3.28006C33.9907 2.87424 33.5324 2.55232 33.028 2.33268C32.5235 2.11305 31.9829 2 31.4369 2C30.8908 2 30.3502 2.11305 29.8457 2.33268C29.3413 2.55232 28.883 2.87424 28.497 3.28006L22.6192 9.45898M20.412 22.5856C20.1224 22.2814 19.7786 22.0402 19.4003 21.8756C19.022 21.7111 18.6165 21.6264 18.2071 21.6265C17.7977 21.6266 17.3922 21.7115 17.014 21.8762C16.6358 22.041 16.2921 22.2824 16.0026 22.5867C15.7132 22.891 15.4836 23.2523 15.327 23.6498C15.1704 24.0474 15.0899 24.4735 15.09 24.9038C15.0901 25.334 15.1708 25.7601 15.3276 26.1575C15.4844 26.555 15.7141 26.9162 16.0037 27.2204C16.5885 27.8347 17.3817 28.1797 18.2086 28.1795C19.0355 28.1793 19.8284 27.8339 20.413 27.2193C20.9976 26.6047 21.3259 25.7712 21.3257 24.9022C21.3255 24.0332 20.9968 23.1999 20.412 22.5856Z" stroke="white" stroke-width="3" stroke-linecap="round" stroke-linejoin="round"/>
</svg>
