<svg width="56" height="46" viewBox="0 0 56 46" fill="none" xmlns="http://www.w3.org/2000/svg">
<path d="M16.8561 15.2247C15.6793 16.4015 14.0832 17.0626 12.4189 17.0626C10.7547 17.0626 9.1586 16.4015 7.9818 15.2247C6.805 14.0479 6.14388 12.4518 6.14388 10.7876C6.14388 9.12334 6.805 7.52725 7.9818 6.35045C9.1586 5.17365 10.7547 4.51253 12.4189 4.51253C14.0832 4.51253 15.6793 5.17365 16.8561 6.35045C18.0329 7.52725 18.694 9.12334 18.694 10.7876C18.694 12.4518 18.0329 14.0479 16.8561 15.2247ZM12.4189 20.8252C13.7371 20.8252 15.0423 20.5655 16.2601 20.0611C17.478 19.5567 18.5845 18.8173 19.5166 17.8852C20.4487 16.9532 21.188 15.8466 21.6925 14.6288C22.1969 13.411 22.4565 12.1057 22.4565 10.7876C22.4565 9.46943 22.1969 8.16418 21.6925 6.94637C21.188 5.72855 20.4487 4.62202 19.5166 3.68994C18.5845 2.75786 17.478 2.0185 16.2601 1.51407C15.0423 1.00963 13.7371 0.75 12.4189 0.75C9.7568 0.75 7.2037 1.80753 5.32129 3.68994C3.43888 5.57235 2.38135 8.12545 2.38135 10.7876C2.38135 13.4497 3.43888 16.0028 5.32129 17.8852C7.2037 19.7676 9.7568 20.8252 12.4189 20.8252Z" fill="white" stroke="white" stroke-width="0.5"/>
<path d="M46.9752 18.4815L46.9752 18.4815C46.8 18.3067 46.661 18.0991 46.5661 17.8706C46.4713 17.642 46.4225 17.397 46.4225 17.1496C46.4225 16.9021 46.4713 16.6571 46.5661 16.4285C46.661 16.2 46.8 15.9924 46.9752 15.8176M46.9752 18.4815L46.9752 15.8176M46.9752 18.4815L48.0777 19.5807M46.9752 18.4815L48.0777 19.5807M46.9752 15.8176C47.1498 15.6426 47.3573 15.5038 47.5856 15.409C47.8142 15.3142 48.0592 15.2654 48.3067 15.2654C48.5541 15.2654 48.7991 15.3142 49.0277 15.409C49.2562 15.5039 49.4638 15.6429 49.6386 15.8181L49.6386 15.8181L50.7379 16.9206M46.9752 15.8176L50.7379 16.9206M50.7379 16.9206L50.7381 16.9208M50.7379 16.9206L50.7381 16.9208M50.7381 16.9208C53.5189 19.7021 55.0813 23.4739 55.0817 27.4069V34.441C55.0817 34.9399 54.8835 35.4184 54.5307 35.7712C54.1779 36.124 53.6994 36.3222 53.2005 36.3222C52.7015 36.3222 52.223 36.124 51.8702 35.7712C51.5174 35.4184 51.3192 34.9399 51.3192 34.441V27.4069C51.3192 25.9535 51.033 24.5143 50.4768 23.1715C49.9206 21.8286 49.1054 20.6085 48.0777 19.5807M50.7381 16.9208L48.0777 19.5807M8.85651 19.4603L8.85655 19.4603C9.03174 19.2855 9.17074 19.0779 9.26558 18.8493C9.36042 18.6208 9.40924 18.3758 9.40924 18.1283C9.40924 17.8809 9.36042 17.6358 9.26558 17.4073C9.17078 17.1788 9.03186 16.9713 8.85677 16.7966C8.68206 16.6215 8.47454 16.4826 8.24608 16.3878C8.01753 16.293 7.77251 16.2441 7.52506 16.2441C7.27761 16.2441 7.03259 16.293 6.80403 16.3878C6.57548 16.4826 6.36788 16.6216 6.19312 16.7968L6.19308 16.7969L5.09386 17.8994L5.27065 18.0761L5.09361 17.8996L5.09368 17.8995C2.31288 20.6808 0.75047 24.4527 0.75 28.3857V28.3857V34.441C0.75 34.9399 0.948204 35.4184 1.30101 35.7712C1.65382 36.124 2.13232 36.3222 2.63126 36.3222C3.13021 36.3222 3.60871 36.124 3.96152 35.7712C4.31432 35.4184 4.51253 34.9399 4.51253 34.441V28.3857C4.51253 28.3857 4.51253 28.3857 4.51253 28.3857C4.51281 25.4505 5.67872 22.6354 7.75395 20.5596C7.75398 20.5596 7.75402 20.5595 7.75406 20.5595L8.85651 19.4603Z" fill="white" stroke="white" stroke-width="0.5"/>
<path d="M41.7816 17.0626C40.1174 17.0626 38.5213 16.4015 37.3445 15.2247C36.1677 14.0479 35.5066 12.4518 35.5066 10.7876C35.5066 9.12334 36.1677 7.52725 37.3445 6.35045C38.5213 5.17365 40.1174 4.51253 41.7816 4.51253C43.4459 4.51253 45.042 5.17365 46.2188 6.35045C47.3956 7.52725 48.0567 9.12334 48.0567 10.7876C48.0567 12.4518 47.3956 14.0479 46.2188 15.2247C45.042 16.4015 43.4459 17.0626 41.7816 17.0626ZM37.9404 20.0611C39.1582 20.5655 40.4635 20.8252 41.7816 20.8252C44.4438 20.8252 46.9969 19.7676 48.8793 17.8852C50.7617 16.0028 51.8192 13.4497 51.8192 10.7876C51.8192 8.12545 50.7617 5.57235 48.8793 3.68994C46.9969 1.80753 44.4438 0.75 41.7816 0.75C40.4635 0.75 39.1582 1.00963 37.9404 1.51407C36.7226 2.0185 35.6161 2.75787 34.684 3.68994C33.7519 4.62202 33.0125 5.72855 32.5081 6.94637C32.0037 8.16418 31.744 9.46943 31.744 10.7876C31.744 12.1057 32.0037 13.411 32.5081 14.6288C33.0125 15.8466 33.7519 16.9532 34.684 17.8852C35.6161 18.8173 36.7226 19.5567 37.9404 20.0611ZM21.5096 33.7441C22.9924 32.2614 25.0034 31.4284 27.1002 31.4284C28.1385 31.4284 29.1666 31.6329 30.1259 32.0302C31.0851 32.4276 31.9567 33.0099 32.6909 33.7441C33.425 34.4783 34.0074 35.3499 34.4047 36.3091C34.8021 37.2683 35.0066 38.2964 35.0066 39.3347V43.576C35.0066 44.0749 35.2048 44.5534 35.5576 44.9063C35.9104 45.2591 36.3889 45.4573 36.8878 45.4573C37.3868 45.4573 37.8653 45.2591 38.2181 44.9063C38.5709 44.5534 38.7691 44.0749 38.7691 43.576V39.3347C38.7691 36.2399 37.5397 33.2719 35.3514 31.0836C33.163 28.8953 30.195 27.6659 27.1002 27.6659C24.0055 27.6659 21.0375 28.8953 18.8491 31.0836C16.6608 33.2719 15.4314 36.2399 15.4314 39.3347V43.576C15.4314 44.0749 15.6296 44.5534 15.9824 44.9063C16.3352 45.2591 16.8137 45.4573 17.3127 45.4573C17.8116 45.4573 18.2901 45.2591 18.6429 44.9063C18.9957 44.5534 19.1939 44.0749 19.1939 43.576V39.3347C19.1939 37.2378 20.0269 35.2268 21.5096 33.7441Z" fill="white" stroke="white" stroke-width="0.5"/>
<path d="M31.5375 24.1966C30.3607 25.3734 28.7646 26.0346 27.1003 26.0346C25.4361 26.0346 23.84 25.3734 22.6632 24.1966C21.4864 23.0198 20.8253 21.4238 20.8253 19.7595C20.8253 18.0953 21.4864 16.4992 22.6632 15.3224C23.84 14.1456 25.4361 13.4845 27.1003 13.4845C28.7646 13.4845 30.3607 14.1456 31.5375 15.3224C32.7143 16.4992 33.3754 18.0953 33.3754 19.7595C33.3754 21.4238 32.7143 23.0198 31.5375 24.1966ZM27.1003 29.7971C29.7625 29.7971 32.3156 28.7396 34.198 26.8572C36.0804 24.9747 37.1379 22.4216 37.1379 19.7595C37.1379 17.0974 36.0804 14.5443 34.198 12.6619C32.3156 10.7795 29.7625 9.72192 27.1003 9.72192C24.4382 9.72192 21.8851 10.7795 20.0027 12.6619C18.1203 14.5443 17.0627 17.0974 17.0627 19.7595C17.0627 22.4216 18.1203 24.9747 20.0027 26.8572C21.8851 28.7396 24.4382 29.7971 27.1003 29.7971Z" fill="white" stroke="white" stroke-width="0.5"/>
</svg>
