<svg width="46" height="46" viewBox="0 0 46 46" fill="none" xmlns="http://www.w3.org/2000/svg">
<path fill-rule="evenodd" clip-rule="evenodd" d="M5.44477 5.2102C3.71857 6.93641 2.34927 8.98571 1.41505 11.2411C0.480834 13.4965 2.57225e-08 15.9138 0 18.355C-2.57225e-08 20.7963 0.480834 23.2136 1.41505 25.469C2.34927 27.7244 3.71857 29.7737 5.44477 31.4999C7.17098 33.2261 9.22028 34.5954 11.4757 35.5296C13.7311 36.4638 16.1484 36.9447 18.5896 36.9447C21.0308 36.9447 23.4482 36.4638 25.7036 35.5296C27.959 34.5954 30.0083 33.2261 31.7345 31.4999C35.1203 27.9943 36.9937 23.2992 36.9514 18.4257C36.909 13.5522 34.9543 8.89027 31.508 5.44406C28.0618 1.99785 23.3999 0.043052 18.5264 0.000702644C13.6529 -0.0416467 8.95779 1.83184 5.45221 5.21764M29.11 28.8754C27.7348 30.2814 26.0944 31.4007 24.2837 32.1684C22.473 32.9361 20.528 33.337 18.5613 33.3478C16.5946 33.3586 14.6453 32.9792 12.8262 32.2315C11.0072 31.4838 9.35452 30.3826 7.96396 28.9918C6.5734 27.601 5.47255 25.9482 4.72517 24.129C3.97778 22.3098 3.5987 20.3605 3.60988 18.3938C3.62106 16.4271 4.02227 14.4821 4.79029 12.6716C5.55831 10.861 6.67787 9.22077 8.08415 7.84586C10.8834 5.10903 14.6491 3.58653 18.5639 3.60879C22.4787 3.63104 26.2268 5.19624 28.9948 7.96472C31.7628 10.7332 33.3273 14.4816 33.3489 18.3964C33.3704 22.3112 31.8473 26.0766 29.11 28.8754Z" fill="white"/>
<path d="M29.102 34.2025C28.405 33.5049 28.0136 32.5591 28.0139 31.5729C28.0143 30.5868 28.4063 29.6412 29.1039 28.9442C29.8014 28.2471 30.7473 27.8557 31.7334 27.8561C32.7195 27.8564 33.6651 28.2485 34.3622 28.946L44.8751 39.4626C45.2301 39.8056 45.5133 40.2158 45.7082 40.6693C45.903 41.1228 46.0055 41.6106 46.0098 42.1042C46.0141 42.5978 45.9201 43.0873 45.7332 43.5442C45.5462 44.0011 45.2702 44.4161 44.9212 44.7652C44.5721 45.1142 44.1571 45.3902 43.7002 45.5772C43.2433 45.7641 42.7538 45.8581 42.2602 45.8538C41.7666 45.8495 41.2788 45.747 40.8253 45.5522C40.3718 45.3573 39.9616 45.0741 39.6186 44.7191L29.102 34.2025Z" fill="white"/>
</svg>
