<svg width="42" height="44" viewBox="0 0 42 44" fill="none" xmlns="http://www.w3.org/2000/svg">
<path d="M30.9474 6.43759C29.0011 6.43604 27.091 6.963 25.4211 7.96218C24.2103 5.1843 22.084 2.90482 19.3964 1.50333C16.7087 0.101841 13.6218 -0.337084 10.6498 0.259645C7.67775 0.856375 4.9999 2.45275 3.06215 4.78293C1.1244 7.11312 0.0436954 10.0365 0 13.0662V21.9045C0.00317396 25.0351 1.11465 28.0637 3.13759 30.4537C5.16053 32.8438 7.96439 34.4411 11.0526 34.9629V41.7904C11.0526 42.3765 11.2855 42.9385 11.7001 43.3528C12.1146 43.7672 12.6769 44 13.2632 44C13.8494 44 14.4117 43.7672 14.8262 43.3528C15.2408 42.9385 15.4737 42.3765 15.4737 41.7904V34.9629C17.7256 34.5723 19.8407 33.6141 21.6189 32.1789C22.4081 33.445 23.4457 34.5382 24.669 35.3926C25.8923 36.247 27.2761 36.845 28.7368 37.1504V41.7904C28.7368 42.3765 28.9697 42.9385 29.3843 43.3528C29.7988 43.7672 30.3611 44 30.9474 44C31.5336 44 32.0959 43.7672 32.5104 43.3528C32.925 42.9385 33.1579 42.3765 33.1579 41.7904V37.1504C35.6544 36.641 37.8981 35.2851 39.5094 33.3122C41.1207 31.3392 42.0005 28.8704 42 26.3236V17.4854C42 14.5553 40.8355 11.7453 38.7628 9.6734C36.69 7.60154 33.8787 6.43759 30.9474 6.43759ZM19.8947 17.4854V26.3236C19.9159 26.7455 19.9602 27.1659 20.0274 27.583C18.8451 28.9904 17.2534 29.9945 15.4737 30.4554V24.114C15.4737 23.528 15.2408 22.966 14.8262 22.5516C14.4117 22.1373 13.8494 21.9045 13.2632 21.9045C12.6769 21.9045 12.1146 22.1373 11.7001 22.5516C11.2855 22.966 11.0526 23.528 11.0526 24.114V30.4333C9.15937 29.9447 7.48154 28.8426 6.28163 27.2994C5.08171 25.7562 4.4274 23.8589 4.42105 21.9045V13.0662C4.41529 11.3153 4.92995 9.60213 5.89975 8.14402C6.86955 6.68591 8.25079 5.54859 9.86824 4.87633C11.4857 4.20407 13.2665 4.02717 14.9846 4.36807C16.7028 4.70897 18.281 5.55232 19.5189 6.79111C20.7156 8.00336 21.5303 9.53981 21.8621 11.2102C20.5843 13.0538 19.8981 15.2425 19.8947 17.4854ZM37.5789 26.3236C37.5751 27.6912 37.1482 29.0241 36.3567 30.1396C35.5652 31.2551 34.4478 32.0986 33.1579 32.5545V24.114C33.1579 23.528 32.925 22.966 32.5104 22.5516C32.0959 22.1373 31.5336 21.9045 30.9474 21.9045C30.3611 21.9045 29.7988 22.1373 29.3843 22.5516C28.9697 22.966 28.7368 23.528 28.7368 24.114V32.5545C27.4469 32.0986 26.3296 31.2551 25.5381 30.1396C24.7466 29.0241 24.3196 27.6912 24.3158 26.3236V17.4854C24.3158 15.7273 25.0145 14.0413 26.2581 12.7982C27.5018 11.5551 29.1886 10.8567 30.9474 10.8567C32.7062 10.8567 34.3929 11.5551 35.6366 12.7982C36.8803 14.0413 37.5789 15.7273 37.5789 17.4854V26.3236Z" fill="white"/>
</svg>
