<svg width="51" height="44" viewBox="0 0 51 44" fill="none" xmlns="http://www.w3.org/2000/svg">
<path d="M27.1619 1.65V5.5H31.5418C32.3202 5.5 33.0809 5.7332 33.724 6.1666L37.4874 8.7054C37.5806 8.767 37.6841 8.79853 37.7979 8.8H46.8948C47.3359 8.8 47.759 8.97384 48.0709 9.28327C48.3828 9.59271 48.558 10.0124 48.558 10.45C48.558 10.8876 48.3828 11.3073 48.0709 11.6167C47.759 11.9262 47.3359 12.1 46.8948 12.1H43.3953L50.86 28.996C51.0093 29.3338 51.0402 29.7116 50.9478 30.0689C50.8553 30.4262 50.6448 30.7425 50.3499 30.9672C50.1281 31.13 49.899 31.2811 49.6624 31.4204C49.101 31.7554 48.5154 32.0488 47.9105 32.2982C45.9045 33.1304 43.7511 33.556 41.5768 33.55C39.4032 33.5594 37.2499 33.1344 35.2454 32.3004C34.6403 32.0503 34.0547 31.7561 33.4934 31.4204C33.2575 31.2862 33.0301 31.1378 32.8126 30.976L32.8015 30.9672C32.5066 30.7425 32.2961 30.4262 32.2036 30.0689C32.1112 29.7116 32.1421 29.3338 32.2914 28.996L39.7605 12.1H37.7957C37.0173 12.1 36.2566 11.8668 35.6135 11.4334L31.8501 8.8946C31.7585 8.83303 31.6503 8.80008 31.5396 8.8H27.1619V40.7H37.1126C37.5538 40.7 37.9768 40.8738 38.2887 41.1833C38.6007 41.4927 38.7759 41.9124 38.7759 42.35C38.7759 42.7876 38.6007 43.2073 38.2887 43.5167C37.9768 43.8262 37.5538 44 37.1126 44H13.8848C13.4436 44 13.0206 43.8262 12.7087 43.5167C12.3967 43.2073 12.2215 42.7876 12.2215 42.35C12.2215 41.9124 12.3967 41.4927 12.7087 41.1833C13.0206 40.8738 13.4436 40.7 13.8848 40.7H23.8354V8.8H19.4555C19.3449 8.80008 19.2367 8.83303 19.1451 8.8946L15.3839 11.4334C14.7408 11.8668 13.9801 12.1 13.2017 12.1H11.2369L18.706 28.996C18.8505 29.3242 18.8835 29.6902 18.7999 30.0387C18.7163 30.3872 18.5206 30.6992 18.2425 30.9276C18.0651 31.0706 17.8877 31.2048 17.555 31.4182C16.9945 31.779 16.4073 32.0975 15.7986 32.3708C13.7962 33.2751 11.6207 33.7403 9.42058 33.7348C7.22045 33.7403 5.045 33.2751 3.04256 32.3708C2.43382 32.0975 1.84669 31.779 1.28617 31.4182C1.05012 31.267 0.821437 31.1047 0.600908 30.932C0.324398 30.7014 0.129882 30.3888 0.0460341 30.0402C-0.0378137 29.6917 -0.00655657 29.3256 0.135198 28.996L7.60209 12.1H4.10483C3.66371 12.1 3.24065 11.9262 2.92873 11.6167C2.61681 11.3073 2.44157 10.8876 2.44157 10.45C2.44157 10.0124 2.61681 9.59271 2.92873 9.28327C3.24065 8.97384 3.66371 8.8 4.10483 8.8H13.2017C13.3141 8.8 13.4183 8.76847 13.5144 8.7054L17.2734 6.1666C17.9165 5.731 18.6794 5.5 19.4578 5.5H23.8354V1.65C23.8354 1.21239 24.0107 0.792709 24.3226 0.483274C24.6345 0.173839 25.0576 0 25.4987 0C25.9398 0 26.3629 0.173839 26.6748 0.483274C26.9867 0.792709 27.1619 1.21239 27.1619 1.65ZM3.75 29.0356C5.49494 29.9586 7.44311 30.4385 9.42058 30.4326C11.3981 30.4385 13.3462 29.9586 15.0912 29.0356L9.42058 16.2096L3.75 29.0356ZM35.9284 28.9828C36.1102 29.0708 36.3135 29.1632 36.5383 29.26C37.7136 29.7506 39.4323 30.25 41.5768 30.25C43.5318 30.2552 45.4627 29.822 47.2252 28.9828L41.5768 16.2074L35.9284 28.9828Z" fill="white"/>
</svg>
