<svg width="36" height="47" viewBox="0 0 36 47" fill="none" xmlns="http://www.w3.org/2000/svg">
<path d="M12.7522 39.6272C12.7522 38.0921 12.7522 37.3267 12.6683 36.8172C12.406 35.1768 12.3609 35.0714 11.3138 33.7814C10.987 33.3794 9.78304 32.3022 7.37507 30.1437C4.94104 27.9667 3.22537 25.1019 2.45505 21.9285C1.68474 18.7551 1.89609 15.4226 3.06115 12.372C4.2262 9.3213 6.29004 6.69627 8.9796 4.84421C11.6692 2.99214 14.8577 2.00033 18.1232 2C21.3888 1.99967 24.5775 2.99085 27.2674 4.84238C29.9573 6.69391 32.0217 9.31852 33.1874 12.3689C34.353 15.4194 34.565 18.7518 33.7954 21.9254C33.0257 25.0989 31.3106 27.964 28.877 30.1415C26.4669 32.3001 25.2629 33.3794 24.9382 33.7793C23.8912 35.0693 23.846 35.1746 23.5816 36.815C23.4999 37.3246 23.4999 38.0921 23.4999 39.6251H12.75C12.75 41.6353 12.75 42.6393 13.1822 43.3875C13.4652 43.8777 13.8723 44.2848 14.3625 44.5679C15.1107 45 16.1147 45 18.125 45C20.1352 45 21.1392 45 21.8896 44.57C22.3798 44.287 22.7869 43.8799 23.0699 43.3897C23.502 42.6415 23.502 41.6374 23.502 39.6272" stroke="white" stroke-width="3.5"/>
<path d="M19.8149 15.9754L15.2075 22.4253H21.6574L17.05 28.8752" stroke="white" stroke-width="3.5" stroke-linecap="round" stroke-linejoin="round"/>
</svg>
