<svg width="27" height="46" viewBox="0 0 27 46" fill="none" xmlns="http://www.w3.org/2000/svg">
<path d="M10.8542 46C16.8311 46 21.6871 41.1552 21.6871 35.1931C21.6871 32.046 20.3801 29.2929 17.9096 27.0573C17.4536 26.6431 17.35 26.4152 17.35 25.7942L17.3916 7.20398C17.3916 2.87771 14.7556 0 10.8542 0C6.93151 0 4.29545 2.87771 4.29545 7.20398L4.3167 25.7942C4.3167 26.4152 4.2131 26.6431 3.77656 27.0573C1.2866 29.2929 0 32.046 0 35.1923C0 41.1544 4.8347 46 10.8542 46ZM10.8542 42.996C6.53747 42.996 3.0301 39.477 3.0301 35.1923C3.0301 32.6043 4.25471 30.2654 6.45424 28.7956C7.09798 28.3601 7.3468 27.9671 7.3468 27.1183V7.32852C7.3468 4.72021 8.77861 3.04288 10.8533 3.04288C12.9085 3.04288 14.3199 4.72021 14.3199 7.32852V27.1191C14.3199 27.968 14.5687 28.361 15.2125 28.7956C17.412 30.2662 18.6366 32.6052 18.6366 35.1931C18.6366 39.4779 15.1496 42.9977 10.8533 42.9977M21.2505 7.5988H25.7753C25.9354 7.60259 26.0947 7.57426 26.2436 7.51548C26.3925 7.4567 26.528 7.36867 26.6422 7.25662C26.7563 7.14458 26.8467 7.01079 26.908 6.86322C26.9693 6.71565 27.0003 6.55729 26.9991 6.39755C27.0003 6.23773 26.9693 6.0793 26.9079 5.93167C26.8466 5.78403 26.7561 5.65021 26.6419 5.53815C26.5276 5.42609 26.392 5.33809 26.243 5.27936C26.0939 5.22063 25.9346 5.19239 25.7744 5.1963H21.2497C21.0896 5.19251 20.9303 5.22084 20.7814 5.27962C20.6325 5.3384 20.497 5.42643 20.3828 5.53848C20.2687 5.65052 20.1783 5.7843 20.117 5.93188C20.0557 6.07945 20.0247 6.23781 20.0259 6.39755C20.0259 7.03969 20.5245 7.5988 21.2505 7.5988ZM21.2505 13.4152H25.7753C25.9354 13.4189 26.0945 13.3906 26.2434 13.3319C26.3922 13.2732 26.5277 13.1852 26.6418 13.0733C26.756 12.9613 26.8464 12.8277 26.9078 12.6802C26.9691 12.5327 27.0002 12.3745 26.9991 12.2148C27.0003 12.055 26.9693 11.8965 26.9079 11.7489C26.8466 11.6013 26.7561 11.4674 26.6419 11.3554C26.5276 11.2433 26.392 11.1553 26.243 11.0966C26.0939 11.0379 25.9346 11.0096 25.7744 11.0135H21.2497C21.0896 11.0097 20.9303 11.0381 20.7814 11.0969C20.6325 11.1556 20.497 11.2437 20.3828 11.3557C20.2687 11.4678 20.1783 11.6015 20.117 11.7491C20.0557 11.8967 20.0247 12.055 20.0259 12.2148C20.0259 12.8569 20.5245 13.4152 21.2505 13.4152ZM10.8329 40.204C11.4944 40.2045 12.1495 40.0747 12.7605 39.8218C13.3715 39.5689 13.9264 39.198 14.3932 38.7304C14.8599 38.2628 15.2294 37.7078 15.4803 37.0972C15.7313 36.4867 15.8587 35.8327 15.8553 35.1728C15.8553 33.227 14.7556 31.6327 13.1573 30.7635C12.4932 30.412 12.2647 30.1629 12.2647 29.1489V18.1557C12.2647 17.0781 11.6422 16.4368 10.8329 16.4368C10.0448 16.4368 9.4011 17.079 9.4011 18.1557V29.1471C9.4011 30.1611 9.17265 30.4102 8.50854 30.7618C6.91114 31.6309 5.8105 33.2261 5.8105 35.1711C5.80711 35.8309 5.93455 36.4849 6.18549 37.0955C6.43643 37.706 6.80591 38.2611 7.27268 38.7286C7.73945 39.1962 8.2943 39.5671 8.9053 39.82C9.51631 40.0729 10.1714 40.2028 10.8329 40.2022M21.2514 19.2306H25.7762C25.9362 19.2344 26.0954 19.2061 26.2442 19.1474C26.3931 19.0887 26.5286 19.0007 26.6427 18.8888C26.7569 18.7768 26.8473 18.6431 26.9087 18.4957C26.97 18.3482 27.0011 18.1899 26.9999 18.0303C27.0015 17.8694 26.9709 17.7099 26.9099 17.561C26.8489 17.4121 26.7587 17.2768 26.6447 17.1631C26.5307 17.0493 26.3951 16.9594 26.2458 16.8986C26.0965 16.8377 25.9366 16.8072 25.7753 16.8087H21.2505C21.0894 16.8073 20.9295 16.8379 20.7804 16.8988C20.6312 16.9597 20.4957 17.0497 20.3818 17.1634C20.2678 17.2771 20.1778 17.4123 20.1168 17.5612C20.0559 17.71 20.0253 17.8695 20.0268 18.0303C20.0268 18.6724 20.5253 19.2306 21.2514 19.2306ZM21.2514 25.0487H25.7762C25.9374 25.0502 26.0972 25.0195 26.2464 24.9586C26.3956 24.8977 26.5311 24.8078 26.645 24.6941C26.7589 24.5803 26.849 24.4451 26.9099 24.2963C26.9709 24.1474 27.0015 23.988 26.9999 23.8272C27.0011 23.6674 26.97 23.5091 26.9086 23.3616C26.8472 23.214 26.7566 23.0803 26.6424 22.9684C26.5282 22.8564 26.3926 22.7685 26.2436 22.7098C26.0947 22.6511 25.9354 22.6229 25.7753 22.6268H21.2505C21.0904 22.623 20.9312 22.6514 20.7823 22.7101C20.6334 22.7689 20.4979 22.8569 20.3837 22.969C20.2696 23.081 20.1792 23.2148 20.1179 23.3624C20.0565 23.51 20.0256 23.6683 20.0268 23.8281C20.0254 23.9888 20.0561 24.1483 20.1172 24.2971C20.1782 24.4459 20.2684 24.581 20.3824 24.6947C20.4964 24.8083 20.632 24.8982 20.7812 24.959C20.9304 25.0198 21.0903 25.0503 21.2514 25.0487Z" fill="white"/>
</svg>
