<svg width="47" height="47" viewBox="0 0 47 47" fill="none" xmlns="http://www.w3.org/2000/svg">
<path d="M13.3157 45.0005H31.4209M24.6314 8.79004H20.1051C17.971 8.79004 16.905 8.79004 16.2419 9.45314C15.5788 10.1162 15.5788 11.1822 15.5788 13.3163V17.8426C15.5788 19.9768 15.5788 21.0427 16.2419 21.7058C16.905 22.3689 17.971 22.3689 20.1051 22.3689H24.6314C26.7656 22.3689 27.8315 22.3689 28.4946 21.7058C29.1577 21.0427 29.1577 19.9768 29.1577 17.8426V13.3163C29.1577 11.1822 29.1577 10.1162 28.4946 9.45314C27.8315 8.79004 26.7656 8.79004 24.6314 8.79004ZM25.763 22.3689H18.9736V45.0005H25.763V22.3689ZM29.1577 12.1848H38.2103C40.011 12.1848 41.7379 12.9001 43.0112 14.1734C44.2845 15.4466 44.9998 17.1735 44.9998 18.9742V24.6321H38.2103V18.9742H29.1577V12.1848Z" stroke="#F6F6F6" stroke-width="3.5" stroke-linecap="round" stroke-linejoin="round"/>
<path d="M29.1578 2H16.9368C14.0807 2 12.6527 2 11.5279 2.731C10.4031 3.462 9.82371 4.76783 8.66272 7.37498L2 22.3684" stroke="#F6F6F6" stroke-width="3.5" stroke-linecap="round" stroke-linejoin="round"/>
<path d="M22.3682 2V8.78945" stroke="#F6F6F6" stroke-width="3.5" stroke-linecap="round" stroke-linejoin="round"/>
<path d="M41.605 31.4204L42.8679 30.2888C42.7087 30.1116 42.514 29.9698 42.2964 29.8728C42.0788 29.7757 41.8433 29.7256 41.605 29.7256C41.3668 29.7256 41.1312 29.7757 40.9137 29.8728C40.6961 29.9698 40.5014 30.1116 40.3422 30.2888L41.605 31.4204ZM43.3024 37.0783C43.3024 37.5284 43.1236 37.9602 42.8052 38.2785C42.4869 38.5968 42.0552 38.7756 41.605 38.7756V42.1703C42.9555 42.1703 44.2507 41.6339 45.2057 40.6789C46.1606 39.724 46.6971 38.4288 46.6971 37.0783H43.3024ZM41.605 38.7756C41.1549 38.7756 40.7231 38.5968 40.4048 38.2785C40.0865 37.9602 39.9077 37.5284 39.9077 37.0783H36.5129C36.5129 38.4288 37.0494 39.724 38.0044 40.6789C38.9593 41.6339 40.2545 42.1703 41.605 42.1703V38.7756ZM39.9077 37.0783C39.9077 37.085 39.9077 37.0081 39.9688 36.827C40.0246 36.652 40.1181 36.4363 40.2494 36.1798C40.5142 35.6661 40.8853 35.0935 41.2859 34.5367C41.7733 33.863 42.2913 33.2121 42.8384 32.5859L42.8611 32.5587L42.8679 32.5542L41.605 31.4204L40.3422 30.2888H40.3377L40.3263 30.3001L40.2947 30.3386C40.1164 30.5424 39.9407 30.7484 39.7673 30.9564C39.4324 31.3593 38.9843 31.9228 38.5294 32.5542C38.0813 33.1766 37.6015 33.9031 37.2326 34.625C36.8886 35.2904 36.5129 36.1843 36.5129 37.0783H39.9077ZM41.605 31.4204L40.3422 32.552L40.3467 32.5587L40.3693 32.5859C40.526 32.7624 40.6792 32.942 40.8288 33.1245C41.1298 33.4866 41.5303 33.9868 41.9241 34.5367C42.3247 35.0935 42.6936 35.6661 42.9607 36.1798C43.0919 36.4363 43.1855 36.652 43.2413 36.827C43.3001 37.0081 43.3024 37.085 43.3024 37.0783H46.6971C46.6971 36.1843 46.3214 35.2949 45.9797 34.6273C45.5971 33.9059 45.163 33.2131 44.6806 32.5542C44.1281 31.7885 43.539 31.0499 42.9154 30.3409L42.8814 30.3024L42.8724 30.2888L41.605 31.4204Z" fill="#F6F6F6"/>
</svg>
