<svg width="46" height="46" viewBox="0 0 46 46" fill="none" xmlns="http://www.w3.org/2000/svg">
<path d="M23.0001 39.3333C32.0207 39.3333 39.3334 32.0207 39.3334 23C39.3334 13.9794 32.0207 6.66667 23.0001 6.66667C13.9794 6.66667 6.66675 13.9794 6.66675 23C6.66675 32.0207 13.9794 39.3333 23.0001 39.3333Z" stroke="white" stroke-width="4"/>
<path d="M22.9999 27.6667C25.5772 27.6667 27.6666 25.5773 27.6666 23C27.6666 20.4227 25.5772 18.3333 22.9999 18.3333C20.4226 18.3333 18.3333 20.4227 18.3333 23C18.3333 25.5773 20.4226 27.6667 22.9999 27.6667Z" fill="white" stroke="white" stroke-width="3"/>
<path d="M23 6.66667V2M39.3333 23H44M23 44V39.3333M2 23H6.66667" stroke="white" stroke-width="4" stroke-linecap="round"/>
</svg>
