<svg width="40" height="47" viewBox="0 0 40 47" fill="none" xmlns="http://www.w3.org/2000/svg">
<path d="M19.8201 45.4341L20.0064 45.506L20.191 45.4297L20.6718 45.231C26.2165 43.1564 30.9911 39.4512 34.3561 34.6104C37.7226 29.7676 39.5175 24.0195 39.4999 18.1361C39.4999 18.1357 39.4999 18.1352 39.4999 18.1348L39.4999 9.21055V8.86605L39.178 8.74334L20.1781 1.50039L20 1.43249L19.8219 1.50039L0.822071 8.74334L0.500174 8.86605V9.21055V18.1355C0.479667 24.0214 2.27322 29.7726 5.63997 34.6182C9.00634 39.4634 13.7846 43.1715 19.3339 45.2465C19.3347 45.2468 19.3355 45.2471 19.3364 45.2475L19.8201 45.4341ZM4.21444 18.1377V18.1363V11.4127L20 5.38384L35.7856 11.4127V18.1363V18.1377C35.7995 23.1839 34.2849 28.1181 31.4376 32.3007C28.6274 36.4289 24.6468 39.6371 20 41.521C15.3533 39.6371 11.3726 36.4289 8.56241 32.3007C5.71515 28.1181 4.20052 23.1839 4.21444 18.1377Z" fill="white" stroke="white"/>
</svg>
