<svg width="50" height="46" viewBox="0 0 50 46" fill="none" xmlns="http://www.w3.org/2000/svg">
<path d="M36.236 19.7157C36.1989 18.9069 35.8455 18.1434 35.2493 17.5843C34.6532 17.0251 33.8603 16.7135 33.036 16.7143M36.236 19.7157L43.4391 41.6071H47.4C47.8892 41.6071 48.3593 41.798 48.7066 42.139C49.054 42.4803 49.25 42.944 49.25 43.4286C49.25 43.9131 49.054 44.3769 48.7066 44.7181C48.3593 45.0592 47.8892 45.25 47.4 45.25H2.6C2.11079 45.25 1.64073 45.0592 1.29345 44.7181C0.946025 44.3769 0.75 43.9131 0.75 43.4286C0.75 42.944 0.946025 42.4803 1.29345 42.139L1.46863 42.3174L1.29345 42.139C1.64073 41.798 2.11079 41.6071 2.6 41.6071H5.79382C8.52305 36.1597 11.5987 28.2327 11.9222 19.7184C11.9542 18.84 12.3333 18.0094 12.9777 17.4023C13.6217 16.7955 14.4801 16.4595 15.3707 16.4643H33.0358H33.036V16.7143M36.236 19.7157C36.656 29.1129 41.004 37.8598 43.294 41.8571L36.236 19.7157ZM33.036 16.7143H15.37H33.036ZM29.8 0.75L29.7997 0.75C26.7655 0.753188 23.8556 1.93838 21.7087 4.04691C19.5617 6.15559 18.3533 9.01563 18.35 11.9997V12C18.35 12.4845 18.546 12.9483 18.8935 13.2895C19.2407 13.6306 19.7108 13.8214 20.2 13.8214C20.6892 13.8214 21.1593 13.6306 21.5065 13.2895C21.854 12.9483 22.05 12.4845 22.05 12C22.05 9.98393 22.8654 8.0495 24.3183 6.62252C25.7714 5.1954 27.7431 4.39286 29.8 4.39286H31.4C31.8892 4.39286 32.3593 4.20203 32.7066 3.86096C33.054 3.51974 33.25 3.05597 33.25 2.57143C33.25 2.08689 33.054 1.62312 32.7066 1.2819C32.3593 0.940826 31.8892 0.75 31.4 0.75L29.8 0.75ZM39.1066 4.42476L38.9314 4.60312L39.1065 4.42476C38.7593 4.08368 38.2892 3.89286 37.8 3.89286C37.3108 3.89286 36.8407 4.08368 36.4935 4.42476C36.146 4.76598 35.95 5.22974 35.95 5.71429C35.95 6.06328 35.8089 6.39892 35.5562 6.64709C35.3034 6.89542 34.9595 7.03571 34.6 7.03571H29.8C28.4621 7.03571 27.1781 7.55766 26.2307 8.48814C25.2832 9.41876 24.75 10.6819 24.75 12C24.75 12.4845 24.946 12.9483 25.2935 13.2895C25.6407 13.6306 26.1108 13.8214 26.6 13.8214C27.0892 13.8214 27.5593 13.6306 27.9065 13.2895C28.254 12.9483 28.45 12.4845 28.45 12C28.45 11.651 28.5911 11.3154 28.8438 11.0672C29.0966 10.8189 29.4405 10.6786 29.8 10.6786H34.6C35.9379 10.6786 37.2219 10.1566 38.1693 9.22615C39.1168 8.29553 39.65 7.03236 39.65 5.71429C39.65 5.22974 39.454 4.76598 39.1066 4.42476ZM39.2379 41.6071H36.2082C33.5208 36.2448 30.4975 28.474 30.0974 20.1071H32.7977C33.2426 28.806 36.7438 36.879 39.2379 41.6071ZM32.1055 41.6071H9.89512C12.5371 35.9922 15.25 28.344 15.61 20.1069L26.3896 20.0954C26.7495 28.3427 29.4733 35.9938 32.1055 41.6071Z" fill="white" stroke="white" stroke-width="0.5"/>
</svg>
