<svg width="38" height="46" viewBox="0 0 38 46" fill="none" xmlns="http://www.w3.org/2000/svg">
<path d="M2 27.5009H7.08935C7.71409 27.5009 8.33034 27.6412 8.88921 27.9132L13.2284 30.0127C13.7873 30.2826 14.4036 30.4228 15.0304 30.4228H17.2447C19.3867 30.4228 21.1249 32.1037 21.1249 34.1777C21.1249 34.2627 21.0675 34.3349 20.9846 34.3583L15.5851 35.8522C14.6162 36.1198 13.583 36.0262 12.6781 35.5887L8.03922 33.3447M11.3414 3.17408C14.4737 1.23184 17.2107 2.01383 18.8533 3.2612C19.5269 3.7712 19.8648 4.0262 20.0624 4.0262C20.26 4.0262 20.5979 3.7712 21.2715 3.2612C22.9141 2.01383 25.649 1.23184 28.7834 3.17408C32.8973 5.72406 33.8281 14.1305 24.3421 21.2237C22.5338 22.5752 21.6306 23.251 20.0624 23.251C18.4942 23.251 17.591 22.5752 15.7848 21.2237C6.29673 14.1305 7.22747 5.72194 11.3414 3.17408Z" stroke="white" stroke-width="4" stroke-linecap="round" stroke-linejoin="round"/>
<path d="M21.1249 32.8134L30.885 29.8151C31.7347 29.5543 32.645 29.5687 33.4861 29.856C34.3271 30.1434 35.0559 30.689 35.5684 31.4152C36.3526 32.4989 36.0338 34.0544 34.8906 34.7132L18.9213 43.9292C18.4219 44.2181 17.869 44.4024 17.2962 44.4707C16.7233 44.539 16.1426 44.49 15.5893 44.3266L2 40.2934" stroke="white" stroke-width="3" stroke-linecap="round" stroke-linejoin="round"/>
</svg>
