<svg width="35" height="50" viewBox="0 0 35 50" fill="none" xmlns="http://www.w3.org/2000/svg">
<path d="M17.675 50L27.65 39.9107L17.675 29.8214L14 33.5714L17.7625 37.4107C16.1292 37.4702 14.5402 37.2024 12.9955 36.6071C11.4508 36.0119 10.0648 35.0893 8.8375 33.8393C7.67083 32.6488 6.78067 31.2798 6.167 29.7321C5.55333 28.1845 5.24767 26.6369 5.25 25.0893C5.25 24.0774 5.38183 23.0655 5.6455 22.0536C5.90917 21.0417 6.27317 20.0595 6.7375 19.1071L2.8875 15.1786C1.89583 16.6667 1.16667 18.244 0.699999 19.9107C0.233333 21.5774 0 23.2738 0 25C0 27.2619 0.4375 29.494 1.3125 31.6964C2.1875 33.8988 3.47083 35.8631 5.1625 37.5893C6.85417 39.3155 8.75 40.6107 10.85 41.475C12.95 42.3393 15.1083 42.8 17.325 42.8571L14 46.25L17.675 50ZM32.1125 34.8214C33.1042 33.3333 33.8333 31.756 34.3 30.0893C34.7667 28.4226 35 26.7262 35 25C35 22.7381 34.5765 20.4905 33.7295 18.2571C32.8825 16.0238 31.6143 14.0452 29.925 12.3214C28.2357 10.5976 26.3247 9.31786 24.192 8.48214C22.0593 7.64643 19.887 7.22976 17.675 7.23214L21 3.75L17.325 0L7.35 10.0893L17.325 20.1786L21 16.4286L17.15 12.5C18.725 12.5 20.3292 12.8131 21.9625 13.4393C23.5958 14.0655 24.9958 14.9726 26.1625 16.1607C27.3292 17.3488 28.2193 18.7179 28.833 20.2679C29.4467 21.8179 29.7523 23.3655 29.75 24.9107C29.75 25.9226 29.6193 26.9345 29.358 27.9464C29.0967 28.9583 28.7315 29.9405 28.2625 30.8929L32.1125 34.8214Z" fill="white"/>
</svg>
