<svg width="37" height="46" viewBox="0 0 37 46" fill="none" xmlns="http://www.w3.org/2000/svg">
<path d="M6.84504 35.5748L6.84476 35.5746C3.20409 33.3184 0.5 29.6119 0.5 24.15C0.5 18.3748 3.68556 12.5131 7.27331 8.19728C9.09093 6.01248 11.0813 4.14119 12.9608 2.79888L12.9608 2.79884C14.7515 1.51952 16.7392 0.5 18.5 0.5C20.2608 0.5 22.2509 1.51963 24.0389 2.79866L24.0393 2.79895C25.9162 4.13879 27.9066 6.01228 29.7244 8.19728C33.3167 12.5153 36.5 18.3748 36.5 24.15C36.5 29.6119 33.7959 33.3184 30.1552 35.5746L30.1552 35.5746C27.3116 37.3372 23.9124 38.2181 20.7681 38.4985L20.3125 38.5391V38.9965V43.7C20.3125 44.1765 20.1222 44.6341 19.7826 44.9718C19.4429 45.3097 18.9816 45.5 18.5 45.5C18.0184 45.5 17.5571 45.3097 17.2174 44.9718C16.8778 44.6341 16.6875 44.1765 16.6875 43.7V38.9965V38.5387L16.2315 38.4984C13.0852 38.2203 9.68854 37.3396 6.84504 35.5748ZM10.0683 10.49L10.0682 10.4902C6.72265 14.51 4.125 19.5755 4.125 24.15C4.125 28.2139 6.04511 30.8349 8.76447 32.5214L8.76476 32.5216C10.9105 33.8504 13.5642 34.5937 16.1339 34.8706L16.6875 34.9303V34.3735V28.5545V28.3467L16.5402 28.2001L12.5928 24.2717L12.5928 24.2716L12.5864 24.2655C12.4134 24.0993 12.2756 23.9007 12.1808 23.6813C12.0861 23.4619 12.0362 23.226 12.0342 22.9874C12.0321 22.7487 12.0778 22.512 12.1687 22.291C12.2596 22.07 12.3939 21.869 12.564 21.6999C12.7341 21.5308 12.9364 21.3969 13.1594 21.3061C13.3823 21.2154 13.6213 21.1697 13.8624 21.1718C14.1034 21.1739 14.3415 21.2237 14.5629 21.3183C14.7842 21.4128 14.9842 21.5502 15.1512 21.7222L15.1512 21.7223L15.1573 21.7284L17.8514 24.4079L18.2677 24.8219L18.6101 24.345L22.805 18.5031C22.9432 18.3106 23.1183 18.147 23.3204 18.0216C23.5225 17.8962 23.7476 17.8115 23.9828 17.7726C24.218 17.7336 24.4587 17.7411 24.691 17.7946C24.9233 17.8481 25.1426 17.9466 25.3364 18.0842C25.5301 18.2219 25.6946 18.3961 25.8204 18.5967C25.9462 18.7973 26.031 19.0204 26.07 19.2533C26.109 19.4863 26.1016 19.7245 26.048 19.9546C25.9944 20.1847 25.8957 20.4022 25.7575 20.5946L25.7575 20.5947L20.4064 28.0467L20.3125 28.1774V28.3383V34.3735V34.9302L20.866 34.8706C23.4382 34.5937 26.0895 33.8504 28.2352 32.5216L28.2358 32.5212C30.9547 30.8326 32.875 28.2141 32.875 24.15C32.875 19.5755 30.2773 14.51 26.9318 10.4902L26.9315 10.4898C25.2786 8.5077 23.5113 6.85534 21.9217 5.72028C21.0667 5.10854 20.3511 4.70854 19.7883 4.45957C19.2416 4.21773 18.7983 4.1 18.5 4.1C18.2017 4.1 17.7584 4.21773 17.2117 4.45957C16.6489 4.70858 15.9331 5.10867 15.0779 5.72058C13.4885 6.85551 11.7213 8.50544 10.0683 10.49Z" fill="white" stroke="white"/>
</svg>
