<svg width="31" height="46" viewBox="0 0 31 46" fill="none" xmlns="http://www.w3.org/2000/svg">
<path d="M22.8845 11.3981V4.08846M22.8845 4.08846C22.8845 3.53457 22.6645 3.00336 22.2728 2.6117C21.8812 2.22003 21.35 2 20.7961 2H16.6191C16.0653 2 15.534 2.22003 15.1424 2.6117C14.7507 3.00336 14.5307 3.53457 14.5307 4.08846V11.3981M22.8845 4.08846H29.1499M10.3538 35.4154H27.0615" stroke="white" stroke-width="3.5" stroke-linecap="round" stroke-linejoin="round"/>
<path d="M14.5308 4.08846C11.2074 4.08846 8.02015 5.40866 5.67018 7.75864C3.3202 10.1086 2 13.2959 2 16.6192V39.5923M2 24.9731H10.3538M27.0615 18.7077C27.0615 16.4921 26.1814 14.3673 24.6148 12.8006C23.0481 11.234 20.9233 10.3538 18.7077 10.3538C16.4921 10.3538 14.3673 11.234 12.8006 12.8006C11.234 14.3673 10.3538 16.4921 10.3538 18.7077V39.5923C10.3538 40.7001 10.7939 41.7625 11.5772 42.5458C12.3606 43.3292 13.423 43.7692 14.5308 43.7692H22.8846C23.9924 43.7692 25.0548 43.3292 25.8381 42.5458C26.6215 41.7625 27.0615 40.7001 27.0615 39.5923V18.7077Z" stroke="white" stroke-width="3.5" stroke-linecap="round" stroke-linejoin="round"/>
</svg>
