<svg width="36" height="46" viewBox="0 0 36 46" fill="none" xmlns="http://www.w3.org/2000/svg">
<path d="M8.4 11.6923H14.8M8.4 23H27.6M8.4 29.4615H27.6M8.4 35.9231H14.8M5.2 44H30.8C31.6487 44 32.4626 43.6596 33.0627 43.0537C33.6629 42.4478 34 41.6261 34 40.7692V5.23077C34 4.37392 33.6629 3.55216 33.0627 2.94627C32.4626 2.34038 31.6487 2 30.8 2H5.2C4.35131 2 3.53737 2.34038 2.93726 2.94627C2.33714 3.55216 2 4.37392 2 5.23077V40.7692C2 41.6261 2.33714 42.4478 2.93726 43.0537C3.53737 43.6596 4.35131 44 5.2 44Z" stroke="white" stroke-width="4" stroke-linecap="round" stroke-linejoin="round"/>
</svg>
