<svg width="48" height="46" viewBox="0 0 48 46" fill="none" xmlns="http://www.w3.org/2000/svg">
<path d="M31.0022 0.178784C30.7033 0.0338012 30.3694 -0.0248183 30.0387 0.0095855C29.7079 0.0439893 29.3935 0.170037 29.1311 0.373406L13.6111 12.3847H3.55556C2.61256 12.3847 1.70819 12.7575 1.0414 13.4211C0.374602 14.0848 0 14.9848 0 15.9233V30.0777C0 31.0162 0.374602 31.9162 1.0414 32.5798C1.70819 33.2434 2.61256 33.6163 3.55556 33.6163H13.6111L29.1311 45.6276C29.3937 45.8308 29.7084 45.9565 30.0393 45.9906C30.3702 46.0247 30.704 45.9657 31.0029 45.8203C31.3018 45.6749 31.5536 45.449 31.7299 45.1682C31.9062 44.8875 31.9998 44.5631 32 44.232V1.76894C32 1.43748 31.9065 1.11267 31.7301 0.831527C31.5537 0.550384 31.3015 0.324212 31.0022 0.178784ZM28.4444 40.6138L15.3133 30.4514C15.002 30.2087 14.6177 30.077 14.2222 30.0777H3.55556V15.9233H14.2222C14.6177 15.9239 15.002 15.7923 15.3133 15.5495L28.4444 5.38715V40.6138ZM40.8889 17.6926V28.3084C40.8889 28.7776 40.7016 29.2276 40.3682 29.5595C40.0348 29.8913 39.5826 30.0777 39.1111 30.0777C38.6396 30.0777 38.1874 29.8913 37.854 29.5595C37.5206 29.2276 37.3333 28.7776 37.3333 28.3084V17.6926C37.3333 17.2234 37.5206 16.7733 37.854 16.4415C38.1874 16.1097 38.6396 15.9233 39.1111 15.9233C39.5826 15.9233 40.0348 16.1097 40.3682 16.4415C40.7016 16.7733 40.8889 17.2234 40.8889 17.6926ZM48 14.154V31.847C48 32.3162 47.8127 32.7662 47.4793 33.098C47.1459 33.4299 46.6937 33.6163 46.2222 33.6163C45.7507 33.6163 45.2985 33.4299 44.9651 33.098C44.6317 32.7662 44.4444 32.3162 44.4444 31.847V14.154C44.4444 13.6848 44.6317 13.2347 44.9651 12.9029C45.2985 12.5711 45.7507 12.3847 46.2222 12.3847C46.6937 12.3847 47.1459 12.5711 47.4793 12.9029C47.8127 13.2347 48 13.6848 48 14.154Z" fill="white"/>
</svg>
