<svg width="62" height="42" viewBox="0 0 62 42" fill="none" xmlns="http://www.w3.org/2000/svg">
<path d="M31 29C35.4183 29 39 25.4183 39 21C39 16.5817 35.4183 13 31 13C26.5817 13 23 16.5817 23 21C23 25.4183 26.5817 29 31 29Z" stroke="white" stroke-width="4" stroke-linecap="round" stroke-linejoin="round"/>
<path d="M52.7949 40C57.439 34.7456 60 27.9922 60 21C60 14.0078 57.439 7.25443 52.7949 2M9.18735 2.04018C4.55426 7.29197 2 14.0371 2 21.0201C2 28.0031 4.55426 34.7482 9.18735 40M19.26 12.0458C17.2699 14.6198 16.1911 17.7746 16.1911 21.0201C16.1911 24.2656 17.2699 27.4203 19.26 29.9944M42.7223 29.9944C44.7123 27.4203 45.7911 24.2656 45.7911 21.0201C45.7911 17.7746 44.7123 14.6198 42.7223 12.0458" stroke="white" stroke-width="4" stroke-linecap="round" stroke-linejoin="round"/>
<path d="M14.1379 7C10.8188 10.9246 9 15.8807 9 21C9 26.1193 10.8188 31.0754 14.1379 35M47.8621 35C51.1811 31.0754 53 26.1193 53 21C53 15.8807 51.1811 10.9246 47.8621 7" stroke="white" stroke-width="4" stroke-linecap="round" stroke-linejoin="round"/>
</svg>
