<svg width="47" height="47" viewBox="0 0 47 47" fill="none" xmlns="http://www.w3.org/2000/svg">
<path d="M37.3125 16.1313C37.3125 17.0568 38.0432 17.7875 38.9688 17.7875C39.8943 17.7875 40.625 17.0568 40.625 16.1313V5.21875C40.625 2.7463 38.6287 0.75 36.1562 0.75H10.8438C8.3713 0.75 6.375 2.7463 6.375 5.21875V10.8438C6.375 11.7693 7.10568 12.5 8.03125 12.5C8.95682 12.5 9.6875 11.7693 9.6875 10.8438V5.21875C9.6875 4.56932 10.1943 4.0625 10.8438 4.0625H36.1562C36.8057 4.0625 37.3125 4.56932 37.3125 5.21875V16.1313Z" fill="white" stroke="white" stroke-width="0.5"/>
<path d="M5.21875 46.25H41.7812C44.2537 46.25 46.25 44.2537 46.25 41.7812V19.2812C46.25 16.8088 44.2537 14.8125 41.7812 14.8125H23.625L19.9058 9.85359C19.6002 9.41528 19.0984 9.1875 18.5781 9.1875H5.21875C2.7463 9.1875 0.75 11.1838 0.75 13.6562V41.7812C0.75 44.2537 2.7463 46.25 5.21875 46.25ZM4.0625 13.6562C4.0625 13.0068 4.56932 12.5 5.21875 12.5H17.75L21.4704 17.4605C21.6216 17.6705 21.8216 17.8406 22.0531 17.9564C22.2846 18.0721 22.5407 18.13 22.7994 18.125H41.7812C42.4307 18.125 42.9375 18.6318 42.9375 19.2812V41.7812C42.9375 42.4307 42.4307 42.9375 41.7812 42.9375H5.21875C4.56932 42.9375 4.0625 42.4307 4.0625 41.7812V13.6562Z" fill="white" stroke="white" stroke-width="0.5"/>
<path d="M10.8438 38.0625H16.4688C17.5324 38.0625 18.375 37.2199 18.375 36.1562C18.375 35.0926 17.5324 34.25 16.4688 34.25H10.8438C9.78011 34.25 8.9375 35.0926 8.9375 36.1562C8.9375 37.2199 9.78011 38.0625 10.8438 38.0625Z" fill="white" stroke="white"/>
</svg>
