<svg width="63" height="49" viewBox="0 0 63 49" fill="none" xmlns="http://www.w3.org/2000/svg">
<path d="M37.8845 13.3981V6.08846M37.8845 6.08846C37.8845 5.53457 37.6645 5.00336 37.2728 4.6117C36.8812 4.22003 36.35 4 35.7961 4H31.6191C31.0653 4 30.534 4.22003 30.1424 4.6117C29.7507 5.00336 29.5307 5.53457 29.5307 6.08846V13.3981M37.8845 6.08846H44.1499M25.3538 37.4154H42.0615" stroke="#F6F6F6" stroke-width="3.5" stroke-linecap="round" stroke-linejoin="round"/>
<path d="M29.5308 6.08838C26.2074 6.08838 23.0202 7.40858 20.6702 9.75856C18.3202 12.1085 17 15.2958 17 18.6191V41.5922M17 26.973H25.3538M42.0615 20.7076C42.0615 18.492 41.1814 16.3672 39.6148 14.8005C38.0481 13.2339 35.9233 12.3538 33.7077 12.3538C31.4921 12.3538 29.3673 13.2339 27.8006 14.8005C26.234 16.3672 25.3538 18.492 25.3538 20.7076V41.5922C25.3538 42.7 25.7939 43.7624 26.5772 44.5458C27.3606 45.3291 28.423 45.7691 29.5308 45.7691H37.8846C38.9924 45.7691 40.0548 45.3291 40.8381 44.5458C41.6215 43.7624 42.0615 42.7 42.0615 41.5922V20.7076Z" stroke="#F6F6F6" stroke-width="3.5" stroke-linecap="round" stroke-linejoin="round"/>
</svg>
