<svg width="63" height="49" viewBox="0 0 63 49" fill="none" xmlns="http://www.w3.org/2000/svg">
<path d="M31.665 49L41.07 39.5161L31.665 30.0321L28.2 33.5571L31.7475 37.1661C30.2075 37.222 28.7093 36.9702 27.2529 36.4107C25.7965 35.8512 24.4897 34.9839 23.3325 33.8089C22.2325 32.6899 21.3932 31.403 20.8146 29.9482C20.236 28.4935 19.9478 27.0387 19.95 25.5839C19.95 24.6327 20.0743 23.6815 20.3229 22.7304C20.5715 21.7792 20.9147 20.856 21.3525 19.9607L17.7225 16.2679C16.7875 17.6667 16.1 19.1494 15.66 20.7161C15.22 22.2827 15 23.8774 15 25.5C15 27.6262 15.4125 29.7244 16.2375 31.7946C17.0625 33.8649 18.2725 35.7113 19.8675 37.3339C21.4625 38.9565 23.25 40.1741 25.23 40.9865C27.21 41.7989 29.245 42.232 31.335 42.2857L28.2 45.475L31.665 49ZM45.2775 34.7321C46.2125 33.3333 46.9 31.8506 47.34 30.2839C47.78 28.7173 48 27.1226 48 25.5C48 23.3738 47.6007 21.261 46.8021 19.1617C46.0035 17.0624 44.8078 15.2025 43.215 13.5821C41.6222 11.9618 39.8204 10.7588 37.8096 9.97321C35.7988 9.18764 33.7506 8.79598 31.665 8.79821L34.8 5.525L31.335 2L21.93 11.4839L31.335 20.9679L34.8 17.4429L31.17 13.75C32.655 13.75 34.1675 14.0443 35.7075 14.6329C37.2475 15.2215 38.5675 16.0743 39.6675 17.1911C40.7675 18.3079 41.6068 19.5948 42.1854 21.0518C42.764 22.5088 43.0522 23.9635 43.05 25.4161C43.05 26.3673 42.9268 27.3185 42.6804 28.2696C42.434 29.2208 42.0897 30.144 41.6475 31.0393L45.2775 34.7321Z" fill="#F6F6F6"/>
</svg>
