<svg width="63" height="49" viewBox="0 0 63 49" fill="none" xmlns="http://www.w3.org/2000/svg">
<path d="M33.0891 2.65878C32.6672 2.23696 32.095 2 31.4984 2C30.9018 2 30.3296 2.23696 29.9077 2.65878L9.65874 22.909C9.34418 23.2237 9.12998 23.6245 9.04321 24.0609C8.95643 24.4973 9.00099 24.9497 9.17124 25.3607C9.34149 25.7718 9.62979 26.1232 9.99969 26.3704C10.3696 26.6177 10.8045 26.7497 11.2494 26.7498H13.4993V42.5C13.4993 44.9817 15.5174 47 17.9991 47H44.9977C47.4794 47 49.4975 44.9817 49.4975 42.5V26.7498H51.7474C52.1928 26.7508 52.6284 26.6194 52.999 26.3723C53.3696 26.1253 53.6585 25.7737 53.8289 25.3621C53.9994 24.9506 54.0437 24.4977 53.9563 24.061C53.8689 23.6242 53.6537 23.2232 53.3381 22.909L33.0891 2.65878ZM45 42.5H17.9991V20.9312L31.4984 7.43108L44.9977 20.9312V31.2498L45 42.5Z" fill="#F6F6F6"/>
<path d="M33.25 20H28.75V26.75H22V31.25H28.75V38H33.25V31.25H40V26.75H33.25V20Z" fill="#F6F6F6"/>
</svg>
