<svg width="63" height="49" viewBox="0 0 63 49" fill="none" xmlns="http://www.w3.org/2000/svg">
<path d="M46.6667 3H25C22.6102 3 20.6667 4.92855 20.6667 7.3V20.2H16.3333C13.9435 20.2 12 22.1286 12 24.5V43.85C12 44.4202 12.2283 44.9671 12.6346 45.3703C13.0409 45.7735 13.592 46 14.1667 46H48.8333C49.408 46 49.9591 45.7735 50.3654 45.3703C50.7717 44.9671 51 44.4202 51 43.85V7.3C51 4.92855 49.0565 3 46.6667 3ZM16.3333 24.5H29.3333V41.7H16.3333V24.5ZM46.6667 41.7H33.6667V24.5C33.6667 22.1286 31.7232 20.2 29.3333 20.2H25V7.3H46.6667V41.7Z" fill="#F6F6F6"/>
<path d="M29.4 11H33.6V15.3996H29.4V11ZM37.8 11H42V15.3996H37.8V11ZM37.8 19.8673H42V24.1987H37.8V19.8673ZM37.8 28.5982H42V32.9978H37.8V28.5982ZM21 28.6004H25.2V33H21V28.6004Z" fill="#F6F6F6"/>
</svg>
