<svg width="63" height="49" viewBox="0 0 63 49" fill="none" xmlns="http://www.w3.org/2000/svg">
<g clip-path="url(#clip0_1071_2745)">
<mask id="path-1-outside-1_1071_2745" maskUnits="userSpaceOnUse" x="15" y="1" width="31" height="31" fill="black">
<rect fill="white" x="15" y="1" width="31" height="31"/>
<path fill-rule="evenodd" clip-rule="evenodd" d="M42.3995 11.4131L42.282 11.3217C42.0561 9.60617 41.2349 7.81886 39.9529 6.31225C37.8705 3.86433 34.4761 2 29.9328 2C25.4547 2 22.2992 4.04189 20.4374 6.57336C19.5685 7.74412 18.9479 9.08002 18.6136 10.4992C18.5529 10.7649 18.5041 11.0333 18.4674 11.3034L18.3264 11.4118C16.8589 12.5489 15.7818 13.9276 16.0377 15.5086C16.2832 17.0361 17.6644 17.9656 18.9491 18.5336C19.2764 18.678 19.6276 18.8138 20.0027 18.9409C19.8139 20.4126 19.9409 21.9077 20.3752 23.3265C20.8095 24.7453 21.541 26.0553 22.5212 27.1692C23.5014 28.2831 24.7077 29.1754 26.0597 29.7867C27.4118 30.3979 28.8785 30.714 30.3623 30.714C31.8461 30.714 33.3128 30.3979 34.6648 29.7867C36.0169 29.1754 37.2231 28.2831 38.2033 27.1692C39.1835 26.0553 39.9151 24.7453 40.3494 23.3265C40.7836 21.9077 40.9106 20.4126 40.7219 18.9409C41.097 18.8147 41.4482 18.6789 41.7754 18.5336C43.0601 17.9656 44.4401 17.0361 44.6868 15.5086C44.9427 13.9276 43.8656 12.5489 42.3982 11.4118M21.1516 13.3205C20.9819 12.8322 20.9375 12.0476 21.1581 11.0775C21.3748 10.131 21.8239 9.09308 22.5289 8.13219V11.7917C22.5289 12.1379 22.6665 12.47 22.9113 12.7148C23.1562 12.9597 23.4882 13.0972 23.8345 13.0972C24.1808 13.0972 24.5128 12.9597 24.7577 12.7148C25.0025 12.47 25.1401 12.1379 25.1401 11.7917V5.79917C26.2145 5.18817 27.5136 4.76125 29.0567 4.64375V9.18056C29.0567 9.52681 29.1943 9.85888 29.4391 10.1037C29.684 10.3486 30.016 10.4861 30.3623 10.4861C30.7085 10.4861 31.0406 10.3486 31.2854 10.1037C31.5303 9.85888 31.6678 9.52681 31.6678 9.18056V4.72469C33.0465 4.89833 34.3774 5.34197 35.5845 6.03025V11.7917C35.5845 12.1379 35.7221 12.47 35.9669 12.7148C36.2117 12.9597 36.5438 13.0972 36.8901 13.0972C37.2363 13.0972 37.5684 12.9597 37.8132 12.7148C38.0581 12.47 38.1956 12.1379 38.1956 11.7917V8.29017C39.6383 10.1388 39.9764 12.1337 39.5704 13.3309C39.4698 13.6272 39.479 13.9498 39.5962 14.2399C39.7135 14.53 39.9311 14.7683 40.2093 14.9115C40.4876 15.0546 40.808 15.0931 41.1122 15.0199C41.4164 14.9466 41.6842 14.7666 41.8668 14.5124C42.124 14.8715 42.1149 15.0621 42.1097 15.0921C42.0927 15.1966 41.8929 15.6274 40.7193 16.147C40.2101 16.3716 39.6043 16.5739 38.9241 16.7528L38.8928 16.7606C38.1551 16.9512 37.3339 17.1131 36.4553 17.2463C34.8257 17.4811 33.1833 17.6163 31.5373 17.651C30.4057 17.6797 29.2735 17.6675 28.1428 17.6144C26.8424 17.5555 25.5456 17.4318 24.2575 17.2437C23.441 17.1253 22.6313 16.9641 21.8318 16.7606L21.8004 16.7528C21.1867 16.5995 20.5864 16.3969 20.0053 16.147C18.8316 15.6274 18.6319 15.1966 18.6149 15.0921C18.6097 15.0621 18.6005 14.8715 18.8577 14.5124C19.0406 14.7677 19.3094 14.9485 19.6148 15.0216C19.9202 15.0948 20.2417 15.0554 20.5204 14.9108C20.7991 14.7661 21.0164 14.5258 21.1323 14.234C21.2482 13.9421 21.2551 13.6183 21.1516 13.3218M22.5577 19.6002C22.992 19.6846 23.4394 19.7617 23.8998 19.8313C25.2941 20.0402 26.7955 20.1733 28.323 20.236C29.6846 20.2921 31.0478 20.2921 32.4094 20.236C33.9291 20.1733 35.4252 20.0402 36.813 19.8313C37.2778 19.7634 37.7291 19.6864 38.1669 19.6002C38.2597 20.6814 38.1269 21.7701 37.7769 22.7973C37.4268 23.8244 36.8671 24.7677 36.1334 25.5672C35.3996 26.3666 34.5077 27.0049 33.5143 27.4416C32.5208 27.8783 31.4475 28.1037 30.3623 28.1037C29.2771 28.1037 28.2038 27.8783 27.2103 27.4416C26.2169 27.0049 25.325 26.3666 24.5912 25.5672C23.8574 24.7677 23.2978 23.8244 22.9477 22.7973C22.5976 21.7701 22.4648 20.6814 22.5577 19.6002Z"/>
</mask>
<path fill-rule="evenodd" clip-rule="evenodd" d="M42.3995 11.4131L42.282 11.3217C42.0561 9.60617 41.2349 7.81886 39.9529 6.31225C37.8705 3.86433 34.4761 2 29.9328 2C25.4547 2 22.2992 4.04189 20.4374 6.57336C19.5685 7.74412 18.9479 9.08002 18.6136 10.4992C18.5529 10.7649 18.5041 11.0333 18.4674 11.3034L18.3264 11.4118C16.8589 12.5489 15.7818 13.9276 16.0377 15.5086C16.2832 17.0361 17.6644 17.9656 18.9491 18.5336C19.2764 18.678 19.6276 18.8138 20.0027 18.9409C19.8139 20.4126 19.9409 21.9077 20.3752 23.3265C20.8095 24.7453 21.541 26.0553 22.5212 27.1692C23.5014 28.2831 24.7077 29.1754 26.0597 29.7867C27.4118 30.3979 28.8785 30.714 30.3623 30.714C31.8461 30.714 33.3128 30.3979 34.6648 29.7867C36.0169 29.1754 37.2231 28.2831 38.2033 27.1692C39.1835 26.0553 39.9151 24.7453 40.3494 23.3265C40.7836 21.9077 40.9106 20.4126 40.7219 18.9409C41.097 18.8147 41.4482 18.6789 41.7754 18.5336C43.0601 17.9656 44.4401 17.0361 44.6868 15.5086C44.9427 13.9276 43.8656 12.5489 42.3982 11.4118M21.1516 13.3205C20.9819 12.8322 20.9375 12.0476 21.1581 11.0775C21.3748 10.131 21.8239 9.09308 22.5289 8.13219V11.7917C22.5289 12.1379 22.6665 12.47 22.9113 12.7148C23.1562 12.9597 23.4882 13.0972 23.8345 13.0972C24.1808 13.0972 24.5128 12.9597 24.7577 12.7148C25.0025 12.47 25.1401 12.1379 25.1401 11.7917V5.79917C26.2145 5.18817 27.5136 4.76125 29.0567 4.64375V9.18056C29.0567 9.52681 29.1943 9.85888 29.4391 10.1037C29.684 10.3486 30.016 10.4861 30.3623 10.4861C30.7085 10.4861 31.0406 10.3486 31.2854 10.1037C31.5303 9.85888 31.6678 9.52681 31.6678 9.18056V4.72469C33.0465 4.89833 34.3774 5.34197 35.5845 6.03025V11.7917C35.5845 12.1379 35.7221 12.47 35.9669 12.7148C36.2117 12.9597 36.5438 13.0972 36.8901 13.0972C37.2363 13.0972 37.5684 12.9597 37.8132 12.7148C38.0581 12.47 38.1956 12.1379 38.1956 11.7917V8.29017C39.6383 10.1388 39.9764 12.1337 39.5704 13.3309C39.4698 13.6272 39.479 13.9498 39.5962 14.2399C39.7135 14.53 39.9311 14.7683 40.2093 14.9115C40.4876 15.0546 40.808 15.0931 41.1122 15.0199C41.4164 14.9466 41.6842 14.7666 41.8668 14.5124C42.124 14.8715 42.1149 15.0621 42.1097 15.0921C42.0927 15.1966 41.8929 15.6274 40.7193 16.147C40.2101 16.3716 39.6043 16.5739 38.9241 16.7528L38.8928 16.7606C38.1551 16.9512 37.3339 17.1131 36.4553 17.2463C34.8257 17.4811 33.1833 17.6163 31.5373 17.651C30.4057 17.6797 29.2735 17.6675 28.1428 17.6144C26.8424 17.5555 25.5456 17.4318 24.2575 17.2437C23.441 17.1253 22.6313 16.9641 21.8318 16.7606L21.8004 16.7528C21.1867 16.5995 20.5864 16.3969 20.0053 16.147C18.8316 15.6274 18.6319 15.1966 18.6149 15.0921C18.6097 15.0621 18.6005 14.8715 18.8577 14.5124C19.0406 14.7677 19.3094 14.9485 19.6148 15.0216C19.9202 15.0948 20.2417 15.0554 20.5204 14.9108C20.7991 14.7661 21.0164 14.5258 21.1323 14.234C21.2482 13.9421 21.2551 13.6183 21.1516 13.3218M22.5577 19.6002C22.992 19.6846 23.4394 19.7617 23.8998 19.8313C25.2941 20.0402 26.7955 20.1733 28.323 20.236C29.6846 20.2921 31.0478 20.2921 32.4094 20.236C33.9291 20.1733 35.4252 20.0402 36.813 19.8313C37.2778 19.7634 37.7291 19.6864 38.1669 19.6002C38.2597 20.6814 38.1269 21.7701 37.7769 22.7973C37.4268 23.8244 36.8671 24.7677 36.1334 25.5672C35.3996 26.3666 34.5077 27.0049 33.5143 27.4416C32.5208 27.8783 31.4475 28.1037 30.3623 28.1037C29.2771 28.1037 28.2038 27.8783 27.2103 27.4416C26.2169 27.0049 25.325 26.3666 24.5912 25.5672C23.8574 24.7677 23.2978 23.8244 22.9477 22.7973C22.5976 21.7701 22.4648 20.6814 22.5577 19.6002Z" fill="#F6F6F6"/>
<path d="M42.282 11.3217L41.9846 11.3608L42.0006 11.4829L42.0978 11.5585L42.282 11.3217ZM39.9529 6.31225L39.7244 6.50663L39.7244 6.50667L39.9529 6.31225ZM20.4374 6.57336L20.6783 6.75216L20.6791 6.7511L20.4374 6.57336ZM18.6136 10.4992L18.3216 10.4304L18.3211 10.4324L18.6136 10.4992ZM18.4674 11.3034L18.6502 11.5413L18.748 11.4661L18.7646 11.3438L18.4674 11.3034ZM18.3264 11.4118L18.1436 11.1739L18.1426 11.1746L18.3264 11.4118ZM16.0377 15.5086L16.3339 15.461L16.3339 15.4607L16.0377 15.5086ZM18.9491 18.5336L18.8278 18.8079L18.8279 18.808L18.9491 18.5336ZM20.0027 18.9409L20.3003 18.9791L20.3315 18.7355L20.0989 18.6568L20.0027 18.9409ZM40.7219 18.9409L40.6262 18.6566L40.393 18.735L40.4243 18.9791L40.7219 18.9409ZM41.7754 18.5336L41.6542 18.2592L41.6537 18.2594L41.7754 18.5336ZM44.6868 15.5086L44.3907 15.4607L44.3907 15.4607L44.6868 15.5086ZM21.1581 11.0775L20.8657 11.0106L20.8656 11.011L21.1581 11.0775ZM22.5289 8.13219H22.8289V7.21617L22.2871 7.95473L22.5289 8.13219ZM25.1401 5.79917L24.9918 5.53838L24.8401 5.62465V5.79917H25.1401ZM29.0567 4.64375H29.3567V4.32004L29.0339 4.34462L29.0567 4.64375ZM31.6678 4.72469L31.7053 4.42705L31.3678 4.38454V4.72469H31.6678ZM35.5845 6.03025H35.8845V5.85597L35.7331 5.76964L35.5845 6.03025ZM38.1956 8.29017L38.4321 8.1056L37.8956 7.4181V8.29017H38.1956ZM39.5704 13.3309L39.8544 13.4274L39.8545 13.4273L39.5704 13.3309ZM41.8668 14.5124L42.1107 14.3377L41.8672 13.9978L41.6232 14.3374L41.8668 14.5124ZM42.1097 15.0921L41.8141 15.0407L41.8136 15.044L42.1097 15.0921ZM40.7193 16.147L40.8403 16.4215L40.8407 16.4213L40.7193 16.147ZM38.9241 16.7528L38.9969 17.0438L39.0004 17.0429L38.9241 16.7528ZM38.8928 16.7606L38.82 16.4696L38.8177 16.4702L38.8928 16.7606ZM36.4553 17.2463L36.4981 17.5432L36.5003 17.5429L36.4553 17.2463ZM31.5373 17.651L31.5309 17.3511L31.5297 17.3511L31.5373 17.651ZM28.1428 17.6144L28.1569 17.3148L28.1564 17.3148L28.1428 17.6144ZM24.2575 17.2437L24.3008 16.9468L24.3005 16.9468L24.2575 17.2437ZM21.8318 16.7606L21.9058 16.4699L21.9045 16.4696L21.8318 16.7606ZM21.8004 16.7528L21.8732 16.4617L21.8731 16.4617L21.8004 16.7528ZM20.0053 16.147L19.8839 16.4213L19.8868 16.4226L20.0053 16.147ZM18.6149 15.0921L18.911 15.044L18.9105 15.0407L18.6149 15.0921ZM18.8577 14.5124L19.1016 14.3377L18.8577 13.9973L18.6138 14.3377L18.8577 14.5124ZM22.5577 19.6002L22.6149 19.3057L22.2873 19.242L22.2588 19.5745L22.5577 19.6002ZM23.8998 19.8313L23.8549 20.1279L23.8553 20.128L23.8998 19.8313ZM28.323 20.236L28.3354 19.9363L28.3353 19.9363L28.323 20.236ZM32.4094 20.236L32.4217 20.5357H32.4218L32.4094 20.236ZM36.813 19.8313L36.7697 19.5344L36.7684 19.5346L36.813 19.8313ZM38.1669 19.6002L38.4658 19.5745L38.4372 19.2412L38.109 19.3058L38.1669 19.6002ZM42.5837 11.1763L42.4662 11.0849L42.0978 11.5585L42.2153 11.6499L42.5837 11.1763ZM42.5794 11.2825C42.3452 9.50324 41.4964 7.66323 40.1814 6.11783L39.7244 6.50667C40.9735 7.97449 41.7671 9.7091 41.9846 11.3608L42.5794 11.2825ZM40.1814 6.11787C38.0416 3.60246 34.5634 1.7 29.9328 1.7V2.3C34.3888 2.3 37.6994 4.12621 39.7244 6.50663L40.1814 6.11787ZM29.9328 1.7C25.3533 1.7 22.1104 3.79221 20.1958 6.39562L20.6791 6.7511C22.4879 4.29157 25.5561 2.3 29.9328 2.3V1.7ZM20.1965 6.39457C19.3033 7.59813 18.6652 8.97147 18.3216 10.4304L18.9056 10.568C19.2305 9.18858 19.8338 7.8901 20.6783 6.75216L20.1965 6.39457ZM18.3211 10.4324C18.2584 10.7068 18.208 10.984 18.1701 11.263L18.7646 11.3438C18.8001 11.0826 18.8473 10.823 18.906 10.566L18.3211 10.4324ZM18.2846 11.0655L18.1436 11.1739L18.5092 11.6496L18.6502 11.5413L18.2846 11.0655ZM18.1426 11.1746C16.6621 12.3219 15.4571 13.7987 15.7416 15.5565L16.3339 15.4607C16.1066 14.0564 17.0557 12.7759 18.5101 11.6489L18.1426 11.1746ZM15.7415 15.5562C16.0134 17.248 17.5314 18.2348 18.8278 18.8079L19.0704 18.2592C17.7975 17.6965 16.553 16.8242 16.3339 15.461L15.7415 15.5562ZM18.8279 18.808C19.1642 18.9564 19.5237 19.0954 19.9064 19.225L20.0989 18.6568C19.7314 18.5322 19.3886 18.3996 19.0703 18.2591L18.8279 18.808ZM19.7051 18.9027C19.5109 20.4167 19.6416 21.9547 20.0883 23.4143L20.662 23.2387C20.2403 21.8606 20.1169 20.4085 20.3003 18.9791L19.7051 18.9027ZM20.0883 23.4143C20.5351 24.8738 21.2877 26.2215 22.296 27.3674L22.7465 26.971C21.7944 25.8891 21.0838 24.6167 20.662 23.2387L20.0883 23.4143ZM22.296 27.3674C23.3043 28.5133 24.5453 29.4312 25.9361 30.06L26.1833 29.5133C24.8701 28.9196 23.6985 28.0529 22.7465 26.971L22.296 27.3674ZM25.9361 30.06C27.327 30.6888 28.8359 31.014 30.3623 31.014V30.414C28.9211 30.414 27.4965 30.107 26.1833 29.5133L25.9361 30.06ZM30.3623 31.014C31.8887 31.014 33.3976 30.6888 34.7884 30.06L34.5413 29.5133C33.2281 30.107 31.8034 30.414 30.3623 30.414V31.014ZM34.7884 30.06C36.1793 29.4312 37.4202 28.5133 38.4285 27.3674L37.9781 26.971C37.0261 28.0529 35.8544 28.9196 34.5413 29.5133L34.7884 30.06ZM38.4285 27.3674C39.4369 26.2214 40.1895 24.8738 40.6362 23.4143L40.0625 23.2387C39.6407 24.6167 38.9301 25.8891 37.9781 26.971L38.4285 27.3674ZM40.6362 23.4143C41.083 21.9547 41.2136 20.4167 41.0194 18.9027L40.4243 18.9791C40.6076 20.4085 40.4843 21.8606 40.0625 23.2387L40.6362 23.4143ZM40.8175 19.2252C41.2006 19.0964 41.5606 18.9572 41.8972 18.8077L41.6537 18.2594C41.3358 18.4006 40.9934 18.533 40.6262 18.6566L40.8175 19.2252ZM41.8967 18.8079C43.1934 18.2347 44.7098 17.2479 44.983 15.5564L44.3907 15.4607C44.1704 16.8243 42.9268 17.6966 41.6542 18.2592L41.8967 18.8079ZM44.983 15.5565C45.2675 13.7987 44.0625 12.3219 42.582 11.1746L42.2144 11.6489C43.6688 12.7759 44.618 14.0564 44.3907 15.4607L44.983 15.5565ZM21.435 13.222C21.2891 12.8024 21.2382 12.078 21.4506 11.1441L20.8656 11.011C20.6367 12.0171 20.6746 12.862 20.8682 13.419L21.435 13.222ZM21.4505 11.1445C21.6582 10.2377 22.0901 9.2374 22.7708 8.30966L22.2871 7.95473C21.5577 8.94877 21.0915 10.0243 20.8657 11.0106L21.4505 11.1445ZM22.2289 8.13219V11.7917H22.8289V8.13219H22.2289ZM22.2289 11.7917C22.2289 12.2175 22.3981 12.6259 22.6992 12.927L23.1235 12.5027C22.9349 12.3141 22.8289 12.0584 22.8289 11.7917H22.2289ZM22.6992 12.927C23.0003 13.2281 23.4087 13.3972 23.8345 13.3972V12.7972C23.5678 12.7972 23.312 12.6913 23.1235 12.5027L22.6992 12.927ZM23.8345 13.3972C24.2603 13.3972 24.6687 13.2281 24.9698 12.927L24.5455 12.5027C24.357 12.6913 24.1012 12.7972 23.8345 12.7972V13.3972ZM24.9698 12.927C25.2709 12.6259 25.4401 12.2175 25.4401 11.7917H24.8401C24.8401 12.0584 24.7341 12.3141 24.5455 12.5027L24.9698 12.927ZM25.4401 11.7917V5.79917H24.8401V11.7917H25.4401ZM25.2884 6.05995C26.3236 5.47124 27.5797 5.05708 29.0795 4.94288L29.0339 4.34462C27.4474 4.46542 26.1054 4.90509 24.9918 5.53838L25.2884 6.05995ZM28.7567 4.64375V9.18056H29.3567V4.64375H28.7567ZM28.7567 9.18056C28.7567 9.60638 28.9259 10.0148 29.227 10.3159L29.6512 9.89159C29.4627 9.70301 29.3567 9.44725 29.3567 9.18056H28.7567ZM29.227 10.3159C29.5281 10.617 29.9365 10.7861 30.3623 10.7861V10.1861C30.0956 10.1861 29.8398 10.0802 29.6512 9.89159L29.227 10.3159ZM30.3623 10.7861C30.7881 10.7861 31.1965 10.617 31.4976 10.3159L31.0733 9.89159C30.8847 10.0802 30.629 10.1861 30.3623 10.1861V10.7861ZM31.4976 10.3159C31.7987 10.0148 31.9678 9.60638 31.9678 9.18056H31.3678C31.3678 9.44725 31.2619 9.70301 31.0733 9.89159L31.4976 10.3159ZM31.9678 9.18056V4.72469H31.3678V9.18056H31.9678ZM31.6303 5.02234C32.9699 5.19105 34.263 5.62211 35.4359 6.29086L35.7331 5.76964C34.4918 5.06183 33.1231 4.60561 31.7053 4.42705L31.6303 5.02234ZM35.2845 6.03025V11.7917H35.8845V6.03025H35.2845ZM35.2845 11.7917C35.2845 12.2175 35.4537 12.6259 35.7548 12.927L36.179 12.5027C35.9904 12.3141 35.8845 12.0584 35.8845 11.7917H35.2845ZM35.7548 12.927C36.0559 13.2281 36.4642 13.3972 36.8901 13.3972V12.7972C36.6234 12.7972 36.3676 12.6913 36.179 12.5027L35.7548 12.927ZM36.8901 13.3972C37.3159 13.3972 37.7243 13.2281 38.0254 12.927L37.6011 12.5027C37.4125 12.6913 37.1567 12.7972 36.8901 12.7972V13.3972ZM38.0254 12.927C38.3265 12.6259 38.4956 12.2175 38.4956 11.7917H37.8956C37.8956 12.0584 37.7897 12.3141 37.6011 12.5027L38.0254 12.927ZM38.4956 11.7917V8.29017H37.8956V11.7917H38.4956ZM37.9591 8.47473C39.3607 10.2708 39.6502 12.1616 39.2863 13.2346L39.8545 13.4273C40.3026 12.1059 39.9158 10.0068 38.4321 8.1056L37.9591 8.47473ZM39.2863 13.2345C39.1626 13.5989 39.1739 13.9956 39.3181 14.3523L39.8744 14.1275C39.784 13.904 39.777 13.6556 39.8544 13.4274L39.2863 13.2345ZM39.3181 14.3523C39.4623 14.7091 39.7299 15.0022 40.0721 15.1783L40.3466 14.6447C40.1323 14.5345 39.9647 14.3509 39.8744 14.1275L39.3181 14.3523ZM40.0721 15.1783C40.4143 15.3543 40.8083 15.4016 41.1824 15.3115L41.042 14.7282C40.8077 14.7846 40.5609 14.755 40.3466 14.6447L40.0721 15.1783ZM41.1824 15.3115C41.5566 15.2215 41.8859 15 42.1105 14.6875L41.6232 14.3374C41.4826 14.5331 41.2763 14.6718 41.042 14.7282L41.1824 15.3115ZM41.623 14.6872C41.8524 15.0074 41.8008 15.1173 41.8141 15.0407L42.4052 15.1435C42.429 15.0069 42.3957 14.7355 42.1107 14.3377L41.623 14.6872ZM41.8136 15.044C41.8199 15.0052 41.8167 15.0828 41.6434 15.2447C41.4761 15.401 41.164 15.622 40.5978 15.8727L40.8407 16.4213C41.4482 16.1524 41.8228 15.8982 42.053 15.6831C42.2773 15.4735 42.3825 15.2835 42.4058 15.1402L41.8136 15.044ZM40.5982 15.8725C40.1075 16.0889 39.5175 16.2865 38.8478 16.4626L39.0004 17.0429C39.6911 16.8613 40.3127 16.6542 40.8403 16.4215L40.5982 15.8725ZM38.8513 16.4617L38.82 16.4696L38.9656 17.0517L38.9969 17.0438L38.8513 16.4617ZM38.8177 16.4702C38.092 16.6577 37.2811 16.8177 36.4104 16.9497L36.5003 17.5429C37.3867 17.4085 38.2183 17.2448 38.9678 17.0511L38.8177 16.4702ZM36.4125 16.9493C34.795 17.1824 33.1648 17.3166 31.5309 17.3511L31.5436 17.9509C33.2019 17.9159 34.8564 17.7798 36.4981 17.5432L36.4125 16.9493ZM31.5297 17.3511C30.4053 17.3796 29.2804 17.3675 28.1569 17.3148L28.1288 17.9141C29.2667 17.9675 30.4061 17.9798 31.5449 17.9509L31.5297 17.3511ZM28.1564 17.3148C26.8659 17.2563 25.5791 17.1335 24.3008 16.9468L24.2142 17.5405C25.5122 17.73 26.8188 17.8547 28.1292 17.9141L28.1564 17.3148ZM24.3005 16.9468C23.4945 16.83 22.6951 16.6708 21.9058 16.4699L21.7578 17.0513C22.5675 17.2574 23.3876 17.4207 24.2145 17.5406L24.3005 16.9468ZM21.9045 16.4696L21.8732 16.4617L21.7277 17.0438L21.759 17.0517L21.9045 16.4696ZM21.8731 16.4617C21.2751 16.3124 20.6901 16.1149 20.1238 15.8714L19.8868 16.4226C20.4827 16.6789 21.0984 16.8867 21.7278 17.0438L21.8731 16.4617ZM20.1267 15.8727C19.5605 15.622 19.2485 15.401 19.0811 15.2447C18.9079 15.0828 18.9047 15.0052 18.911 15.044L18.3188 15.1402C18.3421 15.2835 18.4472 15.4735 18.6715 15.6831C18.9017 15.8982 19.2764 16.1524 19.8839 16.4213L20.1267 15.8727ZM18.9105 15.0407C18.9238 15.1173 18.8722 15.0074 19.1016 14.6872L18.6138 14.3377C18.3289 14.7355 18.2956 15.0069 18.3193 15.1435L18.9105 15.0407ZM18.6139 14.6872C18.8388 15.0011 19.1693 15.2234 19.5449 15.3134L19.6847 14.7299C19.4495 14.6735 19.2425 14.5343 19.1016 14.3377L18.6139 14.6872ZM19.5449 15.3134C19.9205 15.4034 20.3159 15.3549 20.6586 15.177L20.3822 14.6445C20.1675 14.7559 19.9199 14.7862 19.6847 14.7299L19.5449 15.3134ZM20.6586 15.177C21.0014 14.9991 21.2685 14.7036 21.4111 14.3447L20.8535 14.1232C20.7642 14.348 20.5969 14.5331 20.3822 14.6445L20.6586 15.177ZM21.4111 14.3447C21.5537 13.9858 21.5621 13.5875 21.4348 13.2229L20.8683 13.4206C20.948 13.649 20.9428 13.8984 20.8535 14.1232L21.4111 14.3447ZM22.5004 19.8947C22.9391 19.98 23.3906 20.0577 23.8549 20.1279L23.9446 19.5347C23.4881 19.4656 23.0449 19.3893 22.6149 19.3057L22.5004 19.8947ZM23.8553 20.128C25.262 20.3387 26.7742 20.4727 28.3107 20.5358L28.3353 19.9363C26.8168 19.874 25.3263 19.7416 23.9442 19.5346L23.8553 20.128ZM28.3106 20.5357C29.6804 20.5922 31.052 20.5922 32.4217 20.5357L32.397 19.9363C31.0437 19.992 29.6887 19.992 28.3354 19.9363L28.3106 20.5357ZM32.4218 20.5357C33.9504 20.4727 35.4575 20.3387 36.8577 20.1279L36.7684 19.5346C35.3929 19.7417 33.9077 19.874 32.397 19.9363L32.4218 20.5357ZM36.8564 20.1281C37.3258 20.0596 37.7819 19.9817 38.2248 19.8946L38.109 19.3058C37.6762 19.391 37.2298 19.4672 36.7697 19.5344L36.8564 20.1281ZM37.868 19.6259C37.9573 20.6657 37.8295 21.7127 37.4929 22.7005L38.0608 22.894C38.4243 21.8275 38.5622 20.6971 38.4658 19.5745L37.868 19.6259ZM37.4929 22.7005C37.1562 23.6883 36.618 24.5954 35.9123 25.3643L36.3544 25.77C37.1163 24.9399 37.6974 23.9605 38.0608 22.894L37.4929 22.7005ZM35.9123 25.3643C35.2067 26.1332 34.3489 26.747 33.3935 27.167L33.635 27.7162C34.6665 27.2629 35.5925 26.6001 36.3544 25.77L35.9123 25.3643ZM33.3935 27.167C32.4381 27.5869 31.4059 27.8037 30.3623 27.8037V28.4037C31.489 28.4037 32.6035 28.1696 33.635 27.7162L33.3935 27.167ZM30.3623 27.8037C29.3187 27.8037 28.2864 27.5869 27.331 27.167L27.0896 27.7162C28.1211 28.1696 29.2355 28.4037 30.3623 28.4037V27.8037ZM27.331 27.167C26.3756 26.747 25.5179 26.1332 24.8122 25.3643L24.3702 25.77C25.132 26.6001 26.0581 27.2629 27.0896 27.7162L27.331 27.167ZM24.8122 25.3643C24.1065 24.5954 23.5683 23.6883 23.2317 22.7005L22.6637 22.894C23.0272 23.9605 23.6083 24.9399 24.3702 25.77L24.8122 25.3643ZM23.2317 22.7005C22.895 21.7127 22.7673 20.6657 22.8566 19.6259L22.2588 19.5745C22.1624 20.6971 22.3003 21.8275 22.6637 22.894L23.2317 22.7005Z" fill="#F6F6F6" mask="url(#path-1-outside-1_1071_2745)"/>
<path d="M37.0536 31.2141L36.8778 31.1833V31.3618V37.0999H24.1222V31.3618V31.1834L23.9464 31.2141C23.0692 31.3672 22.1961 31.5427 21.3278 31.7404L21.3277 31.7404C17.7667 32.5536 14.1605 33.7747 11.4406 35.3506C8.73144 36.9202 6.85 38.8731 6.85 41.1665V48.9999V49.1499H7H54H54.15V48.9999V41.1665C54.15 38.8731 52.2686 36.9202 49.5595 35.3506C46.8395 33.7747 43.2333 32.5536 39.6723 31.7404L39.6722 31.7404C38.7923 31.5401 37.9151 31.3646 37.0536 31.2141ZM43.4056 35.8102V46.2388H18.9V35.3896C19.6571 35.1604 20.4315 34.9505 21.2111 34.7592V39.861V40.011H21.3611H39.6389H39.7889V39.861V34.76C41.0092 35.057 42.2159 35.4074 43.4056 35.8102ZM15.9889 36.4006V46.2388H9.76111V41.1665C9.76111 40.841 9.8985 40.3367 10.5665 39.6241L10.5666 39.6241C11.2474 38.8974 12.3313 38.1287 13.8073 37.3784L13.8074 37.3783C14.4855 37.0327 15.217 36.7064 15.9889 36.4006ZM47.1926 37.3783L47.1928 37.3784C48.6687 38.1287 49.7526 38.8974 50.4334 39.6241L50.4335 39.6241C51.1015 40.3367 51.2389 40.841 51.2389 41.1665V46.2388H46.3167V36.9559C46.6185 37.0936 46.9104 37.2344 47.1926 37.3783ZM46.1667 46.2388V36.888V46.2388Z" fill="#F6F6F6" stroke="#F6F6F6" stroke-width="0.3"/>
</g>
<defs>
<clipPath id="clip0_1071_2745">
<rect width="63" height="49" fill="white"/>
</clipPath>
</defs>
</svg>
