<svg width="63" height="49" viewBox="0 0 63 49" fill="none" xmlns="http://www.w3.org/2000/svg">
<path d="M22.9302 46.0001C20.723 43.34 20.981 39.4044 21.7664 36.8733C34.5996 43.1336 36.2736 31.6677 35.3105 28.8013C39.6245 31.6677 43.8096 41.4682 39.3637 46.0001" stroke="#F6F6F6" stroke-width="3.5" stroke-linecap="round" stroke-linejoin="round"/>
<path d="M22.1047 46C12.8631 42.93 10.5069 28.9387 14.4053 21.4314C17.2575 27.5686 21.9155 27.5686 21.9155 27.5686C18.8111 15.2857 25.0199 6.07 36.9931 3C34.6484 7.30258 32.7708 14.0245 37.5292 18.3328C38.5382 16.4151 41.9235 12.2129 46.7592 12.2129C46.7592 12.2129 43.0414 18.8115 47.0745 24.5616C51.7326 31.1975 50.5401 41.0811 43.6147 45.9971M55.5966 46H6.86648M7.027 46H4M55.436 46H58.463" stroke="#F6F6F6" stroke-width="3.5" stroke-linecap="round" stroke-linejoin="round"/>
</svg>
