<svg width="63" height="49" viewBox="0 0 63 49" fill="none" xmlns="http://www.w3.org/2000/svg">
<mask id="path-1-outside-1_1066_4462" maskUnits="userSpaceOnUse" x="11" y="1" width="41" height="48" fill="black">
<rect fill="white" x="11" y="1" width="41" height="48"/>
<path d="M49.7519 37.5153L38.0011 21.1804V5.28571H41.2512V2H21.7504V5.28571H25.0006V21.1804L13.2497 37.5153C12.5409 38.5001 12.1154 39.6639 12.0204 40.8781C11.9253 42.0922 12.1643 43.3092 12.711 44.3945C13.2577 45.4798 14.0907 46.391 15.1179 47.0273C16.1451 47.6637 17.3265 48.0003 18.5312 48H44.4688C45.6735 48.0003 46.8549 47.6637 47.8821 47.0273C48.9093 46.391 49.7423 45.4798 50.289 44.3945C50.8357 43.3092 51.0747 42.0922 50.9796 40.8781C50.8846 39.6639 50.4591 38.5001 49.7503 37.5153M28.2507 22.2482V5.28571H34.7509V22.2482L39.0947 28.2857H23.9069L28.2507 22.2482ZM44.4705 44.7143H18.5328C17.9279 44.7136 17.335 44.544 16.8195 44.2242C16.3039 43.9044 15.8858 43.4468 15.6113 42.9019C15.3368 42.357 15.2165 41.7461 15.2637 41.1365C15.311 40.5268 15.5239 39.9423 15.8791 39.4473L21.544 31.5714H41.4576L47.1242 39.4473C47.4793 39.9423 47.6923 40.5268 47.7395 41.1365C47.7868 41.7461 47.6665 42.357 47.392 42.9019C47.1174 43.4468 46.6993 43.9044 46.1838 44.2242C45.6682 44.544 45.0753 44.7136 44.4705 44.7143Z"/>
</mask>
<path d="M49.7519 37.5153L38.0011 21.1804V5.28571H41.2512V2H21.7504V5.28571H25.0006V21.1804L13.2497 37.5153C12.5409 38.5001 12.1154 39.6639 12.0204 40.8781C11.9253 42.0922 12.1643 43.3092 12.711 44.3945C13.2577 45.4798 14.0907 46.391 15.1179 47.0273C16.1451 47.6637 17.3265 48.0003 18.5312 48H44.4688C45.6735 48.0003 46.8549 47.6637 47.8821 47.0273C48.9093 46.391 49.7423 45.4798 50.289 44.3945C50.8357 43.3092 51.0747 42.0922 50.9796 40.8781C50.8846 39.6639 50.4591 38.5001 49.7503 37.5153M28.2507 22.2482V5.28571H34.7509V22.2482L39.0947 28.2857H23.9069L28.2507 22.2482ZM44.4705 44.7143H18.5328C17.9279 44.7136 17.335 44.544 16.8195 44.2242C16.3039 43.9044 15.8858 43.4468 15.6113 42.9019C15.3368 42.357 15.2165 41.7461 15.2637 41.1365C15.311 40.5268 15.5239 39.9423 15.8791 39.4473L21.544 31.5714H41.4576L47.1242 39.4473C47.4793 39.9423 47.6923 40.5268 47.7395 41.1365C47.7868 41.7461 47.6665 42.357 47.392 42.9019C47.1174 43.4468 46.6993 43.9044 46.1838 44.2242C45.6682 44.544 45.0753 44.7136 44.4705 44.7143Z" fill="#F6F6F6"/>
<path d="M38.0011 21.1804H37.5011V21.3415L37.5952 21.4723L38.0011 21.1804ZM38.0011 5.28571V4.78571H37.5011V5.28571H38.0011ZM41.2512 5.28571V5.78571H41.7512V5.28571H41.2512ZM41.2512 2H41.7512V1.5H41.2512V2ZM21.7504 2V1.5H21.2504V2H21.7504ZM21.7504 5.28571H21.2504V5.78571H21.7504V5.28571ZM25.0006 5.28571H25.5006V4.78571H25.0006V5.28571ZM25.0006 21.1804L25.4064 21.4723L25.5006 21.3415V21.1804H25.0006ZM13.2497 37.5153L13.6555 37.8074L13.6556 37.8073L13.2497 37.5153ZM18.5312 48V47.5H18.531L18.5312 48ZM44.4688 48L44.469 47.5H44.4688V48ZM28.2507 22.2482L28.6566 22.5402L28.7507 22.4094V22.2482H28.2507ZM28.2507 5.28571V4.78571H27.7507V5.28571H28.2507ZM34.7509 5.28571H35.2509V4.78571H34.7509V5.28571ZM34.7509 22.2482H34.2509V22.4094L34.3451 22.5402L34.7509 22.2482ZM39.0947 28.2857V28.7857H40.0704L39.5006 27.9937L39.0947 28.2857ZM23.9069 28.2857L23.501 27.9937L22.9312 28.7857H23.9069V28.2857ZM44.4705 44.7143V45.2143H44.471L44.4705 44.7143ZM18.5328 44.7143L18.5323 45.2143H18.5328V44.7143ZM15.8791 39.4473L15.4732 39.1553L15.4728 39.1558L15.8791 39.4473ZM21.544 31.5714V31.0714H21.2878L21.1381 31.2795L21.544 31.5714ZM41.4576 31.5714L41.8634 31.2794L41.7138 31.0714H41.4576V31.5714ZM47.1242 39.4473L47.5304 39.1558L47.53 39.1553L47.1242 39.4473ZM50.1578 37.2233L38.407 20.8884L37.5952 21.4723L49.346 37.8073L50.1578 37.2233ZM38.5011 21.1804V5.28571H37.5011V21.1804H38.5011ZM38.0011 5.78571H41.2512V4.78571H38.0011V5.78571ZM41.7512 5.28571V2H40.7512V5.28571H41.7512ZM41.2512 1.5H21.7504V2.5H41.2512V1.5ZM21.2504 2V5.28571H22.2504V2H21.2504ZM21.7504 5.78571H25.0006V4.78571H21.7504V5.78571ZM24.5006 5.28571V21.1804H25.5006V5.28571H24.5006ZM24.5947 20.8884L12.8438 37.2233L13.6556 37.8073L25.4064 21.4723L24.5947 20.8884ZM12.8439 37.2232C12.0814 38.2826 11.6241 39.534 11.5219 40.839L12.5188 40.9171C12.6068 39.7939 13.0004 38.7176 13.6555 37.8074L12.8439 37.2232ZM11.5219 40.839C11.4197 42.144 11.6766 43.4524 12.2645 44.6194L13.1576 44.1695C12.6521 43.166 12.4309 42.0403 12.5188 40.9171L11.5219 40.839ZM12.2645 44.6194C12.8524 45.7865 13.7486 46.7672 14.8546 47.4524L15.3813 46.6023C14.4329 46.0148 13.663 45.173 13.1576 44.1695L12.2645 44.6194ZM14.8546 47.4524C15.9607 48.1376 17.2332 48.5003 18.5313 48.5L18.531 47.5C17.4197 47.5003 16.3296 47.1898 15.3813 46.6023L14.8546 47.4524ZM18.5312 48.5H44.4688V47.5H18.5312V48.5ZM44.4687 48.5C45.7668 48.5003 47.0393 48.1376 48.1454 47.4524L47.6187 46.6023C46.6704 47.1898 45.5803 47.5003 44.469 47.5L44.4687 48.5ZM48.1454 47.4524C49.2514 46.7672 50.1476 45.7865 50.7355 44.6194L49.8424 44.1695C49.337 45.173 48.5671 46.0148 47.6187 46.6023L48.1454 47.4524ZM50.7355 44.6194C51.3234 43.4524 51.5803 42.144 51.4781 40.839L50.4812 40.9171C50.5691 42.0403 50.3479 43.166 49.8424 44.1695L50.7355 44.6194ZM51.4781 40.839C51.3759 39.534 50.9186 38.2826 50.1561 37.2232L49.3445 37.8074C49.9996 38.7176 50.3932 39.7939 50.4812 40.9171L51.4781 40.839ZM28.7507 22.2482V5.28571H27.7507V22.2482H28.7507ZM28.2507 5.78571H34.7509V4.78571H28.2507V5.78571ZM34.2509 5.28571V22.2482H35.2509V5.28571H34.2509ZM34.3451 22.5402L38.6889 28.5777L39.5006 27.9937L35.1568 21.9562L34.3451 22.5402ZM39.0947 27.7857H23.9069V28.7857H39.0947V27.7857ZM24.3128 28.5777L28.6566 22.5402L27.8448 21.9562L23.501 27.9937L24.3128 28.5777ZM44.4705 44.2143H18.5328V45.2143H44.4705V44.2143ZM18.5333 44.2143C18.0217 44.2137 17.5199 44.0703 17.0831 43.7993L16.5559 44.6491C17.1502 45.0178 17.8341 45.2135 18.5323 45.2143L18.5333 44.2143ZM17.0831 43.7993C16.6462 43.5283 16.2912 43.1401 16.0578 42.6769L15.1648 43.1269C15.4805 43.7535 15.9617 44.2805 16.5559 44.6491L17.0831 43.7993ZM16.0578 42.6769C15.8244 42.2137 15.722 41.694 15.7622 41.1751L14.7652 41.0978C14.7109 41.7982 14.8491 42.5004 15.1648 43.1269L16.0578 42.6769ZM15.7622 41.1751C15.8025 40.6563 15.9837 40.1592 16.2853 39.7388L15.4728 39.1558C15.0642 39.7254 14.8195 40.3974 14.7652 41.0978L15.7622 41.1751ZM16.285 39.7393L21.95 31.8634L21.1381 31.2795L15.4732 39.1553L16.285 39.7393ZM21.544 32.0714H41.4576V31.0714H21.544V32.0714ZM41.0517 31.8634L46.7183 39.7393L47.53 39.1553L41.8634 31.2794L41.0517 31.8634ZM46.7179 39.7388C47.0196 40.1592 47.2008 40.6563 47.241 41.1751L48.238 41.0978C48.1837 40.3974 47.9391 39.7254 47.5304 39.1558L46.7179 39.7388ZM47.241 41.1751C47.2812 41.694 47.1788 42.2137 46.9454 42.6769L47.8385 43.1269C48.1542 42.5004 48.2923 41.7982 48.238 41.0978L47.241 41.1751ZM46.9454 42.6769C46.7121 43.1401 46.357 43.5283 45.9202 43.7993L46.4473 44.6491C47.0416 44.2805 47.5228 43.7535 47.8385 43.1269L46.9454 42.6769ZM45.9202 43.7993C45.4834 44.0703 44.9815 44.2137 44.4699 44.2143L44.471 45.2143C45.1691 45.2135 45.8531 45.0178 46.4473 44.6491L45.9202 43.7993Z" fill="#F6F6F6" mask="url(#path-1-outside-1_1066_4462)"/>
</svg>
