<svg width="77" height="77" viewBox="0 0 77 77" fill="none" xmlns="http://www.w3.org/2000/svg">
<path d="M65.6281 11.3719L73.6938 12.9841C74.1269 13.0707 74.4831 13.3883 74.6082 13.8166C74.6714 14.0247 74.677 14.246 74.6245 14.457C74.5719 14.668 74.4632 14.8608 74.3098 15.015L67.7022 21.6273C66.9105 22.4146 65.8399 22.8574 64.7233 22.8593H59.2419L45.4781 36.6279C45.7407 37.6194 45.789 38.6554 45.6198 39.667C45.4506 40.6786 45.0677 41.6426 44.4967 42.4946C43.9258 43.3467 43.1798 44.0672 42.3085 44.6084C41.4372 45.1495 40.4605 45.4987 39.4437 45.6328C38.4268 45.7669 37.3931 45.6828 36.4113 45.386C35.4295 45.0892 34.5222 44.5867 33.7499 43.9117C32.9776 43.2368 32.3579 42.4051 31.9322 41.4719C31.5066 40.5388 31.2847 39.5256 31.2813 38.5C31.281 37.3922 31.5357 36.2993 32.0256 35.3058C32.5155 34.3123 33.2275 33.4449 34.1064 32.7707C34.9853 32.0965 36.0076 31.6336 37.0941 31.4179C38.1807 31.2022 39.3022 31.2394 40.3721 31.5267L54.1406 17.7533V12.2815C54.1406 11.165 54.5834 10.0918 55.3726 9.30252L61.985 2.69015C62.1391 2.53677 62.332 2.42803 62.543 2.37549C62.754 2.32295 62.9753 2.32858 63.1833 2.39177C63.6116 2.5169 63.9293 2.87302 64.0159 3.30615L65.6281 11.3719Z" fill="white"/>
<path d="M9.62484 38.5002C9.62978 42.6291 10.5202 46.709 12.2359 50.4646C13.9517 54.2201 16.453 57.564 19.571 60.2708C22.689 62.9775 26.3512 64.984 30.3106 66.155C34.27 67.326 38.4345 67.6343 42.5231 67.0589C46.6118 66.4836 50.5295 65.0381 54.0121 62.82C57.4946 60.6018 60.4609 57.6626 62.7109 54.2006C64.9609 50.7386 66.4423 46.8343 67.055 42.751C67.6678 38.6678 67.3978 34.5007 66.2631 30.5307C66.1038 30.0669 66.0406 29.5755 66.0773 29.0865C66.1139 28.5974 66.2497 28.121 66.4764 27.6861C66.7031 27.2512 67.0159 26.867 67.3958 26.5569C67.7757 26.2468 68.2148 26.0172 68.6862 25.8822C69.1577 25.7472 69.6517 25.7095 70.1381 25.7715C70.6246 25.8335 71.0934 25.9938 71.5159 26.2427C71.9385 26.4917 72.3059 26.824 72.5959 27.2195C72.8859 27.615 73.0924 28.0653 73.2028 28.5431C75.3998 36.2312 74.9825 44.4312 72.0163 51.8565C69.05 59.2818 63.7028 65.5124 56.8134 69.5707C49.924 73.629 41.8823 75.2855 33.9499 74.2802C26.0174 73.2749 18.6432 69.6647 12.984 64.0161C7.33092 58.3583 3.7169 50.9833 2.7093 43.049C1.7017 35.1148 3.35758 27.0706 7.41698 20.1794C11.4764 13.2881 17.7094 7.94016 25.1374 4.97507C32.5655 2.00999 40.7679 1.5957 48.4569 3.79726C49.3724 4.06489 50.1448 4.68405 50.6052 5.51942C51.0657 6.3548 51.1767 7.33846 50.914 8.25545C50.6514 9.17243 50.0365 9.94817 49.2036 10.4131C48.3708 10.8781 47.3877 10.9945 46.4693 10.7369C42.1697 9.50223 37.642 9.28345 33.2434 10.0978C28.8448 10.9121 24.6955 12.7373 21.1228 15.4294C17.5502 18.1215 14.6519 21.6068 12.6565 25.6105C10.6612 29.6143 9.62331 34.0268 9.62484 38.5002Z" fill="white"/>
<path d="M24.0626 38.4999C24.0629 41.1303 24.7813 43.7108 26.1405 45.9629C27.4996 48.2151 29.4478 50.0534 31.775 51.2796C34.1021 52.5058 36.7199 53.0734 39.346 52.9212C41.972 52.7689 44.5067 51.9026 46.6765 50.4156C48.846 48.9249 50.5666 46.8694 51.6523 44.4715C52.7381 42.0736 53.1476 39.4245 52.8365 36.8107C52.7524 36.1764 52.8389 35.5311 53.087 34.9414C53.3352 34.3516 53.736 33.8387 54.2483 33.4553C54.7606 33.072 55.3658 32.8321 56.0016 32.7604C56.6374 32.6886 57.2808 32.7877 57.8656 33.0473C58.4503 33.3035 58.9565 33.7102 59.3328 34.2259C59.709 34.7417 59.9417 35.3479 60.0072 35.9829C60.5301 40.4494 59.6496 44.9679 57.4879 48.9112C55.3262 52.8546 51.9905 56.0272 47.9439 57.9887C43.8972 59.9502 39.3403 60.6033 34.9056 59.8574C30.4709 59.1114 26.3784 57.0035 23.1962 53.826C20.0139 50.6486 17.8997 46.5593 17.1471 42.1258C16.3944 37.6922 17.0406 33.1343 18.9959 29.0847C20.9513 25.035 24.1188 21.6946 28.0589 19.5269C31.9989 17.3592 36.5161 16.4718 40.9834 16.988C41.4617 17.0324 41.9264 17.1718 42.3501 17.3981C42.7739 17.6244 43.1482 17.933 43.4511 18.3058C43.7541 18.6786 43.9795 19.1082 44.1143 19.5693C44.2491 20.0304 44.2905 20.5138 44.236 20.9911C44.1815 21.4684 44.0324 21.93 43.7972 22.3489C43.562 22.7678 43.2456 23.1355 42.8664 23.4305C42.4873 23.7255 42.0531 23.9419 41.5892 24.0669C41.1254 24.1919 40.6413 24.2231 40.1652 24.1586C38.1423 23.9237 36.0926 24.1195 34.1507 24.733C32.2089 25.3465 30.4187 26.3639 28.898 27.7183C27.3772 29.0727 26.1601 30.7336 25.3268 32.5917C24.4934 34.4499 24.0626 36.4634 24.0626 38.4999Z" fill="white"/>
</svg>
