<?xml version="1.0" encoding="UTF-8"?>
<svg id="Capa_2" xmlns="http://www.w3.org/2000/svg" viewBox="0 0 275.48 221.99">
  <defs>
    <style>
      .cls-1 {
        fill: #fff;
      }
    </style>
  </defs>
  <g id="Capa_1-2" data-name="Capa_1">
    <g id="laV1A9.tif">
      <path class="cls-1" d="M152.04,139.84c-6.49,8.62-11.19,18.06-11.91,28.66-.91,13.43-.59,26.94-.82,40.42-.02,1.4.05,2.83-.2,4.19-1,5.46-5.75,9.21-11.08,8.86-5.59-.37-9.9-4.78-10.03-10.75-.17-8.2-.42-16.42.06-24.6.32-5.46-1.43-9.22-5.39-12.86-6.9-6.35-13.33-13.22-19.92-19.91-1.13-1.15-1.99-1.75-3.85-.99-30.7,12.5-59.98,1.62-75.85-28.05C3.73,107.36.41,88.5.03,68.99c-.09-4.63.04-9.29.49-13.89.49-4.97,4.34-8.72,9.13-9.03,21.25-1.38,42.06.59,61.82,9.11,14.85,6.41,27.21,15.87,34.66,30.65,7.94,15.73,7.57,31.8,1.07,47.86-1.04,2.56-.68,4,1.23,5.81,4.44,4.21,8.66,8.65,12.8,12.82,3.2-6.41,6.31-12.64,9.43-18.86.14-.29.3-.58.48-.84,1.81-2.66,4.79-5.19,5.12-8.02.31-2.68-2.26-5.64-3.37-8.56-13.9-36.51-1.54-73.06,31.59-94.02,17.66-11.18,37.09-17.13,57.59-19.99,13.93-1.94,27.94-2.54,41.98-1.53,7.39.53,10.89,4.24,11.19,11.93.61,15.55.2,31.05-2.41,46.45-3,17.68-8.2,34.58-17.57,50-9.6,15.8-22.26,28.26-39.76,35.12-20.62,8.09-40.8,5.78-60.66-2.88-.87-.38-1.73-.79-2.8-1.28ZM167.77,123.43c13.02,4.9,25.84,6.05,38.75,1.21,16.91-6.34,27.48-19.24,35.05-34.94,7.8-16.16,11.11-33.48,12.25-51.25.36-5.55.06-11.15.06-16.8-.42-.07-.83-.18-1.25-.19-17.81-.31-35.32,1.61-52.34,7.08-15.24,4.9-29.08,12.18-39.48,24.72-13.67,16.47-15.51,34.83-8.2,54.93,1.03-.96,1.83-1.64,2.57-2.38,18.66-18.74,37.27-37.52,56.03-56.15,1.72-1.71,4.28-3.04,6.67-3.53,4.66-.96,8.99,1.57,10.96,5.64,2.15,4.42,1.32,8.87-2.47,12.68-18.64,18.75-37.31,37.48-55.96,56.22-.82.83-1.6,1.69-2.63,2.78ZM74.24,135.43c-1.28-1.35-2.07-2.21-2.9-3.04-7.47-7.48-15.02-14.88-22.39-22.46-4.68-4.81-4.6-11.34-.13-15.61,4.38-4.18,10.63-3.91,15.31.74,5.28,5.24,10.52,10.53,15.75,15.83,3,3.05,5.93,6.17,8.95,9.32.54-.71.71-.87.79-1.06.13-.29.22-.6.28-.92,2.69-13.45-1.19-24.86-11.4-33.8-16.26-14.23-36.22-16.8-56.92-17.58-.12.95-.27,1.57-.26,2.19.07,13.37,2.02,26.4,7.08,38.86,3.63,8.95,8.78,16.82,16.73,22.55,8.67,6.25,18.22,7.71,29.12,4.98Z"/>
    </g>
  </g>
</svg>