<?xml version="1.0" encoding="UTF-8"?>
<svg id="Capa_2" xmlns="http://www.w3.org/2000/svg" viewBox="0 0 241.88 222.14">
  <defs>
    <style>
      .cls-1 {
        fill: #fff;
      }
    </style>
  </defs>
  <g id="Capa_1-2" data-name="Capa_1">
    <g>
      <path class="cls-1" d="M87.17,58.17c-.56-4.17.09-8.32.93-12.4C93.01,21.93,112.41,3.89,136.55.58c5.77-.79,11.56-.59,17.34-.43,4.63.13,8.63,4.54,8.94,9.37.31,4.85-3.29,9.48-8.07,10.43-2.44.48-4.9.13-7.42.29-6.48-.36-12.82.62-18.72,3.54-11.7,5.79-18.79,15.08-20.78,28.08-.27,1.73-.33,3.49-.43,5.24-.32,5.39-4.35,9.4-9.76,9.67-5.14.26-9.77-3.43-10.46-8.61Z"/>
      <path class="cls-1" d="M167.77,31.11c3.93-.03,6.1-2.16,6.27-6.07.25-5.37,4.78-9.5,10.35-9.45,5.44.05,9.89,4.31,10.05,9.63.36,11.68-7.96,22.35-19.7,25.26-2.14.53-4.31.8-6.51.79h-22.63c-4.25,0-6.07,1.66-6.48,5.87-.53,5.39-4.4,9.27-9.61,9.64-4.89.34-9.52-2.92-10.54-7.73-.81-3.82-.08-7.6,1.29-11.22,3.82-10.05,13.34-16.64,24.1-16.7,3.64-.02,7.28,0,10.92,0h0c4.16,0,8.33.02,12.5-.01Z"/>
      <path class="cls-1" d="M231.79,202.01c-5.79-.04-11.58-.04-17.37.01-1.21.01-1.92-.4-2.5-1.46-2.6-4.78-5.13-9.59-7.52-14.47-8.22-16.79-14.92-34.15-19.54-52.28-3.22-12.65-5.38-25.46-5.99-38.52-.48-10.24-8.08-17.5-18.32-17.53-16.81-.05-33.61-.02-50.41-.02-12.64,0-25.27-.09-37.9.06-8.97.11-16.51,7.71-16.94,16.64-.27,5.61-.65,11.2-1.34,16.77-1.54,12.51-4.1,24.82-7.53,36.95-5.13,18.07-12.07,35.43-20.27,52.32-.56,1.15-1.26,1.57-2.54,1.56-4.61-.06-9.22-.13-13.82.01-4.25.13-7.36,2.29-8.99,6.2-2.81,6.74,2.14,13.89,9.56,13.89,36.86.01,73.71,0,110.57,0h69.89c13.65,0,27.29.01,40.94,0,4.24,0,8.12-2.7,9.49-6.51,2.42-6.71-2.31-13.55-9.45-13.61ZM152.38,201.99c-17.06,0-34.13,0-51.19,0h-50.66c-.31,0-.62,0-.92,0-1.38-.04-1.5-.21-.95-1.45,1.17-2.65,2.37-5.28,3.52-7.93,8.47-19.68,15.07-39.94,19.22-60.98,2.1-10.64,3.54-21.36,4.06-32.19.06-1.16.47-1.59,1.66-1.58,16.05.03,32.11.03,48.17-.01,1.23,0,1.58.48,1.64,1.61,1.21,22.47,5.9,44.26,12.87,65.61,3.91,11.97,8.55,23.67,13.77,35.13.79,1.73.75,1.8-1.18,1.8ZM187.6,201.99c-1.49.01-2.99,0-4.48,0-1.41,0-2.82-.09-4.21.03-1.41.12-2.13-.49-2.72-1.71-3.15-6.47-6.14-13-8.89-19.65-5.61-13.61-10.3-27.51-13.8-41.81-2.62-10.71-4.48-21.54-5.61-32.5-.23-2.27-.35-4.55-.55-6.82-.1-1.14.23-1.7,1.51-1.66,2.76.07,5.53.04,8.29.01.92-.01,1.33.32,1.4,1.28,1.62,24.19,7.56,47.39,16.18,69.96,4.03,10.54,8.64,20.82,13.78,30.86.06.12.12.23.18.35.74,1.51.65,1.65-1.09,1.66Z"/>
    </g>
  </g>
</svg>