<?xml version="1.0" encoding="UTF-8"?>
<svg id="Capa_2" data-name="Capa 2" xmlns="http://www.w3.org/2000/svg" viewBox="0 0 178.25 143.62">
  <defs>
    <style>
      .cls-1 {
        fill: #ca4e54;
        stroke-width: 0px;
      }
    </style>
  </defs>
  <g id="Capa_1-2" data-name="Capa 1">
    <polygon class="cls-1" points="161.3 86.23 177.91 57.59 144.83 .02 58.3 0 58.3 0 0 0 0 28.8 0 143.53 28.79 143.53 28.79 86.21 28.79 28.8 28.79 28.8 28.79 28.8 28.79 28.8 30.16 28.8 58.3 28.8 58.3 28.76 95.17 28.71 128.26 28.79 145 57.59 128.23 86.2 144.96 114.95 111.75 115.01 95.18 86.36 111.85 57.52 95.17 28.71 78.55 57.59 45.33 57.62 28.79 86.21 61.8 86.19 94.94 143.61 161.75 143.62 178.25 114.91 161.3 86.23"/>
  </g>
</svg>