<?xml version="1.0" encoding="UTF-8"?>
<svg id="Capa_2" xmlns="http://www.w3.org/2000/svg" viewBox="0 0 228.15 127.05">
  <defs>
    <style>
      .cls-1 {
        fill: #ca4e54;
      }

      .cls-2 {
        fill: #2e434d;
      }
    </style>
  </defs>
  <g id="Capa_1-2" data-name="Capa_1">
    <g>
      <g>
        <path class="cls-2" d="M94.32,126.79l-.09-2.53c-.05.27-.13.52-.25.76s-.25.46-.42.67c-.34.42-.81.74-1.41.98-.6.24-1.34.36-2.24.36-.52,0-1.01-.04-1.46-.13s-.88-.21-1.27-.38c-.77-.35-1.38-.87-1.81-1.57-.43-.7-.65-1.58-.65-2.66v-.05c0-.52.06-1,.18-1.45.12-.45.3-.85.54-1.22.48-.73,1.13-1.29,1.97-1.67.84-.39,1.79-.58,2.87-.58.48,0,.93.03,1.35.09s.82.15,1.2.26c.75.23,1.36.61,1.83,1.11.48.51.79,1.17.95,1.97h-1.82c-.17-.69-.54-1.2-1.12-1.51-.58-.31-1.37-.47-2.36-.47-1.21,0-2.17.28-2.88.85-.7.57-1.05,1.45-1.05,2.64h0c0,1.13.33,1.97.98,2.53.66.56,1.59.84,2.82.84.43,0,.83-.03,1.19-.08.36-.05.68-.13.96-.23.56-.21.98-.48,1.26-.83.29-.34.46-.72.51-1.14h-4.06v-1.34h5.61v4.76h-1.34Z"/>
        <path class="cls-2" d="M102.78,123.51h-3.29v3.28h-1.6v-9.25h4.89c1.59,0,2.73.23,3.44.68.7.46,1.05,1.17,1.05,2.15,0,.71-.18,1.26-.54,1.65-.36.39-.9.66-1.63.82.71.15,1.22.43,1.54.86.31.43.47,1.06.47,1.91v.59c0,.12.02.24.05.34.03.11.09.19.18.24h-1.71c-.09-.04-.14-.12-.17-.24-.03-.12-.04-.24-.04-.36v-.57c0-.27-.02-.51-.06-.72-.04-.21-.1-.39-.18-.54-.16-.31-.44-.53-.82-.66-.38-.13-.91-.19-1.57-.19ZM102.7,122.13c.29,0,.56,0,.81-.03s.49-.04.71-.08c.43-.08.77-.23,1.02-.46.25-.23.37-.56.37-1v-.1c0-.62-.23-1.03-.69-1.24-.46-.21-1.18-.31-2.16-.31h-3.28v3.22h3.21Z"/>
        <path class="cls-2" d="M114.36,127.04c-.53,0-1.03-.04-1.5-.13-.47-.09-.92-.21-1.33-.38-.82-.35-1.47-.87-1.94-1.57-.47-.7-.7-1.6-.7-2.69v-.04c0-.52.06-1,.18-1.45.12-.44.3-.85.54-1.21.48-.73,1.13-1.28,1.95-1.67.82-.38,1.76-.57,2.81-.57.52,0,1.02.05,1.48.14.47.1.91.23,1.33.42.83.37,1.49.92,1.98,1.65.49.72.73,1.62.73,2.67v.06c0,.54-.06,1.03-.18,1.47-.12.44-.3.84-.55,1.2-.48.7-1.13,1.23-1.97,1.58-.83.35-1.77.52-2.82.52ZM114.35,125.58c.38,0,.74-.03,1.08-.08s.65-.14.94-.25c.58-.22,1.04-.57,1.37-1.06.33-.49.49-1.13.49-1.92,0-.41-.04-.78-.12-1.11s-.2-.62-.36-.87c-.32-.51-.77-.89-1.35-1.13-.58-.24-1.26-.36-2.04-.36-1.17,0-2.1.28-2.79.84-.69.56-1.04,1.43-1.04,2.62h0c0,.39.04.73.12,1.04s.2.59.36.83c.32.49.77.86,1.34,1.1s1.24.36,1.99.36Z"/>
        <path class="cls-2" d="M126.58,127.05c-1.64,0-2.86-.41-3.67-1.24-.81-.82-1.21-2.16-1.21-4v-4.28h1.68v4.24c0,1.33.26,2.28.78,2.86s1.33.87,2.43.87,1.88-.28,2.4-.85c.51-.57.77-1.53.77-2.88v-4.23h1.68v4.27c0,.62-.05,1.18-.14,1.68-.1.5-.23.95-.42,1.34-.38.77-.93,1.34-1.65,1.69s-1.6.53-2.64.53Z"/>
        <path class="cls-2" d="M138.57,123.88h-3.25v2.92h-1.59v-9.25h4.66c1.66,0,2.85.26,3.57.78.72.52,1.09,1.33,1.09,2.42,0,1.03-.37,1.82-1.12,2.35-.75.53-1.87.8-3.36.79ZM138.39,118.9h-3.07v3.61h3.18c1.02,0,1.77-.13,2.24-.4s.7-.73.7-1.39c0-.24-.03-.46-.08-.64-.06-.19-.14-.34-.24-.47-.22-.26-.55-.44-1-.55-.45-.1-1.02-.16-1.72-.16Z"/>
      </g>
      <g>
        <path class="cls-2" d="M12.41,100.65h-6.78v7.76H0v-24.04h12.65c4.23,0,7.27.61,9.14,1.82,1.87,1.21,2.8,3.14,2.8,5.77,0,1.8-.43,3.2-1.28,4.2-.85,1-2.18,1.73-3.98,2.17,1.75.38,3.04,1.1,3.86,2.16.82,1.06,1.23,2.65,1.23,4.79v1.58c0,.29.03.58.1.88.07.29.23.52.47.67h-5.9c-.29-.11-.48-.33-.56-.66-.08-.33-.12-.65-.12-.96v-1.48c0-.61-.04-1.15-.13-1.62-.09-.47-.23-.88-.4-1.21-.38-.67-1.01-1.15-1.87-1.42-.87-.27-2.06-.4-3.59-.4ZM12.58,89.15h-6.95v6.68h6.74c.63,0,1.22-.02,1.77-.05.55-.03,1.06-.07,1.53-.12.97-.13,1.72-.42,2.26-.86s.81-1.13.81-2.07v-.44c0-.45-.06-.84-.17-1.18-.11-.34-.27-.62-.47-.84-.45-.45-1.13-.75-2.04-.89-.91-.15-2.07-.22-3.49-.22Z"/>
        <path class="cls-2" d="M47.11,108.41l-.51-4.59c-.79,1.53-2.08,2.78-3.88,3.76-1.8.98-4.09,1.47-6.88,1.47s-4.69-.46-6.12-1.37c-1.43-.91-2.14-2.29-2.14-4.13v-.03c0-1.12.25-2.1.74-2.93.49-.83,1.27-1.5,2.33-1.99.31-.16.65-.3,1.01-.42.36-.12.73-.24,1.11-.35.79-.2,1.8-.38,3.05-.52s2.91-.28,4.97-.39c.72-.04,1.36-.09,1.92-.13s1.03-.1,1.42-.17c.79-.11,1.34-.29,1.65-.52s.47-.57.47-1v-.03c0-.23-.04-.44-.12-.64-.08-.2-.21-.41-.39-.61-.31-.38-.87-.7-1.67-.94-.8-.25-1.89-.37-3.29-.37-.83,0-1.57.03-2.23.08-.65.06-1.21.15-1.69.29-.97.22-1.67.58-2.12,1.06-.45.48-.72,1.11-.81,1.87h-5.9c.31-2.56,1.51-4.44,3.57-5.63,2.07-1.19,4.96-1.79,8.67-1.79,1.26,0,2.41.06,3.46.17s2,.28,2.85.51c1.69.47,2.97,1.29,3.84,2.45.88,1.16,1.31,2.78,1.31,4.87v12.04h-4.65ZM37.57,105c.85,0,1.66-.07,2.41-.22.75-.15,1.46-.37,2.11-.66,1.33-.56,2.37-1.29,3.12-2.19.75-.9,1.13-1.83,1.13-2.8v-.13c-.25.34-.75.62-1.52.84-.76.22-1.93.38-3.51.47-1.84.09-3.25.21-4.22.35s-1.71.34-2.23.59c-.4.2-.71.45-.91.74s-.3.63-.3,1.01v.03c0,.63.3,1.11.89,1.45.6.34,1.6.51,3.02.51Z"/>
        <path class="cls-2" d="M73.69,108.41l-.51-4.38c-.63,1.53-1.65,2.75-3.07,3.66-1.42.91-3.2,1.37-5.36,1.37-2.99,0-5.28-.85-6.86-2.55s-2.38-3.98-2.38-6.86v-10.59h5.8v9.44c0,1.91.44,3.37,1.31,4.37.88,1,2.37,1.5,4.48,1.5,1.84,0,3.25-.56,4.22-1.67.97-1.11,1.45-2.62,1.45-4.54v-9.11h5.83v19.36h-4.92Z"/>
        <path class="cls-2" d="M88.77,108.41h-5.77v-25.63h5.77v25.63Z"/>
        <path class="cls-2" d="M115.88,108.41h-13.56v-24.04h13.32c3.98,0,6.95.45,8.92,1.35,1.97.9,2.95,2.55,2.95,4.96v.2c0,1.55-.4,2.71-1.2,3.49-.8.78-2.05,1.32-3.76,1.64,1.93.27,3.34.8,4.23,1.58.89.79,1.33,2.02,1.33,3.71v.13c0,.88-.12,1.66-.35,2.36-.24.7-.59,1.29-1.06,1.79-.94,1.01-2.32,1.74-4.13,2.18s-4.04.66-6.69.66ZM115.98,88.82h-8.16v5.06h8.36c.58,0,1.12-.01,1.62-.03.49-.02.97-.06,1.42-.1.85-.11,1.52-.34,2.01-.69.48-.35.72-.88.72-1.6v-.13c0-.38-.05-.71-.15-1-.1-.28-.25-.51-.46-.69-.4-.34-1.04-.56-1.91-.66-.87-.1-2.02-.15-3.46-.15ZM115.58,98.26h-7.76v5.43h7.35c.99,0,1.85-.02,2.6-.05.74-.03,1.37-.1,1.89-.19,1.03-.13,1.74-.39,2.12-.78.38-.38.57-.92.57-1.62v-.13c0-.38-.05-.72-.15-1.01-.1-.29-.25-.53-.46-.71-.38-.38-1.07-.63-2.06-.76s-2.36-.19-4.11-.19Z"/>
        <path class="cls-2" d="M137.3,108.41h-5.83v-19.36h4.96l.64,5.4c.52-1.73,1.4-3.1,2.66-4.1,1.26-1,3-1.5,5.23-1.5h2.46v5.6h-2.6c-1.01,0-1.91.06-2.68.17-.78.11-1.43.29-1.97.54-1.08.47-1.83,1.26-2.24,2.36-.42,1.1-.62,2.6-.62,4.49v6.41Z"/>
        <path class="cls-2" d="M169.1,108.41l-.51-4.38c-.63,1.53-1.65,2.75-3.07,3.66-1.42.91-3.2,1.37-5.36,1.37-2.99,0-5.28-.85-6.86-2.55s-2.38-3.98-2.38-6.86v-10.59h5.8v9.44c0,1.91.44,3.37,1.31,4.37.88,1,2.37,1.5,4.48,1.5,1.84,0,3.25-.56,4.22-1.67.97-1.11,1.45-2.62,1.45-4.54v-9.11h5.83v19.36h-4.92Z"/>
        <path class="cls-2" d="M189.81,109.05c-3.96,0-7-.58-9.12-1.74-2.12-1.16-3.43-2.93-3.93-5.31h6.58c.31.94.97,1.62,1.96,2.04.99.42,2.6.62,4.82.62,2.09,0,3.52-.2,4.28-.59.76-.39,1.15-.93,1.15-1.6,0-.32-.08-.57-.25-.78-.17-.2-.5-.36-1-.47-.49-.13-1.24-.24-2.23-.32-.99-.08-2.29-.14-3.91-.19-3.82-.11-6.56-.61-8.21-1.48-1.65-.88-2.48-2.27-2.48-4.18,0-.65.1-1.26.29-1.84s.49-1.11.89-1.6c.79-1.01,1.98-1.81,3.57-2.39,1.6-.58,3.62-.88,6.07-.88,3.62,0,6.46.54,8.51,1.62,2.06,1.08,3.43,2.79,4.13,5.13h-6.2c-.27-.99-.97-1.67-2.11-2.04s-2.6-.56-4.4-.56c-.7,0-1.32.02-1.85.07-.54.04-1,.12-1.38.24-.74.2-1.26.46-1.55.78-.29.32-.44.65-.44,1.01,0,.29.07.54.2.74.13.2.44.38.91.54.47.14,1.19.25,2.14.34s2.24.17,3.86.24c2.2.09,4.02.26,5.46.51,1.44.25,2.56.61,3.37,1.08.83.45,1.42,1.03,1.75,1.74s.51,1.57.51,2.58c0,1.93-.96,3.54-2.88,4.81-1.92,1.27-4.76,1.91-8.51,1.91Z"/>
        <path class="cls-2" d="M223.5,108.41l-.51-4.59c-.79,1.53-2.08,2.78-3.88,3.76-1.8.98-4.09,1.47-6.88,1.47s-4.69-.46-6.12-1.37c-1.43-.91-2.14-2.29-2.14-4.13v-.03c0-1.12.25-2.1.74-2.93.49-.83,1.27-1.5,2.33-1.99.31-.16.65-.3,1.01-.42.36-.12.73-.24,1.11-.35.79-.2,1.8-.38,3.05-.52s2.91-.28,4.97-.39c.72-.04,1.36-.09,1.92-.13s1.03-.1,1.42-.17c.79-.11,1.34-.29,1.65-.52s.47-.57.47-1v-.03c0-.23-.04-.44-.12-.64-.08-.2-.21-.41-.39-.61-.31-.38-.87-.7-1.67-.94-.8-.25-1.89-.37-3.29-.37-.83,0-1.57.03-2.23.08-.65.06-1.21.15-1.69.29-.97.22-1.67.58-2.12,1.06-.45.48-.72,1.11-.81,1.87h-5.9c.31-2.56,1.51-4.44,3.57-5.63,2.07-1.19,4.96-1.79,8.67-1.79,1.26,0,2.41.06,3.46.17s2,.28,2.85.51c1.69.47,2.97,1.29,3.84,2.45.88,1.16,1.31,2.78,1.31,4.87v12.04h-4.65ZM213.96,105c.85,0,1.66-.07,2.41-.22.75-.15,1.46-.37,2.11-.66,1.33-.56,2.37-1.29,3.12-2.19.75-.9,1.13-1.83,1.13-2.8v-.13c-.25.34-.75.62-1.52.84-.76.22-1.93.38-3.51.47-1.84.09-3.25.21-4.22.35s-1.71.34-2.23.59c-.4.2-.71.45-.91.74s-.3.63-.3,1.01v.03c0,.63.3,1.11.89,1.45.6.34,1.6.51,3.02.51Z"/>
      </g>
      <polygon class="cls-1" points="146.57 39.16 154.11 26.15 139.09 0 99.79 0 99.79 0 94.22 0 93.94 0 73.31 0 73.31 11.65 73.31 13.08 73.31 65.19 86.39 65.19 86.39 39.16 86.39 38.44 86.39 13.08 86.39 13.08 86.39 13.08 86.39 13.08 86.84 13.08 99.79 13.08 99.79 13.06 116.54 13.04 131.57 13.07 139.17 26.15 131.55 39.15 139.15 52.21 124.07 52.23 116.54 39.22 124.11 26.12 116.54 13.04 108.99 26.15 93.9 26.17 86.39 39.16 101.38 39.15 116.43 65.22 146.77 65.23 154.27 52.19 146.57 39.16"/>
    </g>
  </g>
</svg>