<?xml version="1.0" encoding="UTF-8"?>
<svg id="Capa_2" data-name="Capa 2" xmlns="http://www.w3.org/2000/svg" viewBox="0 0 313.21 46.84">
  <defs>
    <style>
      .cls-1 {
        fill: #2e434d;
      }

      .cls-1, .cls-2 {
        stroke-width: 0px;
      }

      .cls-2 {
        fill: #ca4e54;
      }
    </style>
  </defs>
  <g id="Capa_1-2" data-name="Capa 1">
    <g>
      <g>
        <path class="cls-1" d="M88.12,46.77c-.7,0-1.34-.08-1.91-.23-.57-.15-1.13-.41-1.67-.76-.65.34-1.3.6-1.94.77-.64.18-1.25.27-1.83.27-1.08,0-1.95-.21-2.61-.62-.66-.41-.98-1.04-.98-1.88s.28-1.44.83-1.93,1.46-.84,2.73-1.05c-.07-.23-.12-.44-.16-.66-.04-.21-.06-.42-.06-.62,0-.3.04-.58.1-.85s.17-.5.31-.72c.27-.43.64-.77,1.1-1,.46-.23.98-.34,1.56-.34.27,0,.52.03.75.08.23.05.45.13.64.22.38.2.68.47.88.81.21.34.31.73.31,1.15,0,.24-.03.47-.09.68s-.15.4-.27.57c-.24.35-.63.64-1.16.87s-1.22.43-2.08.61c.14.19.29.38.46.58.17.2.36.4.57.61.19.19.38.37.56.53.18.16.37.32.56.46.84-.55,1.6-1.22,2.27-2.02.67-.8,1.2-1.65,1.59-2.55h1.54c-.5,1.13-1.13,2.13-1.88,3.01-.75.88-1.56,1.62-2.42,2.23.36.17.72.29,1.09.38s.76.13,1.16.13c.43,0,.77-.05,1.04-.16.26-.11.5-.25.71-.42v1.41c-.17.14-.4.25-.69.33-.29.08-.62.12-1,.12ZM80.85,45.57c.45,0,.9-.05,1.34-.15s.88-.25,1.3-.44c-.14-.12-.28-.25-.43-.39-.15-.14-.3-.29-.46-.44-.29-.29-.55-.58-.78-.88-.23-.3-.44-.6-.61-.91-.32.05-.61.11-.87.18-.26.07-.48.14-.66.22-.37.16-.64.36-.8.58-.16.23-.25.5-.25.81,0,.48.2.83.61,1.06.4.23.94.34,1.62.34ZM81.81,39.99c0,.2.02.4.05.59.03.19.09.38.16.56.36-.06.69-.12.97-.18.28-.06.53-.13.74-.21.42-.15.71-.33.88-.54.17-.21.26-.47.26-.79,0-.33-.12-.59-.36-.79-.24-.2-.57-.29-.98-.29-.53,0-.95.15-1.26.46-.31.3-.46.7-.46,1.2Z"/>
        <path class="cls-1" d="M103.75,46.6l-1.2-2.32h-5.54l-1.16,2.32h-1.74l4.8-9.25h1.68l4.88,9.25h-1.72ZM101.87,42.95l-2.13-4.14-2.07,4.14h4.2Z"/>
        <path class="cls-1" d="M110.88,46.84c-1.39,0-2.51-.21-3.37-.64-.85-.43-1.38-1.13-1.58-2.11h1.85c.16.58.5.97,1.05,1.18.54.2,1.25.31,2.13.31.34,0,.64-.01.9-.04.26-.03.49-.07.68-.12.38-.1.65-.25.81-.42.16-.18.24-.38.24-.61,0-.11-.02-.21-.07-.31-.04-.09-.11-.17-.2-.23-.17-.13-.49-.23-.94-.29-.46-.07-1.12-.11-1.98-.14-.5-.02-.94-.05-1.33-.09-.4-.04-.74-.1-1.05-.17-.61-.15-1.05-.37-1.33-.67s-.42-.69-.42-1.17c0-.7.33-1.29,1-1.75.66-.46,1.66-.7,3-.7s2.42.21,3.21.62c.79.41,1.33,1.07,1.61,1.97h-1.74c-.17-.51-.51-.87-1.04-1.08-.53-.21-1.21-.31-2.03-.31-.3,0-.57.01-.81.04-.24.03-.45.06-.63.12-.35.1-.6.24-.75.41-.15.17-.23.36-.23.57,0,.11.02.21.06.3s.1.17.18.23c.16.13.46.23.91.29.45.07,1.09.12,1.95.15.54.02,1.02.05,1.44.1s.79.11,1.1.19c.62.15,1.06.37,1.32.67.26.3.4.71.4,1.22,0,.23-.04.46-.12.67s-.19.41-.35.59c-.3.37-.77.67-1.41.89-.64.22-1.45.33-2.43.33Z"/>
        <path class="cls-1" d="M121.44,46.84c-1.69,0-2.93-.35-3.71-1.04s-1.17-1.66-1.17-2.89c0-.42.05-.82.16-1.18.1-.36.26-.69.47-.99.42-.61,1.01-1.07,1.75-1.39.74-.32,1.59-.48,2.56-.48.49,0,.96.04,1.39.12s.83.2,1.2.35c.75.31,1.33.77,1.74,1.37.42.6.62,1.33.62,2.19,0,1.21-.42,2.16-1.25,2.87s-2.09,1.06-3.76,1.06ZM121.48,45.49c1.11,0,1.94-.21,2.49-.64.55-.43.83-1.07.83-1.93s-.29-1.56-.87-2.02c-.58-.46-1.38-.7-2.42-.7s-1.81.23-2.41.68-.9,1.13-.9,2.04c0,.86.27,1.5.82,1.93.55.43,1.36.64,2.45.64Z"/>
        <path class="cls-1" d="M137.79,43.43c-.14,1.08-.63,1.91-1.46,2.51-.84.6-1.99.9-3.46.9-1.71,0-2.95-.35-3.74-1.04s-1.17-1.66-1.17-2.89c0-.42.05-.82.16-1.18.1-.36.26-.69.48-.99.42-.61,1-1.07,1.74-1.39s1.6-.48,2.56-.48c1.4,0,2.52.29,3.36.87.85.58,1.35,1.42,1.52,2.5h-1.74c-.14-.69-.47-1.2-1-1.54s-1.24-.51-2.12-.51c-1.01,0-1.81.23-2.41.68s-.9,1.13-.9,2.04c0,.86.28,1.5.83,1.93.55.43,1.38.64,2.48.64.92,0,1.64-.17,2.15-.51.51-.34.84-.85.99-1.55h1.73Z"/>
        <path class="cls-1" d="M140.45,37.92c-.38,0-.66-.08-.83-.24-.17-.16-.25-.43-.25-.8s.09-.64.27-.79c.18-.16.45-.23.79-.23s.62.08.81.23c.18.16.27.42.27.79,0,.35-.09.61-.27.78-.18.17-.44.26-.8.26ZM141.24,46.6h-1.67v-7.43h1.67v7.43Z"/>
        <path class="cls-1" d="M150.76,46.6l-.16-2.04c-.1.22-.23.42-.38.61-.15.19-.33.37-.53.55-.41.35-.91.62-1.52.83-.6.2-1.31.31-2.12.31-1.05,0-1.83-.18-2.33-.53-.5-.36-.76-.87-.76-1.54h0c0-.41.09-.76.27-1.05.18-.29.44-.54.79-.73.12-.07.25-.13.39-.2s.29-.11.44-.16c.31-.09.72-.18,1.22-.25s1.15-.13,1.94-.17c.32-.02.61-.04.86-.07.25-.03.47-.05.65-.08.36-.05.62-.13.77-.25.15-.11.23-.27.23-.48h0c0-.12-.02-.22-.06-.32s-.1-.2-.18-.29c-.15-.19-.41-.35-.78-.47-.37-.13-.89-.19-1.54-.19-1.09,0-1.88.14-2.35.42s-.75.72-.83,1.31h-1.67c.12-1.01.58-1.75,1.37-2.22.79-.47,1.91-.71,3.35-.71s2.49.22,3.19.67c.69.45,1.04,1.17,1.04,2.15v4.89h-1.33ZM146.5,45.67c.62,0,1.17-.08,1.67-.24.5-.16.93-.38,1.28-.64.36-.27.63-.57.82-.89.19-.33.29-.65.29-.97v-.31c-.12.16-.36.3-.72.4s-.92.17-1.67.21c-.85.04-1.5.11-1.95.19-.45.08-.78.2-1.01.34-.17.1-.3.23-.39.38s-.13.31-.13.49h0c0,.33.14.58.41.76s.74.28,1.4.28Z"/>
        <path class="cls-1" d="M162.1,46.6l-.13-1.6c-.29.58-.76,1.03-1.39,1.35s-1.41.48-2.34.48c-.43,0-.84-.04-1.23-.1-.39-.07-.75-.17-1.09-.3-.67-.28-1.19-.7-1.57-1.28-.38-.57-.57-1.31-.57-2.21,0-.43.05-.83.14-1.2s.23-.69.42-.99c.38-.61.91-1.07,1.59-1.38.68-.31,1.46-.47,2.36-.47.82,0,1.55.15,2.17.44.62.29,1.11.72,1.44,1.28v-3.88h1.59v9.87h-1.39ZM158.69,45.5c1.06,0,1.87-.22,2.45-.67.57-.45.86-1.09.86-1.93s-.3-1.54-.91-2-1.41-.7-2.41-.7-1.83.24-2.4.71-.85,1.15-.85,2.02.27,1.53.82,1.95c.55.42,1.36.63,2.45.63Z"/>
        <path class="cls-1" d="M170.1,46.84c-1.69,0-2.93-.35-3.71-1.04-.78-.69-1.17-1.66-1.17-2.89,0-.42.05-.82.16-1.18.1-.36.26-.69.47-.99.42-.61,1.01-1.07,1.75-1.39s1.59-.48,2.56-.48c.5,0,.96.04,1.39.12.43.08.83.2,1.2.35.75.31,1.33.77,1.74,1.37.42.6.62,1.33.62,2.19,0,1.21-.42,2.16-1.25,2.87s-2.09,1.06-3.76,1.06ZM170.14,45.49c1.11,0,1.94-.21,2.49-.64.55-.43.83-1.07.83-1.93s-.29-1.56-.87-2.02c-.58-.46-1.38-.7-2.41-.7s-1.81.23-2.41.68-.9,1.13-.9,2.04c0,.86.27,1.5.82,1.93.55.43,1.36.64,2.45.64Z"/>
        <path class="cls-1" d="M181.19,46.84c-1.39,0-2.51-.21-3.36-.64-.85-.43-1.38-1.13-1.58-2.11h1.85c.16.58.51.97,1.05,1.18s1.25.31,2.13.31c.34,0,.64-.01.9-.04.26-.03.49-.07.68-.12.38-.1.65-.25.81-.42s.24-.38.24-.61c0-.11-.02-.21-.07-.31-.04-.09-.11-.17-.2-.23-.17-.13-.49-.23-.94-.29-.46-.07-1.12-.11-1.99-.14-.49-.02-.94-.05-1.33-.09-.39-.04-.74-.1-1.05-.17-.61-.15-1.05-.37-1.33-.67-.28-.3-.42-.69-.42-1.17,0-.7.33-1.29,1-1.75.66-.46,1.66-.7,3-.7s2.41.21,3.21.62c.79.41,1.33,1.07,1.61,1.97h-1.74c-.17-.51-.51-.87-1.04-1.08-.53-.21-1.21-.31-2.03-.31-.3,0-.58.01-.81.04-.24.03-.45.06-.63.12-.35.1-.6.24-.75.41-.15.17-.23.36-.23.57,0,.11.02.21.06.3s.1.17.18.23c.16.13.46.23.9.29.45.07,1.1.12,1.95.15.54.02,1.02.05,1.44.1s.79.11,1.1.19c.62.15,1.06.37,1.32.67.26.3.4.71.4,1.22,0,.23-.04.46-.12.67s-.2.41-.35.59c-.3.37-.77.67-1.41.89-.64.22-1.45.33-2.43.33Z"/>
      </g>
      <g>
        <path class="cls-1" d="M87.55,18.7h-7.09v8.11h-5.89V1.66h13.23c4.42,0,7.61.63,9.56,1.9,1.95,1.27,2.93,3.28,2.93,6.03,0,1.88-.45,3.35-1.34,4.39-.89,1.04-2.28,1.8-4.16,2.28,1.83.4,3.18,1.15,4.04,2.26s1.29,2.77,1.29,5.01v1.66c0,.31.04.61.11.92.07.31.23.54.49.71h-6.17c-.31-.12-.5-.35-.58-.69-.08-.34-.12-.68-.12-1.01v-1.55c0-.64-.05-1.2-.14-1.69-.09-.49-.24-.92-.42-1.27-.4-.71-1.05-1.2-1.96-1.48-.91-.28-2.16-.42-3.76-.42ZM87.73,6.67h-7.27v6.98h7.06c.66,0,1.28-.02,1.85-.05s1.11-.08,1.6-.12c1.01-.14,1.8-.44,2.36-.9s.85-1.18.85-2.17v-.46c0-.47-.06-.88-.18-1.23-.12-.35-.28-.65-.49-.88-.47-.47-1.18-.78-2.13-.94s-2.17-.23-3.65-.23Z"/>
        <path class="cls-1" d="M123.85,26.81l-.53-4.8c-.82,1.6-2.18,2.91-4.06,3.93s-4.28,1.53-7.2,1.53-4.91-.47-6.4-1.43c-1.49-.95-2.24-2.39-2.24-4.32v-.04c0-1.18.26-2.2.78-3.07.52-.87,1.33-1.56,2.43-2.08.33-.16.68-.31,1.06-.44.38-.13.76-.25,1.16-.37.82-.21,1.89-.39,3.19-.55,1.31-.15,3.04-.29,5.2-.41.75-.05,1.42-.09,2.01-.14s1.08-.11,1.48-.18c.82-.12,1.4-.3,1.73-.55.33-.25.49-.59.49-1.04v-.04c0-.24-.04-.46-.12-.67-.08-.21-.22-.42-.41-.63-.33-.4-.91-.73-1.75-.99-.83-.26-1.98-.39-3.44-.39-.87,0-1.65.03-2.33.09s-1.27.16-1.76.3c-1.01.24-1.75.61-2.22,1.11-.47.51-.75,1.16-.85,1.96h-6.17c.33-2.68,1.58-4.64,3.74-5.89,2.16-1.25,5.19-1.87,9.07-1.87,1.32,0,2.52.06,3.62.18,1.09.12,2.09.29,2.98.53,1.76.49,3.1,1.35,4.02,2.56.92,1.21,1.38,2.91,1.38,5.1v12.59h-4.87ZM113.87,23.25c.89,0,1.73-.08,2.52-.23.79-.15,1.52-.38,2.2-.69,1.39-.59,2.48-1.35,3.26-2.29.79-.94,1.18-1.92,1.18-2.93v-.14c-.26.35-.79.65-1.59.88-.8.24-2.02.4-3.67.49-1.93.09-3.4.22-4.41.37s-1.79.36-2.33.62c-.42.21-.74.47-.95.78-.21.31-.32.66-.32,1.06v.04c0,.66.31,1.16.93,1.52.62.35,1.68.53,3.16.53Z"/>
        <path class="cls-1" d="M151.65,26.81l-.53-4.59c-.66,1.6-1.73,2.88-3.21,3.83-1.48.95-3.35,1.43-5.61,1.43-3.13,0-5.52-.89-7.18-2.66s-2.49-4.17-2.49-7.18V6.56h6.07v9.88c0,2,.46,3.52,1.38,4.57.92,1.05,2.48,1.57,4.69,1.57,1.93,0,3.4-.58,4.41-1.75s1.52-2.75,1.52-4.75V6.56h6.1v20.25h-5.15Z"/>
        <path class="cls-1" d="M167.42,26.81h-6.03V0h6.03v26.81Z"/>
        <path class="cls-1" d="M195.78,26.81h-14.18V1.66h13.94c4.16,0,7.27.47,9.33,1.41,2.06.94,3.09,2.67,3.09,5.19v.21c0,1.62-.42,2.84-1.25,3.65-.83.81-2.15,1.38-3.93,1.71,2.02.28,3.5.84,4.43,1.66.93.82,1.39,2.12,1.39,3.88v.14c0,.92-.12,1.74-.37,2.47-.25.73-.62,1.35-1.11,1.87-.99,1.06-2.43,1.82-4.32,2.28-1.89.46-4.23.69-7,.69ZM195.88,6.31h-8.54v5.29h8.75c.61,0,1.18-.01,1.69-.04.52-.02,1.01-.06,1.48-.11.89-.12,1.59-.36,2.1-.72.51-.37.76-.92.76-1.68v-.14c0-.4-.05-.75-.16-1.04-.11-.29-.26-.54-.48-.72-.42-.35-1.09-.58-1.99-.69-.91-.11-2.11-.16-3.62-.16ZM195.46,16.19h-8.11v5.68h7.69c1.04,0,1.94-.02,2.72-.05.78-.04,1.43-.1,1.98-.19,1.08-.14,1.82-.41,2.22-.81.4-.4.6-.96.6-1.69v-.14c0-.4-.05-.75-.16-1.06-.11-.31-.26-.55-.48-.74-.4-.4-1.12-.66-2.15-.79-1.04-.13-2.47-.2-4.3-.2Z"/>
        <path class="cls-1" d="M218.18,26.81h-6.1V6.56h5.19l.67,5.64c.54-1.81,1.47-3.24,2.79-4.29s3.14-1.57,5.47-1.57h2.58v5.86h-2.72c-1.06,0-1.99.06-2.8.18-.81.12-1.5.3-2.06.56-1.13.49-1.91,1.32-2.35,2.47s-.65,2.72-.65,4.69v6.7Z"/>
        <path class="cls-1" d="M251.44,26.81l-.53-4.59c-.66,1.6-1.73,2.88-3.21,3.83-1.48.95-3.35,1.43-5.61,1.43-3.13,0-5.52-.89-7.18-2.66s-2.49-4.17-2.49-7.18V6.56h6.07v9.88c0,2,.46,3.52,1.38,4.57.92,1.05,2.48,1.57,4.69,1.57,1.93,0,3.4-.58,4.41-1.75s1.52-2.75,1.52-4.75V6.56h6.1v20.25h-5.15Z"/>
        <path class="cls-1" d="M273.1,27.48c-4.14,0-7.32-.61-9.54-1.82s-3.59-3.06-4.11-5.56h6.88c.33.99,1.01,1.7,2.05,2.13s2.72.65,5.04.65c2.19,0,3.68-.21,4.48-.62.8-.41,1.2-.97,1.2-1.68,0-.33-.09-.6-.26-.81-.18-.21-.52-.38-1.04-.49-.52-.14-1.29-.25-2.33-.34-1.03-.08-2.4-.15-4.09-.19-4-.12-6.86-.63-8.59-1.55-1.73-.92-2.59-2.38-2.59-4.37,0-.68.1-1.32.3-1.92.2-.6.51-1.16.94-1.68.82-1.06,2.07-1.89,3.74-2.5s3.79-.92,6.35-.92c3.79,0,6.76.56,8.91,1.69,2.15,1.13,3.59,2.92,4.32,5.36h-6.49c-.28-1.04-1.02-1.75-2.21-2.13-1.19-.39-2.72-.58-4.6-.58-.73,0-1.38.02-1.94.07s-1.05.13-1.45.25c-.78.21-1.32.48-1.62.81-.31.33-.46.68-.46,1.06,0,.3.07.56.21.78.14.21.46.4.95.56.49.14,1.24.26,2.24.35,1,.09,2.35.18,4.04.25,2.3.09,4.21.27,5.71.53,1.51.26,2.68.63,3.53,1.13.87.47,1.48,1.08,1.83,1.82.35.74.53,1.64.53,2.7,0,2.02-1.01,3.7-3.02,5.03-2.01,1.33-4.98,1.99-8.91,1.99Z"/>
        <path class="cls-1" d="M308.34,26.81l-.53-4.8c-.82,1.6-2.18,2.91-4.06,3.93s-4.28,1.53-7.2,1.53-4.91-.47-6.4-1.43c-1.49-.95-2.24-2.39-2.24-4.32v-.04c0-1.18.26-2.2.78-3.07.52-.87,1.33-1.56,2.43-2.08.33-.16.68-.31,1.06-.44.38-.13.76-.25,1.16-.37.82-.21,1.89-.39,3.19-.55,1.31-.15,3.04-.29,5.2-.41.75-.05,1.42-.09,2.01-.14s1.08-.11,1.48-.18c.82-.12,1.4-.3,1.73-.55.33-.25.49-.59.49-1.04v-.04c0-.24-.04-.46-.12-.67-.08-.21-.22-.42-.41-.63-.33-.4-.91-.73-1.75-.99-.83-.26-1.98-.39-3.44-.39-.87,0-1.65.03-2.33.09s-1.27.16-1.76.3c-1.01.24-1.75.61-2.22,1.11-.47.51-.75,1.16-.85,1.96h-6.17c.33-2.68,1.58-4.64,3.74-5.89,2.16-1.25,5.19-1.87,9.07-1.87,1.32,0,2.52.06,3.62.18,1.09.12,2.09.29,2.98.53,1.76.49,3.1,1.35,4.02,2.56.92,1.21,1.38,2.91,1.38,5.1v12.59h-4.87ZM298.36,23.25c.89,0,1.73-.08,2.52-.23.79-.15,1.52-.38,2.2-.69,1.39-.59,2.48-1.35,3.26-2.29.79-.94,1.18-1.92,1.18-2.93v-.14c-.26.35-.79.65-1.59.88-.8.24-2.02.4-3.67.49-1.93.09-3.4.22-4.41.37s-1.79.36-2.33.62c-.42.21-.74.47-.95.78-.21.31-.32.66-.32,1.06v.04c0,.66.31,1.16.93,1.52.62.35,1.68.53,3.16.53Z"/>
      </g>
      <path class="cls-2" d="M52.13,28.04l5.37-9.26L46.81.18h-28.92s-17.89,0-17.89,0v46.39h9.3V9.48h0s0,0,0,0h0s.31,0,.31,0h8.28v-.02l9.72-.02h3.15s-5.37,9.34-5.37,9.34h-10.74s-5.35,9.25-5.35,9.25h10.67s10.71,18.55,10.71,18.55h21.59s5.33-9.28,5.33-9.28l-5.48-9.27ZM46.85,37.32l-10.74.02-5.35-9.26,5.39-9.32-5.39-9.31,10.7.02,5.41,9.31-5.42,9.25,5.41,9.29Z"/>
    </g>
  </g>
</svg>