<?xml version="1.0" encoding="UTF-8"?>
<svg id="Capa_2" xmlns="http://www.w3.org/2000/svg" viewBox="0 0 313.21 46.86">
  <defs>
    <style>
      .cls-1 {
        fill: #ca4e54;
      }

      .cls-2 {
        fill: #2e434d;
      }
    </style>
  </defs>
  <g id="Capa_1-2" data-name="Capa_1">
    <g>
      <g>
        <path class="cls-2" d="M84.12,46.6l-.09-2.53c-.05.27-.13.52-.25.76s-.25.46-.42.67c-.34.42-.81.74-1.41.98-.6.24-1.34.36-2.24.36-.52,0-1.01-.04-1.46-.13s-.88-.21-1.27-.38c-.77-.35-1.38-.87-1.81-1.57-.43-.7-.65-1.58-.65-2.66v-.05c0-.52.06-1,.18-1.45.12-.45.3-.85.54-1.22.48-.73,1.13-1.29,1.97-1.67.84-.39,1.79-.58,2.87-.58.48,0,.93.03,1.35.09s.82.15,1.2.26c.75.23,1.36.61,1.83,1.11.48.51.79,1.17.95,1.97h-1.82c-.17-.69-.54-1.2-1.12-1.51-.58-.31-1.37-.47-2.36-.47-1.21,0-2.17.28-2.88.85-.7.57-1.05,1.45-1.05,2.64h0c0,1.13.33,1.97.98,2.53.66.56,1.59.84,2.82.84.43,0,.83-.03,1.19-.08.36-.05.68-.13.96-.23.56-.21.98-.48,1.26-.83.29-.34.46-.72.51-1.14h-4.06v-1.34h5.61v4.76h-1.34Z"/>
        <path class="cls-2" d="M92.58,43.32h-3.29v3.28h-1.6v-9.25h4.89c1.59,0,2.73.23,3.44.68.7.46,1.05,1.17,1.05,2.15,0,.71-.18,1.26-.54,1.65-.36.39-.9.66-1.63.82.71.15,1.22.43,1.54.86.31.43.47,1.06.47,1.91v.59c0,.12.02.24.05.34.03.11.09.19.18.24h-1.71c-.09-.04-.14-.12-.17-.24-.03-.12-.04-.24-.04-.36v-.57c0-.27-.02-.51-.06-.72-.04-.21-.1-.39-.18-.54-.16-.31-.44-.53-.82-.66-.38-.13-.91-.19-1.57-.19ZM92.5,41.94c.29,0,.56,0,.81-.03s.49-.04.71-.08c.43-.08.77-.23,1.02-.46.25-.23.37-.56.37-1v-.1c0-.62-.23-1.03-.69-1.24-.46-.21-1.18-.31-2.16-.31h-3.28v3.22h3.21Z"/>
        <path class="cls-2" d="M104.16,46.85c-.53,0-1.03-.04-1.5-.13-.47-.09-.92-.21-1.33-.38-.82-.35-1.47-.87-1.94-1.57-.47-.7-.7-1.6-.7-2.69v-.04c0-.52.06-1,.18-1.45.12-.44.3-.85.54-1.21.48-.73,1.13-1.28,1.95-1.67.82-.38,1.76-.57,2.81-.57.52,0,1.02.05,1.48.14.47.1.91.23,1.33.42.83.37,1.49.92,1.98,1.65.49.72.73,1.62.73,2.67v.06c0,.54-.06,1.03-.18,1.47-.12.44-.3.84-.55,1.2-.48.7-1.13,1.23-1.97,1.58-.83.35-1.77.52-2.82.52ZM104.14,45.39c.38,0,.74-.03,1.08-.08s.65-.14.94-.25c.58-.22,1.04-.57,1.37-1.06.33-.49.49-1.13.49-1.92,0-.41-.04-.78-.12-1.11s-.2-.62-.36-.87c-.32-.51-.77-.89-1.35-1.13-.58-.24-1.26-.36-2.04-.36-1.17,0-2.1.28-2.79.84-.69.56-1.04,1.43-1.04,2.62h0c0,.39.04.73.12,1.04s.2.59.36.83c.32.49.77.86,1.34,1.1s1.24.36,1.99.36Z"/>
        <path class="cls-2" d="M116.37,46.86c-1.64,0-2.86-.41-3.67-1.24-.81-.82-1.21-2.16-1.21-4v-4.28h1.68v4.24c0,1.33.26,2.28.78,2.86s1.33.87,2.43.87,1.88-.28,2.4-.85c.51-.57.77-1.53.77-2.88v-4.23h1.68v4.27c0,.62-.05,1.18-.14,1.68-.1.5-.23.95-.42,1.34-.38.77-.93,1.34-1.65,1.69s-1.6.53-2.64.53Z"/>
        <path class="cls-2" d="M128.37,43.68h-3.25v2.92h-1.59v-9.25h4.66c1.66,0,2.85.26,3.57.78.72.52,1.09,1.33,1.09,2.42,0,1.03-.37,1.82-1.12,2.35-.75.53-1.87.8-3.36.79ZM128.19,38.71h-3.07v3.61h3.18c1.02,0,1.77-.13,2.24-.4s.7-.73.7-1.39c0-.24-.03-.46-.08-.64-.06-.19-.14-.34-.24-.47-.22-.26-.55-.44-1-.55-.45-.1-1.02-.16-1.72-.16Z"/>
      </g>
      <g>
        <path class="cls-2" d="M87.55,18.7h-7.09v8.11h-5.89V1.66h13.23c4.42,0,7.61.63,9.56,1.91,1.95,1.27,2.93,3.28,2.93,6.03,0,1.88-.45,3.35-1.34,4.39-.89,1.05-2.28,1.8-4.16,2.28,1.83.4,3.18,1.15,4.04,2.26s1.29,2.77,1.29,5.01v1.66c0,.31.04.61.11.92.07.31.23.54.49.71h-6.17c-.31-.12-.5-.35-.58-.69-.08-.34-.12-.68-.12-1.01v-1.55c0-.64-.05-1.2-.14-1.69-.09-.49-.24-.92-.42-1.27-.4-.71-1.05-1.2-1.96-1.48-.91-.28-2.16-.42-3.76-.42ZM87.73,6.67h-7.27v6.98h7.06c.66,0,1.28-.02,1.85-.05s1.11-.08,1.6-.12c1.01-.14,1.8-.44,2.36-.9.56-.46.85-1.18.85-2.17v-.46c0-.47-.06-.88-.18-1.23s-.28-.65-.49-.88c-.47-.47-1.18-.78-2.13-.94-.95-.15-2.17-.23-3.65-.23Z"/>
        <path class="cls-2" d="M123.85,26.81l-.53-4.8c-.82,1.6-2.18,2.91-4.06,3.93s-4.28,1.53-7.2,1.53-4.91-.48-6.4-1.43c-1.49-.95-2.24-2.39-2.24-4.32v-.04c0-1.18.26-2.2.78-3.07.52-.87,1.33-1.56,2.43-2.08.33-.17.68-.31,1.06-.44.38-.13.76-.25,1.16-.37.82-.21,1.89-.39,3.19-.55,1.31-.15,3.04-.29,5.2-.41.75-.05,1.42-.09,2.01-.14s1.08-.11,1.48-.18c.82-.12,1.4-.3,1.73-.55.33-.25.49-.59.49-1.04v-.04c0-.24-.04-.46-.12-.67-.08-.21-.22-.42-.41-.63-.33-.4-.91-.73-1.75-.99s-1.98-.39-3.44-.39c-.87,0-1.65.03-2.33.09-.68.06-1.27.16-1.76.3-1.01.24-1.75.61-2.22,1.11-.47.51-.75,1.16-.85,1.96h-6.17c.33-2.68,1.58-4.64,3.74-5.89,2.16-1.25,5.19-1.87,9.07-1.87,1.32,0,2.52.06,3.62.18,1.09.12,2.09.29,2.98.53,1.76.49,3.1,1.35,4.02,2.56.92,1.21,1.38,2.91,1.38,5.1v12.59h-4.87ZM113.87,23.25c.89,0,1.73-.08,2.52-.23.79-.15,1.52-.38,2.2-.69,1.39-.59,2.48-1.35,3.26-2.29.79-.94,1.18-1.92,1.18-2.93v-.14c-.26.35-.79.65-1.59.88-.8.24-2.02.4-3.67.49-1.93.09-3.4.22-4.41.37-1.01.15-1.79.36-2.33.62-.42.21-.74.47-.95.78s-.32.66-.32,1.06v.04c0,.66.31,1.16.93,1.52.62.35,1.68.53,3.16.53Z"/>
        <path class="cls-2" d="M151.65,26.81l-.53-4.59c-.66,1.6-1.73,2.88-3.21,3.83-1.48.95-3.35,1.43-5.61,1.43-3.13,0-5.52-.89-7.18-2.66s-2.49-4.17-2.49-7.18V6.56h6.07v9.88c0,2,.46,3.52,1.38,4.57.92,1.05,2.48,1.57,4.69,1.57,1.93,0,3.4-.58,4.41-1.75s1.52-2.75,1.52-4.75V6.56h6.1v20.25h-5.15Z"/>
        <path class="cls-2" d="M167.42,26.81h-6.03V0h6.03v26.81Z"/>
        <path class="cls-2" d="M195.78,26.81h-14.18V1.66h13.94c4.16,0,7.27.47,9.33,1.41,2.06.94,3.09,2.67,3.09,5.19v.21c0,1.62-.42,2.84-1.25,3.65s-2.15,1.38-3.93,1.71c2.02.28,3.5.83,4.43,1.66.93.82,1.39,2.12,1.39,3.88v.14c0,.92-.12,1.74-.37,2.47-.25.73-.62,1.35-1.11,1.87-.99,1.06-2.43,1.82-4.32,2.28-1.89.46-4.23.69-7,.69ZM195.88,6.31h-8.54v5.29h8.75c.61,0,1.18-.01,1.69-.04.52-.02,1.01-.06,1.48-.11.89-.12,1.59-.36,2.1-.72.51-.36.76-.92.76-1.68v-.14c0-.4-.05-.75-.16-1.04-.11-.29-.26-.54-.48-.72-.42-.35-1.09-.58-1.99-.69-.91-.11-2.11-.16-3.62-.16ZM195.46,16.19h-8.11v5.68h7.69c1.04,0,1.94-.02,2.72-.05.78-.04,1.43-.1,1.98-.19,1.08-.14,1.82-.41,2.22-.81.4-.4.6-.96.6-1.69v-.14c0-.4-.05-.75-.16-1.06-.11-.31-.26-.55-.48-.74-.4-.4-1.12-.66-2.15-.79-1.04-.13-2.47-.19-4.3-.19Z"/>
        <path class="cls-2" d="M218.18,26.81h-6.1V6.56h5.19l.67,5.64c.54-1.81,1.47-3.24,2.79-4.29s3.14-1.57,5.47-1.57h2.58v5.86h-2.72c-1.06,0-1.99.06-2.8.18-.81.12-1.5.31-2.06.56-1.13.49-1.91,1.32-2.35,2.47s-.65,2.72-.65,4.69v6.7Z"/>
        <path class="cls-2" d="M251.44,26.81l-.53-4.59c-.66,1.6-1.73,2.88-3.21,3.83-1.48.95-3.35,1.43-5.61,1.43-3.13,0-5.52-.89-7.18-2.66s-2.49-4.17-2.49-7.18V6.56h6.07v9.88c0,2,.46,3.52,1.38,4.57.92,1.05,2.48,1.57,4.69,1.57,1.93,0,3.4-.58,4.41-1.75s1.52-2.75,1.52-4.75V6.56h6.1v20.25h-5.15Z"/>
        <path class="cls-2" d="M273.1,27.48c-4.14,0-7.32-.61-9.54-1.82s-3.59-3.06-4.11-5.56h6.88c.33.99,1.01,1.7,2.05,2.13,1.03.43,2.72.65,5.04.65,2.19,0,3.68-.21,4.48-.62.8-.41,1.2-.97,1.2-1.68,0-.33-.09-.6-.26-.81s-.52-.38-1.04-.49c-.52-.14-1.29-.25-2.33-.33-1.03-.08-2.4-.15-4.09-.19-4-.12-6.86-.63-8.59-1.55-1.73-.92-2.59-2.38-2.59-4.37,0-.68.1-1.32.3-1.92.2-.6.51-1.16.94-1.68.82-1.06,2.07-1.89,3.74-2.5s3.79-.92,6.35-.92c3.79,0,6.76.56,8.91,1.69,2.15,1.13,3.59,2.92,4.32,5.36h-6.49c-.28-1.04-1.02-1.75-2.21-2.13-1.19-.39-2.72-.58-4.6-.58-.73,0-1.38.02-1.94.07s-1.05.13-1.45.25c-.78.21-1.32.48-1.62.81s-.46.68-.46,1.06c0,.31.07.56.21.78.14.21.46.4.95.56.49.14,1.24.26,2.24.35,1,.09,2.35.18,4.04.25,2.3.09,4.21.27,5.71.53,1.51.26,2.68.64,3.53,1.13.87.47,1.48,1.08,1.83,1.82.35.74.53,1.64.53,2.7,0,2.02-1.01,3.7-3.02,5.03-2.01,1.33-4.98,1.99-8.91,1.99Z"/>
        <path class="cls-2" d="M308.34,26.81l-.53-4.8c-.82,1.6-2.18,2.91-4.06,3.93s-4.28,1.53-7.2,1.53-4.91-.48-6.4-1.43c-1.49-.95-2.24-2.39-2.24-4.32v-.04c0-1.18.26-2.2.78-3.07.52-.87,1.33-1.56,2.43-2.08.33-.17.68-.31,1.06-.44.38-.13.76-.25,1.16-.37.82-.21,1.89-.39,3.19-.55,1.31-.15,3.04-.29,5.2-.41.75-.05,1.42-.09,2.01-.14s1.08-.11,1.48-.18c.82-.12,1.4-.3,1.73-.55.33-.25.49-.59.49-1.04v-.04c0-.24-.04-.46-.12-.67-.08-.21-.22-.42-.41-.63-.33-.4-.91-.73-1.75-.99s-1.98-.39-3.44-.39c-.87,0-1.65.03-2.33.09-.68.06-1.27.16-1.76.3-1.01.24-1.75.61-2.22,1.11-.47.51-.75,1.16-.85,1.96h-6.17c.33-2.68,1.58-4.64,3.74-5.89,2.16-1.25,5.19-1.87,9.07-1.87,1.32,0,2.52.06,3.62.18,1.09.12,2.09.29,2.98.53,1.76.49,3.1,1.35,4.02,2.56.92,1.21,1.38,2.91,1.38,5.1v12.59h-4.87ZM298.36,23.25c.89,0,1.73-.08,2.52-.23.79-.15,1.52-.38,2.2-.69,1.39-.59,2.48-1.35,3.26-2.29.79-.94,1.18-1.92,1.18-2.93v-.14c-.26.35-.79.65-1.59.88-.8.24-2.02.4-3.67.49-1.93.09-3.4.22-4.41.37-1.01.15-1.79.36-2.33.62-.42.21-.74.47-.95.78s-.32.66-.32,1.06v.04c0,.66.31,1.16.93,1.52.62.35,1.68.53,3.16.53Z"/>
      </g>
      <polygon class="cls-1" points="52.13 28.04 57.5 18.79 46.81 .18 23.87 .17 23.87 .17 14.97 .17 14.68 .17 0 .17 0 8.83 0 9.48 0 46.56 9.3 46.56 9.3 28.04 9.3 27.71 9.3 9.48 9.3 9.48 9.3 9.48 9.3 9.48 9.58 9.48 23.87 9.48 23.87 9.45 27.61 9.45 30.76 9.45 41.45 9.48 46.86 18.79 41.44 28.03 46.85 37.32 36.12 37.34 30.76 28.08 36.15 18.76 30.76 9.45 25.39 18.79 14.65 18.8 9.3 28.04 19.97 28.03 30.69 46.59 52.28 46.59 57.61 37.31 52.13 28.04"/>
    </g>
  </g>
</svg>