<svg width="72" height="65" viewBox="0 0 72 65" fill="none" xmlns="http://www.w3.org/2000/svg">
<path d="M63.3283 58.9596C63.7993 58.9679 64.264 58.8497 64.6747 58.6172C65.0854 58.3847 65.4274 58.0463 65.6657 57.6367L63.3283 58.9596ZM63.3283 58.9596H8.67483M63.3283 58.9596H8.67483M8.67483 58.9596C8.20385 58.9679 7.73917 58.8497 7.32843 58.6172C6.9177 58.3847 6.57568 58.0463 6.33745 57.6367L8.67483 58.9596ZM43.1073 4.60146L43.1051 4.59776C42.3786 3.35075 41.341 2.31631 40.095 1.59736C38.849 0.878387 37.4378 0.5 36.0016 0.5C34.5653 0.5 33.1542 0.878387 31.9081 1.59736C30.6621 2.31632 29.6246 3.35075 28.898 4.59775L28.8959 4.60147L1.57071 52.4373C1.57043 52.4378 1.57015 52.4383 1.56987 52.4388C0.869124 53.6484 0.5 55.0237 0.5 56.4239C0.5 57.8242 0.869166 59.1996 1.56999 60.4093C2.28793 61.6645 3.32444 62.7051 4.57362 63.4241C5.82253 64.1429 7.23889 64.5142 8.67748 64.4996H63.3259C64.7634 64.513 66.1784 64.1412 67.4261 63.4224C68.674 62.7035 69.7094 61.6636 70.4268 60.4094C71.1285 59.2004 71.4988 57.8254 71.5 56.4252C71.5012 55.0249 71.1332 53.6492 70.4334 52.439C70.4331 52.4385 70.4329 52.4381 70.4326 52.4377L43.1073 4.60146ZM65.2356 57.3816L65.2334 57.3853C65.0396 57.7186 64.7616 57.9934 64.4284 58.182C64.0952 58.3706 63.7185 58.4664 63.337 58.4597V58.4596H63.3283H8.67483V58.4596L8.66611 58.4597C8.28457 58.4664 7.90792 58.3706 7.57472 58.182C7.24149 57.9934 6.96351 57.7186 6.76968 57.3853L6.76885 57.3839C6.59808 57.0924 6.50784 56.7598 6.50784 56.4208C6.50784 56.0817 6.59808 55.7491 6.76885 55.4576L6.76888 55.4577L6.77161 55.4529L34.0959 7.61856C34.2948 7.28638 34.575 7.01193 34.9092 6.82137C35.2445 6.63011 35.623 6.52974 36.0078 6.52974C36.3926 6.52974 36.7711 6.63011 37.1065 6.82137C37.4406 7.01193 37.7208 7.28638 37.9197 7.61856C37.9205 7.61981 37.9212 7.62107 37.922 7.62232L65.244 55.4529L65.2455 55.4554C65.4147 55.7478 65.5033 56.0809 65.5015 56.4199C65.4998 56.759 65.4078 57.0911 65.2356 57.3816ZM33.0017 26.2V38.7998C33.0017 39.5995 33.3168 40.3672 33.8789 40.9339C34.4412 41.5007 35.2046 41.8198 36.0016 41.8198C36.7985 41.8198 37.5619 41.5007 38.1242 40.9339C38.6863 40.3672 39.0014 39.5995 39.0014 38.7998V26.2C39.0014 25.4003 38.6863 24.6326 38.1242 24.0659C37.5619 23.4991 36.7985 23.18 36.0016 23.18C35.2046 23.18 34.4412 23.4991 33.8789 24.0659C33.3168 24.6326 33.0017 25.4003 33.0017 26.2ZM39.5362 52.516C40.0026 51.8123 40.2514 50.9853 40.2514 50.1397C40.2514 49.0059 39.8046 47.9177 39.008 47.1148C38.2114 46.3117 37.13 45.8598 36.0016 45.8598C35.1601 45.8598 34.3379 46.1113 33.639 46.5821C32.94 47.0529 32.3959 47.7216 32.0747 48.5032C31.7536 49.2847 31.6696 50.1445 31.8333 50.974C31.9969 51.8034 32.401 52.5659 32.9951 53.1647C33.5892 53.7636 34.3466 54.1718 35.1717 54.3373C35.9969 54.5028 36.8522 54.4178 37.6292 54.0933C38.4062 53.7689 39.0697 53.2198 39.5362 52.516Z" fill="#D04E54" stroke="#D04E54"/>
</svg>
