<svg width="51" height="53" viewBox="0 0 51 53" fill="none" xmlns="http://www.w3.org/2000/svg">
<path d="M4.764 24.8369L46.164 5.92846M46.164 5.92846L38.424 3M46.164 5.92846L43.284 13.7015M48 50H39V24.6923C39 24.2129 39.1896 23.7531 39.5272 23.4141C39.8648 23.0751 40.3226 22.8846 40.8 22.8846H46.2C46.6774 22.8846 47.1352 23.0751 47.4728 23.4141C47.8104 23.7531 48 24.2129 48 24.6923V50ZM30 50H21V30.1154C21 29.636 21.1896 29.1762 21.5272 28.8372C21.8648 28.4981 22.3226 28.3077 22.8 28.3077H28.2C28.6774 28.3077 29.1352 28.4981 29.4728 28.8372C29.8104 29.1762 30 29.636 30 30.1154V50ZM12 50H3V35.5385C3 35.059 3.18964 34.5992 3.52721 34.2602C3.86477 33.9212 4.32261 33.7308 4.8 33.7308H10.2C10.6774 33.7308 11.1352 33.9212 11.4728 34.2602C11.8104 34.5992 12 35.059 12 35.5385V50Z" stroke="#E14646" stroke-width="5" stroke-linecap="round" stroke-linejoin="round"/>
</svg>
