<svg width="45" height="45" viewBox="0 0 45 45" fill="none" xmlns="http://www.w3.org/2000/svg">
<path d="M28.625 28.125V2.49951H44.5V43.687H0.5V1.20711L27.7714 28.4786L28.625 29.3321V28.125ZM2.3125 41.3745V41.8745H2.8125H37.3755H38.5826L37.729 41.021L3.16605 6.45797L2.3125 5.60442V6.81152V41.3745ZM38.562 38.062H37.3549L38.2085 38.9156L41.021 41.7281L41.1674 41.8745H41.3745H42.1875H42.6875V41.3745V4.81201V4.31201H42.1875H30.9375H30.4375V4.81201V7.62451V8.12451H30.9375H36.0625V9.93701H30.9375H30.4375V10.437V13.2495V13.7495H30.9375H36.0625V15.562H30.9375H30.4375V16.062V18.8745V19.3745H30.9375H38.875V21.187H30.9375H30.4375V21.687V24.4995V24.9995H30.9375H36.0625V26.812H30.9375H30.4375V27.312V30.1245V30.6245H30.9375H36.0625V32.437H32.937H31.7299L32.5835 33.2906L35.396 36.1031L35.5424 36.2495H35.7495H38.875V38.062H38.562ZM11.6036 28.958L10.75 28.1044V29.3115V32.937V33.437H11.25H14.8755H16.0826L15.229 32.5835L11.6036 28.958ZM8.9375 23.7071L20.4799 35.2495H8.9375V23.7071Z" fill="#E14646" stroke="#E14646"/>
</svg>
