<svg width="41" height="47" viewBox="0 0 41 47" fill="none" xmlns="http://www.w3.org/2000/svg">
<path d="M36.2496 29.4066C36.5949 27.6866 36.7132 25.8267 36.7132 23.7363V9.56044C36.7132 9.56044 31.8492 2 20.5 2C9.15079 2 4.28685 9.56044 4.28685 9.56044V23.7363C4.28685 25.8286 4.40511 27.6866 4.75035 29.4066M7.14799 10.5055C7.14799 10.5055 10.9629 13.3407 17.6389 13.3407L15.7314 8.61538C19.5463 12.3956 30.0371 12.9362 33.852 12.9362M12.5956 40.7813C12.4602 42.2631 11.8002 43.5144 10.6481 44.1721C8.36684 45.4763 5.02312 43.9699 3.18054 40.8077C1.33605 37.6418 1.69274 34.0185 3.97212 32.7143C5.6602 31.7503 7.93004 32.323 9.744 33.9693M12.5956 40.7813C12.7272 39.3259 12.3534 37.6475 11.4397 36.0806C10.9855 35.2953 10.415 34.5834 9.744 33.9693M12.5956 40.7813C15.0943 42.7564 17.8487 44.2988 20.5 45C23.1513 44.3007 25.9057 42.7564 28.4063 40.7813M9.744 33.9693C13.7611 29.6674 19.5463 27.5165 19.5463 27.5165H21.4537C21.4537 27.5165 27.2409 29.6674 31.256 33.9693M28.4063 40.7813C28.5398 42.265 29.2017 43.5144 30.3519 44.1721C32.6332 45.4763 35.9769 43.9699 37.8195 40.8077C39.6639 37.6418 39.3073 34.0185 37.0279 32.7143C35.3398 31.7503 33.07 32.323 31.256 33.9693M28.4063 40.7813C28.2728 39.3259 28.6466 37.6475 29.5603 36.0806C30.0391 35.2584 30.6189 34.5496 31.256 33.9693" stroke="#E14646" stroke-width="3.5"/>
</svg>
