<svg width="46" height="48" viewBox="0 0 46 48" fill="none" xmlns="http://www.w3.org/2000/svg">
<path d="M35.1721 25.269C34.5187 30.7106 30.9546 32.8849 29.4153 34.4633C27.8737 36.0463 28.1498 36.3616 28.2533 38.6832C28.2706 38.9704 28.2289 39.2581 28.1307 39.5286C28.0326 39.7991 27.8801 40.0467 27.6826 40.256C27.4852 40.4653 27.2469 40.632 26.9826 40.7457C26.7183 40.8594 26.4335 40.9179 26.1457 40.9173H20.0299C19.7422 40.9175 19.4574 40.8589 19.1932 40.745C18.9289 40.6312 18.6906 40.4646 18.4931 40.2554C18.2955 40.0462 18.1428 39.7988 18.0442 39.5284C17.9457 39.2581 17.9034 38.9704 17.92 38.6832C17.92 36.4053 18.1317 35.8761 16.7604 34.4633C15.0117 32.7146 10.8977 30.2458 10.8977 23.4558C10.8872 21.7693 11.2262 20.0988 11.8933 18.5498C12.5605 17.0008 13.5413 15.6067 14.7739 14.4556C16.0065 13.3044 17.4643 12.4211 19.0553 11.8612C20.6462 11.3014 22.3359 11.0773 24.0178 11.2029C25.6997 11.3285 27.3374 11.8012 28.8275 12.5911C30.3177 13.3811 31.628 14.4712 32.676 15.7927C33.7239 17.1142 34.4868 18.6385 34.9164 20.2694C35.346 21.9004 35.4331 23.6027 35.1721 25.269Z" stroke="#D9494C" stroke-width="3.5" stroke-linecap="round" stroke-linejoin="round"/>
<path d="M19.5443 40.7908V44.2697C19.5443 45.22 20.0735 46 20.7247 46H25.4484C26.1042 46 26.6311 45.2177 26.6311 44.2697V40.7908M21.293 16.5394C19.9344 16.54 18.6317 17.0801 17.6712 18.041C16.7108 19.0019 16.1712 20.3048 16.1712 21.6634M39.9579 23.9206H44.1777M35.7104 10.0876L38.7039 7.09418M38.0113 35.646L41.0048 38.6371M23.0877 2V5.41223M7.53365 7.09188L10.5064 10.0876M5.23276 38.6371L8.20551 35.646M6.21754 23.9206H2" stroke="#D9494C" stroke-width="3.5" stroke-linecap="round" stroke-linejoin="round"/>
</svg>
