<svg width="48" height="48" viewBox="0 0 48 48" fill="none" xmlns="http://www.w3.org/2000/svg">
<path d="M24 40.3333C33.0206 40.3333 40.3333 33.0207 40.3333 24C40.3333 14.9794 33.0206 7.66667 24 7.66667C14.9793 7.66667 7.66663 14.9794 7.66663 24C7.66663 33.0207 14.9793 40.3333 24 40.3333Z" stroke="#E14646" stroke-width="6"/>
<path d="M24 28.6667C26.5774 28.6667 28.6667 26.5773 28.6667 24C28.6667 21.4227 26.5774 19.3333 24 19.3333C21.4227 19.3333 19.3334 21.4227 19.3334 24C19.3334 26.5773 21.4227 28.6667 24 28.6667Z" fill="#E14646" stroke="#E14646" stroke-width="3"/>
<path d="M24 7.66667V3M40.3333 24H45M24 45V40.3333M3 24H7.66667" stroke="#E14646" stroke-width="6" stroke-linecap="round"/>
</svg>
