<svg width="58" height="46" viewBox="0 0 58 46" fill="none" xmlns="http://www.w3.org/2000/svg">
<path d="M43.5 37.6364C43.5 39.8545 42.627 41.9819 41.0732 43.5503C39.5193 45.1188 37.4118 46 35.2143 46C31.667 46 28.2362 43.666 27.058 40.4539C26.8788 39.9367 26.9078 39.3692 27.1388 38.8734C27.3698 38.3776 27.7843 37.9932 28.2933 37.8027C28.8022 37.6123 29.3649 37.6311 29.8602 37.8552C30.3556 38.0792 30.744 38.4905 30.942 39.0007C31.522 40.5819 33.4018 41.8182 35.2143 41.8182C36.313 41.8182 37.3668 41.3776 38.1437 40.5934C38.9207 39.8091 39.3571 38.7454 39.3571 37.6364C39.3571 36.5273 38.9207 35.4636 38.1437 34.6794C37.3668 33.8951 36.313 33.4545 35.2143 33.4545H6.21429C5.66491 33.4545 5.13803 33.2343 4.74956 32.8421C4.3611 32.45 4.14286 31.9182 4.14286 31.3636C4.14286 30.8091 4.3611 30.2773 4.74956 29.8851C5.13803 29.493 5.66491 29.2727 6.21429 29.2727H35.2143C37.4118 29.2727 39.5193 30.1539 41.0732 31.7224C42.627 33.2909 43.5 35.4182 43.5 37.6364ZM26.9286 16.7273C29.1261 16.7273 31.2336 15.8461 32.7875 14.2776C34.3413 12.7091 35.2143 10.5818 35.2143 8.36364C35.2143 6.14546 34.3413 4.01814 32.7875 2.44965C31.2336 0.881166 29.1261 0 26.9286 0C23.3813 0 19.9504 2.33398 18.7723 5.54614C18.5931 6.06328 18.622 6.63079 18.853 7.12659C19.0841 7.62238 19.4986 8.00684 20.0076 8.19727C20.5165 8.38769 21.0792 8.36886 21.5745 8.14483C22.0699 7.9208 22.4583 7.50947 22.6562 6.99932C23.2362 5.41807 25.1161 4.18182 26.9286 4.18182C28.0273 4.18182 29.0811 4.6224 29.858 5.40664C30.6349 6.19089 31.0714 7.25455 31.0714 8.36364C31.0714 9.47272 30.6349 10.5364 29.858 11.3206C29.0811 12.1049 28.0273 12.5455 26.9286 12.5455H2.07143C1.52205 12.5455 0.995175 12.7657 0.606707 13.1579C0.218239 13.55 0 14.0818 0 14.6364C0 15.1909 0.218239 15.7227 0.606707 16.1149C0.995175 16.507 1.52205 16.7273 2.07143 16.7273H26.9286ZM49.7143 8.36364C46.167 8.36364 42.7362 10.6976 41.558 13.9098C41.3788 14.4269 41.4078 14.9944 41.6388 15.4902C41.8698 15.986 42.2843 16.3705 42.7933 16.5609C43.3022 16.7513 43.8649 16.7325 44.3602 16.5085C44.8556 16.2844 45.244 15.8731 45.442 15.363C46.022 13.7817 47.9018 12.5455 49.7143 12.5455C50.813 12.5455 51.8668 12.986 52.6437 13.7703C53.4207 14.5545 53.8571 15.6182 53.8571 16.7273C53.8571 17.8364 53.4207 18.9 52.6437 19.6843C51.8668 20.4685 50.813 20.9091 49.7143 20.9091H4.14286C3.59348 20.9091 3.0666 21.1294 2.67814 21.5215C2.28967 21.9136 2.07143 22.4455 2.07143 23C2.07143 23.5545 2.28967 24.0864 2.67814 24.4785C3.0666 24.8706 3.59348 25.0909 4.14286 25.0909H49.7143C51.9118 25.0909 54.0193 24.2097 55.5732 22.6413C57.127 21.0728 58 18.9454 58 16.7273C58 14.5091 57.127 12.3818 55.5732 10.8133C54.0193 9.2448 51.9118 8.36364 49.7143 8.36364Z" fill="#E14646"/>
</svg>
