<svg width="54" height="51" viewBox="0 0 54 51" fill="none" xmlns="http://www.w3.org/2000/svg">
<path d="M3.00896 23.3364C2.98031 23.0094 3.02056 22.6801 3.12714 22.3693C3.23373 22.0585 3.40432 21.7731 3.62811 21.5311C3.85189 21.2892 4.12397 21.096 4.42709 20.9638C4.73021 20.8316 5.05774 20.7632 5.38891 20.7632H9.95167C10.5854 20.7632 11.1932 21.0127 11.6413 21.4569C12.0894 21.901 12.3412 22.5034 12.3412 23.1316V45.6316C12.3412 46.2597 12.0894 46.8621 11.6413 47.3063C11.1932 47.7505 10.5854 48 9.95167 48H7.36384C6.76578 48.0001 6.18941 47.778 5.74855 47.3774C5.3077 46.9769 5.03442 46.427 4.98269 45.8364L3.00896 23.3364ZM19.5097 22.3914C19.5097 21.4014 20.131 20.5157 21.033 20.0941C23.0032 19.1728 26.3592 17.3218 27.873 14.8196C29.824 11.5938 30.192 5.76631 30.2517 4.4317C30.2601 4.2446 30.2553 4.05749 30.2804 3.87276C30.6042 1.55999 35.1072 4.26118 36.8337 7.11749C37.7715 8.66644 37.891 10.7021 37.793 12.2925C37.6867 13.993 37.1837 15.6355 36.6903 17.2674L35.6389 20.7454H48.6103C48.9795 20.7454 49.3437 20.8301 49.6743 20.993C50.0049 21.156 50.2929 21.3926 50.5157 21.6843C50.7385 21.9761 50.8901 22.3151 50.9586 22.6747C51.027 23.0342 51.0105 23.4047 50.9102 23.7568L44.4944 46.2758C44.3528 46.7724 44.0513 47.2097 43.636 47.5209C43.2206 47.8321 42.714 48.0004 42.1933 48H21.8992C21.2655 48 20.6577 47.7505 20.2096 47.3063C19.7615 46.8621 19.5097 46.2597 19.5097 45.6316V22.3914Z" stroke="#E14646" stroke-width="5" stroke-linecap="round" stroke-linejoin="round"/>
</svg>
