<svg width="43" height="48" viewBox="0 0 43 48" fill="none" xmlns="http://www.w3.org/2000/svg">
<path d="M37.2497 29.4066C37.595 27.6866 37.7132 25.8267 37.7132 23.7363V9.56044C37.7132 9.56044 32.8493 2 21.5001 2C10.1509 2 5.28693 9.56044 5.28693 9.56044V23.7363C5.28693 25.8286 5.40519 27.6866 5.75044 29.4066M13.5957 40.7813C13.4603 42.2631 12.8003 43.5144 11.6482 44.1721C6.5 47.5 6.0232 43.9699 4.18062 40.8077C2.33614 37.6418 0.50003 37 4.97221 32.7143C6.66028 31.7503 8.93013 32.323 10.7441 33.9693M13.5957 40.7813C13.7273 39.3259 13.3535 37.6475 12.4398 36.0806C11.9856 35.2953 11.4151 34.5834 10.7441 33.9693M13.5957 40.7813C16.0944 42.7564 18.8488 44.2988 21.5001 45C24.1514 44.3007 26.9057 42.7564 29.4064 40.7813M10.7441 33.9693C14.7611 29.6674 20.5464 27.5165 20.5464 27.5165H22.4538C22.4538 27.5165 28.2409 29.6674 32.2561 33.9693M29.4064 40.7813C29.5399 42.265 30.2018 43.5144 31.352 44.1721C36 48 36.977 43.9699 38.8195 40.8077C40.664 37.6418 43 36.0806 38.028 32.7143C36.3399 31.7503 34.07 32.323 32.2561 33.9693M29.4064 40.7813C29.2729 39.3259 29.6467 37.6475 30.5604 36.0806C31.0391 35.2584 31.619 34.5496 32.2561 33.9693" stroke="#E14646" stroke-width="3.5"/>
<path d="M19.8135 24.743L19.8135 24.743L19.8165 24.7383L21.1111 22.7331C21.2368 22.5489 21.3886 22.4744 21.5338 22.4744C21.6817 22.4744 21.8345 22.5536 21.944 22.7126L23.2675 24.7615L23.2674 24.7616L23.2706 24.7662C24.7466 26.9422 27.1201 28.25 29.6235 28.25C34.8668 28.25 39.25 23.3884 39.25 17.6785C39.25 14.4157 37.752 11.4681 35.0461 9.37997L35.046 9.37996C31.909 6.95956 27.3523 5.75 21.535 5.75C15.7259 5.75 11.1608 6.98322 7.99369 9.45491C5.26306 11.5845 3.75 14.5698 3.75 17.8592C3.75 23.5706 8.08404 28.25 13.4477 28.25C15.9515 28.25 18.3237 26.9417 19.8135 24.743ZM24.3104 21.167L24.3105 21.1669L24.3073 21.1622C23.6704 20.2253 22.6357 19.6586 21.5338 19.6586C20.4325 19.6586 19.3968 20.2223 18.7451 21.1833L18.745 21.1832L18.742 21.1879L17.445 23.1945C16.4891 24.6034 14.9925 25.4342 13.4477 25.4342C9.3688 25.4342 6.58333 21.5419 6.58333 17.8592C6.58333 15.461 7.69774 13.2644 9.74205 11.6705L9.74209 11.6705C12.3284 9.65317 16.394 8.56579 21.535 8.56579C26.6925 8.56579 30.7523 9.63057 33.3103 11.603C35.8817 13.5883 36.4167 16.0013 36.4167 17.6785C36.4167 21.8372 33.2095 25.4342 29.6235 25.4342C28.0778 25.4342 26.5768 24.6037 25.6343 23.2142L24.3104 21.167Z" fill="#E14646" stroke="#E14646" stroke-width="0.5"/>
</svg>
