<svg width="44" height="44" viewBox="0 0 44 44" fill="none" xmlns="http://www.w3.org/2000/svg">
<path fill-rule="evenodd" clip-rule="evenodd" d="M44 22C44 16.1652 41.6821 10.5695 37.5563 6.44365C33.4305 2.31785 27.8348 0 22 0C16.1652 0 10.5695 2.31785 6.44365 6.44365C2.31785 10.5695 0 16.1652 0 22V34.5714H0.0314285C0.229335 37.1366 1.38797 39.5326 3.27578 41.2806C5.16359 43.0285 7.6415 43.9997 10.2143 44H10.4751C13.3666 44 15.7143 41.6554 15.7143 38.7609V28.8106C15.7143 25.9191 13.3697 23.5714 10.4751 23.5714H10.2143C8.19029 23.5714 6.30143 24.1623 4.71429 25.1743V22C4.71429 17.4155 6.53545 13.0189 9.77715 9.77715C13.0189 6.53545 17.4155 4.71429 22 4.71429C26.5845 4.71429 30.9811 6.53545 34.2228 9.77715C37.4645 13.0189 39.2857 17.4155 39.2857 22V25.1743C37.6435 24.1247 35.7347 23.5684 33.7857 23.5714H33.5249C30.6334 23.5714 28.2857 25.916 28.2857 28.8106V38.7609C28.2857 41.6523 30.6303 44 33.5249 44H33.7857C36.3585 43.9997 38.8364 43.0285 40.7242 41.2806C42.612 39.5326 43.7707 37.1366 43.9686 34.5714H44V22ZM39.2857 33.7857C39.2857 32.327 38.7063 30.9281 37.6748 29.8966C36.6434 28.8652 35.2444 28.2857 33.7857 28.2857H33.5249C33.3857 28.2857 33.2522 28.341 33.1537 28.4394C33.0553 28.5379 33 28.6714 33 28.8106V38.7609C33 39.05 33.2357 39.2857 33.5249 39.2857H33.7857C35.2444 39.2857 36.6434 38.7063 37.6748 37.6748C38.7063 36.6434 39.2857 35.2444 39.2857 33.7857ZM10.2143 39.2857C8.7556 39.2857 7.35665 38.7063 6.3252 37.6748C5.29375 36.6434 4.71429 35.2444 4.71429 33.7857C4.71429 32.327 5.29375 30.9281 6.3252 29.8966C7.35665 28.8652 8.7556 28.2857 10.2143 28.2857H10.4751C10.7643 28.2857 11 28.5214 11 28.8106V38.7609C11 38.9001 10.9447 39.0336 10.8463 39.132C10.7478 39.2304 10.6143 39.2857 10.4751 39.2857H10.2143Z" fill="#E14646"/>
</svg>
