<svg width="51" height="46" viewBox="0 0 51 46" fill="none" xmlns="http://www.w3.org/2000/svg">
<path d="M30.3871 3.56245L30.3881 3.5643L49.5162 36.9742C49.5162 36.9743 49.5163 36.9744 49.5163 36.9745C49.9976 37.8047 50.2508 38.7487 50.25 39.7096C50.2492 40.6703 49.9945 41.6136 49.512 42.443C49.0185 43.3038 48.3063 44.0175 47.4482 44.5108C46.5901 45.004 45.617 45.259 44.6286 45.2497H6.37352C5.3844 45.2598 4.41048 45.0051 3.55163 44.5119C2.69256 44.0186 1.9796 43.3044 1.48574 42.4428C1.48562 42.4426 1.48551 42.4424 1.4854 42.4422L1.70231 42.3179L30.3871 3.56245ZM30.3871 3.56245C29.8871 2.70638 29.1734 1.9964 28.3163 1.50301C27.4593 1.00962 26.4888 0.75 25.5011 0.75C24.5134 0.75 23.5429 1.00962 22.6859 1.50301C21.8288 1.9964 21.115 2.70638 20.6151 3.56244L20.6141 3.5643M30.3871 3.56245L20.6141 3.5643M20.6141 3.5643L1.48614 36.974M20.6141 3.5643L1.48614 36.974M1.48614 36.974C1.48599 36.9743 1.48583 36.9745 1.48568 36.9748L1.48614 36.974ZM46.051 40.428L46.05 40.4299C45.9055 40.6778 45.6981 40.8824 45.4493 41.0229C45.2006 41.1634 44.9192 41.2347 44.6342 41.2298V41.2297H44.6298L6.37238 41.2297L6.36803 41.2298C6.08295 41.2347 5.80161 41.1634 5.55284 41.0229C5.30405 40.8824 5.0967 40.6778 4.95221 40.4299L4.95179 40.4292C4.82332 40.2104 4.75549 39.9608 4.75549 39.7066C4.75549 39.4523 4.82332 39.2027 4.95181 38.984L4.95318 38.9816L24.0795 5.57453C24.0799 5.57387 24.0803 5.57322 24.0807 5.57256C24.2287 5.32564 24.4375 5.12146 24.6867 4.97966C24.9365 4.8375 25.2186 4.76284 25.5055 4.76284C25.7923 4.76284 26.0744 4.8375 26.3243 4.97966C26.5735 5.12146 26.7822 5.32564 26.9302 5.57256C26.9306 5.57322 26.931 5.57387 26.9314 5.57453L46.0578 38.9816L46.0585 38.9829C46.1858 39.2023 46.2524 39.4522 46.2511 39.7065C46.2498 39.9608 46.1806 40.2099 46.051 40.428ZM23.5012 18.6V27.3999C23.5012 27.9325 23.7115 28.4436 24.0864 28.8207C24.4614 29.1978 24.9702 29.4099 25.5011 29.4099C26.032 29.4099 26.5408 29.1978 26.9157 28.8207C27.2906 28.4436 27.501 27.9325 27.501 27.3999V18.6C27.501 18.0674 27.2906 17.5563 26.9157 17.1792C26.5408 16.8021 26.032 16.59 25.5011 16.59C24.9702 16.59 24.4614 16.8021 24.0864 17.1792C23.7115 17.5563 23.5012 18.0674 23.5012 18.6ZM27.8918 36.9248C28.2075 36.4496 28.376 35.8911 28.376 35.3198C28.376 34.5538 28.0734 33.8189 27.5344 33.2768C26.9954 32.7347 26.264 32.4298 25.5011 32.4298C24.9322 32.4298 24.3762 32.5995 23.9034 32.9172C23.4306 33.235 23.0623 33.6864 22.8449 34.2143C22.6275 34.7422 22.5706 35.323 22.6814 35.8833C22.7922 36.4437 23.0658 36.9586 23.4677 37.3628C23.8697 37.7671 24.382 38.0426 24.94 38.1542C25.4979 38.2658 26.0762 38.2085 26.6017 37.9896C27.1272 37.7707 27.5761 37.4001 27.8918 36.9248Z" fill="#E14646" stroke="#E14646" stroke-width="0.5"/>
</svg>
