<svg width="39" height="48" viewBox="0 0 39 48" fill="none" xmlns="http://www.w3.org/2000/svg">
<path d="M36 29.88V24C36 21.995 35.2177 20.072 33.8253 18.6543C32.4328 17.2365 30.5442 16.44 28.575 16.44H25.275C24.6186 16.44 23.9891 16.1745 23.5249 15.7019C23.0608 15.2293 22.8 14.5883 22.8 13.92V10.56C22.8 8.55496 22.0177 6.63205 20.6253 5.21427C19.2328 3.7965 17.3442 3 15.375 3H11.25M22.7582 33.1974L26.1 36.6M22.7582 33.1974C23.2945 32.6514 23.7202 32.0036 24.0104 31.2902C24.3006 30.5768 24.45 29.8122 24.45 29.04C24.45 27.4805 23.8416 25.9849 22.7585 24.8822C21.6755 23.7795 20.2066 23.16 18.675 23.16C17.1434 23.16 15.6745 23.7795 14.5915 24.8822C13.5084 25.9849 12.9 27.4805 12.9 29.04C12.9 29.8122 13.0494 30.5768 13.3396 31.2902C13.6298 32.0036 14.0552 32.6518 14.5915 33.1978C15.1277 33.7438 15.7643 34.1769 16.465 34.4724C17.1657 34.7679 17.9166 34.92 18.675 34.92C19.4334 34.92 20.1843 34.7679 20.885 34.4724C21.5857 34.1769 22.2219 33.7434 22.7582 33.1974ZM16.2 3H5.475C4.1088 3 3 4.12896 3 5.52V42.48C3 43.871 4.1088 45 5.475 45H33.525C34.8912 45 36 43.871 36 42.48V23.16C36 17.8132 33.9139 12.6855 30.2007 8.90473C26.4875 5.12399 21.4513 3 16.2 3Z" stroke="#E14646" stroke-width="5" stroke-linecap="round" stroke-linejoin="round"/>
</svg>
