<svg width="117" height="105" viewBox="0 0 117 105" fill="none" xmlns="http://www.w3.org/2000/svg">
<path d="M58.5 77C72.031 77 83 66.031 83 52.5C83 38.969 72.031 28 58.5 28C44.969 28 34 38.969 34 52.5C34 66.031 44.969 77 58.5 77Z" stroke="#D04E54" stroke-width="6"/>
<path d="M58.5 59.5C62.366 59.5 65.5 56.366 65.5 52.5C65.5 48.634 62.366 45.5 58.5 45.5C54.634 45.5 51.5 48.634 51.5 52.5C51.5 56.366 54.634 59.5 58.5 59.5Z" fill="#D04E54" stroke="#D04E54" stroke-width="3"/>
<path d="M58.5 28V21M83 52.5H90M58.5 84V77M27 52.5H34" stroke="#D04E54" stroke-width="6" stroke-linecap="round"/>
</svg>
