<svg width="73" height="73" viewBox="0 0 73 73" fill="none" xmlns="http://www.w3.org/2000/svg">
<path d="M63.7067 9.03206L71.7724 10.6442C72.2055 10.7309 72.5617 11.0485 72.6868 11.4768C72.75 11.6849 72.7556 11.9062 72.7031 12.1172C72.6505 12.3282 72.5418 12.521 72.3884 12.6751L65.7809 19.2875C64.9891 20.0748 63.9185 20.5176 62.8019 20.5195H57.3205L43.5567 34.2881C43.8193 35.2795 43.8676 36.3156 43.6984 37.3272C43.5292 38.3388 43.1463 39.3027 42.5753 40.1548C42.0044 41.0068 41.2584 41.7274 40.3871 42.2685C39.5158 42.8097 38.5392 43.1589 37.5223 43.293C36.5054 43.4271 35.4717 43.3429 34.4899 43.0462C33.5081 42.7494 32.6008 42.2468 31.8285 41.5719C31.0562 40.897 30.4365 40.0653 30.0109 39.1321C29.5852 38.1989 29.3633 37.1858 29.3599 36.1601C29.3596 35.0524 29.6143 33.9595 30.1042 32.966C30.5941 31.9725 31.3061 31.1051 32.185 30.4309C33.064 29.7567 34.0862 29.2938 35.1728 29.0781C36.2593 28.8623 37.3809 28.8995 38.4507 29.1868L52.2192 15.4134V9.94162C52.2192 8.82512 52.662 7.75193 53.4512 6.96268L60.0636 0.350306C60.2177 0.196927 60.4106 0.0881858 60.6216 0.0356471C60.8326 -0.0168917 61.0539 -0.0112641 61.2619 0.0519312C61.6902 0.177056 62.0079 0.533181 62.0945 0.966306L63.7067 9.03206Z" fill="#D04E54"/>
<path d="M7.70321 36.1604C7.70815 40.2893 8.59854 44.3691 10.3143 48.1247C12.0301 51.8803 14.5313 55.2242 17.6493 57.9309C20.7673 60.6376 24.4295 62.6442 28.3889 63.8152C32.3484 64.9862 36.5129 65.2944 40.6015 64.7191C44.6902 64.1438 48.6079 62.6983 52.0904 60.4802C55.5729 58.262 58.5393 55.3228 60.7893 51.8607C63.0393 48.3987 64.5206 44.4944 65.1334 40.4112C65.7462 36.328 65.4762 32.1608 64.3415 28.1909C64.1822 27.727 64.119 27.2357 64.1556 26.7466C64.1923 26.2576 64.3281 25.7811 64.5548 25.3462C64.7815 24.9114 65.0943 24.5272 65.4742 24.2171C65.8541 23.9069 66.2931 23.6774 66.7646 23.5423C67.236 23.4073 67.73 23.3696 68.2165 23.4316C68.703 23.4936 69.1718 23.654 69.5943 23.9029C70.0168 24.1518 70.3843 24.4842 70.6743 24.8796C70.9643 25.2751 71.1708 25.7255 71.2811 26.2033C73.4782 33.8914 73.0608 42.0913 70.0946 49.5166C67.1284 56.942 61.7812 63.1725 54.8918 67.2308C48.0024 71.2892 39.9606 72.9456 32.0282 71.9403C24.0958 70.935 16.7215 67.3249 11.0623 61.6762C5.40929 56.0184 1.79527 48.6435 0.787667 40.7092C-0.219934 32.775 1.43595 24.7307 5.49534 17.8395C9.55474 10.9483 15.7878 5.60032 23.2158 2.63523C30.6438 -0.329857 38.8463 -0.744143 46.5353 1.45742C47.4508 1.72505 48.2232 2.34421 48.6836 3.17958C49.144 4.01495 49.255 4.99862 48.9924 5.9156C48.7298 6.83259 48.1149 7.60833 47.282 8.0733C46.4492 8.53827 45.4661 8.65466 44.5477 8.39704C40.2481 7.16239 35.7204 6.9436 31.3218 7.75794C26.9231 8.57228 22.7738 10.3975 19.2012 13.0896C15.6286 15.7816 12.7302 19.267 10.7349 23.2707C8.73952 27.2744 7.70168 31.687 7.70321 36.1604Z" fill="#D04E54"/>
<path d="M22.1412 36.1599C22.1415 38.7904 22.86 41.3708 24.2191 43.623C25.5782 45.8751 27.5264 47.7134 29.8536 48.9397C32.1808 50.1659 34.7985 50.7335 37.4246 50.5812C40.0507 50.429 42.5853 49.5626 44.7552 48.0756C46.9246 46.5849 48.6452 44.5295 49.7309 42.1315C50.8167 39.7336 51.2262 37.0845 50.9152 34.4707C50.831 33.8364 50.9175 33.1912 51.1656 32.6014C51.4138 32.0117 51.8146 31.4987 52.3269 31.1153C52.8392 30.732 53.4444 30.4921 54.0802 30.4204C54.716 30.3487 55.3594 30.4477 55.9442 30.7073C56.5289 30.9636 57.0352 31.3703 57.4114 31.886C57.7876 32.4017 58.0203 33.008 58.0858 33.643C58.6087 38.1094 57.7282 42.6279 55.5665 46.5713C53.4048 50.5146 50.0692 53.6872 46.0225 55.6487C41.9758 57.6102 37.4189 58.2633 32.9842 57.5174C28.5495 56.7715 24.4571 54.6635 21.2748 51.4861C18.0925 48.3086 15.9783 44.2193 15.2257 39.7858C14.473 35.3522 15.1192 30.7943 17.0745 26.7447C19.0299 22.6951 22.1974 19.3546 26.1375 17.1869C30.0775 15.0192 34.5947 14.1319 39.062 14.648C39.5403 14.6924 40.005 14.8318 40.4287 15.0581C40.8525 15.2844 41.2268 15.593 41.5297 15.9658C41.8327 16.3387 42.0581 16.7682 42.1929 17.2293C42.3277 17.6904 42.3691 18.1738 42.3146 18.6511C42.2602 19.1284 42.111 19.59 41.8758 20.0089C41.6406 20.4278 41.3242 20.7955 40.945 21.0906C40.5659 21.3856 40.1317 21.6019 39.6679 21.7269C39.204 21.852 38.7199 21.8831 38.2438 21.8186C36.2209 21.5838 34.1712 21.7795 32.2294 22.393C30.2875 23.0065 28.4974 24.0239 26.9766 25.3783C25.4558 26.7328 24.2387 28.3936 23.4054 30.2518C22.572 32.1099 22.1412 34.1234 22.1412 36.1599Z" fill="#D04E54"/>
</svg>
