<svg width="63" height="49" viewBox="0 0 63 49" fill="none" xmlns="http://www.w3.org/2000/svg">
<path d="M18.0714 15.2048L13.3043 10.46L16.46 7.30429L21.2048 12.0714L18.0714 15.2048ZM33.7381 2V8.71429H29.2619V2H33.7381ZM49.6957 10.46L44.9286 15.2048L41.7952 12.0714L46.54 7.30429L49.6957 10.46ZM14.7143 23.2619V27.7381H8V23.2619H14.7143ZM48.2857 23.2619H55V27.7381H48.2857V23.2619ZM18.0714 44.5238H44.9286C46.1157 44.5238 47.2543 44.9954 48.0937 45.8349C48.9332 46.6743 49.4048 47.8128 49.4048 49H13.5952C13.5952 47.8128 14.0668 46.6743 14.9063 45.8349C15.7457 44.9954 16.8843 44.5238 18.0714 44.5238ZM31.5 10.9524C35.0615 10.9524 38.4771 12.3672 40.9954 14.8855C43.5138 17.4039 44.9286 20.8195 44.9286 24.381V42.2857H18.0714V24.381C18.0714 20.8195 19.4862 17.4039 22.0046 14.8855C24.5229 12.3672 27.9385 10.9524 31.5 10.9524ZM31.5 15.4286C29.1257 15.4286 26.8486 16.3718 25.1697 18.0507C23.4908 19.7296 22.5476 22.0066 22.5476 24.381V37.8095H40.4524V24.381C40.4524 22.0066 39.5092 19.7296 37.8303 18.0507C36.1514 16.3718 33.8743 15.4286 31.5 15.4286Z" fill="#D04E54"/>
</svg>
