<svg width="63" height="49" viewBox="0 0 63 49" fill="none" xmlns="http://www.w3.org/2000/svg">
<path d="M28.2656 37.625C28.2656 38.0974 28.078 38.5505 27.7439 38.8845C27.4099 39.2186 26.9568 39.4062 26.4844 39.4062H20.25C19.7776 39.4062 19.3245 39.2186 18.9905 38.8845C18.6564 38.5505 18.4688 38.0974 18.4688 37.625C18.4688 37.1526 18.6564 36.6995 18.9905 36.3655C19.3245 36.0314 19.7776 35.8438 20.25 35.8438H26.4844C26.9568 35.8438 27.4099 36.0314 27.7439 36.3655C28.078 36.6995 28.2656 37.1526 28.2656 37.625ZM41.625 35.8438H35.3906C34.9182 35.8438 34.4651 36.0314 34.1311 36.3655C33.797 36.6995 33.6094 37.1526 33.6094 37.625C33.6094 38.0974 33.797 38.5505 34.1311 38.8845C34.4651 39.2186 34.9182 39.4062 35.3906 39.4062H41.625C42.0974 39.4062 42.5505 39.2186 42.8845 38.8845C43.2186 38.5505 43.4062 38.0974 43.4062 37.625C43.4062 37.1526 43.2186 36.6995 42.8845 36.3655C42.5505 36.0314 42.0974 35.8438 41.625 35.8438ZM55.875 46.5312C55.875 47.0037 55.6873 47.4567 55.3533 47.7908C55.0192 48.1248 54.5662 48.3125 54.0938 48.3125H7.78125C7.30883 48.3125 6.85577 48.1248 6.52172 47.7908C6.18767 47.4567 6 47.0037 6 46.5312C6 46.0588 6.18767 45.6058 6.52172 45.2717C6.85577 44.9377 7.30883 44.75 7.78125 44.75H9.5625V18.0312C9.5625 17.7005 9.65462 17.3762 9.82853 17.0948C10.0024 16.8134 10.2513 16.586 10.5472 16.4381C10.843 16.2901 11.1743 16.2275 11.5037 16.2572C11.8332 16.2869 12.1479 16.4078 12.4125 16.6062L23.8125 25.1562V18.0312C23.8125 17.7005 23.9046 17.3762 24.0785 17.0948C24.2524 16.8134 24.5013 16.586 24.7972 16.4381C25.093 16.2901 25.4243 16.2275 25.7537 16.2572C26.0832 16.2869 26.3979 16.4078 26.6625 16.6062L35.2882 23.0744L37.8621 5.0593C37.9868 4.21176 38.4112 3.43702 39.0583 2.87569C39.7054 2.31436 40.5323 2.00367 41.389 2H45.4235C46.2802 2.00367 47.1071 2.31436 47.7542 2.87569C48.4013 3.43702 48.8257 4.21176 48.9504 5.0593L52.2902 28.4671C52.2902 28.4671 52.308 28.6408 52.308 28.7188V44.75H54.0893C54.3236 44.7494 54.5557 44.7951 54.7723 44.8843C54.9889 44.9736 55.1858 45.1047 55.3517 45.2701C55.5176 45.4356 55.6492 45.6322 55.739 45.8486C55.8288 46.065 55.875 46.297 55.875 46.5312ZM38.539 25.5125L40.4382 26.9375H48.4784L45.4235 5.5625H41.389L38.539 25.5125ZM13.125 44.75H48.75V30.5H39.8438C39.4583 30.5 39.0833 30.375 38.775 30.1437L35.5688 27.7391L27.375 21.5938V28.7188C27.375 29.0495 27.2829 29.3738 27.109 29.6552C26.9351 29.9366 26.6862 30.164 26.3903 30.3119C26.0945 30.4599 25.7632 30.5225 25.4338 30.4928C25.1043 30.4631 24.7896 30.3422 24.525 30.1437L13.125 21.5938V44.75Z" fill="#D04E54"/>
</svg>
