<svg width="279" height="598" viewBox="0 0 279 598" fill="none" xmlns="http://www.w3.org/2000/svg">
<g clip-path="url(#clip0_1055_376)">
<path d="M19.1885 122.545C20.1489 122.233 21.3308 121.847 22.1988 122.692C22.4943 122.986 22.6421 123.335 22.7714 123.665C22.8452 123.83 22.9191 124.014 23.0114 124.161C23.2885 124.583 23.824 124.803 24.3966 125.042L24.7659 125.207C28.1826 126.768 30.2141 130.698 29.5123 134.37C29.4569 134.627 29.4015 134.884 29.3461 135.123C29.1983 135.747 29.0506 136.353 29.106 136.922C29.1429 137.216 29.2168 137.491 29.2907 137.767C29.383 138.079 29.4569 138.391 29.4938 138.703C29.6046 139.566 29.4015 140.392 29.1983 141.182C29.0506 141.751 28.9213 142.265 28.9028 142.798C28.8844 143.459 29.2722 144.248 29.8078 144.579C30.2141 144.818 30.4726 144.689 30.565 144.634C30.6942 144.56 30.842 144.432 30.9713 144.285C31.1375 144.138 31.3222 143.955 31.5438 143.808C32.6888 143.128 33.9262 143.808 34.9973 144.414C36.1054 145.02 36.8072 145.368 37.3059 144.928C37.3798 144.873 37.4352 144.799 37.4906 144.726C37.6383 144.561 37.8045 144.359 38.0631 144.23C39.1527 143.679 39.9838 144.762 40.5378 145.46L40.7964 145.772C41.4058 146.507 42.3662 146.837 43.3819 147.186C44.1022 147.443 44.8594 147.7 45.5427 148.123C46.5769 148.784 47.2972 149.757 47.9805 150.693C48.4053 151.281 48.8116 151.832 49.2918 152.309C50.3814 153.411 51.785 154.072 53.2809 154.788C54.389 155.32 55.5341 155.871 56.5498 156.606C58.9692 158.368 60.7236 161.288 61.961 165.529C62.2565 166.558 62.5151 167.623 62.7736 168.669C63.3277 170.891 63.9002 173.205 64.8605 175.298C66.4673 178.768 69.1267 181.633 71.7307 184.387C73.4298 183.359 75.5536 183.01 77.4928 183.487L77.8991 183.597C78.3978 183.744 78.8779 183.873 79.3027 183.781C80.4847 183.542 80.7617 181.816 80.7986 180.402C80.9279 175.481 81.3527 170.487 81.759 165.676C81.8883 164.079 82.036 162.408 82.4608 160.792C82.9225 159.066 83.6797 157.432 84.4184 155.853L87.4841 149.371L83.2918 136.096C83.2549 135.967 83.218 135.839 83.1626 135.784C83.1072 135.71 82.9594 135.655 82.8117 135.6L82.6639 135.527C82.0175 135.233 81.5189 134.774 81.0941 134.351C80.7063 133.966 80.3 133.562 79.9122 133.158C77.9915 131.175 76.0154 129.137 73.4483 129.045H73.1712C72.728 129.045 72.2294 129.045 71.7677 128.788C70.678 128.219 70.6411 127.007 70.5857 125.924C70.5487 125.042 70.5118 124.234 69.9947 123.904C69.81 123.794 69.5699 123.738 69.2929 123.683C68.9051 123.592 68.4618 123.5 68.0925 123.206C67.4461 122.673 67.4091 121.902 67.3537 121.205C67.3353 120.819 67.2983 120.452 67.1875 120.158C66.8551 119.368 65.8209 119.056 64.7312 118.836C63.3831 118.579 61.8502 118.267 60.4835 118.616C59.3016 118.909 58.0642 119.938 58.1011 121.223C58.1011 121.407 58.0273 121.572 57.8611 121.664C57.7133 121.755 57.5286 121.774 57.3624 121.7C55.1093 120.672 52.2836 119.662 50.4183 121.094L50.1044 121.351C49.3657 121.957 48.3684 122.765 47.3711 122.104C46.7801 121.719 46.6508 121.039 46.5585 120.488C46.2445 118.799 45.395 117.33 44.1391 116.265C43.899 116.137 43.4373 116.357 42.7725 116.724C42.0522 117.11 41.1473 117.606 40.2977 117.073C39.6144 116.651 39.4667 115.861 39.3559 115.237C38.9126 112.85 37.8415 110.628 36.2532 108.811C35.9577 108.48 35.6991 108.241 35.4221 108.131C34.7757 107.929 34.037 108.425 33.3352 108.939L33.0766 109.123C31.6361 110.096 30.1033 110.5 28.7551 110.224C28.4596 110.169 28.1826 110.059 27.9055 109.931C27.8132 110.426 27.6839 110.922 27.4992 111.381C26.9082 112.795 25.2092 113.236 24.5074 114.594C23.4916 116.577 23.27 118.505 21.4786 120.066C20.2227 121.149 18.6529 121.645 17.9511 122.802C18.0989 122.802 18.2466 122.784 18.3759 122.747C18.6345 122.692 18.893 122.6 19.1516 122.508L19.1885 122.545Z" fill="#2E434D"/>
<path d="M123.645 342.848C123.313 342.37 122.888 341.948 122.426 341.507C121.632 340.736 120.819 339.928 120.542 338.79C120.468 338.478 120.616 338.074 120.875 337.853V313.23C120.376 313.341 119.859 313.414 119.342 313.414C116.886 313.414 114.429 312.165 113.1 310.072C113.007 309.925 112.933 309.797 112.841 309.65C112.601 309.228 112.361 308.824 112.028 308.567C111.622 308.236 111.031 308.107 110.422 307.979C109.757 307.832 109.074 307.704 108.483 307.263C108.187 307.043 107.947 306.785 107.725 306.547C107.485 306.271 107.245 306.014 106.968 305.867C106.636 305.684 106.192 305.665 105.731 305.647H105.472C103.755 305.537 102.111 304.986 100.523 304.472C99.193 304.031 97.8079 303.572 96.4043 303.407C93.8742 303.113 91.2517 303.774 89.1832 305.243C89.0355 305.353 88.8323 305.372 88.6661 305.298C88.4999 305.225 88.3891 305.059 88.3706 304.876C88.3706 304.821 88.3337 304.711 88.2044 304.619C87.9828 304.454 87.6134 304.398 87.281 304.454C87.004 304.509 86.727 304.619 86.4499 304.729C86.0436 304.894 85.6189 305.041 85.1571 305.096C84.0675 305.206 83.0702 304.619 82.35 304.215L79.7275 302.709C79.1919 303.297 78.3793 303.646 77.4744 303.664C76.3847 303.664 75.4059 303.223 74.8519 302.415C74.5933 302.03 74.4271 301.626 74.2793 301.222C74.1131 300.8 73.9654 300.396 73.7253 300.102C73.1897 299.478 72.2848 299.312 71.306 299.129C71.0474 299.092 70.7888 299.037 70.5488 298.982C69.7177 298.798 68.6465 298.302 68.0925 297.439C67.9817 297.274 67.9078 297.109 67.8524 296.925C67.76 296.944 67.6492 296.962 67.5384 296.98C66.8182 297.035 65.9317 296.687 65.3222 296.081C65.1376 295.897 64.9713 295.713 64.8051 295.53C64.3249 294.997 63.8817 294.502 63.2907 294.391C62.9029 294.318 62.4781 294.428 62.0164 294.538C61.6655 294.63 61.3146 294.704 60.9453 294.74C59.32 294.832 57.9534 293.712 56.8084 292.647C56.5129 292.372 55.571 291.417 55.571 290.389C55.571 289.966 55.7372 289.599 56.0327 289.305C56.2174 289.14 56.4205 289.03 56.6052 288.938C56.6791 288.901 56.753 288.865 56.8084 288.828C57.2701 288.552 57.4178 288.075 57.4363 287.708C57.4917 286.992 57.1777 286.202 56.6606 285.761C55.6264 284.88 54.0751 284.752 52.6899 284.752H52.2282C51.6927 284.752 51.1571 284.752 50.6215 284.715C50.6954 285.908 50.7508 287.102 50.7692 288.295C50.8062 289.599 50.8062 290.921 50.8062 292.225C50.8062 295.787 50.8062 299.459 51.4156 303.003C51.4341 303.15 51.471 303.223 51.4895 303.242C51.4895 303.223 51.5634 303.205 51.6003 303.187C51.6927 303.15 51.8035 303.132 51.8958 303.113C52.93 302.93 53.6872 303.921 53.9088 305.004L53.9458 305.151C54.0566 305.757 54.1859 306.382 54.5922 306.565C54.666 306.602 54.7399 306.62 54.8138 306.639C54.98 306.675 55.1647 306.73 55.3494 306.859C55.6818 307.061 55.885 307.41 55.9219 307.832C55.9588 308.309 55.7926 308.824 55.4417 309.136C54.98 309.558 54.3336 309.742 53.4656 309.723C53.2809 309.723 53.0962 309.687 52.9116 309.687C52.5422 309.65 52.1913 309.613 51.8589 309.668C50.8616 309.815 50.1229 310.641 49.3287 311.541C49.0517 311.853 48.7747 312.184 48.4792 312.459C47.6112 313.322 47.4819 313.432 47.3526 314.35C47.2049 315.415 47.0387 316.627 45.5981 317.16C45.4689 317.196 45.358 317.233 45.2288 317.27C45.0626 317.325 44.8963 317.362 44.7671 317.435C44.4531 317.6 44.2684 317.986 44.0468 318.39L43.8991 318.684C43.0495 320.245 41.4982 321.42 39.7622 321.824C39.4851 321.879 39.1342 321.934 38.8018 321.769C38.5617 321.64 38.4324 321.456 38.3216 321.309C38.2847 321.254 38.2293 321.181 38.1924 321.163C38.0077 321.199 37.8599 321.309 37.8045 321.438C37.7122 321.64 37.6752 321.879 37.6383 322.154C37.6014 322.356 37.5829 322.558 37.5275 322.76C37.1027 324.376 35.6068 325.092 34.1293 325.79C32.855 326.377 31.6731 326.946 31.2668 328.03C31.1744 328.287 31.119 328.562 31.0636 328.838C30.9159 329.609 30.7312 330.472 29.9001 330.894C29.8078 330.949 29.7154 330.986 29.6046 331.023C29.5307 331.041 29.4753 331.059 29.4199 331.096C28.9582 331.335 29.069 332.143 29.2537 333.098L29.2907 333.245C29.5861 334.842 29.1614 336.586 28.1641 338.037C27.1483 339.487 25.6524 340.479 24.0272 340.754C23.5655 340.828 23.0853 340.865 22.6236 340.901C21.7741 340.956 20.9799 341.011 20.3151 341.36C19.798 341.636 19.3732 342.076 18.9115 342.554C18.6714 342.811 18.4129 343.068 18.1543 343.307C17.5079 343.876 16.566 344.39 15.6057 344.298C15.6796 345.602 15.6796 346.906 15.5503 348.191C15.4764 348.999 15.2917 349.972 14.4791 350.468C14.0543 350.725 13.5926 350.78 13.1679 350.817H12.9278C11.9859 350.945 11.0625 351.349 10.3422 351.973C10.2499 352.047 10.1206 352.102 10.0098 352.102C9.97286 352.102 9.95439 352.102 9.91745 352.102C9.76971 352.083 9.64043 351.992 9.54809 351.863C9.32647 351.496 9.04945 351.165 8.73548 350.872L8.68008 351.588C8.66161 351.826 8.47693 352.01 8.25531 352.047C7.7382 352.139 7.16568 352.01 6.70398 351.68C6.24227 351.349 5.92831 350.872 5.85444 350.339C5.83597 350.211 5.83597 350.1 5.8175 349.972C5.8175 349.788 5.79903 349.623 5.74363 349.55C5.63282 349.403 5.24498 349.421 4.72787 349.586L3.41663 350.027C3.5459 351.68 4.32157 353.259 4.58013 354.893C4.78328 356.123 4.78328 357.463 4.61706 358.712C4.50625 359.483 4.17382 360.42 4.35851 361.209C4.69094 362.623 6.00218 364.276 6.83325 365.451C7.05487 365.763 7.3873 366.167 7.71973 366.608C8.62468 366.424 9.52962 366.314 10.3053 366.222C29.8447 363.963 49.7904 362.715 69.0898 361.503C78.4347 360.915 88.0382 360.328 97.6047 360.732C97.6047 360.383 97.5863 360.034 97.457 359.648C96.9399 357.996 98.3619 356.839 98.2696 355.132C98.1957 353.938 97.9187 352.689 97.1615 351.771C95.1485 349.366 96.2196 345.271 96.3674 342.333C96.4043 341.544 96.2566 340.314 96.6998 339.616C97.18 338.863 99.3408 338.074 100.098 338.202C101.114 338.386 101.317 339.139 100.523 339.726C100.098 340.038 98.1588 340.644 99.23 341.507C99.8948 342.04 102.37 341.507 103.127 341.489C104.364 341.452 105.454 341.599 106.58 342.113C107.338 342.462 108.058 342.884 108.76 343.215C110.089 343.802 111.622 343.545 112.915 344.243C113.931 344.794 114.596 345.602 115.667 346.134C116.904 346.759 118.086 346.832 119.508 346.906C120.339 346.942 121.3 347.163 122.112 346.906C122.98 346.648 123.608 346.006 124.513 345.804C124.587 345.804 124.624 345.785 124.679 345.767C124.661 345.675 124.624 345.602 124.605 345.51C124.328 344.537 124.07 343.637 123.553 342.884L123.645 342.848Z" fill="#2E434D"/>
<path d="M69.2375 362.494C49.9566 363.706 30.0294 364.955 10.5084 367.213C9.76971 367.305 9.06792 367.397 8.40306 367.507C8.8463 368.37 8.97558 369.27 8.14451 369.967C6.981 370.941 5.78057 369.233 4.91256 371.069C4.06302 372.887 6.03912 374.797 5.04184 376.541C4.70941 377.128 3.63825 377.294 3.39816 377.863C3.15808 378.45 3.95221 380.14 4.09996 380.727C4.26617 381.407 4.21077 382.545 4.52473 383.133C4.91256 383.849 5.63282 383.702 6.44543 383.83C7.2765 383.959 8.0337 383.922 8.18144 384.804C8.32919 385.722 7.49812 386.823 7.14722 387.595C6.20534 389.541 6.79632 390.514 7.71974 392.185C8.0891 392.846 8.32919 392.993 8.9017 393.47C9.58503 394.039 9.80665 394.829 10.0283 395.692C10.3607 396.977 10.7301 398.795 9.93593 399.989C9.52962 400.613 9.1972 400.484 9.38188 401.256C9.54809 401.935 10.2868 402.229 10.5269 402.816C11.0071 404.028 9.51116 405.938 9.27107 407.168C8.97558 408.747 9.93593 411.648 11.4319 409.408C11.7643 408.912 12.1152 408.27 12.7985 408.233C13.4818 408.196 13.3156 408.417 13.7589 408.894C15.0147 410.253 15.0332 408.692 16.1967 408.343C17.2309 408.031 18.3575 409.555 18.3205 410.51C18.2836 411.263 17.5079 412.144 17.2309 412.842C16.9354 413.558 16.7138 414.476 15.6611 414.054C15.0886 413.815 15.2917 413.466 14.6084 413.503C13.9989 413.539 13.3156 414.127 12.7985 414.384C11.9305 414.806 11.3395 415.045 10.5084 414.604C9.80665 414.237 9.67737 413.705 8.80936 414.017C6.26074 414.917 9.93593 416.679 10.1021 417.891C10.1945 418.497 9.62197 419.415 10.1021 419.966C11.1364 421.141 13.371 419.507 14.6269 420.223C15.3287 420.609 15.8088 421.398 16.4922 421.857C17.2678 422.371 17.8773 422.592 17.8588 423.583C17.8219 425.676 15.6426 427.421 14.1098 428.467C12.3553 429.643 12.1521 430.395 13.0755 432.213C13.5742 433.205 15.1255 434.178 15.2548 435.243C15.2733 435.39 15.2548 435.628 15.2178 435.886C32.5411 433.939 50.049 432.874 67.483 432.672C68.4249 430.781 69.4591 428.945 70.4564 427.09C71.0659 425.952 71.4906 424.667 72.5064 423.822C73.0235 423.4 73.7807 423.106 73.9469 422.39C74.0577 421.894 73.7068 421.674 74.0023 421.196C74.1685 420.939 74.778 420.664 75.0735 420.59C76.1077 420.388 77.2897 421.417 78.25 420.847C79.0441 420.37 78.8041 420.003 79.8198 419.782C80.5216 419.636 81.0572 419.654 80.9279 418.956C80.7986 418.295 79.7829 418.167 80.3554 417.395C80.7986 416.808 81.9252 417.01 82.4977 416.587C83.3288 415.982 83.4027 414.678 84.4369 414.256C84.8432 414.09 85.8589 413.999 86.0806 414.439C86.2652 414.825 85.2125 415.724 86.0067 416.184C86.6715 416.569 86.8747 415.596 87.281 415.302C87.7427 414.972 88.5922 414.917 89.0539 415.302C89.4602 415.633 89.3494 416.514 89.9035 416.679C90.5314 416.845 92.0643 415.027 92.1751 414.513C92.5075 412.878 89.6634 413.907 89.2756 412.75C88.9985 411.887 89.8481 410.565 89.9589 409.684C90.0512 408.784 89.6634 408.013 90.6791 407.811C91.5287 407.645 92.0458 408.453 92.7291 408.453C93.6525 408.453 93.5971 407.498 93.7264 406.874C93.948 405.717 94.0773 406.14 95.0007 405.497C95.7025 405.001 95.7764 404.249 95.9426 403.441C96.1642 402.376 96.0904 402.651 95.2777 402.045C94.1512 401.219 94.9084 400.117 95.4624 399.107C96.589 397.051 94.1142 395.27 94.576 392.956C95.0561 390.532 96.2196 388.017 97.5493 385.942C98.9345 383.757 101.077 381.554 103.644 380.837C104.309 380.654 108.483 380.158 106.506 379.369C105.602 379.02 104.493 379.222 103.552 379.056C102.443 378.854 101.502 378.065 100.504 377.569C99.5439 377.092 97.7156 376.743 97.143 375.733C96.312 374.227 98.1403 373.915 99.23 373.732C101.926 373.236 103.976 370.518 106.931 372.281C108.446 373.181 108.298 374.099 108.335 375.66C108.353 376.633 108.63 376.798 109.572 377.184C110.957 377.753 111.16 377.459 112.342 376.559C113.487 375.696 114.891 375.347 115.925 374.374C117.329 373.034 116.756 371.124 116.59 369.38C116.498 368.388 116.313 368.223 115.796 367.525C115.205 366.754 115.519 366.736 115.759 365.744C115.999 364.716 115.556 363.835 114.448 363.596C112.86 363.247 112.841 364.459 112.379 365.579C111.604 365.34 110.754 365.138 109.942 365.083C109.498 365.047 107.651 365.377 108.815 365.854C109.646 366.185 110.588 365.304 111.308 366.277C111.807 366.919 111.733 368.278 111.179 368.866C110.533 369.563 109.277 369.453 108.39 369.527C107.651 369.582 105.084 370.059 104.475 369.38C103.441 368.223 108.15 364.863 104.475 365.23C103.533 365.322 103.367 365.836 102.591 366.185C101.52 366.681 100.116 365.946 99.1007 365.597C97.734 365.12 96.8291 365.157 97.1061 363.504C97.2169 362.843 97.4201 362.274 97.5678 361.705C88.1121 361.301 78.5824 361.888 69.2929 362.476L69.2375 362.494Z" fill="#2E434D"/>
<path d="M17.471 262.791C17.4894 263.085 17.5079 263.36 17.6003 263.562C18.0435 264.517 19.761 264.076 20.7029 263.654C20.8322 263.599 20.9799 263.599 21.1092 263.654C21.2385 263.709 21.3493 263.801 21.3862 263.929L26.1326 274.965C26.3727 275.534 26.6866 276.14 27.1483 276.232C27.3515 276.268 27.61 276.213 27.8686 276.158C28.2195 276.085 28.6073 275.993 29.0321 276.066C29.5862 276.177 29.974 276.525 30.3249 276.838C30.4911 276.984 30.6573 277.131 30.842 277.26C31.5253 277.682 32.5226 277.517 33.5014 277.388C34.8127 277.186 36.3086 276.966 37.1212 278.233C37.2689 278.453 37.3613 278.692 37.4352 278.912C37.509 279.114 37.5829 279.316 37.6937 279.445C37.9523 279.775 38.4694 279.904 39.005 280.014L39.2266 280.069C40.6856 280.418 42.0707 281.153 43.1788 282.162C43.3265 281.997 43.5297 281.869 43.7513 281.777C44.3792 281.483 45.1918 281.465 45.8936 281.722C46.4477 281.924 46.9278 282.254 47.3896 282.566C47.722 282.805 48.0544 283.007 48.3868 283.172C48.7377 283.338 49.1071 283.448 49.4949 283.521C49.3102 280.859 49.0702 278.215 48.8301 275.626C48.7193 274.542 48.6269 273.459 48.5346 272.376C48.313 269.97 48.0729 267.106 47.9805 264.223C47.9805 263.966 47.9436 263.599 47.8882 263.195C47.722 261.487 47.4819 259.155 48.4053 258.072C48.7008 257.723 49.1071 257.521 49.5688 257.503L55.0723 257.136C59.7818 256.823 64.6389 256.493 69.4222 256.328L70.5118 256.291C71.0105 256.291 71.5091 256.273 71.9893 256.254V236.754C71.9893 236.442 71.9893 236.112 71.9154 235.836C71.8231 235.561 71.6384 235.304 71.4352 235.028C71.3429 234.9 71.2505 234.771 71.1767 234.643C70.5118 233.633 70.2533 232.458 70.0316 231.411L68.6465 225.076C68.5542 224.691 68.4064 223.975 68.8312 223.405C68.9974 223.185 69.2006 223.056 69.3852 222.946C69.4961 222.873 69.6253 222.799 69.6623 222.726C69.7546 222.597 69.7177 222.304 69.6807 222.083C69.3483 220.21 68.3695 218.466 66.9474 217.181L66.6335 216.905C66.1348 216.483 65.6177 216.024 65.3038 215.381C65.0452 214.812 65.0083 214.225 64.9713 213.655C64.9529 213.196 64.9159 212.756 64.7682 212.388C64.5281 211.782 63.9925 211.342 63.42 210.864C62.9214 210.442 62.4042 210.001 62.0349 209.432C61.0191 207.853 61.4808 206.054 61.9425 204.309C62.1642 203.465 62.3858 202.602 62.4227 201.794C62.4966 200.453 62.0534 199.113 61.647 197.809L59.4863 191.126C58.4705 191.768 57.5286 191.842 56.8453 191.291C56.4021 190.924 56.2358 190.41 56.1066 189.951C55.9958 189.602 55.9034 189.271 55.7003 189.088C55.4048 188.831 54.8877 188.867 54.3706 188.904L51.0463 189.198C49.9936 189.29 49.3287 189.032 49.0517 188.408C48.9778 188.261 48.9594 188.096 48.9409 187.968C48.9409 187.894 48.9039 187.821 48.9039 187.784C48.8301 187.637 48.4976 187.564 47.9805 187.619L45.0256 187.876C44.8225 187.876 44.6008 187.912 44.4716 187.986C44.2869 188.096 44.1391 188.39 44.0099 188.684C43.7144 189.326 43.3635 190.042 42.7355 190.556C42.1076 191.071 41.0919 191.401 40.2423 190.942C40.1131 190.869 39.9838 190.777 39.8545 190.685C39.7068 190.575 39.5775 190.483 39.4667 190.465C39.4113 190.465 39.3005 190.465 39.2081 190.483C39.0604 190.501 38.8757 190.538 38.6725 190.52C37.9153 190.446 37.4536 189.73 37.3798 189.069C37.3428 188.592 37.4536 188.151 37.5644 187.747L37.6198 187.545C37.6198 187.545 37.546 187.619 37.509 187.655C37.3428 187.802 37.1951 187.949 37.0289 188.059C36.1793 188.61 35.3298 188.059 34.6465 187.6C34.0555 187.215 33.6492 186.976 33.3721 187.123C33.2244 187.196 33.0582 187.38 32.9104 187.564C32.5965 187.931 32.1163 188.5 31.396 188.28C31.119 188.188 30.9343 188.004 30.7681 187.857C30.7127 187.802 30.6758 187.766 30.6204 187.71C30.3803 187.527 30.0109 187.6 29.4384 187.747C29.1429 187.821 28.8105 187.912 28.4781 187.931C28.515 188.353 28.4781 188.794 28.4042 189.216C28.3857 189.363 28.2934 189.473 28.1826 189.547C28.0718 189.62 27.924 189.657 27.7763 189.62C27.0375 189.455 26.2434 189.602 25.6155 190.006C25.8186 191.126 25.9294 192.282 25.9479 193.421C25.9479 193.586 25.9479 194.119 25.5231 194.376C25.2276 194.541 24.9321 194.486 24.7475 194.431C24.3781 194.376 24.0826 194.669 23.9164 195C23.8425 195.147 23.7686 195.294 23.7132 195.459C23.5655 195.808 23.3808 196.212 23.0853 196.561C22.7529 196.928 22.2358 197.13 21.7741 197.112C21.3862 197.112 21.0723 196.928 20.8507 196.653C20.6475 196.395 20.5736 196.065 20.5182 195.771C20.4998 195.881 20.4813 195.973 20.4444 196.102C20.3705 196.524 20.2781 197.001 19.9827 197.424C19.4471 198.195 18.5052 198.36 17.5633 198.452C17.3786 198.452 17.1755 198.47 16.9908 198.489C17.0277 198.746 17.0831 198.984 17.1201 199.26C17.2494 200.16 17.3971 201.059 17.5079 201.959C17.6003 202.785 17.4525 203.758 17.6926 204.53C18.0804 205.797 19.2993 206.458 19.5209 207.89C19.6687 208.936 19.2439 210.332 20.1304 211.158C21.4786 212.407 21.2939 210.46 21.6079 209.818C22.1988 208.569 23.6948 208.698 24.138 209.983C24.6736 211.562 24.0272 212.462 22.8268 213.306C22.0326 213.876 21.4786 214.408 21.811 215.492C22.1619 216.612 23.0853 216.538 22.4389 217.823C22.088 218.521 21.5894 219.054 22.0326 219.88C22.6236 220.982 23.4732 220.835 23.2885 222.359C23.0669 224.085 22.1804 226.049 21.5155 227.629C20.5552 229.905 19.0777 232.035 17.8034 234.147C16.9723 235.561 16.5845 237.011 16.5845 238.645C16.5845 240.518 15.7165 241.583 14.7377 243.144C14.0913 244.172 14.0174 245.219 14.5345 246.302C15.0332 247.331 16.012 247.936 16.5476 248.855C17.5633 250.654 15.5133 252.71 16.0859 254.602C16.4737 255.905 17.6926 257.136 17.8219 258.458C17.8957 259.155 17.6557 260.349 17.1201 261.157C17.2863 261.561 17.4156 261.983 17.471 262.424V262.736V262.791Z" fill="#2E434D"/>
<path d="M32.5411 108.296L32.7996 108.113C33.6307 107.525 34.6649 106.791 35.8284 107.176C36.364 107.36 36.7703 107.746 37.1212 108.15C38.8388 110.114 40.0023 112.501 40.464 115.054C40.5563 115.531 40.6487 116.027 40.9257 116.21C41.2396 116.412 41.6829 116.21 42.3477 115.825C43.0495 115.439 43.936 114.962 44.804 115.439C46.3184 116.706 47.2972 118.395 47.6297 120.213C47.722 120.709 47.7959 121.113 48.0175 121.26C48.3499 121.48 48.867 121.094 49.5134 120.562L49.8458 120.287C51.9512 118.671 54.7953 119.442 57.1962 120.47C57.5471 119.02 58.9322 117.955 60.2804 117.606C61.8871 117.202 63.5308 117.514 64.9898 117.808C66.3011 118.065 67.7046 118.506 68.2218 119.754C68.4064 120.195 68.4249 120.672 68.4618 121.131C68.4988 121.774 68.5357 122.178 68.8127 122.398C68.9974 122.545 69.256 122.6 69.5699 122.674C69.9024 122.747 70.2533 122.82 70.6042 123.022C71.6015 123.647 71.6569 124.84 71.6938 125.887C71.7307 126.952 71.8046 127.613 72.3032 127.87C72.5433 127.998 72.8758 127.998 73.2451 127.998H73.5406C76.514 128.109 78.6563 130.312 80.7063 132.424C81.0941 132.828 81.482 133.213 81.8698 133.599C82.2392 133.948 82.6455 134.352 83.1441 134.572L83.2734 134.627C83.495 134.719 83.772 134.847 83.9937 135.086C84.1783 135.306 84.2707 135.563 84.3261 135.765L88.5738 149.224C88.6107 149.353 88.6107 149.482 88.5553 149.592L85.4157 156.257C84.6954 157.799 83.9383 159.397 83.5135 161.031C83.1072 162.555 82.9779 164.171 82.8486 165.732C82.4423 170.524 82.0176 175.5 81.8883 180.402C81.8883 180.88 81.8329 181.302 81.7775 181.688L88.9247 184.883C89.7003 185.232 90.6607 185.654 91.2517 186.498C91.9904 187.545 91.935 188.849 91.7319 190.079C91.8981 190.042 92.1012 189.987 92.3044 189.914C92.6922 189.785 93.1539 189.638 93.6156 189.675C95.2962 189.804 95.8503 191.75 95.8318 193.513L95.7025 202.73C95.7025 203.52 95.6656 204.713 94.9084 205.521C94.7606 205.668 94.5944 205.815 94.4282 205.943C94.262 206.072 94.1143 206.2 94.0035 206.329C93.7818 206.641 93.7449 207.082 93.7264 207.614C93.5233 215.473 93.4863 223.442 93.6341 231.301C93.671 233.486 93.7264 235.671 93.8003 237.856C97.734 236.846 101.889 237.085 105.897 237.342C106.802 237.397 107.707 237.452 108.612 237.507C112.693 237.709 116.812 237.562 120.875 237.14V227.537L120.635 226.38C120.598 226.215 120.635 226.049 120.764 225.921C120.875 225.792 121.041 225.737 121.226 225.756C124.144 226.178 127.099 226.435 130.035 226.563C130.035 226.545 130.035 226.527 130.035 226.508L142.963 203.74C143.351 203.042 143.775 202.326 143.905 201.555C144.071 200.692 143.905 199.792 143.591 198.727C142.741 195.716 141.448 192.852 139.731 190.244C138.9 188.977 137.903 187.472 138.327 185.893C138.383 185.672 138.475 185.433 138.567 185.176C138.863 184.35 138.955 183.965 138.715 183.799C137.182 182.734 137.164 180.457 137.921 178.878C138.346 178.015 138.937 177.263 139.491 176.546C139.916 176.014 140.303 175.518 140.636 174.986C141.873 172.966 142.15 170.579 142.446 168.063C142.704 165.805 142.963 163.455 143.997 161.38C144.514 160.352 143.831 159.03 143.037 158.148C142.76 157.854 142.464 157.561 142.187 157.285C141.448 156.569 140.691 155.835 140.248 154.861C139.602 153.448 139.749 151.832 140.026 150.473C139.454 150.271 139.048 149.537 138.586 148.6C138.475 148.361 138.364 148.159 138.29 148.049C137.034 146.268 135.132 144.946 133.082 144.432C131.512 144.028 129.832 144.046 128.188 144.065C127.727 144.065 127.246 144.065 126.785 144.065C122.537 144.028 118.326 143.22 114.263 142.449C112.472 142.1 110.44 141.715 108.833 140.503C108.298 140.099 107.855 139.64 107.411 139.181C107.061 138.813 106.71 138.446 106.322 138.134C103.736 136.004 99.4701 136.261 97.18 138.685C97.0692 138.795 96.9399 138.832 96.7922 138.85C96.6444 138.85 96.4967 138.777 96.4043 138.667C93.5417 135.38 92.8769 130.753 92.3413 127.025C91.6395 122.141 90.9008 117.092 91.4918 112.079C91.5656 111.491 91.658 110.885 91.7688 110.243L88.1305 109.343C88.1305 109.343 87.9089 109.288 87.8535 109.306C87.7981 109.325 87.6873 109.563 87.6319 109.674C86.9486 111.032 85.5635 111.895 84.1229 111.895C84.0121 111.895 83.9013 111.895 83.809 111.895C83.532 111.877 83.3288 111.638 83.3288 111.363C83.3657 110.316 83.3657 109.398 82.9225 108.7C82.7009 108.333 82.2392 108.058 81.8144 108.021C81.6112 108.003 81.3342 108.021 81.1311 108.223C81.0572 108.296 81.0018 108.37 80.9279 108.462C80.6509 108.792 80.2077 109.343 79.5243 109.141C79.1734 109.031 78.9703 108.774 78.841 108.609L76.514 105.579C76.0523 104.973 75.5721 104.275 75.7014 103.431C75.7383 103.247 75.7937 103.082 75.8492 102.898C75.8861 102.788 75.923 102.678 75.96 102.568C76.0338 102.127 75.646 101.65 75.2397 101.448C74.7041 101.172 74.0577 101.135 73.4113 101.099C73.2267 101.099 73.042 100.97 72.9681 100.805C72.8942 100.621 72.9127 100.419 73.0235 100.272L78.0099 93.8459C78.6379 93.0564 79.3212 92.1566 79.5428 91.1467C79.7275 90.3021 79.432 89.2004 78.6194 88.8699C78.287 88.723 77.8622 88.7047 77.419 88.6863C76.7356 88.6496 75.96 88.6129 75.369 88.062C74.5379 87.2908 74.6487 86.0422 74.9811 85.1976C75.1289 84.8304 75.3136 84.4999 75.5167 84.151C75.7383 83.7654 75.9415 83.4165 76.0708 83.0309C76.237 82.5535 76.2739 82.0394 76.3109 81.4886L76.3478 81.1764C76.0708 80.9744 75.7753 80.7908 75.5352 80.5521L75.4428 80.4603C75.2397 80.2767 75.055 80.1114 74.8703 80.038C74.3717 79.8544 73.8361 80.24 73.0974 80.8459C72.9496 80.9561 72.8204 81.0662 72.6726 81.1764C71.7861 81.8558 70.7704 82.1679 69.81 82.0761C68.665 81.9476 67.6677 81.1581 67.3907 80.1482C67.2799 79.7626 67.2799 79.377 67.2799 79.0097C67.2799 78.7343 67.2799 78.4589 67.2245 78.2202C67.0583 77.3939 66.2457 76.7696 65.47 76.1821L65.1376 75.925C63.7155 74.8049 63.143 73.5196 63.5308 72.3812C64.011 71.0041 65.4515 70.7287 66.7258 70.49C67.7785 70.288 68.7758 70.1044 69.2375 69.4066C69.533 68.966 69.4407 68.4518 69.3668 68.1948C69.1821 67.6256 68.7389 67.1298 68.2218 66.9278L68.0186 66.8544C67.7601 66.7626 67.4646 66.6708 67.206 66.4688C66.652 66.0097 66.5042 65.2936 66.7443 64.3021C61.5917 63.8431 56.3097 64.0818 51.194 64.3021C48.1468 64.4306 44.9518 64.5408 41.886 64.5775C40.7779 64.5775 39.7068 64.5408 38.691 64.1552C37.9523 63.8614 37.3244 63.4208 36.7149 62.9801L35.5699 62.1538C35.3667 62.2456 35.1266 62.3374 34.8496 62.521C34.0924 62.9617 34.4987 63.1637 34.4987 63.9716C34.4803 65.0182 33.7231 64.9815 33.169 65.716C32.3564 66.7993 33.7046 66.6157 34.0555 67.5154C34.4248 68.4702 32.6334 69.6637 33.169 70.5634C33.4645 71.0408 34.1663 70.7287 34.5541 70.8388C35.2005 70.9857 35.0712 70.8939 35.3483 71.6468C35.8838 73.1891 36.2532 74.7682 36.4748 76.384C36.6595 77.7795 37.1582 78.6792 37.5645 79.9645C37.9892 81.3049 37.509 81.0112 36.641 81.36C35.4775 81.8191 35.1082 83.1411 34.9974 84.2612C34.8496 85.8035 34.4064 87.2541 35.7176 88.3007C37.1951 89.4758 39.0234 91.5691 38.7649 93.6256C38.5433 95.3332 36.7888 95.8657 35.3667 95.884C33.2983 95.9208 31.6915 97.4264 31.2483 99.4278C30.8974 101.044 31.8947 102.476 30.9159 104.055C30.3249 105.01 29.2537 105.616 28.7551 106.626C28.4042 107.323 28.2564 108.131 28.1087 108.921C28.3857 109.086 28.6812 109.196 28.9582 109.251C30.4172 109.527 31.8024 108.774 32.4857 108.296H32.5411Z" fill="#2E434D"/>
<path d="M19.1331 196.855C19.2993 196.634 19.3547 196.304 19.4286 195.937C19.5394 195.404 19.6502 194.78 20.1673 194.358C20.2781 194.266 20.389 194.229 20.5367 194.247C21.3308 194.284 21.4601 195.074 21.534 195.496C21.5709 195.716 21.6079 195.955 21.6817 196.065C21.6817 196.065 21.7187 196.12 21.8295 196.12C21.9957 196.12 22.1988 196.047 22.3281 195.9C22.5128 195.698 22.6421 195.404 22.7714 195.092C22.8452 194.908 22.9191 194.725 23.0114 194.56C23.3254 193.954 23.9903 193.293 24.8398 193.439H24.9506C24.9321 192.283 24.8029 191.089 24.5812 189.914C24.5443 189.73 24.6182 189.547 24.7659 189.418C25.5231 188.794 26.5389 188.5 27.4992 188.555C27.5177 188.188 27.4992 187.839 27.4254 187.49C27.3884 187.307 27.4438 187.123 27.5916 186.995C27.7393 186.866 27.924 186.829 28.1087 186.884C28.4042 186.995 28.8289 186.884 29.2537 186.774C29.8816 186.627 30.6388 186.425 31.3037 186.903C31.396 186.976 31.4884 187.05 31.5622 187.141C31.6361 187.197 31.71 187.288 31.7469 187.307C31.8393 187.307 32.0424 187.05 32.1532 186.921C32.3564 186.664 32.5965 186.389 32.9289 186.223C33.7784 185.783 34.6095 186.334 35.2559 186.756C35.8469 187.141 36.2347 187.38 36.4933 187.197C36.6041 187.123 36.7149 187.013 36.8257 186.921C37.1397 186.627 37.7676 186.021 38.414 186.572C38.7279 186.848 38.8203 187.252 38.6725 187.802L38.5987 188.041C38.5063 188.39 38.414 188.702 38.4509 188.996C38.4694 189.253 38.6356 189.51 38.8018 189.51C38.8572 189.51 38.9496 189.51 39.0604 189.492C39.2081 189.473 39.4113 189.437 39.6144 189.455C39.9838 189.492 40.2608 189.694 40.4824 189.859C40.5748 189.914 40.6486 189.987 40.741 190.043C41.1842 190.263 41.7383 190.061 42.0707 189.786C42.5324 189.4 42.8279 188.812 43.068 188.28C43.2527 187.876 43.4743 187.399 43.9544 187.123C44.2869 186.939 44.6562 186.903 44.9333 186.884L47.8882 186.627C48.9224 186.535 49.5688 186.811 49.8458 187.398C49.9197 187.564 49.9382 187.711 49.9751 187.839C49.9751 187.913 50.012 187.986 50.012 188.023C50.0859 188.188 50.4368 188.243 50.9539 188.206L54.2782 187.913C54.8138 187.858 55.7372 187.784 56.3836 188.335C56.8084 188.702 56.9746 189.216 57.1039 189.657C57.2147 190.024 57.3255 190.336 57.5286 190.52C57.9719 190.887 58.6921 190.483 59.1723 190.134L58.9691 189.528C58.8214 189.088 58.6552 188.537 58.7475 187.968C58.8029 187.582 58.9876 187.252 59.1354 186.958C59.2277 186.774 59.32 186.609 59.3939 186.407C59.4863 186.113 59.5047 185.746 59.5232 185.36C59.5601 184.589 59.6155 183.616 60.4651 183.139C60.816 182.937 61.2038 182.9 61.5178 182.882C62.238 182.808 62.9398 182.771 63.6601 182.753C64.3988 182.716 65.1375 182.68 65.8763 182.606C66.7073 182.533 67.3537 182.423 67.9447 182.257C68.074 182.221 68.1848 182.221 68.3141 182.184C66.615 180.237 65.0637 178.144 63.9556 175.757C62.9398 173.572 62.3673 171.222 61.7948 168.945C61.5362 167.917 61.2777 166.87 60.9822 165.842C59.8002 161.784 58.2119 159.122 55.9588 157.469C55.0169 156.79 53.9273 156.257 52.8562 155.743C51.3602 155.027 49.8089 154.274 48.59 153.062C48.0544 152.53 47.6112 151.906 47.1679 151.318C46.5031 150.418 45.8752 149.574 45.0071 149.023C44.4346 148.656 43.7698 148.435 43.068 148.197C41.9599 147.811 40.8148 147.407 40.0207 146.452L39.7437 146.103C39.2635 145.479 38.8572 145.002 38.5617 145.148C38.4878 145.185 38.3955 145.295 38.2847 145.406C38.1924 145.516 38.1 145.608 37.9892 145.699C36.8996 146.636 35.6253 145.938 34.4987 145.295C33.4275 144.689 32.6703 144.322 32.0794 144.671C31.9501 144.745 31.8208 144.873 31.6915 145.002C31.5068 145.167 31.3037 145.369 31.0451 145.516C30.4726 145.828 29.8262 145.791 29.2352 145.424C28.3857 144.891 27.7947 143.771 27.8317 142.725C27.8501 142.082 28.0163 141.476 28.1641 140.889C28.3488 140.154 28.515 139.475 28.4411 138.795C28.4042 138.538 28.3303 138.263 28.2564 138.006C28.1641 137.675 28.0717 137.345 28.0348 136.996C27.9609 136.243 28.1272 135.527 28.2934 134.829C28.3488 134.591 28.4042 134.352 28.4596 134.113C29.069 130.955 27.2407 127.43 24.3042 126.089L23.9533 125.942C23.3069 125.667 22.5682 125.355 22.125 124.675C21.9772 124.473 21.8849 124.235 21.7925 123.996C21.6817 123.739 21.5894 123.519 21.4416 123.372C21.0538 123.004 20.4074 123.17 19.484 123.463C19.1885 123.555 18.893 123.647 18.616 123.721C18.2651 123.794 17.9142 123.812 17.5633 123.794C17.5264 124.088 17.5264 124.418 17.5633 124.804C17.8219 126.622 18.2651 128.329 18.616 130.074C18.9484 131.745 18.616 133.691 17.7665 135.16C16.9539 136.574 16.0304 138.189 15.6241 139.787C15.2363 141.293 15.6795 142.798 16.2521 144.212C16.7507 145.442 17.5448 146.471 17.6556 147.848C17.7665 149.243 16.8615 150.418 16.6214 151.74C16.3998 152.879 17.2309 153.43 17.2678 154.513C17.3232 155.743 16.7876 156.129 15.7534 156.478C14.553 156.882 13.8143 157.689 13.2048 158.81C12.3368 160.407 12.6692 161.766 12.4476 163.437C12.3368 164.3 11.9859 165.071 11.8381 165.934C11.7643 166.338 11.7827 166.705 11.5796 167.072C11.4134 167.384 10.8778 167.641 10.8039 167.935C10.5823 168.78 11.6165 168.982 11.7458 169.68C11.8936 170.634 11.044 170.506 10.453 170.818C8.49539 171.81 7.97828 173.995 8.12603 175.959C8.1999 176.914 7.70126 178.86 8.40305 179.65C9.17872 180.531 10.0283 180.366 10.2868 181.817C10.4715 182.771 9.91745 184.002 10.9886 184.589C12.226 185.25 13.685 184.828 13.5557 186.701C13.4818 187.858 12.4291 189.198 12.7985 190.355C13.2417 191.75 14.5899 193.127 15.3841 194.339C16.0674 195.386 16.4552 196.377 16.7138 197.442C16.9539 197.442 17.1939 197.424 17.4156 197.406C18.0989 197.35 18.7637 197.24 19.0592 196.818L19.1331 196.855Z" fill="#2E434D"/>
<path d="M39.1158 63.1637C39.9468 63.4942 40.8887 63.5126 41.9414 63.5126C45.0256 63.5126 48.1652 63.384 51.194 63.2371C56.5498 62.9984 62.0903 62.7414 67.5384 63.2922C67.7046 63.2922 67.8524 63.4024 67.9263 63.5309C68.0186 63.6595 68.0371 63.8431 67.9632 63.99C67.7416 64.5775 67.5569 65.3304 67.9078 65.6242C68.0186 65.716 68.1848 65.771 68.388 65.8261L68.6465 65.9179C69.4591 66.2301 70.1424 66.9645 70.401 67.8275C70.6411 68.5804 70.5488 69.3332 70.1425 69.9391C69.4407 70.9857 68.1294 71.2244 66.9659 71.4448C65.6362 71.7018 64.8051 71.9038 64.5466 72.6566C64.1957 73.6665 65.433 74.7499 65.8209 75.062L66.1533 75.3191C67.0398 75.9984 68.0371 76.7696 68.2772 77.9631C68.351 78.312 68.351 78.6425 68.351 78.9547C68.351 79.2668 68.351 79.5606 68.4249 79.8177C68.5911 80.4236 69.2375 80.9193 69.9578 80.9928C70.6411 81.0662 71.3983 80.8275 72.0816 80.2951C72.2109 80.2032 72.3402 80.0931 72.4695 79.9829C73.2267 79.377 74.1685 78.6058 75.2766 79.0097C75.6645 79.1566 75.9599 79.4137 76.2 79.6524C77.6221 80.9561 79.4135 81.6722 81.2049 81.7456C81.4266 81.7456 81.6666 81.7456 81.7959 81.6538C81.9991 81.5253 82.0729 81.1397 82.1284 80.8092L82.5531 78.1651C82.5901 77.9264 82.8117 77.7428 83.0518 77.7244L88.3891 77.5959C88.8139 77.5959 89.331 77.5775 89.8111 77.7979C90.4391 78.0917 90.8269 78.6792 91.1593 79.1934C91.5287 79.7809 91.7873 80.1298 92.1751 80.1665C92.3413 80.1665 92.5629 80.1114 92.7845 80.0564C92.8954 80.0196 93.0246 79.9829 93.1354 79.9645C94.262 79.6891 95.5178 80.1298 96.2935 80.9744C97.5678 79.7809 99.3962 79.1934 101.132 79.4321C101.76 75.1354 103.515 71.0225 106.266 67.6256C106.396 67.4603 106.617 67.3869 106.82 67.4603C110.754 68.5804 114.873 68.6905 118.954 68.6538C124.328 62.9617 129.481 56.9391 134.283 50.7513C134.671 50.2555 135.114 49.6863 135.335 49.062C135.539 48.4561 135.539 47.74 135.539 47.0606L135.446 10.8883C135.206 10.7781 135.151 11.1086 134.541 11.0903C133.359 11.0352 132.067 9.08884 130.995 8.53799C129.259 7.675 128.798 6.81201 128.373 4.93913C127.948 3.13969 127.431 2.88263 125.621 2.69901C122.851 2.42359 120.081 2.73574 117.292 2.8459C115.297 2.91935 113.266 2.86427 111.271 2.77246C109.978 2.69901 109.96 2.90099 109.775 4.13122C109.609 5.30636 109.572 5.87557 108.649 6.57331C107.781 7.23432 107.873 7.38122 107.633 8.31766C107.448 9.05212 107.448 9.03376 106.913 9.03376C106.876 9.2541 106.839 9.45607 106.839 9.65805C106.839 10.0987 106.876 10.5027 106.913 10.9066C107.005 11.6778 107.079 12.4674 106.728 13.4405C105.934 15.5888 105.195 17.0027 104.456 17.7739C104.29 17.9575 103.829 18.4533 103.275 18.4533C103.182 18.4533 103.108 18.4532 103.016 18.4165C102.296 18.1962 102.148 17.2414 102 16.4151L101.963 16.1581C101.871 15.6256 101.816 15.0931 101.779 14.5422C101.723 13.973 101.686 13.4405 101.575 12.9081C101.446 12.2287 101.114 11.8798 100.67 11.4024C100.449 11.1821 100.246 10.9434 100.024 10.6679C99.5624 10.062 99.3223 8.3911 99.5439 7.27105C99.5439 7.27105 99.5439 7.27105 99.5439 7.25268C98.9714 6.42641 98.0295 6.57331 97.5309 5.56342C96.9399 4.35155 96.6629 4.29647 95.2408 4.16794C93.3386 4.00268 91.4179 3.96596 89.5157 4.00268C89.5157 4.73715 89.4787 5.5267 89.4233 6.26116C89.3864 6.81201 89.3494 7.32613 89.3494 7.76681C89.3494 9.18065 88.8508 9.86003 88.2783 10.6496C88.0936 10.8883 87.9089 11.1637 87.7242 11.4758C86.5607 13.3304 87.2625 16.2499 87.595 17.425C87.9274 18.5451 88.3152 19.3162 89.2386 19.61C89.5526 19.7202 89.8296 19.7753 90.0882 19.8304C90.79 19.9773 91.4548 20.1242 92.1935 20.877C93.4679 22.1807 93.6525 22.6581 92.5629 24.2371C92.212 24.7329 92.0273 25.1552 92.1197 25.6694C92.1936 26.0917 92.5075 26.3671 92.8769 26.7343C93.1539 26.9914 93.4494 27.2668 93.6895 27.634C93.9665 28.0747 94.0958 28.7908 94.2435 29.6355C94.4097 30.627 94.6498 31.9674 95.1485 32.2612C95.2224 32.3162 95.3516 32.353 95.6287 32.2612C95.8872 32.1693 95.9241 31.949 95.8503 31.1595C95.7949 30.6086 95.721 30.0027 96.1642 29.6355C96.6075 29.2682 97.2723 29.4518 97.4755 29.5069C98.2142 29.7089 98.8052 30.2597 99.3223 30.7371C99.784 31.1595 100.227 31.5634 100.67 31.6552C101.317 31.7654 102.536 31.49 103.238 30.9208C103.441 30.7555 103.681 30.4984 103.681 30.2047C103.681 30.0578 103.755 29.9109 103.865 29.8191C103.976 29.7273 104.124 29.6722 104.29 29.7089C104.493 29.7456 104.715 29.764 104.974 29.7823C105.731 29.8374 106.599 29.8925 107.227 30.425C108.686 31.6736 108.538 33.7668 108.409 35.4377C108.39 35.7866 108.353 36.1355 108.353 36.4476C108.353 37.2371 108.409 38.0451 108.483 38.8346C108.538 39.5691 108.612 40.3403 108.612 41.0931C108.612 42.3233 108.335 42.7456 107.855 43.425L107.688 43.6637C107.411 44.086 107.208 44.5634 106.968 45.0592C106.839 45.353 106.71 45.6468 106.562 45.9222C106.008 47.0239 105.454 47.9603 103.921 47.8869H103.644C102.684 47.8318 101.225 47.7583 100.652 48.2908C100.467 48.4561 100.393 48.6764 100.375 48.9702C100.375 49.1905 100.375 49.4109 100.375 49.6129C100.393 50.384 100.43 51.1185 99.7286 52.0366C99.2854 52.6058 98.8606 52.8812 98.3804 52.8812C98.362 52.8812 98.325 52.8812 98.3065 52.8812C97.6232 52.8445 97.18 52.2018 96.903 51.7428C96.7922 51.5592 96.6813 51.3572 96.589 51.1736C96.275 50.5677 96.035 50.0903 95.444 49.7781C94.7791 49.4109 94.3543 49.7965 93.5602 50.7696L93.3571 51.0267C93.2832 51.1185 93.2093 51.2103 93.1539 51.2838C92.6368 51.9631 92.2305 52.0182 91.4364 51.4674C91.1224 51.247 90.2544 50.384 90.0512 49.9434C89.9404 49.7047 89.9404 49.466 89.9404 49.2456C89.8296 49.3374 89.6819 49.466 89.5895 49.5578C89.2386 49.8699 88.8693 50.2188 88.463 50.2739C87.6319 50.4208 87.2256 50.0352 86.9116 49.7414C86.7639 49.6129 86.6346 49.4843 86.4684 49.3925C86.0806 49.2089 85.3788 49.1538 84.8617 49.1171H84.6585C84.4738 49.0987 84.2707 49.0804 84.0675 49.0804C83.3473 49.0804 82.5162 49.0436 81.8144 48.603C80.854 47.997 80.891 47.2258 80.9279 46.6199C80.9279 46.3629 80.9649 46.1058 80.9094 45.8487C80.8171 45.3897 80.4293 44.8572 80.1338 44.4349C80.0414 44.288 79.9491 44.2145 79.8752 44.1227C79.6905 43.9391 79.5059 43.7188 79.3766 43.425C79.2473 43.0945 79.2473 42.764 79.2658 42.4886C79.2658 42.3049 79.2658 42.1397 79.2288 42.0295C79.1919 41.901 79.0811 41.7908 78.9333 41.6439C78.7487 41.4603 78.527 41.24 78.4162 40.8911C78.3054 40.5239 78.3424 40.175 78.3978 39.8812C78.4347 39.6425 78.4716 39.4222 78.3978 39.2386C78.2131 38.7244 77.9545 38.6877 77.4559 38.6143C76.9942 38.5408 76.4032 38.449 75.9415 37.8798C75.7199 37.586 75.6091 37.2371 75.5167 36.925C75.4613 36.7047 75.3874 36.5027 75.3136 36.3558C75.1658 36.1171 74.9811 35.9702 74.741 35.8049C74.5379 35.658 74.3347 35.4928 74.1501 35.2908C73.2636 34.3177 73.3929 33.271 73.5221 32.3346C73.6145 31.6185 73.6884 30.9942 73.3375 30.4066C72.1001 28.4236 70.5303 27.377 68.6281 27.2852C67.6862 27.2301 67.0582 27.634 66.7074 28.5154C66.2272 29.6905 66.5411 29.9292 67.5938 30.7188L67.7231 30.8106C69.1267 31.8756 68.8312 33.7117 68.5911 35.199C68.4988 35.7499 68.4064 36.2823 68.4249 36.7047V37.4208C68.4618 38.8897 68.4803 40.2668 67.6862 41.8275C67.5569 42.0846 67.2429 42.1764 67.0028 42.0662C66.8366 41.9928 66.6889 41.8643 66.5781 41.7541C66.5411 41.7174 66.5042 41.6806 66.4673 41.6623C66.3565 41.8092 66.2087 42.0846 66.1164 42.2682C65.8578 42.764 65.6177 43.223 65.2484 43.4434C64.9713 43.627 64.5466 43.8473 64.0849 43.7371C63.6232 43.627 63.3831 43.2414 63.1799 42.8925C63.106 42.764 63.0322 42.6355 62.9214 42.5069C62.6074 42.0846 62.4966 42.0662 61.7948 42.103C60.9083 42.1397 60.1511 42.1764 59.634 41.6807C59.2831 41.3318 59.1169 40.7993 59.1354 39.9914C59.1354 39.7894 59.1538 39.6058 59.1723 39.4589C59.1969 39.1039 59.0738 38.8468 58.8029 38.6877C58.2304 38.3388 57.6025 38.0818 56.9561 37.8064C56.2174 37.5126 55.4602 37.1821 54.7584 36.7414C54.5552 36.6129 54.3336 36.4843 54.1489 36.3742C54.0012 36.2823 53.835 36.1905 53.6872 36.0987C53.1886 37.3657 52.7084 38.6326 52.376 39.9547C51.9882 41.4236 51.471 41.8459 50.049 42.5987C47.445 43.9575 44.6747 44.6552 41.9599 45.7202C40.1131 46.4547 38.137 46.6566 37.0843 48.4928C36.0316 50.3473 35.3667 52.2936 34.1293 54.038C33.5014 54.9193 32.9289 55.5253 33.3537 56.5719C33.8339 57.7654 34.351 57.1411 35.3667 57.5634C36.4748 58.0408 36.678 59.6199 36.5302 60.6849C36.4933 60.9052 36.4563 61.0888 36.4009 61.2357L37.4721 62.0069C38.0631 62.4292 38.5987 62.8148 39.2266 63.0535L39.1158 63.1637Z" fill="#2E434D"/>
<path d="M189.447 83.5451C189.263 83.3983 189.097 83.2881 188.949 83.2514C188.709 83.1963 188.45 83.3615 188.044 83.6186C187.785 83.7838 187.527 83.9491 187.213 84.0593C186.308 84.3898 185.163 84.0593 184.313 83.233C183.796 82.7189 183.427 82.1129 183.076 81.507C182.984 81.3418 182.873 81.1765 182.78 81.0112C182.282 80.185 181.635 79.3587 180.767 78.4223C179.548 77.0819 178.182 75.8516 176.741 74.7499C176.316 74.4378 175.873 74.1073 175.412 74.0522C175.208 74.0155 174.968 74.0522 174.728 74.0522C174.322 74.0889 173.86 74.1073 173.398 73.942C172.106 73.4463 172.013 71.959 171.939 70.7655V70.3432C171.644 66.8361 168.375 64.3206 164.866 62.1355L157.977 57.8022C157.645 57.6002 157.276 57.3615 156.999 56.9943C156.759 56.6638 156.629 56.2966 156.537 55.9844C156.463 55.7824 156.408 55.5621 156.297 55.3785C156.112 55.048 155.761 54.7725 155.447 54.5155L152.289 51.9632C151.828 51.596 151.31 51.1737 150.923 50.6045C150.738 50.329 150.572 50.0169 150.424 49.7231C150.295 49.4477 150.165 49.1906 149.999 48.9336C149.408 48.1073 148.3 47.5932 146.712 47.4279C146.306 47.3912 145.899 47.3545 145.493 47.3361C144.496 47.281 143.48 47.2259 142.483 46.8954C141.301 46.5098 140.303 45.7937 139.343 45.096C138.438 44.4533 137.589 43.8474 136.61 43.4985V47.1341C136.61 47.8686 136.61 48.6949 136.351 49.466C136.074 50.2556 135.557 50.9166 135.151 51.4675C130.534 57.4166 125.584 63.2005 120.432 68.7273C120.745 68.7273 121.041 68.7273 121.355 68.7273L146.472 68.305C146.73 68.3234 146.989 68.507 147.007 68.7824C147.432 75.7415 147.635 82.8474 147.58 89.8799C147.524 97.0042 147.192 104.165 146.638 111.308C147.229 111.308 147.838 111.271 148.429 111.253C149.464 111.216 150.479 111.179 151.514 111.161C156.666 111.088 161.893 111.51 166.953 111.951C174.266 112.575 181.838 113.199 189.189 112.244C189.226 112.244 189.281 112.244 189.318 112.244C189.651 111.767 190.168 111.565 190.629 111.4L190.851 111.308C192.125 110.775 193.012 109.71 193.123 108.572C193.196 107.782 192.938 106.993 192.642 106.148C192.55 105.891 192.458 105.634 192.384 105.377C191.885 103.761 192.07 102.402 192.864 101.558C193.51 100.86 194.397 100.658 195.265 100.475C195.56 100.401 195.837 100.328 196.114 100.236C194.619 98.9505 196.004 96.6186 197.5 95.1129C197.223 94.7457 197.056 94.3418 196.927 93.9745C195.487 89.8799 192.864 86.2259 189.503 83.6002L189.447 83.5451Z" fill="#2E434D"/>
<path d="M136.665 42.3969C137.903 42.7641 138.937 43.5169 139.934 44.233C140.876 44.9124 141.762 45.5551 142.778 45.8856C143.646 46.161 144.551 46.2161 145.511 46.2712C145.936 46.2895 146.361 46.3263 146.786 46.363C148.688 46.565 150.055 47.2076 150.812 48.291C151.015 48.5847 151.181 48.8969 151.329 49.209C151.458 49.4661 151.569 49.7232 151.735 49.9619C152.031 50.4025 152.474 50.7514 152.899 51.1003L156.057 53.6525C156.445 53.9647 156.869 54.3136 157.165 54.8277C157.313 55.0664 157.405 55.3418 157.479 55.6172C157.571 55.8927 157.645 56.1497 157.793 56.3333C157.959 56.5537 158.218 56.7189 158.495 56.8842L165.383 61.2175C169.114 63.5678 172.604 66.2853 172.9 70.233L172.937 70.6554C173.011 71.8305 173.103 72.6935 173.731 72.9322C173.971 73.024 174.267 73.0056 174.617 72.9873C174.913 72.9689 175.208 72.9506 175.522 72.9873C176.243 73.0791 176.815 73.483 177.351 73.887C178.847 75.0254 180.25 76.3107 181.525 77.6878C182.429 78.6794 183.113 79.5607 183.648 80.4421C183.759 80.6073 183.852 80.791 183.962 80.9562C184.295 81.5254 184.609 82.0395 185.034 82.4619C185.495 82.9025 186.234 83.2698 186.843 83.0494C187.047 82.976 187.25 82.8475 187.471 82.7006C187.933 82.4068 188.469 82.0579 189.133 82.1864C189.54 82.2599 189.872 82.5169 190.075 82.6822C193.603 85.4181 196.355 89.2556 197.814 93.4421C197.943 93.791 198.054 94.0664 198.201 94.2867C198.22 94.2684 198.257 94.25 198.275 94.2133C199.531 93.2034 200.011 91.6059 201.027 90.4124C201.359 90.0085 201.784 89.7147 202.043 89.2556C202.541 88.411 202.394 87.3644 202.578 86.428C202.837 85.1794 203.317 83.9859 203.594 82.7373C203.779 81.9294 203.76 81.25 204.388 80.6073C205.404 79.5791 207.085 79.4322 207.916 78.0918C208.34 77.3941 208.304 76.476 208.71 75.7782C209.282 74.8418 210.28 74.9887 211.111 74.5664C212.163 74.0339 212.163 72.7669 212.496 71.7754C212.81 70.8757 213.29 70.5452 213.955 69.976C214.601 69.4068 214.86 68.9294 215.211 68.1031C215.598 67.185 215.875 66.0833 214.823 65.5141C214.232 65.202 213.548 65.3856 213.105 64.8347C212.662 64.2839 212.625 63.4025 212.145 62.8333C211.905 62.5395 211.591 62.2458 211.221 62.1356C210.908 62.0438 210.39 62.2458 210.15 62.1356C209.504 61.8602 209.947 61.346 209.522 60.8319C209.098 60.3545 208.137 60.428 207.602 60.6299C207.085 60.8136 207.048 61.1808 206.42 61.089C205.515 60.9421 204.37 59.8037 203.576 59.3446C201.341 58.096 199.236 56.5353 196.853 55.5989C195.948 55.25 194.766 54.9011 193.991 54.2952C193.473 53.8912 193.27 53.3771 192.642 53.065C191.368 52.4223 189.521 52.6059 188.469 51.5777C187.638 50.7698 187.25 49.5946 186.437 48.7867C185.255 47.5932 183.63 47.2443 182.042 46.8955C181.266 46.7302 180.767 46.4732 180.121 46.0508C179.087 45.3531 177.942 44.2698 176.76 43.8475C176.575 43.774 176.298 43.9209 176.076 43.8107C175.208 43.4251 174.894 42.5805 173.897 42.4336C172.641 42.2684 171.662 42.8008 170.462 42.1215C169.483 41.5706 168.966 40.3955 167.876 40.0282C166.787 39.6794 165.66 40.322 164.589 39.9181C163.444 39.4958 163.149 38.1554 162.059 37.6045C160.969 37.0537 159.584 37.2924 158.642 36.4477C157.793 35.6949 157.885 34.5014 157.331 33.5833C156.666 32.4816 155.447 31.5452 154.339 30.9209C153.637 30.5169 153.046 30.2599 152.622 29.5254C152.197 28.7542 152.252 28.2401 151.347 27.8545C150.092 27.3404 148.873 27.0833 147.672 26.3489C146.453 25.5777 145.825 24.2556 144.754 23.3192C143.591 22.3093 142.501 21.226 141.411 20.1243C140.543 19.2429 140.654 18.1596 139.989 17.2415C139.121 16.0297 138.05 16.25 137.903 14.5424C137.829 13.6059 137.293 12.6879 136.425 12.2104L136.499 42.2867C136.499 42.2867 136.554 42.2867 136.573 42.2867L136.665 42.3969Z" fill="#2E434D"/>
<path d="M101.409 10.7597C101.889 11.2739 102.388 11.788 102.573 12.7795C102.684 13.3487 102.739 13.9363 102.776 14.5055C102.813 15.0196 102.868 15.5154 102.942 16.0295L102.979 16.3049C103.034 16.6355 103.145 17.2965 103.275 17.4801C103.293 17.4434 103.422 17.3699 103.644 17.1312C104.272 16.4702 104.974 15.1114 105.694 13.1468C105.971 12.4123 105.897 11.788 105.823 11.0719C105.768 10.6496 105.731 10.1905 105.749 9.67641C105.749 9.3459 105.823 9.03376 105.879 8.73997C105.011 8.61144 104.087 8.96031 103.201 8.90523C102.407 8.8685 101.243 8.83178 100.43 8.48291C100.449 9.12557 100.578 9.80494 100.781 10.0804C100.966 10.3374 101.169 10.5394 101.354 10.7414L101.409 10.7597Z" fill="#2E434D"/>
<path d="M55.2386 35.9888C55.8665 36.3928 56.5498 36.6682 57.2885 36.9803C57.9534 37.2558 58.6367 37.5312 59.2647 37.9168C60.1696 38.4493 60.1881 38.9267 60.1327 39.6611C60.1327 39.7897 60.1142 39.9549 60.0957 40.1385C60.0957 40.7445 60.1881 40.9648 60.2804 41.0566C60.4651 41.2402 61.0376 41.2035 61.6471 41.1851C62.4597 41.1484 63.0322 41.1851 63.6601 42.0114C63.7709 42.1767 63.8817 42.3236 63.9556 42.4705C64.0479 42.599 64.1587 42.8193 64.2326 42.8377C64.2326 42.8377 64.3434 42.8377 64.602 42.6724C64.7313 42.599 64.9529 42.1583 65.0822 41.9012C65.3776 41.3504 65.6177 40.873 66.0425 40.7445C66.3934 40.6343 66.6889 40.7445 66.9105 40.9097C67.3353 39.808 67.3168 38.7981 67.2983 37.5496V36.8335C67.2983 36.3193 67.3722 35.7501 67.483 35.1442C67.7046 33.8038 67.9263 32.4267 67.0213 31.7473L66.892 31.6555C65.8209 30.8476 64.879 30.1498 65.6731 28.2402C66.2087 26.9549 67.1875 26.2939 68.6096 26.3673C70.8627 26.4775 72.728 27.6894 74.1501 29.9662C74.7041 30.8476 74.5933 31.7657 74.4825 32.5552C74.3717 33.3998 74.2978 34.0609 74.8519 34.6851C74.9996 34.8504 75.1474 34.9606 75.2951 35.0707C75.5721 35.2727 75.8676 35.5114 76.1262 35.9154C76.2924 36.1724 76.3663 36.4479 76.4401 36.7233C76.514 36.962 76.5879 37.2007 76.6802 37.3292C76.8649 37.5679 77.1235 37.623 77.5298 37.6964C78.1023 37.7883 78.8779 37.9168 79.2842 38.9818C79.4505 39.4041 79.3951 39.808 79.3396 40.1202C79.3027 40.3405 79.2842 40.5241 79.3396 40.6527C79.3766 40.7628 79.4874 40.873 79.6167 40.9832C79.8014 41.1668 80.0414 41.4055 80.1707 41.7727C80.2631 42.0665 80.2631 42.3419 80.2446 42.5806C80.2446 42.7826 80.2446 42.9662 80.2815 43.1131C80.3369 43.2233 80.4477 43.3518 80.577 43.4987C80.6878 43.6089 80.7986 43.7374 80.891 43.8659C81.2788 44.4168 81.7221 45.0411 81.8698 45.7205C81.9437 46.106 81.9252 46.4549 81.9067 46.7671C81.8698 47.3179 81.8698 47.5383 82.313 47.8137C82.7747 48.1075 83.3842 48.1075 84.0306 48.1258C84.2522 48.1258 84.4554 48.1258 84.677 48.1442H84.8617C85.4896 48.1993 86.2837 48.2544 86.8562 48.5298C87.1702 48.6767 87.3918 48.897 87.5765 49.0623C87.835 49.301 87.9089 49.3744 88.2229 49.3193C88.3337 49.2826 88.6477 49.0255 88.8139 48.8603C89.2386 48.4747 89.6819 48.0891 90.1805 48.1442C90.9192 48.2544 90.9192 48.9888 90.9192 49.2642C90.9192 49.3561 90.9192 49.5029 90.9192 49.558C91.0116 49.76 91.6949 50.4945 91.9535 50.6597C92.0458 50.7332 92.1197 50.7699 92.1751 50.7883C92.1936 50.7515 92.2305 50.7148 92.249 50.6781C92.3228 50.5863 92.3967 50.4945 92.4891 50.3843L92.6922 50.1456C93.3571 49.3193 94.3728 48.0707 95.8872 48.897C96.7552 49.356 97.1246 50.0538 97.457 50.7332C97.5494 50.8984 97.6417 51.082 97.734 51.2657C98.1034 51.9083 98.3065 51.9083 98.3065 51.9083C98.3435 51.9083 98.5097 51.89 98.8237 51.4676C99.3038 50.8433 99.2854 50.3843 99.2669 49.7049C99.2669 49.4846 99.2669 49.2642 99.2669 49.0072C99.2669 48.4196 99.4885 47.9422 99.8764 47.5933C100.781 46.7487 102.425 46.8405 103.644 46.8956H103.921C104.789 46.9323 104.992 46.6936 105.583 45.5185C105.712 45.2614 105.842 44.986 105.952 44.7106C106.192 44.1781 106.433 43.6456 106.747 43.1498L106.913 42.8928C107.338 42.2868 107.485 42.0481 107.485 41.1301C107.485 40.414 107.43 39.6795 107.356 38.9634C107.282 38.1555 107.208 37.3109 107.227 36.4662C107.227 36.1357 107.264 35.7868 107.282 35.4012C107.393 33.8772 107.522 32.1696 106.451 31.2515C106.082 30.9394 105.417 30.8843 104.807 30.8476C104.715 30.8476 104.623 30.8476 104.53 30.8292C104.401 31.1781 104.161 31.4902 103.81 31.7657C102.942 32.4818 101.409 32.9041 100.393 32.7205C99.6363 32.5919 99.0637 32.0594 98.5097 31.5453C98.048 31.1046 97.6048 30.7007 97.1061 30.5722C96.8106 30.4803 96.6998 30.5171 96.6998 30.5171C96.7183 30.5538 96.7552 30.9027 96.7737 31.123C96.8476 31.8024 96.9584 32.9592 95.8503 33.3264C95.3516 33.4916 94.8899 33.4549 94.5021 33.2162C93.5971 32.6654 93.3386 31.1781 93.117 29.8744C93.0062 29.2318 92.8769 28.5157 92.7107 28.2586C92.5445 28.0015 92.3228 27.7996 92.0643 27.5792C91.621 27.1753 91.1224 26.7162 90.9746 25.945C90.8084 25.0453 91.1778 24.3476 91.5841 23.7416C92.0643 23.0439 91.9781 22.3584 91.3255 21.6851C90.8084 21.1527 90.3837 21.0608 89.7557 20.9323C89.4603 20.8772 89.1463 20.8038 88.7954 20.6936C87.3733 20.2346 86.8378 19.0411 86.4869 17.8108C86.0067 16.195 85.3972 13.147 86.7269 11.0354C86.9301 10.7049 87.1333 10.4111 87.3364 10.1541C87.872 9.41961 88.2044 8.94221 88.2229 7.85887C88.2229 7.39983 88.2598 6.86735 88.3152 6.27978C88.3706 5.6004 88.426 4.82921 88.4076 4.11311C86.3022 4.18656 84.1968 4.35181 82.1099 4.57215C81.5743 4.62723 81.0387 4.82921 80.5031 4.81085C80.0784 4.81085 79.5613 5.01283 79.1365 4.90266C79.0811 4.90266 79.0257 4.86593 78.9703 4.82921C78.7117 4.66396 78.4901 4.37017 78.3424 4.13147C77.7698 3.25012 77.8991 2.97469 76.791 2.93797C75.646 2.90125 75.4428 2.80944 74.8703 1.81791C74.2609 0.734578 73.7992 -0.146778 72.3586 0.0735614C70.9551 0.2939 70.6042 1.57921 70.3641 2.77271C70.2163 3.52554 70.3087 5.03119 69.5699 5.43514C69.1636 5.65548 68.1848 5.47187 67.6862 5.61876C66.6335 5.94927 66.7628 6.5552 66.1164 7.36311C65.1745 8.55661 63.42 6.90407 62.7182 8.68514C62.4597 9.34616 62.6074 9.97045 62.1457 10.5947C61.4993 11.4394 60.3543 11.7699 59.4678 12.3024C58.7106 12.7614 57.6579 13.349 57.3809 14.212C57.0854 15.1668 57.3809 16.4705 56.6791 17.3518C55.8665 18.3433 52.8192 18.986 53.8719 20.9874C54.3521 21.8871 55.6818 22.4196 56.3097 23.2642C57.5656 24.9535 56.7899 26.8264 56.3097 28.6993C55.7557 30.9577 54.8138 33.1061 53.9458 35.236C54.112 35.3462 54.3152 35.4747 54.5368 35.5849C54.7399 35.7134 54.9615 35.8236 55.1832 35.9705L55.2386 35.9888Z" fill="#2E434D"/>
<path d="M6.66705 348.962C6.88867 349.274 6.90714 349.641 6.92561 349.917C6.92561 350.008 6.9256 350.1 6.94407 350.192C6.98101 350.431 7.14722 350.669 7.36884 350.853C7.47965 350.926 7.60893 351 7.73821 351.018L7.83055 349.861C7.83055 349.678 7.95983 349.531 8.10757 349.439C8.27379 349.366 8.45847 349.366 8.60622 349.439C9.21567 349.806 9.73278 350.265 10.1576 350.835C10.9517 350.284 11.8751 349.935 12.8354 349.825H13.094C13.4264 349.77 13.7404 349.733 13.9435 349.604C14.3683 349.347 14.4791 348.668 14.5161 348.099C14.6453 346.611 14.6453 345.106 14.5161 343.618C14.5161 343.435 14.5899 343.251 14.7561 343.141C14.9224 343.031 15.1255 343.031 15.2917 343.141C15.9196 343.49 16.8431 343.104 17.471 342.535C17.7111 342.315 17.9327 342.076 18.1728 341.837C18.653 341.323 19.1701 340.791 19.8349 340.442C20.7029 339.983 21.6448 339.928 22.5498 339.873C22.9745 339.836 23.4178 339.818 23.8425 339.744C25.1907 339.505 26.4466 338.679 27.2961 337.449C28.1456 336.219 28.4965 334.768 28.2564 333.428V333.281C28.0533 332.289 27.7578 330.802 28.9213 330.178C29.0321 330.123 29.1429 330.086 29.2537 330.031C29.3091 330.013 29.383 329.994 29.4384 329.957C29.7893 329.774 29.9001 329.333 30.0479 328.617C30.1217 328.287 30.1771 327.956 30.288 327.662C30.8235 326.175 32.2825 325.496 33.6861 324.835C34.9974 324.21 36.2163 323.641 36.5118 322.484C36.5487 322.319 36.5672 322.154 36.6041 321.989C36.641 321.676 36.6964 321.328 36.8626 320.979C37.0473 320.575 37.4536 320.244 37.8784 320.134C38.2293 320.042 38.5617 320.116 38.8203 320.299C38.9865 320.428 39.0973 320.575 39.1712 320.685C39.2081 320.74 39.2635 320.813 39.3005 320.832C39.3005 320.832 39.3559 320.832 39.5405 320.795C40.9995 320.465 42.2923 319.473 43.0126 318.169L43.1603 317.894C43.4189 317.398 43.7144 316.829 44.2869 316.498C44.5085 316.37 44.7486 316.296 44.9702 316.241C45.0626 316.205 45.1734 316.186 45.2657 316.15C46.0783 315.837 46.2076 315.25 46.3553 314.167C46.5216 312.918 46.854 312.587 47.7405 311.724C48.0544 311.412 48.313 311.118 48.5715 310.825C49.4395 309.833 50.3445 308.805 51.7481 308.603C52.1913 308.548 52.6161 308.585 53.0408 308.621C53.2071 308.621 53.3733 308.658 53.5395 308.658C54.112 308.695 54.5183 308.585 54.7584 308.364C54.8692 308.254 54.9431 308.07 54.9246 307.905C54.9246 307.832 54.8877 307.758 54.8323 307.703C54.7769 307.667 54.6661 307.63 54.5737 307.611C54.4444 307.575 54.3152 307.538 54.2043 307.483C53.3179 307.079 53.1332 306.106 52.967 305.316L52.93 305.169C52.8377 304.674 52.4868 304.031 52.1359 304.104C52.0805 304.104 52.0251 304.141 51.9697 304.141C51.7665 304.196 51.4895 304.306 51.1571 304.178C50.5846 303.976 50.4922 303.352 50.4553 303.131C49.8274 299.514 49.8274 295.787 49.8458 292.188C49.8458 290.884 49.8458 289.58 49.8089 288.277C49.7904 287.046 49.7166 285.798 49.6427 284.549C49.0886 284.457 48.5346 284.329 48.0175 284.072C47.6112 283.87 47.2418 283.631 46.8909 283.392C46.4661 283.099 46.0598 282.823 45.6166 282.658C45.1918 282.493 44.6563 282.511 44.2869 282.676C44.0653 282.787 43.936 282.915 43.8621 283.117C43.8067 283.282 43.659 283.411 43.4743 283.448C43.2896 283.484 43.1049 283.448 42.9941 283.301C41.9414 282.199 40.5563 281.409 39.0788 281.042L38.8757 280.987C38.2108 280.84 37.4536 280.657 36.9735 280.032C36.7703 279.775 36.6595 279.481 36.5672 279.224C36.4933 279.041 36.4379 278.876 36.3455 278.729C35.9208 278.068 35.0712 278.141 33.7415 278.343C32.6334 278.508 31.3776 278.692 30.3803 278.086C30.1402 277.939 29.9186 277.755 29.7154 277.554C29.4384 277.296 29.1983 277.076 28.9213 277.039C28.7182 277.003 28.4596 277.058 28.201 277.113C27.8501 277.186 27.4623 277.278 27.0375 277.205C25.9848 277.003 25.5047 275.883 25.2646 275.332L20.7214 264.755C19.1885 265.288 17.3971 265.361 16.7507 263.948C16.566 263.562 16.5476 263.176 16.5291 262.809V262.534C16.4922 262.313 16.4368 262.093 16.3629 261.891C16.2336 261.946 16.0859 261.983 15.9381 262.001C14.9962 262.038 14.83 260.863 13.7958 261.267C12.9463 261.597 13.1125 262.295 13.0201 263.029C12.8909 263.966 12.5584 264.572 11.7828 265.196C10.9886 265.839 9.9544 265.894 9.16026 266.518C8.14451 267.326 8.32919 268.74 8.23685 269.933C8.12604 271.421 6.8702 271.219 6.37156 272.339C6.03913 273.055 6.48237 274.579 6.64858 275.313C6.74092 275.754 6.94407 276.011 6.8702 276.47C6.75939 277.094 6.26075 277.517 6.24228 278.196C6.22381 279.353 7.20263 280.124 7.36884 281.207C7.49812 282.052 6.88867 282.676 6.94407 283.411C6.99948 284.274 8.10757 284.623 7.9783 285.614C7.84902 286.569 6.68552 286.863 6.68552 287.928C6.68552 288.681 7.35037 289.287 7.71974 289.874C8.23685 290.664 8.64315 291.545 9.10486 292.371C9.99134 293.969 9.58503 295.291 9.80665 297.017C9.93593 297.935 10.3607 298.339 10.9702 298.981C11.6904 299.716 11.9674 300.414 12.3553 301.35C12.7616 302.36 13.2787 303.021 13.4449 304.123C13.6296 305.353 13.2048 306.253 12.3553 307.134C11.081 308.438 9.34495 309.117 8.07064 310.439C6.98101 311.559 7.12876 312.698 7.79361 314.056C8.32919 315.158 9.12333 316.535 8.60622 317.784C8.16298 318.849 7.05488 319.638 7.18416 320.979C7.23957 321.511 7.60893 321.713 7.42425 322.264C7.2211 322.907 6.37156 323.164 5.89138 323.531C5.02337 324.192 4.67248 325.018 4.83869 326.102C5.07878 327.754 7.03641 331.518 4.48779 332.271C3.98915 332.418 3.56438 332.124 3.32429 332.785C3.08421 333.409 3.58285 333.593 3.95222 333.96C4.65401 334.64 5.39274 335.08 5.37427 336.145C5.3558 337.137 4.61707 337.945 4.43239 338.936C4.22924 340.075 3.84141 341.58 4.08149 342.719C4.34005 343.986 4.93103 344.812 4.45086 346.152C4.11843 347.07 3.71213 347.897 3.58285 348.87L4.52473 348.558C5.83598 348.117 6.44543 348.521 6.72245 348.925L6.66705 348.962Z" fill="#2E434D"/>
<path d="M108.575 238.572C107.67 238.535 106.747 238.462 105.842 238.407C101.834 238.15 97.6971 237.911 93.8557 238.958C93.9111 240.427 93.948 241.877 94.0219 243.328C94.0958 244.907 94.225 246.523 94.3543 248.083C94.539 250.213 94.7237 252.398 94.7237 254.583C94.7237 255.446 94.7237 256.732 70.5672 257.374L69.4776 257.411C64.6943 257.576 59.8556 257.888 55.1462 258.201L49.6427 258.568C49.458 258.568 49.3287 258.641 49.2179 258.788C48.59 259.523 48.8116 261.781 48.9593 263.14C48.9963 263.581 49.0332 263.948 49.0517 264.242C49.1625 267.106 49.3841 269.934 49.6057 272.339C49.6981 273.422 49.8089 274.506 49.9012 275.589C50.1598 278.251 50.3999 280.987 50.5845 283.723C51.1386 283.76 51.6926 283.76 52.2652 283.76H52.7084C52.7084 283.76 52.7084 283.76 52.7269 283.76C54.3151 283.76 56.0881 283.907 57.3809 285.008C58.1565 285.67 58.5998 286.79 58.5259 287.836C58.452 288.681 58.0457 289.36 57.3993 289.746C57.307 289.801 57.2147 289.838 57.1223 289.893C56.993 289.966 56.8638 290.021 56.7899 290.095C56.6975 290.186 56.6421 290.278 56.6421 290.425C56.6421 290.829 57.0115 291.435 57.5471 291.931C58.5813 292.886 59.6894 293.822 60.9083 293.749C61.1853 293.749 61.4808 293.657 61.7948 293.583C62.3304 293.455 62.9029 293.308 63.5123 293.418C64.4357 293.602 65.0452 294.281 65.5992 294.887C65.7655 295.052 65.9132 295.236 66.0794 295.401C66.4672 295.787 67.0767 296.025 67.483 296.007C67.7416 295.989 67.8524 295.879 67.9078 295.787C68.0555 295.585 68.3141 295.53 68.5357 295.621C68.7573 295.732 68.8866 295.97 68.8312 296.209C68.7758 296.466 68.8312 296.705 68.9789 296.944C69.2929 297.421 70.0132 297.862 70.7704 298.027C71.0104 298.082 71.2505 298.119 71.4906 298.155C72.5618 298.339 73.7622 298.559 74.5194 299.477C74.8888 299.918 75.0735 300.414 75.2581 300.891C75.3874 301.258 75.5167 301.589 75.7198 301.883C76.0707 302.397 76.7356 302.709 77.4559 302.672C78.1946 302.672 78.8225 302.323 79.1365 301.791C79.2842 301.552 79.5982 301.46 79.8383 301.607L82.8671 303.333C83.6612 303.774 84.363 304.141 85.0648 304.086C85.3972 304.049 85.7296 303.921 86.0805 303.792C86.3945 303.664 86.7269 303.554 87.0778 303.48C87.6873 303.37 88.3521 303.48 88.8138 303.829C88.9247 303.903 89.017 303.994 89.1093 304.105C91.2886 302.727 93.9665 302.121 96.5336 302.434C98.0295 302.617 99.4516 303.095 100.855 303.554C102.443 304.086 103.958 304.582 105.528 304.674H105.786C106.322 304.71 106.913 304.729 107.467 305.023C107.91 305.243 108.224 305.592 108.519 305.922C108.723 306.143 108.907 306.345 109.11 306.492C109.517 306.785 110.071 306.914 110.662 307.024C111.364 307.171 112.084 307.318 112.693 307.814C113.173 308.199 113.469 308.695 113.746 309.191C113.82 309.319 113.894 309.448 113.986 309.576C115.39 311.816 118.326 312.918 120.875 312.22V238.242C116.793 238.664 112.656 238.792 108.556 238.609L108.575 238.572Z" fill="#2E434D"/>
<path d="M180.398 139.731C180.435 139.493 180.287 139.199 180.102 138.868C179.973 138.648 179.862 138.428 179.788 138.207C179.364 137.032 179.862 135.618 181.137 134.443C181.432 134.168 181.728 133.929 182.042 133.672C182.688 133.158 183.279 132.681 183.667 132.038C184.055 131.414 184.239 130.661 184.424 129.853C184.683 128.733 184.96 127.594 185.828 126.75C186.123 126.456 186.474 126.236 186.806 126.015C187.157 125.777 187.508 125.556 187.748 125.281C188.542 124.363 188.265 122.931 187.859 121.315C187.12 118.414 187.951 117.092 188.783 116.486C188.856 116.431 188.93 116.394 189.004 116.339C189.115 116.265 189.207 116.21 189.281 116.137C189.558 115.861 189.447 115.384 189.226 114.631C189.096 114.191 188.986 113.713 188.986 113.236C186.308 113.566 183.63 113.713 180.934 113.713C176.206 113.713 171.478 113.309 166.861 112.924C161.819 112.501 156.629 112.061 151.514 112.152C150.498 112.152 149.464 112.207 148.448 112.244C147.801 112.263 147.174 112.299 146.527 112.318C146.121 117.257 145.641 122.196 144.994 127.08C144.182 133.25 143.184 139.474 142.002 145.57C141.965 145.736 141.929 146.048 141.892 146.433C141.688 148.159 141.522 149.151 141.301 149.739C140.894 151.52 140.617 153.117 141.245 154.476C141.615 155.284 142.279 155.926 142.963 156.606C143.277 156.9 143.572 157.212 143.868 157.524C144.902 158.662 145.733 160.407 144.976 161.894C144.015 163.822 143.757 166.062 143.517 168.229C143.221 170.744 142.926 173.352 141.578 175.573C141.208 176.161 140.784 176.712 140.359 177.244C139.805 177.96 139.269 178.621 138.9 179.392C138.309 180.604 138.309 182.312 139.343 183.028C140.266 183.671 139.86 184.791 139.565 185.617C139.491 185.837 139.417 186.039 139.361 186.241C139.048 187.38 139.879 188.61 140.58 189.712C142.39 192.466 143.738 195.422 144.606 198.544C144.902 199.59 145.142 200.729 144.939 201.83C144.773 202.767 144.293 203.593 143.868 204.328L131.254 226.527C131.254 226.527 131.346 226.618 131.383 226.674C134.984 226.765 138.604 226.618 142.187 226.251C143.092 226.159 143.96 226.049 144.736 225.719C145.715 225.315 146.527 224.562 147.321 223.828C150.055 221.33 153.157 218.484 154.616 214.849L154.672 214.702C154.986 213.912 155.373 212.939 156.297 212.517C157.017 212.186 157.83 212.333 158.402 212.443L162.742 213.233C163.038 213.288 163.352 213.343 163.573 213.251C163.832 213.141 164.035 212.829 164.238 212.48L167.415 206.972C167.138 206.843 166.861 206.751 166.547 206.696C166.436 206.678 166.325 206.659 166.214 206.641C165.845 206.586 165.402 206.513 165.014 206.274C164.257 205.833 163.98 205.025 163.721 204.291L163.629 204.052C163.019 202.381 161.874 200.839 160.766 199.352C159.049 197.056 157.294 194.688 157.423 191.768C157.516 189.767 158.495 187.986 159.455 186.278L159.806 185.654C160.231 184.883 160.674 183.983 160.581 183.138C160.526 182.698 160.341 182.257 160.157 181.761C159.787 180.861 159.381 179.815 159.954 178.842C160.434 178.034 161.486 177.611 162.798 177.722C163.056 177.74 163.315 177.777 163.592 177.813C164.183 177.905 164.755 177.979 165.272 177.868C166.547 177.593 167.341 176.198 168.024 174.986C169.631 172.14 171.552 169.441 173.694 166.98L174.156 166.466C175.024 165.474 175.929 164.465 176.52 163.308C177.314 161.765 177.572 159.948 177.775 158.24C178.034 156 178.2 153.778 178.366 151.63L178.44 150.565C178.533 149.39 178.625 148.215 178.736 147.039C178.791 146.397 178.662 145.919 178.496 145.35C178.385 144.965 178.256 144.524 178.182 144.01C177.979 142.467 179.031 141.2 179.678 140.576C180.029 140.246 180.269 140.007 180.306 139.768L180.398 139.731Z" fill="#2E434D"/>
<path d="M193.178 223.203C192.587 223.093 192.107 222.744 191.719 222.451L183.907 216.85C183.15 216.318 182.374 215.749 181.525 215.455C181.192 215.326 180.823 215.253 180.472 215.161C179.899 215.014 179.29 214.886 178.736 214.592C178.348 214.39 178.016 214.133 177.683 213.894C177.166 213.508 176.686 213.141 176.15 213.086C175.781 213.049 175.375 213.123 174.931 213.215C174.211 213.362 173.398 213.545 172.66 213.086C172.161 212.774 171.866 212.241 171.662 211.893C170.758 210.277 169.779 208.532 168.412 207.486L165.254 212.958C165.032 213.343 164.681 213.949 164.054 214.188C163.555 214.371 163.038 214.28 162.65 214.225L158.291 213.435C157.7 213.325 157.202 213.251 156.796 213.435C156.26 213.674 155.964 214.39 155.706 215.069L155.65 215.216C154.099 219.072 150.904 221.991 148.097 224.562C147.284 225.315 146.342 226.16 145.197 226.637C144.293 227.023 143.332 227.133 142.353 227.243C135.539 227.941 128.631 227.83 121.835 226.912L121.946 227.445V237.287C121.946 237.287 122.057 237.452 122.075 237.544C122.075 237.691 122.038 237.838 121.946 237.929V338.22C121.946 338.441 121.817 338.624 121.632 338.698C121.854 339.432 122.5 340.056 123.183 340.736C123.663 341.195 124.144 341.672 124.531 342.241C125.141 343.123 125.436 344.169 125.713 345.161C125.713 345.216 125.75 345.271 125.769 345.326C125.954 345.198 126.138 345.032 126.378 344.72C127.302 343.582 127.597 343.967 128.908 343.71C129.426 343.619 130.09 343.343 130.478 343.031C130.866 342.701 131.125 341.929 131.586 341.691C132.344 341.268 132.824 341.691 133.507 340.809C134.283 339.799 133.803 339.267 133.581 338.184C133.304 336.862 133.803 335.925 132.731 334.842C131.753 333.869 130.977 333.538 131.494 332.088C132.048 330.545 132.916 331.096 134.043 330.288C135.28 329.407 134.394 327.607 133.858 326.616C133.101 325.147 133.729 324.871 135.132 324.486C136.443 324.119 136.905 323.935 137.312 322.54C137.995 320.226 138.18 317.086 135.76 315.801C135.077 315.434 134.19 314.222 135.409 313.836C136.647 313.432 136.942 315.434 137.699 315.378C139.103 315.287 137.422 313.451 137.127 313.138C136.277 312.239 135.465 311.743 135.243 310.476C135.021 309.209 135.132 307.924 134.966 306.675C134.837 305.702 133.285 303.792 134.449 303.076C135.668 302.323 136.24 304.6 136.757 305.298C137.829 306.73 139.712 305.794 141.061 306.767C141.744 307.263 142.113 308.107 142.797 308.585C143.591 309.136 144.643 309.117 145.585 308.952C147.137 308.677 148.725 308.052 150.258 307.63C152.659 306.969 155.115 306.473 157.59 306.253C162.225 305.83 166.935 305.849 171.552 305.298C177.055 304.637 182.005 302.305 187.231 300.634C188.21 300.322 189.3 300.249 190.242 299.845C191.165 299.459 191.941 298.725 192.809 298.21C194.619 297.164 197.223 296.356 199.309 296.484C200.658 296.576 201.987 296.429 202.892 294.96C203.428 294.097 203.003 293.969 202.874 293.032C202.689 291.729 203.409 290.535 204.093 289.489C206.254 286.202 210.04 284.182 212.57 281.134C214.195 279.169 215.044 276.966 216.153 274.708C217.298 272.376 217.187 269.53 217.685 266.996C217.833 266.261 218.184 265.104 217.704 264.388C217.205 263.654 217.205 264.223 216.466 264.223C215.802 264.223 215.986 264.058 215.414 263.672C215.1 263.452 214.786 263.342 214.398 263.287C213.862 263.195 213.013 263.58 212.57 263.434C211.776 263.177 212.2 262.846 212.034 262.093C211.905 261.469 211.406 260.771 211.018 260.257C210.243 259.247 209.282 259.119 208.34 258.402C207.103 257.466 207.657 255.758 207.99 254.455C208.303 253.316 208.968 252.582 209.744 251.682C210.335 251.021 211.388 250.342 211.868 249.644C213.678 246.908 208.119 243.107 206.401 242.024C204.758 240.996 203.428 239.986 202.652 238.168C201.766 236.112 200.805 235.01 198.977 233.688C197.998 232.972 197.038 232.219 196.004 231.558C194.951 230.878 193.566 230.401 192.827 229.354C191.331 227.243 193.954 225.388 193.769 223.258C193.769 223.222 193.769 223.203 193.769 223.167C193.751 223.167 193.732 223.167 193.695 223.167C193.547 223.167 193.381 223.167 193.233 223.13L193.178 223.203Z" fill="#2E434D"/>
<path d="M143.942 126.933C145.548 114.668 146.398 102.2 146.49 89.8246C146.546 82.9757 146.361 76.0718 145.955 69.278L121.318 69.7003C116.535 69.7738 111.604 69.8656 106.876 68.5986C104.29 71.9037 102.665 75.8698 102.111 80.0012C102.111 80.0746 102.111 80.1481 102.111 80.2215C102.111 80.2582 102.093 80.2766 102.074 80.295C101.982 81.0845 101.908 81.8924 101.908 82.682V83.2512C101.908 84.206 101.908 85.1975 101.631 86.1707C101.335 87.1989 100.597 88.3924 99.3408 88.8147L95.8872 99.391C95.2224 101.411 94.539 103.522 93.9481 105.616C93.5233 107.121 93.2093 108.462 92.9508 109.71C92.9877 109.802 93.0062 109.912 92.9877 110.022C92.9692 110.114 92.9138 110.188 92.8584 110.261C92.7292 110.94 92.6368 111.583 92.5629 112.226C91.9904 117.11 92.7107 122.086 93.4125 126.915C93.9111 130.33 94.5206 134.553 96.8845 137.601C99.6178 135.178 104.198 135.031 107.024 137.363C107.448 137.712 107.836 138.116 108.187 138.483C108.612 138.923 109.018 139.346 109.498 139.695C110.92 140.76 112.823 141.127 114.485 141.457C118.511 142.229 122.666 143.018 126.822 143.055C127.283 143.055 127.745 143.055 128.207 143.055C128.558 143.055 128.89 143.055 129.241 143.055C130.608 143.055 132.011 143.11 133.359 143.459C135.631 144.046 137.755 145.515 139.158 147.48C139.251 147.609 139.38 147.866 139.528 148.178C139.694 148.508 140.026 149.188 140.266 149.445C140.507 148.839 140.728 147.039 140.802 146.323C140.857 145.901 140.894 145.552 140.931 145.387C142.113 139.291 143.111 133.103 143.923 126.952L143.942 126.933Z" fill="#2E434D"/>
<path d="M277.172 95.2048C277.8 92.9096 279.24 90.0268 278.982 87.6214C278.797 85.8771 277.209 84.8121 277.356 82.9759C277.467 81.4703 278.538 77.5593 277.024 76.7514C276.396 76.4209 276.248 76.6779 275.879 76.0536C275.546 75.5028 275.657 74.8785 275.122 74.346C274.697 73.9053 273.755 73.2076 273.127 73.2259C272.185 73.2443 271.613 74.3276 270.8 74.6398C269.36 75.1906 266.312 74.1073 265.888 76.0903C265.74 76.7881 266.128 77.6694 265.851 78.3488C265.61 78.9364 264.872 79.12 264.632 79.7076C264.281 80.5338 264.89 80.7358 265.186 81.5254C265.555 82.5353 265.389 83.5268 265.056 84.4816C264.687 85.5098 264.281 86.4646 264.022 87.5296C263.764 88.5211 263.468 89.6596 262.489 90.1737C261.714 90.5776 261.474 90.4491 260.901 91.3121C260.532 91.8629 259.848 94.1949 259.22 94.3785C258.925 94.4703 258.242 93.9745 257.909 93.9194C256.949 93.7358 256.155 94.0663 255.416 94.6906C254.363 95.572 253.772 96.8757 252.757 97.7937C251.926 98.5098 251.925 98.2161 251.039 98.0324C249.802 97.7937 249.488 98.6751 248.823 99.5748C248.509 99.9971 248.084 100.548 247.659 100.878C247.327 101.136 246.81 101.246 246.496 101.521C245.886 102.072 246.219 102.788 245.997 103.504C245.665 104.551 244.889 104.661 243.929 104.973C242.581 105.414 241.436 106.369 240.143 106.185C240.217 106.717 240.346 107.268 240.568 107.874C241.103 109.398 241.879 110.812 242.876 112.097C243.135 112.428 243.467 112.869 243.43 113.419C243.375 113.989 242.968 114.338 242.654 114.613C242.451 114.797 242.248 114.962 242.211 115.109C242.174 115.329 242.451 115.678 242.599 115.843L244.834 118.524C245.72 117.643 246.773 116.651 247.752 116.192C248.38 115.898 248.232 116.229 248.804 116.192C249.543 116.137 250.836 115.586 251.168 114.888C251.445 114.319 251.057 113.952 251.648 113.475C252.258 112.96 253.495 113.126 254.216 112.96C257.097 112.263 258.925 109.398 261.4 108.021C262.028 107.672 262.859 107.25 263.616 107.397C264.576 107.599 264.927 108.26 266.091 108.058C267.365 107.856 268.362 107.177 268.769 105.946C269.175 104.716 268.953 104.184 270.32 104.184C273.441 104.184 275.473 103.008 276.821 100.144C277.282 99.1525 277.393 98.5466 277.135 97.5734C276.913 96.7288 277.005 96.0861 277.245 95.2231L277.172 95.2048Z" fill="#2E434D"/>
<path d="M241.103 114.907C241.195 114.393 241.583 114.081 241.879 113.824C242.082 113.64 242.285 113.475 242.304 113.328C242.304 113.163 242.119 112.924 241.971 112.722C240.9 111.363 240.069 109.839 239.496 108.205C239.182 107.324 239.035 106.497 238.961 105.726C237.816 104.973 236.726 103.559 235.286 103.596C234.362 103.615 233.125 103.963 232.294 104.386C231.795 104.643 231.149 105.579 230.558 105.579C230.151 105.579 229.764 104.992 229.394 104.808C228.637 104.422 227.843 104.496 227.012 104.588C224.851 104.826 222.986 106.093 220.843 106.369C219.809 106.497 219.384 106.148 218.553 105.634C217.593 105.028 216.522 104.679 215.506 104.165C214.841 103.816 214.158 103.137 213.438 102.935C212.921 102.788 212.034 103.174 211.591 102.898C210.76 102.366 211.572 101.705 210.446 101.264C209.467 100.897 208.821 101.264 207.897 101.117C207.122 101.007 206.826 100.346 205.995 100.236C204.628 100.034 203.649 100.475 202.357 100.824C200.639 101.264 199.088 101.338 197.37 100.86C197.333 100.86 197.296 100.842 197.259 100.824C197.056 100.934 196.872 101.044 196.65 101.117C196.262 101.264 195.856 101.356 195.45 101.448C194.711 101.613 194.028 101.778 193.584 102.237C192.864 103.009 193.123 104.331 193.344 105.047C193.418 105.285 193.51 105.542 193.584 105.781C193.898 106.681 194.212 107.617 194.12 108.627C193.972 110.133 192.827 111.528 191.202 112.208L190.962 112.3C190.611 112.446 190.278 112.575 190.112 112.795C189.854 113.144 190.02 113.732 190.205 114.356C190.426 115.146 190.722 116.137 190.001 116.872C189.854 117.018 189.687 117.129 189.54 117.22L189.374 117.331C188.358 118.065 188.524 119.773 188.856 121.076C189.226 122.545 189.724 124.565 188.542 125.961C188.21 126.365 187.785 126.64 187.379 126.897C187.083 127.099 186.788 127.283 186.566 127.503C185.901 128.146 185.68 129.1 185.44 130.11C185.237 130.955 185.033 131.836 184.553 132.607C184.073 133.397 183.371 133.948 182.688 134.499C182.393 134.737 182.097 134.958 181.838 135.215C181.1 135.894 180.435 136.959 180.749 137.877C180.823 138.061 180.915 138.226 181.007 138.391C181.247 138.832 181.525 139.328 181.414 139.934C181.321 140.503 180.897 140.907 180.583 141.219C179.992 141.788 179.161 142.78 179.308 143.863C179.364 144.304 179.475 144.689 179.585 145.057C179.77 145.663 179.955 146.287 179.862 147.131C179.752 148.288 179.659 149.463 179.567 150.62L179.493 151.685C179.438 152.511 179.364 153.356 179.29 154.201L181.875 153.962C182.116 153.944 182.651 153.889 183.02 154.292C183.168 154.439 183.224 154.623 183.279 154.752C183.39 155.009 183.538 155.137 183.759 155.211C184.165 155.339 184.738 155.266 185.163 155.027C185.551 154.807 185.883 154.494 186.234 154.146C186.622 153.797 187.01 153.429 187.49 153.136C188.173 152.732 189.06 152.622 189.761 152.86C190.075 152.97 190.334 153.136 190.537 153.356C191.774 152.805 193.252 153.007 194.249 153.154C195.487 153.338 197.37 153.613 198.478 154.917L198.608 155.064C198.718 155.192 198.811 155.321 198.903 155.376C199.106 155.504 199.383 155.449 199.827 155.339C200.214 155.247 200.658 155.155 201.119 155.247C202.468 155.523 202.892 157.102 202.634 158.516L202.541 158.956C202.357 159.838 202.19 160.664 202.597 161.233C202.966 161.747 203.668 161.876 204.462 162.041C204.499 162.041 204.536 162.041 204.573 162.059C204.868 161.674 205.312 161.362 205.459 160.848C205.663 160.187 205.459 159.617 205.496 158.975C205.552 157.432 206.531 156.661 207.86 156.276C209.172 155.89 209.282 155.027 209.855 153.815C210.63 152.163 211.351 152.493 212.791 152.144C214.749 151.667 214.546 149.941 214.804 148.38C215.118 146.489 216.503 146.47 218.055 145.883C219.754 145.24 220.843 143.698 222.173 142.541C224.297 140.705 226.513 139.034 228.545 137.088C229.357 136.317 230.17 135.582 230.595 134.499C230.927 133.636 230.853 132.663 231.296 131.818C231.795 130.863 231.924 131.212 232.774 131.065C233.55 130.937 234.048 130.533 234.528 129.945C235.489 128.807 235.969 127.338 237.114 126.383C237.354 126.181 237.65 126.144 237.816 125.869C238.074 125.428 237.816 124.841 238.167 124.363C239.164 122.949 240.438 124.602 241.657 124.143C243.079 123.629 241.546 122.674 241.694 121.774C241.823 120.948 243.43 119.883 243.984 119.314C244.003 119.295 244.04 119.259 244.058 119.24L241.749 116.486C241.491 116.174 241.011 115.605 241.14 114.907H241.103Z" fill="#2E434D"/>
<path d="M14.0728 438.254C13.5926 438.419 12.3368 437.373 12.0044 438.254C11.8012 438.75 13.2972 440.66 13.5557 441.119C14.8485 443.469 15.8642 448.353 13.962 450.63C13.3341 451.383 12.8724 451.787 12.78 452.797C12.6692 454.008 13.2048 454.321 13.6111 455.33C14.0174 456.34 13.7035 458.176 13.3526 459.168C12.9093 460.453 12.1521 460.931 10.9702 461.426C7.99677 462.638 10.0837 465.76 9.21567 468.073C8.77243 469.23 7.46119 469.45 7.23957 470.681C6.94407 472.37 8.40307 473.068 9.16027 474.298C9.45576 474.794 9.51116 475.381 9.65891 475.932C9.82512 476.556 10.1945 476.85 10.4346 477.309C10.8039 478.08 10.5639 480.063 9.99134 480.853C9.56657 481.441 8.64315 481.587 8.36613 482.285C8.12604 482.91 8.3846 484.14 8.47694 484.782C8.64315 485.939 9.45576 486.967 9.43729 488.143C9.38188 490.97 6.77786 493.816 4.65401 495.359C3.67519 496.075 2.6225 496.681 2.67791 498.003C2.73331 499.178 3.3797 500.206 2.91799 501.418C2.47476 502.611 1.31126 503.53 0.590993 504.558C-0.240079 505.733 8.5911e-06 506.78 0.461715 508.083C0.923422 509.405 1.18198 510.415 1.12657 511.847C1.0527 513.757 0.904953 515.391 2.14233 516.915C3.08421 518.09 3.36123 519.284 3.71213 520.753C4.00762 522.038 3.3243 523.893 3.85987 525.013C4.39545 526.114 6.26075 526.408 7.33191 526.059C8.88324 525.563 8.47694 524.076 8.86477 522.828C9.28954 521.432 9.82512 521.708 10.9886 521.726C11.6165 521.726 12.54 521.23 13.0571 521.414C13.4264 521.561 13.5557 522.056 13.7773 522.332C14.3129 523.011 14.8485 523.47 15.5133 524.003C16.8615 525.104 16.3444 525.931 15.6796 527.4C14.9408 529.034 15.4764 529.438 16.1228 530.87C16.4737 531.66 16.5291 532.596 16.4737 533.441C16.3998 534.395 15.7534 535.075 15.6242 535.993C15.4949 536.911 16.0859 538.215 16.5845 538.967C17.3786 540.216 18.2836 540.51 19.484 541.189C21.7926 542.493 20.1858 545.302 22.0511 546.643C23.861 547.928 26.1511 546.128 27.8132 545.431C30.3988 544.329 32.2456 546.643 34.8311 546.459C36.7703 546.312 38.8388 545.798 40.6856 545.21C41.2581 545.027 42.0707 544.678 42.6802 544.935C43.1788 545.137 43.4004 545.743 43.8067 546.073C44.6378 546.734 44.6563 546.11 45.3765 546.147C45.8198 546.165 46.6324 546.808 47.0387 546.991C48.0175 547.432 49.0517 547.744 50.1413 547.579C51.1202 547.432 51.9328 546.881 52.9485 546.973C53.8535 547.065 54.6476 547.542 55.5341 547.763C56.4575 547.983 57.4363 547.891 58.0273 548.717C58.5259 549.434 58.4705 550.168 59.4309 550.48C60.5574 550.847 61.9056 549.874 62.9029 550.168C63.2353 550.26 63.3646 550.792 63.6786 550.866C64.3988 551.049 64.6389 550.407 64.4542 549.782C64.1587 548.773 62.6443 547.781 61.9426 547.065C61.0191 546.128 60.1696 545.008 59.671 543.797C59.3016 542.934 59.3385 541.593 58.5998 540.95C57.9903 540.4 56.8084 540.675 56.4021 539.886C56.1251 539.316 56.3836 538.527 56.0142 537.884C55.6264 537.205 54.8323 536.323 54.1674 535.901C53.5764 535.497 52.7084 535.369 53.7611 534.689C54.5183 534.212 55.0724 535.111 55.6079 534.763C56.162 534.395 55.1832 533.257 55.017 532.945C54.3152 531.604 54.2967 530.319 54.2413 528.832C54.2044 527.859 53.8719 526.518 53.1517 525.784C52.5791 525.178 51.4341 525.233 51.2125 524.315C50.9539 523.305 52.2652 522.883 52.7454 522.295C53.3733 521.542 53.521 520.312 53.6688 519.394C54.0012 517.209 53.9458 514.877 54.9431 512.839C55.7003 511.296 56.8822 510.323 58.6367 510.121C59.4863 510.03 60.5759 510.268 59.9849 509.056C59.5047 508.065 58.2304 508.469 58.212 507.055C58.212 506.027 58.7475 504.539 59.948 505.568C60.6498 506.174 60.1696 507.22 60.6313 507.973C61.5917 509.515 64.2326 507.808 64.9344 506.743C65.6362 505.696 65.784 504.356 66.4673 503.291C67.1321 502.244 68.1848 501.491 68.9605 500.537C70.438 498.756 69.4591 496.883 69.6808 494.863C69.7362 494.386 69.9947 493.945 69.8654 493.504C69.6992 492.953 69.1452 492.678 69.0528 491.962C68.7943 489.648 70.5488 488.106 71.6199 486.27C72.2294 485.241 72.6726 484.14 73.319 483.148C74.2055 481.808 75.4798 480.78 76.6248 479.66C77.696 478.595 78.6194 477.438 79.9122 476.612C80.8171 476.024 81.8883 476.006 82.7563 475.473C83.9567 474.739 83.8828 473.398 84.7509 472.554C86.0067 471.323 88.1121 472.664 89.2756 471.635C89.9958 470.993 88.426 469.836 88.74 468.716C89.0724 467.504 90.0882 467.449 89.7742 466.072C89.4418 464.621 88.7954 464.86 87.6504 465.374C86.3022 465.98 85.0094 465.962 85.8959 464.162C86.5238 462.914 87.6319 462.877 88.6477 462.179C91.0301 460.563 91.381 456.304 90.0143 453.917C89.4972 453.017 88.8508 452.833 87.8351 452.925C86.2837 453.054 85.0833 453.494 83.7351 452.448C82.4977 451.474 81.9621 450.997 80.2631 451.273C79.432 451.401 78.0099 451.97 77.1604 451.53C76.4586 451.162 76.4771 450.318 76.3478 449.657C76.1262 448.537 75.8492 448.206 74.8703 447.692C74.2239 447.362 73.7253 446.921 73.1158 446.517C72.1555 445.874 71.1951 445.636 70.1794 445.213C67.3907 444.075 67.7416 439.595 66.6889 437.373C66.024 435.977 66.4119 434.967 67.0029 433.774C49.6427 433.994 32.2271 435.059 15.0147 437.024C14.8116 437.648 14.5161 438.199 14.1652 438.309L14.0728 438.254Z" fill="#2E434D"/>
<path d="M94.9269 99.0791L98.4728 88.2274C98.5282 88.0438 98.6759 87.9153 98.8606 87.8786C99.8394 87.6582 100.449 86.6667 100.67 85.8772C100.911 85.0509 100.911 84.1695 100.911 83.2331V82.6455C100.911 81.9294 100.966 81.195 101.04 80.4789C99.4331 80.2585 97.734 80.8828 96.6813 82.1314C96.5705 82.2599 96.4043 82.3334 96.2381 82.315C96.0719 82.315 95.9057 82.2048 95.8318 82.0396C95.3886 81.2317 94.3359 80.7543 93.4309 80.9746C93.3386 80.993 93.2278 81.0297 93.1354 81.0664C92.8399 81.1582 92.5075 81.25 92.1197 81.2317C91.2147 81.1399 90.7346 80.4238 90.3283 79.7811C90.0512 79.3404 89.7742 78.9365 89.4233 78.7712C89.1463 78.6427 88.7954 78.6611 88.463 78.6611L83.5689 78.7712L83.218 80.993C83.1626 81.3969 83.0333 82.1498 82.4423 82.5354C82.1099 82.7557 81.7405 82.7924 81.4081 82.7924C81.3527 82.7924 81.2973 82.7924 81.2419 82.7924C79.9306 82.7373 78.6379 82.3517 77.4559 81.7458C77.4189 82.2599 77.3451 82.7924 77.1789 83.3249C77.0127 83.8023 76.791 84.2246 76.5509 84.6286C76.3847 84.9407 76.2 85.2345 76.0708 85.5467C75.8307 86.1342 75.7753 86.887 76.2 87.2726C76.514 87.5664 77.0311 87.5848 77.6036 87.6215C78.1207 87.6582 78.6563 87.6766 79.155 87.8969C80.4847 88.4661 80.9279 90.1003 80.6694 91.3306C80.4108 92.5608 79.6351 93.5707 78.9518 94.452L74.5379 100.126C74.9627 100.181 75.4059 100.291 75.8307 100.511C76.5694 100.897 77.2712 101.742 77.105 102.733C77.0681 102.917 77.0126 103.082 76.9572 103.247C76.9203 103.357 76.8649 103.468 76.8464 103.596C76.7726 104.018 77.105 104.496 77.4559 104.955L79.7829 107.985C79.7829 107.985 79.8937 108.131 79.9306 108.15C79.9491 108.113 80.1153 107.929 80.2077 107.801C80.3 107.691 80.3923 107.581 80.4847 107.489C80.8725 107.085 81.4266 106.901 82.0175 106.975C82.7563 107.048 83.495 107.507 83.9013 108.131C84.4369 108.976 84.4923 109.986 84.4738 110.849C85.4157 110.757 86.3206 110.151 86.727 109.325C86.9116 108.921 87.1333 108.499 87.6134 108.333C87.9274 108.223 88.2413 108.297 88.4445 108.352L92.0273 109.233C92.2674 108.04 92.5814 106.754 92.9877 105.322C93.5787 103.211 94.2805 101.099 94.9453 99.0608L94.9269 99.0791Z" fill="#2E434D"/>
<path d="M72.3033 234.441C72.5433 234.771 72.7834 235.102 72.9312 235.542C73.0605 235.965 73.0605 236.405 73.0605 236.773V256.236C89.922 255.722 93.1355 254.841 93.671 254.437C93.6526 252.343 93.4679 250.213 93.3017 248.139C93.1724 246.578 93.0431 244.944 92.9692 243.346C92.9138 241.84 92.8584 240.316 92.803 238.811C92.7846 238.774 92.7476 238.756 92.7291 238.719C92.6922 238.572 92.7107 238.425 92.7846 238.315C92.7107 236.002 92.6553 233.67 92.5999 231.356C92.4521 223.479 92.4891 215.51 92.6922 207.633C92.6922 206.953 92.7661 206.311 93.1724 205.76C93.3571 205.521 93.5787 205.338 93.7818 205.191C93.9111 205.099 94.0219 205.007 94.1327 204.879C94.576 204.401 94.6314 203.612 94.6498 202.785L94.7791 193.568C94.7791 193.292 94.7791 190.869 93.5233 190.759C93.2647 190.74 92.9508 190.832 92.6183 190.942C92.1197 191.107 91.5472 191.291 90.9562 191.089C90.6976 191.016 90.5499 190.759 90.6053 190.502C90.8454 189.271 91.0301 188.023 90.4022 187.141C89.9774 186.535 89.1832 186.187 88.4999 185.874L81.5374 182.753C81.0757 184.13 80.2815 184.663 79.5613 184.809C78.878 184.956 78.2316 184.773 77.659 184.607L77.2712 184.497C75.4798 184.057 73.5037 184.424 71.9893 185.47C71.8969 185.526 71.7861 185.562 71.6938 185.562C71.5645 185.562 71.4168 185.507 71.3244 185.397C70.7704 184.809 70.2163 184.222 69.6623 183.634C69.6254 183.616 69.5884 183.634 69.5515 183.598C68.979 183.047 68.9051 183.047 68.2218 183.23C67.5938 183.396 66.8736 183.506 66.0056 183.598C65.2484 183.671 64.4912 183.708 63.734 183.744C63.0322 183.781 62.3304 183.818 61.6471 183.873C61.407 183.891 61.1669 183.91 61.0191 184.002C60.6867 184.203 60.6313 184.644 60.5944 185.379C60.5759 185.819 60.5574 186.26 60.4097 186.682C60.3358 186.921 60.2065 187.16 60.0957 187.398C59.9665 187.637 59.8372 187.876 59.8002 188.096C59.7448 188.427 59.8741 188.812 59.9849 189.179L60.1696 189.73C60.1696 189.73 60.2989 189.767 60.3543 189.822C60.502 189.987 60.4836 190.208 60.3912 190.391L62.6813 197.497C63.1061 198.819 63.5862 200.325 63.5124 201.849C63.457 202.767 63.2353 203.667 62.9952 204.566C62.5889 206.164 62.1826 207.67 62.9583 208.881C63.2538 209.322 63.6786 209.689 64.1403 210.093C64.7867 210.626 65.4515 211.195 65.784 212.04C65.9871 212.572 66.024 213.105 66.061 213.619C66.0979 214.115 66.1164 214.592 66.3011 214.978C66.5042 215.437 66.929 215.785 67.3722 216.153L67.7047 216.428C69.3114 217.86 70.401 219.807 70.7704 221.918C70.8443 222.341 70.8997 222.891 70.5672 223.332C70.401 223.571 70.1794 223.699 69.9947 223.809C69.8839 223.883 69.7731 223.956 69.7177 224.03C69.5884 224.195 69.6438 224.507 69.7177 224.856L71.1028 231.191C71.3244 232.201 71.5461 233.229 72.1001 234.074C72.174 234.184 72.2478 234.294 72.3402 234.404L72.3033 234.441Z" fill="#2E434D"/>
<path d="M201.766 161.802C201.101 160.866 201.341 159.727 201.544 158.717L201.636 158.295C201.784 157.542 201.636 156.367 200.953 156.238C200.713 156.183 200.418 156.257 200.104 156.33C199.605 156.44 198.959 156.587 198.386 156.238C198.146 156.092 197.98 155.871 197.832 155.688L197.721 155.559C196.946 154.641 195.579 154.366 194.138 154.164C192.827 153.98 191.59 153.851 190.685 154.457C190.556 154.549 190.389 154.568 190.242 154.512C190.094 154.476 189.965 154.366 189.909 154.219C189.835 154.035 189.688 153.907 189.447 153.833C189.041 153.705 188.45 153.778 188.044 154.017C187.656 154.237 187.324 154.549 186.973 154.88C186.585 155.229 186.197 155.596 185.717 155.89C185.033 156.294 184.147 156.404 183.445 156.165C182.928 156 182.559 155.651 182.356 155.192C182.356 155.192 182.319 155.082 182.319 155.063C182.282 154.953 182.208 154.953 182.005 154.972L179.234 155.229C179.142 156.257 179.05 157.285 178.921 158.313C178.717 160.131 178.44 162.041 177.554 163.748C176.907 165.015 175.966 166.08 175.042 167.109L174.599 167.623C172.494 170.046 170.628 172.69 169.04 175.463C168.283 176.803 167.341 178.474 165.605 178.86C164.903 179.025 164.201 178.915 163.536 178.823C163.296 178.786 163.056 178.75 162.816 178.731C162.484 178.695 161.357 178.658 160.951 179.337C160.637 179.87 160.914 180.549 161.228 181.339C161.431 181.853 161.653 182.404 161.727 182.973C161.856 184.13 161.339 185.195 160.84 186.113L160.489 186.755C159.584 188.353 158.661 190.024 158.587 191.786C158.476 194.339 160.064 196.469 161.727 198.709C162.89 200.27 164.072 201.867 164.737 203.685L164.829 203.942C165.032 204.548 165.236 205.117 165.679 205.374C165.9 205.503 166.196 205.558 166.51 205.594C166.639 205.613 166.75 205.631 166.879 205.649C167.304 205.741 167.692 205.888 168.061 206.053C168.209 205.796 168.523 205.705 168.763 205.851C169.003 205.998 169.095 206.31 168.948 206.549C170.536 207.724 171.607 209.616 172.586 211.36C172.789 211.727 172.974 212.021 173.214 212.186C173.602 212.425 174.119 212.315 174.728 212.186C175.227 212.076 175.744 211.966 176.28 212.039C177.092 212.131 177.72 212.609 178.311 213.049C178.625 213.288 178.921 213.508 179.216 213.655C179.659 213.894 180.176 214.004 180.712 214.151C181.1 214.243 181.488 214.335 181.875 214.481C182.873 214.83 183.741 215.455 184.516 216.024L192.328 221.624C192.661 221.863 193.012 222.12 193.381 222.193C193.437 222.193 193.473 222.193 193.529 222.193C193.196 220.559 192.532 218.925 192.236 217.309C192.051 216.354 191.941 215.179 192.181 214.224C192.402 213.361 193.049 212.609 193.381 211.764C194.138 209.818 193.03 207.743 194.138 205.76C194.637 204.878 195.265 204.438 196.244 204.676C197.296 204.952 198.866 205.723 199.125 204.089C199.291 202.987 198.22 201.922 197.74 201.004C197.315 200.196 196.761 198.764 196.835 197.846C196.927 196.579 198.035 195.459 198.497 194.32C198.903 193.347 198.497 192.374 198.405 191.364C198.275 189.895 198.682 188.426 198.663 186.957C198.663 185.103 198.46 183.964 200.048 182.679C201.359 181.614 202.763 179.998 202.56 178.089C202.486 177.373 201.858 176.969 201.784 176.289C201.673 175.39 202.394 174.82 202.837 174.159C203.65 172.929 202.468 172.617 202.671 171.313C202.837 170.267 203.871 169.863 203.853 168.871C203.853 167.935 202.578 167.2 203.354 166.539C204.277 165.75 206.346 167.402 206.124 165.621C205.995 164.52 204.702 164.152 204.388 163.216C204.388 163.161 204.388 163.124 204.37 163.087C204.333 163.087 204.314 163.087 204.277 163.087C203.372 162.904 202.357 162.702 201.747 161.857L201.766 161.802Z" fill="#2E434D"/>
<path d="M97.18 596.219C96.9214 596.329 96.6259 596.439 96.3304 596.384C95.7764 596.292 95.4624 595.742 95.0192 595.429C94.2066 594.842 93.0431 595.062 92.1566 595.558C91.2701 596.054 90.5314 596.77 89.5895 597.174C87.2441 598.184 84.6216 596.917 82.2022 596.054C75.7753 593.759 68.3141 594.493 62.4597 597.982C62.6628 593.3 61.2038 588.709 60.6313 584.045C59.7264 576.627 61.0376 569.081 60.1327 561.681C59.911 559.937 59.5786 558.192 59.7079 556.448C59.7448 555.842 60.0773 555.071 60.6682 555.199C60.9453 555.254 61.1299 555.493 61.2777 555.713C62.0903 556.87 62.6628 558.174 62.9583 559.533C63.0506 559.937 63.1245 560.359 63.3831 560.689C63.8078 561.222 64.5466 561.314 65.1745 561.607C66.3195 562.14 67.0029 563.517 66.7258 564.747C65.747 563.921 64.1218 563.903 63.2169 564.802C62.3119 565.72 62.4781 567.483 63.6047 568.089C64.3619 568.511 65.3038 568.364 66.1718 568.438C68.074 568.622 69.7731 570.09 70.2348 571.945C70.4564 572.863 70.4195 573.91 70.9551 574.699C71.3798 575.342 72.1186 575.691 72.8019 576.058C74.7595 577.123 76.5694 578.463 78.3239 579.822C82.036 582.705 85.6189 585.753 89.054 588.948C89.8666 589.701 90.7161 590.49 91.7688 590.839C93.0246 591.261 94.4652 591.041 95.6656 591.61C96.0904 591.812 96.4782 592.124 96.9214 592.29C98.4358 592.859 99.6732 590.49 100.32 592.033C101.151 594.052 98.6759 595.576 97.1985 596.201L97.18 596.219Z" fill="#2E434D"/>
<path d="M104.733 593.483C104.364 593.887 104.106 594.438 104.179 594.97C104.253 595.521 104.715 596.017 105.269 596.017C106.1 596.017 106.562 595.007 107.356 594.769C108.095 594.53 108.889 595.026 109.665 594.879C109.997 594.824 110.292 594.64 110.625 594.548C111.124 594.383 111.678 594.401 112.195 594.346C113.358 594.218 114.485 593.685 115.223 592.785C115.408 592.565 115.574 592.235 115.427 591.978C115.353 591.867 115.242 591.794 115.131 591.757C114.171 591.353 113.137 591.959 112.121 592.18C109.517 592.749 106.802 591.206 104.733 593.502V593.483Z" fill="#2E434D"/>
</g>
<defs>
<clipPath id="clip0_1055_376">
<rect width="279" height="598" fill="white"/>
</clipPath>
</defs>
</svg>
