<svg width="299" height="579" viewBox="0 0 299 579" fill="none" xmlns="http://www.w3.org/2000/svg">
<path fill-rule="evenodd" clip-rule="evenodd" d="M63.5026 19.8355L80.3411 0L102.957 4.6045L111.701 18.2587L117.282 17.3222L119.185 0.889582L138.429 1.33785L173.66 40.4698L191.454 43.4384L233.44 71.1992L213.746 109.355L261.433 112.938L279.203 97.8542L285.131 81.1664L298.089 80.3284L299 109.219L261.295 128.243L223.202 170.712L207.187 243.079L226.327 255.927L227.517 264.806L224.062 273.405L233.4 281.71L216.198 303.402L190.241 317.535L155.441 320.121L146.073 321.511L147.358 331.462L139.767 346.237L144.135 354.665L133.542 360.521L102.404 355.577L103.038 379.583L110.338 380.341L122.096 376.097L124.429 389.255L100.145 408.142L101.203 420.431L97.102 433.666L79.9955 437.998L71.8645 447.699L70.3701 461.391L83.3345 473.272L93.5705 473.584L96.3896 479.608L92.1374 493.923L73.34 511.965L69.2047 530.955L54.8359 542.278L57.6606 565.815L65.2356 574.257L61.7988 579L41.2682 571.604L19.6422 573.224L13.2384 547.873L3.67339 552.967L0 527.958L10.8446 503.86L7.77281 494.575L12.6124 484.404L14.8954 461.308L17.8179 442.439L15.7364 438.372L21.2785 432.752L21.0126 426.622L11.105 425.715L6.40768 382.538L5.39136 344.454L8.85452 322.779L16.4483 318.22L11.1063 289.912L21.1554 274.217L17.0611 258.403L26.673 239.547L24.4944 219.797L14.8999 189.007L23.7901 164.784L21.4059 141.755L35.5605 103.445L44.3482 102.239L41.1112 56.6277L60.2426 42.4413L63.5026 19.8355Z" fill="#2E434D"/>
</svg>
