<?xml version="1.0" encoding="UTF-8"?>
<svg id="Capa_2" xmlns="http://www.w3.org/2000/svg" viewBox="0 0 574.99 169.51">
  <defs>
    <style>
      .cls-1 {
        fill: #1c282f;
      }
    </style>
  </defs>
  <g id="Capa_1-2" data-name="Capa_1">
    <g>
      <g id="Lt9QNt.tif">
        <g>
          <path class="cls-1" d="M59.1,59.95c2.09.89,3.63,1.58,5.19,2.19,14.23,5.53,21.48,19.73,19.2,34.32-1.86,11.98-8.08,20.85-18.83,26.19-4.54,2.25-9.62,3.7-14.61,4.72-15.6,3.16-31.34,1.99-47.06.9C.84,128.11,0,127.19,0,124.94.06,85.26.07,45.59,0,5.91,0,3.56.58,2.51,3.04,2.16,16.52.22,30.02-.65,43.63.55c8.08.71,15.66,2.72,22.65,6.98,9,5.48,14.58,17.4,13.04,27.86-1.57,10.7-7.4,18.07-16.98,22.72-.93.45-1.8,1.02-3.24,1.85ZM24.2,90.41h.02c0,6,.03,12-.02,17.99-.02,1.67.58,2.46,2.31,2.43,4.66-.07,9.38.42,13.96-.21,6.32-.87,12.08-3.41,15.4-9.35,5.65-10.1,3.47-25.84-13.07-29.41-5.14-1.11-10.56-.92-15.85-1.4-2.09-.19-2.8.65-2.77,2.7.08,5.75.03,11.5.03,17.24ZM24.2,35.86c0,4.91.05,9.82-.03,14.73-.03,1.73.58,2.33,2.33,2.26,3.49-.14,7,.09,10.48-.16,6.51-.47,15.31-4.08,17.76-12.95,1.84-6.66.21-16.69-9.34-19.99-6.22-2.15-12.59-1.8-19-1.15-1.76.18-2.23.93-2.21,2.54.05,4.91.02,9.82.01,14.73Z"/>
          <path class="cls-1" d="M148.38,116.48c-.59.64-1.22,1.26-1.78,1.93-8.83,10.54-20.07,13.64-33.17,10.47-8.83-2.14-14.15-8.22-17.34-16.41-2.39-6.13-3.28-12.57-3.31-19.08-.1-18.25-.03-36.49-.1-54.74,0-1.96.59-2.59,2.56-2.56,6.33.1,12.66.13,18.99,0,2.21-.05,2.83.65,2.82,2.83-.08,16.16-.03,32.33-.05,48.49,0,5.12.43,10.15,2.42,14.93,4.41,10.6,17.58,9.72,23.21,1.96,2.42-3.34,3.56-7.05,3.55-11.21-.05-18,.03-35.99-.08-53.99-.01-2.49.76-3.08,3.11-3.02,6.16.15,12.33.13,18.49,0,2.13-.04,2.86.5,2.85,2.78-.04,23.58.01,47.16.11,70.73.02,5.25.27,10.49.56,15.73.12,2.14-.26,3.19-2.78,3.09-5.16-.2-10.33-.22-15.49-.02-2.42.1-3.06-.94-3.17-3-.16-2.89-.42-5.78-.64-8.67-.25-.09-.51-.17-.76-.26Z"/>
          <path class="cls-1" d="M366.45,48.23c1.28-1.46,2.53-2.95,3.85-4.37,11.39-12.24,33.6-13.23,44.37.14,4.7,5.84,7.13,12.61,7.54,19.97.45,8.14.46,16.32.51,24.48.08,12.25-.04,24.5.07,36.75.02,2.5-.69,3.31-3.25,3.23-5.99-.19-12-.17-17.99,0-2.37.07-2.96-.75-2.95-2.99.06-16.75.12-33.5-.06-50.25-.04-3.78-.58-7.67-1.57-11.32-3.19-11.71-16.29-12.12-23.22-5.01-4.2,4.31-5.08,9.76-5.08,15.45-.01,16.92,0,33.83,0,50.75q0,3.29-3.27,3.3c-6.82,0-13.65,0-20.78,0-.06-1.18-.16-2.22-.16-3.26-.03-24-.02-48-.09-72-.01-4.83-.22-9.66-.49-14.49-.1-1.81.31-2.56,2.27-2.52,5.41.1,10.83.09,16.25,0,1.7-.03,2.39.59,2.51,2.26.24,3.2.62,6.4.94,9.59.21.09.41.18.62.27Z"/>
          <path class="cls-1" d="M515.85,83.16c.13,8.52-1.72,17.96-6.63,26.69-3.81,6.77-9.18,11.97-16.11,15.43-12.23,6.11-24.85,6.45-37.44,1.43-8.51-3.4-15.05-9.41-19.09-17.71-8.01-16.44-8.18-33.35-1.37-50.08,5.51-13.52,16.05-21.49,30.5-23.98,8.79-1.52,17.4-.89,25.69,2.73,10.37,4.52,16.97,12.47,20.97,22.81,2.64,6.85,3.59,13.99,3.49,22.69ZM491.5,81.04c-.21-2.1-.28-5.21-.86-8.21-.63-3.25-1.47-6.51-2.69-9.58-1.81-4.58-4.61-8.64-9.49-10.3-7.98-2.72-15.95,1.34-19.39,9.15-2.61,5.91-3.78,12.08-3.89,18.42-.16,8.64.81,17.14,5.77,24.61,3.11,4.68,7.49,7.44,13.18,7.08,5.77-.36,9.76-3.76,12.47-8.75,3.64-6.69,4.63-13.98,4.91-22.42Z"/>
          <path class="cls-1" d="M186.93,169.24c-1.8-6-3.45-11.66-5.21-17.28-.7-2.22-.21-3.22,2.14-4.21,9.5-3.98,17.09-10.23,21.2-19.95.69-1.62.86-3.89.31-5.53-2.77-8.19-5.87-16.26-8.83-24.39-2.82-7.73-5.6-15.46-8.4-23.19-3.57-9.83-7.15-19.66-10.71-29.5-1.04-2.87-2.05-5.75-3.23-9.06,2.27,0,4.16,0,6.05,0,6,0,12,.06,18-.03,1.81-.03,2.61.57,3.11,2.36,3.45,12.4,7.1,24.74,10.52,37.15,1.97,7.13,3.64,14.35,5.48,21.51.31,1.19.8,2.33,1.4,4.03.51-1.02.9-1.53,1.03-2.09,2.99-13.05,5.93-26.11,8.94-39.16,1.63-7.04,3.39-14.06,5.06-21.09.43-1.82,1.23-2.78,3.39-2.73,6.58.15,13.16.05,19.75.06.73,0,1.45.09,2.69.18-.9,2.9-1.68,5.56-2.55,8.2-3.56,10.9-7.14,21.8-10.73,32.7-3.83,11.6-7.47,23.26-11.57,34.77-4.26,11.98-9.12,23.72-16.05,34.5-6.75,10.5-15.85,18.01-27.7,22.06-1.23.42-2.59.45-4.09.7Z"/>
          <path class="cls-1" d="M332.29,128.36c-6.84,0-13.4.05-19.96-.09-.59-.01-1.49-1.15-1.68-1.91-.6-2.45-.94-4.96-1.36-7.38-3.2,2.53-5.86,5.24-9.04,7.03-13.12,7.36-32.46,5.54-40.59-10.84-2.64-5.33-3.26-11.1-2.51-17.03,1.73-13.65,10.28-21.36,22.41-26.06,8.04-3.12,16.53-3.67,24.99-4.32,2.11-.16,2.66-.81,2.43-2.89-1.11-10.03-6.4-13.05-16.29-13.26-7.12-.15-14.02,1.56-20.43,4.88-2.4,1.24-2.49,1.11-3.22-1.59-.93-3.45-1.99-6.87-3.07-10.28-.56-1.76-.27-2.85,1.59-3.74,11-5.28,22.59-7.17,34.69-6.24,6.65.52,12.91,2.22,18.38,6.25,6.67,4.93,10.24,11.77,11.43,19.74.86,5.73,1.18,11.58,1.27,17.39.2,11.91.01,23.83.14,35.74.05,4.73.51,9.45.82,14.61ZM307.68,83.56c-6.12-.47-11.49.47-16.71,2.34-5.5,1.96-8.97,5.65-10.2,11.53-1.08,5.16,1.3,11.49,5.65,13.81,6.55,3.48,17.16.27,20.14-8.23,2.2-6.29.58-12.83,1.1-19.44Z"/>
          <path class="cls-1" d="M524.95,128.37c0-1.71,0-3.03,0-4.35-.02-23.75,0-47.51-.1-71.26-.02-4.74-.31-9.5-.69-14.23-.16-1.99.54-2.45,2.34-2.42,5.42.08,10.83.08,16.25,0,1.71-.03,2.32.53,2.39,2.27.18,4.4.55,8.79,1.39,13.38.46-.77.98-1.51,1.37-2.31,3.77-7.63,9.42-12.99,17.94-14.89.33-.07.65-.14.98-.19,7.41-1.09,8.12-.49,8.12,6.86,0,4.67-.07,9.34.03,14,.04,1.86-.48,2.48-2.43,2.27-5.23-.55-10.32-.13-14.84,3-5,3.47-7.43,8.47-8.07,14.31-.46,4.13-.49,8.31-.5,12.47-.06,12.67-.07,25.34.03,38.01.02,2.37-.62,3.18-3.08,3.12-6.9-.16-13.8-.06-21.15-.06Z"/>
        </g>
      </g>
      <g>
        <path class="cls-1" d="M247.71,166.22c1.46,1,3.5,1.71,5.67,1.71,3.88,0,6.26-2.21,6.26-5.4,0-2.91-1.51-4.62-5.26-6.07-4.18-1.48-6.69-3.63-6.69-7.17,0-3.8,3.14-6.58,7.55-6.58,2.44,0,4.29.63,5.17,1.22l-.71,1.54c-.7-.49-2.36-1.23-4.58-1.23-4.19,0-5.62,2.69-5.62,4.73,0,2.88,1.67,4.35,5.38,5.81,4.29,1.73,6.56,3.68,6.56,7.57s-2.7,7.14-8.24,7.14c-2.24,0-4.85-.73-6.2-1.74l.69-1.53Z"/>
        <path class="cls-1" d="M287.66,155.85c0,9.15-5.61,13.67-11.63,13.67-6.39,0-11.33-5.03-11.33-13.15,0-8.52,5.15-13.67,11.65-13.67s11.31,5.1,11.31,13.15ZM266.61,156.31c0,5.85,3.4,11.67,9.54,11.67s9.6-5.6,9.6-12.02c0-5.47-3-11.73-9.53-11.73s-9.61,6.01-9.61,12.08Z"/>
        <path class="cls-1" d="M309.85,168.18c-1.31.66-3.81,1.31-7,1.31-6.28,0-12.29-4.02-12.29-13.23,0-7.71,4.97-13.54,13.17-13.54,3.3,0,5.22.73,6.02,1.14l-.6,1.55c-1.32-.66-3.21-1.13-5.4-1.13-7,0-11.28,4.56-11.28,12.02,0,7.06,4.03,11.61,10.97,11.61,2.23,0,4.38-.45,5.87-1.2l.55,1.48Z"/>
        <path class="cls-1" d="M316.04,143.12v25.97h-1.83v-25.97h1.83Z"/>
        <path class="cls-1" d="M334.55,156.18h-10.38v11.36h11.62v1.55h-13.45v-25.97h12.83v1.55h-11v9.96h10.38v1.55Z"/>
        <path class="cls-1" d="M340.29,143.48c1.99-.33,4.2-.56,6.66-.56,4.73,0,8.31,1.28,10.45,3.55,2.09,2.16,3.24,5.07,3.24,9s-1.04,7.26-3.39,9.84c-2.28,2.5-6.19,3.98-11.2,3.98-2,0-3.88-.04-5.75-.23v-25.58ZM342.12,167.55c1.06.16,2.56.19,4.19.19,8.34,0,12.44-4.66,12.44-12.18.06-6.59-3.6-11.1-11.92-11.1-2.01,0-3.58.19-4.71.41v22.67Z"/>
        <path class="cls-1" d="M367.81,160.01l-3.21,9.08h-1.88l9.39-25.97h1.78l9.35,25.97h-1.9l-3.27-9.08h-10.28ZM377.53,158.47l-3.16-8.68c-.64-1.8-.98-3.1-1.36-4.58h-.1c-.37,1.51-.78,2.86-1.35,4.5l-3.18,8.76h9.14Z"/>
        <path class="cls-1" d="M387.24,143.48c1.99-.33,4.2-.56,6.66-.56,4.73,0,8.31,1.28,10.45,3.55,2.09,2.16,3.24,5.07,3.24,9s-1.04,7.26-3.39,9.84c-2.28,2.5-6.19,3.98-11.2,3.98-2,0-3.88-.04-5.75-.23v-25.58ZM389.07,167.55c1.06.16,2.56.19,4.19.19,8.34,0,12.44-4.66,12.44-12.18.06-6.59-3.6-11.1-11.92-11.1-2.01,0-3.58.19-4.71.41v22.67Z"/>
        <path class="cls-1" d="M423.71,160.01l-3.21,9.08h-1.88l9.39-25.97h1.78l9.35,25.97h-1.9l-3.27-9.08h-10.28ZM433.43,158.47l-3.16-8.68c-.64-1.8-.98-3.1-1.36-4.58h-.1c-.37,1.51-.78,2.86-1.35,4.5l-3.18,8.76h9.14Z"/>
        <path class="cls-1" d="M443.14,169.09v-25.97h1.74l10.12,15.34c2.11,3.25,3.61,5.65,4.87,8.18l.08-.06c-.27-3.49-.3-6.45-.3-10.54v-12.93h1.78v25.97h-1.71l-9.91-15.11c-1.94-2.98-3.71-5.71-5.03-8.4l-.11.06c.21,3.2.24,5.99.24,10.32v13.14h-1.78Z"/>
        <path class="cls-1" d="M488.98,155.85c0,9.15-5.61,13.67-11.63,13.67-6.39,0-11.33-5.03-11.33-13.15,0-8.52,5.15-13.67,11.65-13.67s11.31,5.1,11.31,13.15ZM467.93,156.31c0,5.85,3.4,11.67,9.54,11.67s9.6-5.6,9.6-12.02c0-5.47-3-11.73-9.53-11.73s-9.61,6.01-9.61,12.08Z"/>
        <path class="cls-1" d="M493.57,169.09v-25.97h1.74l10.12,15.34c2.11,3.25,3.61,5.65,4.87,8.18l.08-.06c-.27-3.49-.3-6.45-.3-10.54v-12.93h1.78v25.97h-1.71l-9.91-15.11c-1.94-2.98-3.71-5.71-5.03-8.4l-.11.06c.21,3.2.24,5.99.24,10.32v13.14h-1.78Z"/>
        <path class="cls-1" d="M519.97,143.12v25.97h-1.83v-25.97h1.83Z"/>
        <path class="cls-1" d="M548.17,156.78c-.25-3.89-.56-8.67-.53-11.51h-.11c-.93,2.82-2,5.84-3.5,9.7l-5.45,14.12h-1.28l-5.11-13.8c-1.48-4.05-2.58-7.16-3.36-10.02h-.1c-.07,3.05-.25,7.57-.56,11.88l-.82,11.94h-1.8l1.9-25.97h2.1l5.59,14.97c1.22,3.3,2.14,5.91,2.87,8.42h.09c.66-2.4,1.59-4.91,2.92-8.39l5.79-15h2.2l1.74,25.97h-1.81l-.76-12.31Z"/>
        <path class="cls-1" d="M558.8,160.01l-3.21,9.08h-1.88l9.39-25.97h1.78l9.35,25.97h-1.9l-3.27-9.08h-10.28ZM568.52,158.47l-3.16-8.68c-.64-1.8-.98-3.1-1.36-4.58h-.1c-.37,1.51-.78,2.86-1.35,4.5l-3.18,8.76h9.14Z"/>
      </g>
    </g>
  </g>
</svg>