<?xml version="1.0" encoding="UTF-8"?>
<svg id="Capa_2" xmlns="http://www.w3.org/2000/svg" viewBox="0 0 773.34 234">
  <defs>
    <style>
      .cls-1 {
        fill: #1c282f;
      }
    </style>
  </defs>
  <g id="Capa_1-2" data-name="Capa_1">
    <g id="NBGv04.tif">
      <g>
        <path class="cls-1" d="M313.61,73.01c4.05-.55,7.74-.4,11.12,3.4,3.57,4.01,8.13,7.12,13.13,11.37-.45-4.52-.65-8.34-1.28-12.09-.32-1.89-.26-2.93,1.91-2.88.1,0,.2,0,.3,0q8.11-.38,8.1,7.58c0,5.98,0,11.95,0,17.93,0,3.25,0,6.5,0,10.2-2.51,0-5.65.1-8.79-.04-1.57-.07-1.93-1.15-1.25-2.54,1.38-2.84,1.19-5.34-1.37-7.51-3.91-3.33-7.75-6.75-11.61-10.14-.34.09-.68.19-1.02.28.41,5.64.69,11.3,1.29,16.93.21,1.94.28,3.15-2.11,3.09-1.89-.05-3.79-.11-5.68.02-2.49.17-2.86-.94-2.82-3.23.15-10.72.07-21.44.07-32.36Z"/>
        <path class="cls-1" d="M682.12,140.35c-2.68,4.89-5.29,9.81-8.05,14.65-1.68,2.95-5.06,3.04-6.68.15-2.68-4.79-5.17-9.68-8.11-15.23-.37,1.44-.82,2.43-.84,3.43-.08,4.58,0,9.16-.06,13.73-.04,3.71-2.7,5.51-6,3.98-.58-.27-1.06-1.4-1.07-2.14-.07-10.35-.03-20.7-.06-31.05,0-1.74.67-2.43,2.46-2.51,5.09-.24,5.29-.06,8.15,5.67,2.34,4.69,4.93,9.27,7.47,13.86.33.6,1.02,1,1.54,1.49.48-.52,1.09-.97,1.41-1.57,3.07-5.8,6.06-11.63,9.13-17.43.9-1.7,4.94-2.95,7.16-1.77,1,.53,1.71,2.51,1.74,3.84.15,9.15.09,18.31.07,27.47,0,3.74-2.43,5.51-5.85,4.08-.76-.32-1.4-1.81-1.43-2.79-.14-4.97-.06-9.95-.08-14.93,0-.94-.12-1.88-.19-2.81-.24-.04-.48-.08-.72-.13Z"/>
        <path class="cls-1" d="M597.11,166.83c-3.77,2-8.63,1.19-10.98-2-1.91-2.59-4.03-3.75-7.46-3.49-7.4.55-14.26-3.86-17.62-10.76-3.78-7.76.5-20.09,8.5-23.61,9.34-4.11,20.86-1.24,24.8,9.37,3.05,8.23,1.17,15.07-4.85,21.62,2.51,2.93,5.06,5.89,7.62,8.87ZM587.95,143.48c-.04-6.17-1.83-8.73-7.67-10.96-3.8-1.45-8.56.21-10.62,3.77-1.93,3.33-2.24,6.78-1.37,10.59.96,4.22,5.85,8.72,9.93,8,5.37-.94,10.2-4.33,9.73-11.41Z"/>
        <path class="cls-1" d="M313.62,142.36c0-4.83,0-8.89,0-12.95q0-4.01,3.93-4.02c1.08,0,2.17,0,3.53,0,.12,1.18.31,2.14.31,3.09.02,9.75-.06,19.51.06,29.26.03,2.9-1.36,3.57-3.86,3.54-2.35-.02-4.59-.4-3.91-3.35,1.4-6.07-2.95-9.01-6.38-12.39-2.48-2.44-5.32-4.5-8.52-7.16-.25,1.57-.59,2.73-.61,3.91-.06,4.98.02,9.95-.05,14.93-.04,3.37-.8,4.05-4.06,4.04-3.12,0-4.1-.9-4.11-4.05-.03-9.16-.08-18.31.06-27.47.02-1.42.81-3.83,1.64-4.01,1.59-.35,3.92.03,5.11,1.06,5.56,4.82,10.84,9.96,16.85,15.58Z"/>
        <path class="cls-1" d="M298.57,72.83c2.76,0,5.83-.14,8.86.11.65.05,1.86,1.76,1.67,2.31-2.43,7-.72,14.22-1.29,21.31-.36,4.44-4.47,9.58-8.71,10.92-3.99,1.26-7.69,1.62-11.81.17-5.25-1.85-9.44-6.5-9.7-12.39-.22-4.97-.03-9.95-.22-14.93-.06-1.69-.65-3.37-1.1-5.02-.44-1.59-.14-2.52,1.71-2.51,2.69.02,5.39-.12,8.06.1.67.06,1.81,1.26,1.78,1.89-.19,4.7-.86,9.38-.88,14.07-.01,2.95.34,6.12,1.44,8.81,1.18,2.9,4.49,2.58,6.78,1.75,1.46-.52,3.18-2.74,3.25-4.27.34-7.22.15-14.47.15-22.34Z"/>
        <path class="cls-1" d="M413.61,141.09c0-2.41,0-4.83,0-7.24,0-1.39-.03-2.79.01-4.18.11-3.62.75-4.29,4.06-4.29,3.32,0,4.02.66,4.03,4.29.04,9.25,0,18.5.02,27.75,0,2.71-1.1,3.9-3.95,3.89-2.72-.01-4.48-1.06-4.08-3.72.78-5.2-2.23-8.23-5.57-11.26-3.13-2.83-6.21-5.73-9.67-8.93-.13,1.15-.33,2.14-.33,3.14-.03,5.77-.13,11.54.03,17.3.08,2.98-1.45,3.43-3.9,3.44-2.39,0-3.71-.56-3.68-3.33.11-9.65,0-19.3.1-28.94.01-1.14.68-3.17,1.22-3.23,1.59-.17,3.74-.12,4.84.83,4.65,3.99,8.99,8.34,13.45,12.56.75.71,1.51,1.42,2.26,2.13.39-.07.78-.14,1.17-.21Z"/>
        <path class="cls-1" d="M630.53,108.67c-.2-1.05-.44-1.72-.44-2.4-.03-10.36-.02-20.71-.03-31.07,0-1.63.49-2.67,2.41-2.53,6.19.48,12.53.22,18.51,1.58,4.29.98,7.84,4.47,9.29,9.05.86,2.7,1.8,5.71,1.43,8.4-.81,5.96-2.73,11.45-9.1,14.21-4.08,1.77-8.18,2.78-12.59,2.76-3.08-.02-6.15,0-9.5,0ZM637.77,102.21c4.57.95,8.53.21,11.79-1.98,4.28-2.88,6.29-10.85,2.25-16.84-2.69-3.99-6.76-4.44-11.06-4.59-2.13-.07-3.06.51-3.01,2.79.11,5.26.03,10.52.03,15.78,0,1.65,0,3.3,0,4.84Z"/>
        <path class="cls-1" d="M678.26,90.48c0-4.88.09-9.75-.04-14.63-.07-2.5.87-3.41,3.31-3.2,5.59.49,11.21.73,16.79,1.37,4.09.47,9.68,7.08,10.57,11.06.83,3.72,1.35,7.11.05,10.92-1.47,4.3-3.81,7.54-7.74,9.68-6.72,3.66-14.06,3.02-21.29,2.84-.57-.01-1.55-1.63-1.57-2.53-.15-5.17-.07-10.35-.08-15.52ZM686.21,102.47c5.99.28,11.67,0,14.29-5.83,2.11-4.7,2.07-9.86-1.31-14.32-2.3-3.04-8.37-4.33-12.98-2.92v23.08Z"/>
        <path class="cls-1" d="M498.31,160.79c-6.73,1.5-8.65.51-11.44-5.36-.94-1.99-1.98-4.06-3.47-5.61-1.12-1.17-3.03-1.58-5.3-2.67,0,4.42-.11,7.79.04,11.14.11,2.43-.93,3.16-3.18,2.99-2.15-.16-4.61.42-4.59-3.05.04-8.16,0-16.32.01-24.47.01-9.57-.85-8.25,8.53-8.38,4.5-.06,8.8.28,12.8,2.79,5.48,3.44,5.49,11.34.63,15.37-2.04,1.69-3.16,2.96-.86,5.52,2.18,2.43,3.79,5.41,5.51,8.23.64,1.04.89,2.32,1.32,3.52ZM478.18,141.78c3.32.25,6.68,1.05,8.61-2.02.89-1.42,2.62-3.44.47-5.63-1.84-1.87-4.95-3.67-9.08-2.17v9.82Z"/>
        <path class="cls-1" d="M535.41,86.36c0,2.69-.09,5.38.02,8.06.23,5.72-2.48,10.12-7.22,12.46-5.01,2.48-10.27,2.62-15.71-.58-5.86-3.45-6.41-8.95-7.02-14.4-.56-5.01-.16-10.14-.11-15.21.04-3.42.78-4.03,4.43-4.02,3.2.02,3.88.68,3.91,4.14.05,5.07,0,10.15.03,15.22,0,1.39.29,2.78.26,4.16-.11,4.74,6.71,7.81,10.93,4.1,1.84-1.62,2.85-3.22,2.79-5.75-.14-6.07-.06-12.14-.03-18.21.02-3.2.62-3.5,4.3-3.72,2.83-.17,3.67.93,3.54,3.6-.17,3.38-.04,6.76-.04,10.15h-.07Z"/>
        <path class="cls-1" d="M630.27,137.86c0,3.08.08,6.17-.01,9.25-.32,10.61-10.72,16.37-19.82,13.38-7.41-2.44-9.75-7.91-10.27-14.33-.47-5.73,0-11.53-.14-17.3-.09-3.44,1.98-3.39,4.47-3.54,2.69-.16,3.43.84,3.37,3.4-.13,5.97-.18,11.94.11,17.9.09,1.9,1.04,3.94,2.12,5.57,2.11,3.18,5.6,2.34,8.36,1.58,2.62-.72,3.98-3.43,4.05-6.2.16-6.06.02-12.14.14-18.2.02-1.26.39-3.43,1.02-3.6,1.85-.49,3.92-.29,5.87-.07.35.04.73,1.51.75,2.32.09,3.28.04,6.56.04,9.85h-.06Z"/>
        <path class="cls-1" d="M357.35,130.58c-.74.94-1.29,2.15-2.22,2.65-1.01.55-2.47.82-3.58.55-1.88-.45-3.58-1.6-5.45-2.13-2.97-.85-10.29,2.6-11.35,7.27-1.01,4.45-.54,8.51,1.71,12.45,1.82,3.18,10.91,4.95,13.17,2.26.71-.85.6-2.66.36-3.93-.11-.59-1.39-1.07-2.22-1.39-.62-.24-1.36-.15-2.29-.22v-4.99h11.93c0,4.72.27,9.18-.18,13.56-.12,1.17-2.27,2.47-3.75,3.1-7.73,3.3-19.08,1.37-23.79-5.87-2.98-4.58-5.22-9.34-2.82-15.38,3.79-9.5,9.94-14.08,19.99-13.08,3.9.39,7.94,1.28,10.47,5.14Z"/>
        <path class="cls-1" d="M616.35,99.84c-3.38,0-6.49.28-9.53-.08-3.26-.38-4.37,1.41-5.07,3.96-1.21,4.4-2.51,5.22-7.13,4.88-1.92-.14-2.29-1.28-1.82-2.59,1.46-4.11,3.13-8.16,4.75-12.22,1.77-4.42,3.58-8.82,5.34-13.24.73-1.82,1.31-3.69,2.08-5.5,1.26-2.99,3.96-2.26,6.37-2.41,2.79-.18,3.12,2.29,3.76,3.8,3.17,7.37,6.03,14.87,8.96,22.35.92,2.35,1.83,4.72,2.49,7.15.19.7-.28,2.08-.85,2.39-2.79,1.48-6.42-.05-7.47-2.98-.63-1.75-1.2-3.52-1.88-5.51ZM609.84,81.43c-1.09,2.83-1.9,5.39-3.04,7.79-2,4.17-1.26,5.53,3.27,5.52,3.55-.01,4.5-1.54,3.11-4.73-1.14-2.63-2.09-5.34-3.34-8.57Z"/>
        <path class="cls-1" d="M533.79,125.39c2.56,6.82,5.03,13.66,7.69,20.42,1.66,4.24,3.66,8.34,5.35,12.57.27.68.03,2.12-.49,2.48-2.54,1.8-7.16-.16-8.03-3.24q-1.44-5.11-6.74-5.11c-1.59,0-3.21.21-4.76-.04-3.29-.53-4.36,1.58-5.02,4.05-1.18,4.45-3.43,5.96-7.77,4.56-.63-.2-1.31-2.2-1-2.98,1.63-4.1,3.73-8.02,5.36-12.12,2.22-5.58,4.15-11.28,6.22-16.92.82-2.22,1.86-4.13,4.81-3.7,1.16.17,2.38.03,4.37.03ZM530.15,134.07c-1.38,3.35-2.57,6.09-3.64,8.87-1.38,3.59-.77,4.47,2.98,4.48,1.35,0,2.71,0,4.99,0-1.53-4.71-2.84-8.73-4.34-13.36Z"/>
        <path class="cls-1" d="M460.73,99.85c-3.79,0-7.57-.19-11.31.12-1.07.09-2.22,1.5-2.96,2.56-.69.99-.81,2.36-1.34,3.49-1.04,2.23-4.86,3.7-6.83,2.3-.74-.53-1.09-2.6-.69-3.6,2.71-6.84,5.74-13.55,8.5-20.37,1.27-3.12,2.02-6.45,3.33-9.55.4-.94,1.82-1.84,2.9-2.03,4.28-.75,5.7,0,7.47,4.32,1.77,4.31,3.05,8.81,4.75,13.15,1.72,4.4,3.79,8.67,5.47,13.09.52,1.37.88,3.53.17,4.42-.7.87-2.95,1.02-4.32.67-1.15-.29-2.32-1.57-2.94-2.71-.94-1.7-1.4-3.66-2.2-5.86ZM454.49,82.29c-.53.49-1.35.92-1.61,1.57-1.21,3.03-2.32,6.1-3.29,9.21-.11.37.87,1.48,1.45,1.57,1.45.24,2.97.11,4.46.09,2.77-.04,3.46-1.43,2.3-4.02-1.19-2.66-2.15-5.42-3.32-8.42Z"/>
        <path class="cls-1" d="M757.68,125.39c4.65-1.4,4.15,3.37,5.21,5.7,3.25,7.12,5.97,14.48,8.85,21.77.64,1.62,1.32,3.28,1.56,4.98.15,1.04-.17,2.76-.88,3.2-1.8,1.11-5.66-.01-6.41-1.54-.6-1.22-1.5-2.52-1.49-3.77.03-3.26-1.87-3.35-4.27-3.24-2.48.12-4.97.08-7.46,0-2.06-.06-3.17.44-3.54,2.87-.72,4.72-2.68,6.1-6.76,5.92-1.89-.09-2.44-.97-2.29-2.64.04-.4.01-.82.15-1.18,1.62-4.14,3.28-8.25,4.9-12.39,1.83-4.68,3.87-9.3,5.37-14.08,1.33-4.23,2.54-5.61,7.04-5.6ZM757.16,135.42c-.59.68-1.39,1.26-1.71,2.04-.93,2.26-1.55,4.63-2.49,6.88-.96,2.31-.63,2.97,1.96,3.06,1.29.04,2.58.05,3.87,0,2.27-.08,2.99-1.48,2.03-3.51-1.19-2.52-2.22-5.11-3.66-8.47Z"/>
        <path class="cls-1" d="M737.38,102.46c.11,6.1.1,6.12-5.37,6.12-4.68,0-9.36-.08-14.03.03-2.37.05-3.43-.72-3.41-3.25.09-9.85.09-19.71,0-29.56-.02-2.32.78-3.19,3.11-3.15,5.67.1,11.35.07,17.02,0,1.94-.02,3.03.46,2.85,2.69-.16,1.98-.07,3.76-2.99,3.54-2.97-.22-5.97.06-8.95-.08-2.25-.1-3.26.57-3.19,3.01.18,6.67-.72,5.64,5.7,5.74.9.01,1.79,0,2.69,0,3.31.03,4.57,1.79,3.31,4.89-.24.59-1.29,1.14-2.01,1.19-2.28.16-4.58.15-6.86.05-1.95-.09-2.83.45-2.84,2.65-.04,6.13-.14,6.13,5.95,6.13,2.96,0,5.91,0,9.03,0Z"/>
        <path class="cls-1" d="M371.13,131.49v8.79c3.13,0,6.09.03,9.05-.01,1.67-.02,2.79.53,2.55,2.4-.21,1.63-.22,3.59-2.54,3.68-2.88.11-5.76.03-9.17.03,0,2.51-.16,4.86.11,7.16.07.6,1.48,1.45,2.3,1.48,4.06.15,8.13.07,12.11.07,1.07,4.67-.01,6.16-4.21,6.17-4.98.02-9.96-.08-14.94.04-2.27.05-3.26-.69-3.24-3.06.07-10.06.05-20.12.01-30.18,0-1.79.48-2.73,2.54-2.7,5.87.11,11.75.07,17.63.02,1.8-.02,2.92.48,2.72,2.51-.17,1.75.09,3.7-2.7,3.63-3.96-.11-7.92-.03-12.22-.03Z"/>
        <path class="cls-1" d="M451.16,131.67v8.6c2.92,0,5.67.02,8.43,0,1.81-.02,3.35-.02,3.29,2.57-.06,2.47-.84,3.71-3.5,3.58-2.65-.14-5.32-.03-8.36-.03,0,2.5-.02,4.65,0,6.81.02,1.86,1.32,1.9,2.7,1.9,3.96-.03,7.92,0,11.8,0,1.01,4.62-.12,6.15-4.27,6.17-4.98.02-9.95-.09-14.93.04-2.29.06-3.2-.65-3.17-3.04.09-9.95.08-19.9,0-29.85-.02-2.26.64-3.15,3.07-3.07,5.57.17,11.14.08,16.72.04,1.71-.01,3.23-.08,3.05,2.38-.16,2.09-.55,3.77-3.16,3.75-3.28-.03-6.57,0-9.85,0-.48,0-.96.08-1.83.16Z"/>
        <path class="cls-1" d="M378.53,98.93c-.55,2.85-1.01,5.72-1.75,8.52-.14.53-1.43,1.05-2.2,1.06-7.05.08-14.11.05-21.17.06-2.04,0-2.32-.98-1.65-2.68.41-1.04.91-2.14.92-3.22.08-7.85.08-15.7,0-23.55-.01-1.21-.42-2.47-.89-3.61-.74-1.77-.34-2.68,1.62-2.7,2.68-.02,5.37,0,8.05,0,1.72,0,1.91,1,1.67,2.39-.35,2-.89,4-.94,6.01-.13,5.36-.12,10.73.03,16.1.02.86,1.02,2.42,1.59,2.43,4.16.09,8.33-.11,12.49-.3.48-.02.93-.56,1.39-.86.27.12.54.23.81.35Z"/>
        <path class="cls-1" d="M480.38,91c.62,2.06.85,4.37,1.93,6.15,3.26,5.35,8.47,6.46,13.87,3.22,1.63-.98,3.02-1.22,4.46.36,1.95,2.14.61,5.07-3.04,6.5-7.44,2.91-14.43,2.08-20.17-3.52-2.07-2.02-3.27-5.28-4.06-8.19-.82-2.98-1.17-6.02-.29-9.42,1.47-5.67,6.07-10.59,11.6-12.43,4.53-1.51,8.57-.89,12.71.44,1.31.42,3.06,1.77,3.21,2.88.18,1.35-1.03,2.96-1.88,4.29-.2.31-1.52.2-2.14-.11-2.91-1.43-5.6-2.65-9.12-1.41-4.03,1.42-6.29,3.72-6.49,8.11-.05.99-.11,1.98-.16,2.97-.14.05-.28.09-.42.14Z"/>
        <path class="cls-1" d="M709.41,143.3c.33-7.49,3.64-13.05,10.06-16.22,5-2.47,10.48-2.82,15.68.1.34.19.56.63.91.75,1.53.5,3.39.85,2.33,3.1-1.43,3.04-3.22,3.75-5.62,2.52-7.91-4.07-14.88.37-15.08,9.41-.08,3.56.78,6.64,3.22,9.16,2.76,2.85,9.02,3.41,12.78.89,2.31-1.55,3.52-.19,4.69,1.13,1.37,1.56.28,2.9-1.01,3.94-8.31,6.66-23.12,3.01-25.98-7.47-.67-2.44-1.32-4.88-1.98-7.32Z"/>
        <path class="cls-1" d="M413.1,90.5c0-4.88.05-9.76-.02-14.63-.03-2.23.75-3.26,3.12-3.22,5.77.1,11.55.1,17.32,0,2.17-.04,2.48,1.11,2.38,2.81-.1,1.63.38,3.51-2.39,3.4-3.38-.13-6.77.01-10.15-.03-1.74-.02-2.55.64-2.52,2.46.12,7.76-.93,6.53,6.33,6.65,1.19.02,2.41-.11,3.58.05,2.03.27,3.5,1.13,3.49,3.57,0,2.45-1.61,3.02-3.49,3.13-2.38.14-4.78.07-7.17.06-1.97,0-2.87.81-2.77,2.91.14,2.68-.03,5.38.05,8.06.07,2.18-.81,3.09-3.02,2.88-2.08-.2-4.72.65-4.73-2.86-.02-5.08,0-10.15,0-15.23h0Z"/>
        <path class="cls-1" d="M541.58,90.5c0-4.57-.03-9.15,0-13.72.03-3.47.74-4.11,4.27-4.11,3.54,0,4.34.72,4.35,4.05.02,6.86,0,13.72,0,20.58q0,4.32,4.47,4.33c1.89,0,3.85-.3,5.64.12,1.28.3,2.96,1.38,3.33,2.48.59,1.78-1.84,4.31-3.67,4.32-4.87.03-9.74-.08-14.61.05-2.78.07-3.75-1.38-3.78-3.8-.05-4.77-.01-9.54-.02-14.31Z"/>
        <path class="cls-1" d="M574.3,93.37c0-3.88-.06-7.75.02-11.63.04-1.98-.58-3-2.73-2.81-1.38.12-2.78.01-4.17.02-1.92.01-3.5-.1-3.47-2.8.03-2.59,1-3.53,3.54-3.51,7.45.09,14.91.04,22.36.02,1.5,0,2.94.07,2.82,2.08-.11,1.84.09,4.02-2.67,4.17-1.69.09-3.39.16-5.06.01-2.25-.2-2.91.72-2.88,2.9.1,7.65-.04,15.3.08,22.95.04,2.62-.37,4.07-3.52,3.86-3.93-.27-4.29-.35-4.31-3.94-.02-3.78,0-7.55,0-11.33Z"/>
        <path class="cls-1" d="M696.76,143.34c0-4.96.1-9.93-.04-14.89-.06-2.31.67-3.13,3.03-3.11,4.96.06,4.96-.06,4.97,4.85,0,9.04.04,18.07-.05,27.11-.01,1.26-.47,3.45-1.1,3.6-1.96.45-4.1.24-6.15,0-.31-.03-.62-1.54-.63-2.37-.06-5.06-.03-10.13-.03-15.19Z"/>
        <path class="cls-1" d="M276.12,125.64q7.56-.81,7.56,6.11c0,8.65-.13,17.3.06,25.95.08,3.33-1.5,3.6-4.18,3.67-2.89.07-3.76-.85-3.71-3.73.16-9.54.05-19.09.07-28.63,0-1.07.12-2.14.2-3.36Z"/>
        <path class="cls-1" d="M501.95,143.33c0-4.97.12-9.94-.05-14.91-.1-2.92,1.42-3.21,3.71-3.07,2.07.13,4.2-.41,4.15,2.97-.14,10.04-.12,20.08,0,30.12.03,2.91-1.64,2.84-3.67,2.82-2.16-.02-4.26.24-4.18-3.03.13-4.97.03-9.94.03-14.91Z"/>
        <path class="cls-1" d="M435.59,125.39c.16,1.4.38,2.47.38,3.54.03,9.56.05,19.12-.03,28.68-.01,1.17-.49,3.22-1.07,3.34-1.88.4-3.93.19-5.88-.04-.31-.04-.68-1.37-.68-2.1-.04-10.36,0-20.71-.05-31.07,0-1.8.67-2.52,2.48-2.38,1.48.11,2.97.02,4.87.02Z"/>
        <path class="cls-1" d="M636.33,143.4c0-4.97.09-9.94-.03-14.9-.07-2.89,1.57-3.14,3.83-3.15,2.27-.01,4.14-.01,4.12,3.09-.07,9.93-.04,19.87-.02,29.8,0,3.4-2.35,2.95-4.56,3.04-2.38.09-3.44-.77-3.38-3.28.12-4.86.04-9.73.04-14.6Z"/>
        <path class="cls-1" d="M396.94,96.77c-3.86-.02-6.38-2.62-6.35-6.53.03-3.56,2.73-6.02,6.55-5.96,3.67.05,6.55,2.6,6.43,6.19-.11,3.14-2.38,6.45-6.62,6.3Z"/>
        <path class="cls-1" d="M636.64,123.18c3.75-7.21,8.36-9.36,13.33-6.36-5.77,6.84-8.05,7.96-13.33,6.36Z"/>
        <path class="cls-1" d="M502.1,123.36c3.03-7.46,6.56-8.83,13.44-6.72-3.56,5.27-8.54,7.82-13.44,6.72Z"/>
        <g>
          <path class="cls-1" d="M233.93,117.15c.92,64.84-53.63,116.81-116.17,116.85C51.91,234.05-.49,180.9,0,116.02.49,52.53,52.25-.29,117.82,0c62.85.28,116.86,51.63,116.11,117.15ZM160.57,136.58c.58-.82.99-1.63,1.6-2.21,4.52-4.33,7.36-9.36,6.96-15.85-.13-2.18.3-4.48-.25-6.54-.82-3.11-1.65-6.55-3.56-8.99-5.46-6.98-12.9-9.82-21.85-9.34-6.75.37-12.12,3.14-16.46,8.02-4.31,4.84-5.14,10.79-5.01,17.08.11,5.16,1.65,9.75,4.93,13.55,5.06,5.86,11.63,8.76,19.41,7.97,3.91-.4,6.65.59,8.99,3.87,1.41,1.98,3.51,4.11,5.71,4.74,2.82.81,6.05.2,9.86.2-2.64-5.29-7.05-8.27-10.33-12.48ZM77.2,140.07c.12-1.24.31-2.4.32-3.57.04-3.48,0-6.96.02-10.44.03-3.7.26-3.93,3.84-3.95,3.28-.01,6.57.05,9.84-.05.76-.03,2.11-.55,2.16-.96.23-1.95.45-4.05-.1-5.87-.19-.62-2.62-.63-4.04-.78-1.18-.12-2.38-.04-3.58-.02-7.96.11-8.26.59-8.13-8.18.06-4.23.63-4.81,4.87-4.82,4.64,0,9.29,0,13.83,0,.5-2.76.92-5.05,1.36-7.47h-29.61v46.11h9.22ZM113.62,117.33c0-5.77,0-11.54,0-17.3,0-6.26,0-6.09-6.34-6.32-3.04-.11-3.63,1.03-3.6,3.76.12,12.03.05,24.06.05,36.1,0,6.74,0,6.6,6.81,6.74,2.64.05,3.16-.96,3.12-3.29-.11-6.56-.04-13.13-.04-19.69Z"/>
          <path class="cls-1" d="M159.12,116.35c-.03,5.84-1.58,10.79-6.71,13.86-1.64.98-3.83,1.29-5.8,1.46-7.56.68-12.71-2.92-13.92-10.98-.64-4.32-.77-8.86,1.76-12.62,1.47-2.18,3.78-4.53,6.16-5.2,3.17-.88,7.03-.97,10.12.05,2.49.82,4.75,3.49,6.25,5.88,1.33,2.13,1.47,5,2.14,7.54Z"/>
        </g>
      </g>
    </g>
  </g>
</svg>