<?xml version="1.0" encoding="UTF-8"?>
<svg id="Capa_2" xmlns="http://www.w3.org/2000/svg" viewBox="0 0 290.13 234">
  <defs>
    <style>
      .cls-1 {
        fill: #1c282f;
      }
    </style>
  </defs>
  <g id="Capa_1-2" data-name="Capa_1">
    <g>
      <path class="cls-1" d="M149.49,66.3V28.22c5.69,4.46,11.14,8.72,16.59,12.99.3-.21.61-.41.91-.62,0-3.07.06-6.14-.05-9.21-.02-.59-.57-1.27-1.04-1.73-7.11-6.97-14.26-13.92-21.4-20.86-.12-.12-.37-.11-.63-.18-3.18,3.28-6.3,6.66-9.59,9.87-3.61,3.51-7.25,7.01-11.14,10.21-1.85,1.52-2.69,3.03-2.51,5.37.16,2.09.03,4.2.03,7.24,6.9-3.5,11.79-8.53,17.47-13.14v37.99c-11.51-5.68-22.92-11.32-34.63-17.1,4.82-1.91,9.36-3.72,13.9-5.52-.06-.37-.12-.74-.17-1.11-3.59-1.05-6.24-4.36-11.12-2.14-5.16,2.35-10.96,3.29-16.48,4.85-.65.18-1.29.38-1.77.52,1.97,6.71,3.74,13.29,5.92,19.74.4,1.18,2.4,1.88,3.74,2.64,1.12.63,2.37,1.04,4.63,2-.81-4.98-1.51-9.19-2.26-13.81,5.63,2.79,11.03,5.46,16.42,8.14,6.77,3.36,13.56,6.67,20.26,10.17,1.01.53,1.54,1.98,2.3,3-1,.59-1.93,1.5-3,1.71-13.14,2.57-26.31,5.03-39.47,7.51-.36.07-.73.09-1.22.14,2.14-4.25,4.19-8.32,6.31-12.54-5.29-1.11-7.67.04-10.28,3.82-3.2,4.64-6.62,9.12-10.07,13.58-1.22,1.58-1.26,2.26.64,3.39,5.53,3.27,10.92,6.78,16.28,10.32,1.97,1.3,5.51,1.07,9.12-1.22-3.49-3.16-6.88-6.22-10.65-9.62,14.21-2.58,28.16-5.11,42.35-7.69v62.11c-4.07-.63-7.94-1.02-11.71-1.86-21.47-4.75-38.54-16.05-50.47-34.65-8.2-12.79-11.81-26.93-10.78-42.07,1.71-25.05,13.78-44.26,34.69-57.53C121.18-.15,143.67-3.33,167.13,3.51c25.23,7.36,43.38,23.14,51.99,48.16,7.8,22.67,4.59,44.51-9.34,64.21-13.85,19.58-33.37,29.82-56.94,32.77-.7.09-1.41.11-2.11.11-.5,0-.99-.07-1.73-.13v-61.72c14.05,2.54,27.98,5.06,42.34,7.66-3.65,3.36-7.03,6.48-10.5,9.68,4.16,2.66,6.92,2.39,10.21.14,5.45-3.74,11.1-7.19,16.98-10.96-1.39-1.71-3.09-3.63-4.6-5.69-2.38-3.25-4.71-6.54-6.92-9.91-2.28-3.48-4.96-4.6-10.12-3.5,2.16,4.21,4.25,8.28,6.48,12.62-5.51-1.04-10.95-2.07-16.39-3.08-8.21-1.54-16.43-3.03-24.63-4.66-.93-.19-2.47-1.26-2.41-1.74.15-1.05.92-2.42,1.83-2.88,9.42-4.82,18.91-9.49,28.39-14.2,2.7-1.34,5.39-2.68,8.49-4.23-.84,4.61-1.61,8.81-2.41,13.21,6.21-.85,8.06-2.53,9.44-7.41,1.53-5.39,3.31-10.72,5.05-16.3-3.86-1.02-7.72-2.03-11.58-3.08-1.84-.5-3.94-.66-5.46-1.67-4.76-3.15-8.49-.39-13.03,1.78,4.49,3.28,9.51,4.23,14.43,6.27-11.76,5.81-23.26,11.5-35.09,17.35Z"/>
      <path class="cls-1" d="M290.13,223.72c-3.33,4.31-7.67,6.86-12.81,8.1-5.27,1.27-9.12-.91-12.31-5.02-2.92-3.78-3.05-3.72-6.97-.73-6.65,5.08-13.96,7.86-22.49,7.07-7.55-.69-11.96-3.38-13.23-8.52-1.54-6.26,1.36-13.89,7.77-17.31,8.42-4.49,17.29-8.13,25.97-12.13.64-.29,1.3-.53,1.96-.79,3.74-1.45,6.04-3.77,5.52-8.19-.42-3.58-.13-7.28-.86-10.79-1.04-4.99-4.78-7.77-9.74-6.87-3.96.72-7.93,2.26-11.44,4.24-1.89,1.07-3.29,3.68-4.09,5.89-1.49,4.1-6.55,8.55-10.94,8.85-3.86.27-5.29-1.76-3.61-5.29,2.38-5.02,6.44-8.5,11.14-11.19,9.08-5.19,18.67-7.86,29.28-5.9,8.2,1.51,12.44,5.8,12.52,14.07.11,10.89-.14,21.78-.22,32.67-.02,2.21-.12,4.45.13,6.64.7,6.33,5.05,8.25,10.19,4.45,1.68-1.24,2.92-1.78,4.24.75ZM263.49,206.96s0,0,.01,0c.09-1.71.19-3.42.26-5.13.16-3.92-1.06-4.73-4.68-2.98-4.44,2.14-9,4.1-13.19,6.66-3.29,2.01-6.61,4.39-9.01,7.35-4.52,5.56-2.36,10.84,4.63,12.64,9.94,2.55,21.37-5.73,21.83-15.82.04-.91.09-1.81.13-2.72Z"/>
      <path class="cls-1" d="M161.01,198.8c4.94,0,9.89-.06,14.83.06.91.02,1.79.78,2.69,1.2-.76.65-1.51,1.3-2.27,1.94-.07.06-.19.04-.29.06-7.73,1.73-7.78,1.81-7.65,9.72.06,3.83.05,7.67.09,11.5.03,2.54-1.21,4.22-3.51,5.1-12.27,4.68-24.77,6.33-37.64,2.7-20.85-5.88-30.8-26.24-21.97-45.7,4.99-11.01,14.39-16.78,25.83-19.5,10.02-2.39,20.03-1.66,30.03.25,1.73.33,2.9.95,3.35,2.84.68,2.82,1.71,5.56,2.33,8.38.15.66-.69,2.15-1.17,2.19-.89.08-2.36-.36-2.72-1.04-4.75-9.02-13.1-10.66-21.92-10.01-13.95,1.02-21.97,8.82-24.07,22.76-1.33,8.85-.56,17.49,4.06,25.49,6.28,10.87,19.34,14,29.74,11.71,2.22-.49,3.57-1.77,3.56-4.2-.02-5.64.07-11.28-.06-16.92-.06-2.88-1.87-4.3-4.69-4.52-1.31-.1-2.69-.08-3.88-.54-.92-.36-1.57-1.38-2.35-2.11.85-.43,1.69-1.2,2.55-1.22,5.04-.12,10.09-.06,15.13-.06v-.08Z"/>
      <path class="cls-1" d="M42.1,234c-10.92-.72-21.1-2.81-30.02-9.46-14.07-10.49-16.26-33.24-4.4-46.34,8.09-8.94,18.63-12.38,30.15-13.56,8.52-.87,16.92.25,25.21,2.14.89.2,1.99,1.57,2.15,2.53.53,3.07.77,6.2.87,9.32.03.81-.85,2.3-1.36,2.32-.92.04-2.48-.57-2.74-1.29-4.28-11.71-20.94-14.27-30.8-7.89-17.72,11.45-18.9,31.8-10.13,46.16,5.87,9.61,19.53,14.16,30.07,10.26,4.9-1.82,7.67-5.67,9.89-10.09.45-.9.68-2.01,1.35-2.68.75-.74,1.89-1.07,2.86-1.58.4.88,1.14,1.77,1.13,2.64-.05,2.72-.53,5.43-.57,8.14-.04,3.62-1.88,5.62-5.26,6.23-6.12,1.11-12.27,2.1-18.4,3.13Z"/>
      <path class="cls-1" d="M195.31,175.78c1.74-.87,3.15-1.38,4.35-2.21,3.06-2.12,5.92-4.53,9.05-6.53,2.82-1.8,6.03-2.1,9.33-1.34,3.99.92,5.91,3.32,5.64,7.28-.24,3.6-1.99,5.51-5.32,5.82-4.18.38-7.07-1.48-7.79-5.43-.45-2.47-1.87-2.68-3.69-2.15-1.12.33-2.24.98-3.12,1.75-5,4.38-8.53,9.2-8.04,16.61.62,9.45.17,18.96.22,28.45,0,1.5.16,3.02.39,4.51.43,2.85,2.06,4.52,5.01,4.76,1.21.1,2.41.3,3.61.33,1.79.04,2.97.68,2.86,2.66-.12,2.15-1.55,2.09-3.24,2.02-6.73-.24-13.47-.44-20.21-.44-2.5,0-4.99.77-7.5.84-.87.02-2.29-.83-2.56-1.59-.49-1.4,0-2.81,1.95-2.99.9-.08,1.78-.34,2.68-.49,2.46-.43,4.04-1.79,4.38-4.32.25-1.89.51-3.81.52-5.71.06-10.49.08-20.99.03-31.48-.03-6.08-.82-6.98-6.75-8.93-.69-.22-1.59-1.14-1.59-1.73,0-.58.93-1.51,1.61-1.7,5.56-1.55,10.58-3.86,14.26-8.57.48-.61,2.01-.7,2.95-.52.44.09.89,1.39.92,2.15.11,2.69.04,5.39.04,8.96Z"/>
      <path class="cls-1" d="M86.01,165.55c4.54,0,9.07-.05,13.61.05.83.02,1.64.69,2.46,1.05-.71.67-1.4,1.88-2.15,1.91-5.99.27-8.05,2.17-8.13,9.92-.15,14.32-.04,28.64-.02,42.95,0,1.2.25,2.4.34,3.6.19,2.52,1.6,3.79,4.06,4.04,1.3.13,2.64.21,3.88.58.59.18,1.01.96,1.5,1.47-.55.43-1.1,1.23-1.65,1.24-9.27.08-18.55.08-27.82,0-.56,0-1.1-.8-1.66-1.23.49-.51.98-1.03,1.49-1.53.06-.06.19-.05.29-.05,8.36-.32,7.69-2.91,7.76-9.24.16-14.62.08-29.24-.18-43.85-.1-5.78-1.44-6.77-7.16-7.81-.99-.18-1.84-1.15-2.75-1.75,1.04-.45,2.07-1.24,3.13-1.28,4.33-.15,8.67-.06,13-.06,0-.01,0-.02,0-.04Z"/>
    </g>
  </g>
</svg>