<?xml version="1.0" encoding="UTF-8"?>
<svg id="Capa_2" xmlns="http://www.w3.org/2000/svg" viewBox="0 0 743.69 145.58">
  <defs>
    <style>
      .cls-1 {
        fill: #1c282f;
      }
    </style>
  </defs>
  <g id="Capa_1-2" data-name="Capa_1">
    <g>
      <path class="cls-1" d="M.09,103.99c0-6.98-.24-13.98.06-20.95.44-10.04,4.85-17.65,14.64-21.34,4.99-1.88,7.34-6.29,10.15-10.17,4.48-6.19,8.58-12.65,12.83-19,3.42-5.11,6.78-10.26,10.27-15.32,1.44-2.09,1.29-3.54-1.02-4.72-2.46-1.26-4.96-2.49-7.3-3.97-1.47-.93-2.34-.66-3.24.64-1.79,2.57-3.66,5.08-5.41,7.67-.78,1.16-1.47,2.4-2.88,2.85-1.56.49-3.21.33-4.17-1.03-.82-1.16-.72-2.62.16-3.94,2.94-4.41,5.62-9.01,8.84-13.2,1.74-2.26,4.55-1.6,6.87-.41,4.5,2.3,8.79,5.08,13.43,7,6.9,2.86,13.14,6.97,19.95,9.98,3.12,1.38,4.27,4.03,2.52,6.84-2.45,3.94-5.16,7.73-7.94,11.45-1.31,1.75-3.3,2.85-5.41,1.38-2.25-1.57-1.85-3.64-.42-5.7,1.35-1.95,2.61-3.96,3.87-5.97,1.1-1.76,1.77-3.25-1.11-4.19-1.9-.62-3.61-1.89-5.34-2.99-2.13-1.35-3.67-.68-4.95,1.21-8.28,12.23-16.58,24.46-24.83,36.72-1.28,1.91-1.21,2.83,1.64,3.5,13.08,3.07,18.15,13.08,17.43,24.97-.11,1.83-1.31,2.85-2.97,2.78-1.94-.08-3.15-1.45-3.3-3.36-.22-2.83-.9-5.51-1.81-8.19-3.09-9.15-11.41-11.04-19.53-9.76-9.4,1.48-13.71,8.78-13.85,17.06-.24,13.53-.12,27.06-.06,40.59.04,8.12,6.54,13.81,15.32,14.69,10.74,1.09,17.09-4.68,19.09-15,.02-.11.02-.22.04-.32.48-2.49.23-5.64,4.16-5.32,2.16.18,3.34,2.84,2.64,6.46-1.45,7.45-4.58,14.03-11.64,17.67-11.45,5.9-28.8,3.51-35.25-10.76-1.13-2.49-1.5-4.93-1.5-7.54,0-6.77,0-13.53,0-20.3Z"/>
      <g>
        <g>
          <path class="cls-1" d="M99.81,126.66c-.5,0-.93-.18-1.29-.54-.36-.36-.54-.79-.54-1.29v-43.81c0-.5.18-.93.54-1.29.36-.36.79-.54,1.29-.54h13.56c.5,0,.93.18,1.29.54.36.36.54.79.54,1.29v31.74h18.78c.5,0,.93.18,1.29.54.36.36.54.79.54,1.29v10.24c0,.5-.18.93-.54,1.29-.36.36-.79.54-1.29.54h-34.18Z"/>
          <path class="cls-1" d="M161.38,127.34c-4.43,0-8.31-.68-11.63-2.03-3.32-1.36-5.95-3.4-7.87-6.14-1.92-2.73-2.97-6.11-3.15-10.14-.05-1.85-.07-3.82-.07-5.9s.02-4.09.07-6.04c.18-3.98,1.22-7.35,3.12-10.1s4.52-4.86,7.87-6.31c3.35-1.45,7.23-2.17,11.66-2.17s8.32.72,11.66,2.17c3.34,1.45,5.98,3.55,7.9,6.31,1.92,2.76,2.95,6.13,3.09,10.1.09,1.94.14,3.96.14,6.04s-.05,4.05-.14,5.9c-.18,4.02-1.23,7.4-3.15,10.14-1.92,2.74-4.54,4.78-7.87,6.14-3.32,1.36-7.2,2.03-11.63,2.03ZM161.38,114.11c1.49,0,2.69-.44,3.59-1.32.9-.88,1.38-2.27,1.42-4.17.09-1.94.14-3.86.14-5.76s-.05-3.77-.14-5.63c-.05-1.27-.28-2.31-.71-3.12-.43-.81-1.01-1.41-1.73-1.8-.72-.38-1.58-.58-2.58-.58s-1.8.19-2.54.58c-.75.39-1.33.98-1.76,1.8-.43.81-.67,1.85-.71,3.12-.05,1.85-.07,3.73-.07,5.63s.02,3.82.07,5.76c.09,1.9.58,3.29,1.46,4.17.88.88,2.07,1.32,3.56,1.32Z"/>
          <path class="cls-1" d="M210.07,127.34c-5.02,0-9.15-.68-12.41-2.03s-5.7-3.14-7.32-5.36c-1.63-2.21-2.49-4.56-2.58-7.05,0-.41.15-.76.44-1.05.29-.29.64-.44,1.05-.44h12.88c.72,0,1.28.1,1.66.3.38.2.8.49,1.25.85.45.32.92.6,1.39.85s1.02.43,1.63.54,1.28.17,2,.17c1.54,0,2.77-.17,3.7-.51.93-.34,1.39-.8,1.39-1.39,0-.54-.26-.99-.78-1.36-.52-.36-1.41-.69-2.68-.98-1.27-.29-3.03-.58-5.29-.85-3.57-.5-6.67-1.33-9.29-2.51-2.62-1.17-4.64-2.79-6.07-4.85-1.42-2.06-2.14-4.58-2.14-7.56s.87-5.79,2.61-8.14c1.74-2.35,4.16-4.18,7.26-5.49,3.1-1.31,6.7-1.97,10.82-1.97,3.39,0,6.4.44,9.02,1.32,2.62.88,4.84,2.03,6.65,3.46,1.81,1.42,3.19,2.95,4.14,4.58.95,1.63,1.45,3.19,1.49,4.68,0,.41-.15.76-.44,1.05-.29.29-.62.44-.98.44h-13.56c-.63,0-1.14-.09-1.53-.27-.38-.18-.78-.45-1.19-.81-.23-.23-.64-.49-1.25-.78-.61-.29-1.39-.44-2.34-.44-1.13,0-1.96.17-2.48.51-.52.34-.78.8-.78,1.39,0,.41.2.79.61,1.15.41.36,1.15.68,2.24.95,1.09.27,2.64.54,4.68.81,4.52.54,8.15,1.41,10.88,2.61,2.73,1.2,4.72,2.79,5.97,4.78,1.24,1.99,1.86,4.45,1.86,7.39,0,3.3-.98,6.15-2.95,8.54-1.97,2.4-4.64,4.24-8.04,5.53-3.39,1.29-7.23,1.93-11.53,1.93Z"/>
          <path class="cls-1" d="M271.78,127.34c-4.57,0-8.52-.68-11.87-2.03-3.35-1.36-5.97-3.41-7.87-6.17-1.9-2.76-2.94-6.24-3.12-10.44-.05-1.85-.07-3.86-.07-6.04s.02-4.23.07-6.17c.18-4.02,1.23-7.36,3.15-10,1.92-2.64,4.58-4.63,7.97-5.97,3.39-1.33,7.3-2,11.73-2,3.57,0,6.78.4,9.63,1.19,2.85.79,5.29,1.89,7.32,3.29,2.03,1.4,3.59,3.02,4.68,4.85s1.65,3.76,1.7,5.8c0,.41-.15.76-.44,1.05-.29.29-.64.44-1.05.44h-14.99c-.5,0-.89-.07-1.19-.2-.29-.14-.55-.31-.78-.54-.18-.23-.44-.55-.78-.98-.34-.43-.83-.81-1.46-1.15-.63-.34-1.52-.51-2.65-.51-1.67,0-2.94.42-3.8,1.25-.86.84-1.33,2.11-1.42,3.83-.14,3.75-.14,7.6,0,11.53.09,2.03.61,3.5,1.56,4.41.95.9,2.26,1.36,3.93,1.36,1.13,0,2.12-.16,2.98-.47.86-.32,1.54-.84,2.03-1.56.5-.72.75-1.65.75-2.78v-.07h-3.19c-.5,0-.93-.18-1.29-.54-.36-.36-.54-.79-.54-1.29v-7.53c0-.5.18-.93.54-1.29.36-.36.79-.54,1.29-.54h18.65c.5,0,.93.18,1.29.54.36.36.54.79.54,1.29v8.82c0,4.07-1,7.48-2.98,10.24-1.99,2.76-4.74,4.85-8.24,6.27-3.5,1.42-7.54,2.14-12.1,2.14Z"/>
          <path class="cls-1" d="M322.84,127.34c-4.34,0-8.17-.66-11.49-1.97s-5.91-3.35-7.76-6.1c-1.85-2.76-2.78-6.26-2.78-10.51v-27.74c0-.5.18-.93.54-1.29.36-.36.79-.54,1.29-.54h13.29c.5,0,.93.18,1.29.54.36.36.54.79.54,1.29v27.46c0,1.67.42,2.96,1.25,3.86.84.9,2.09,1.36,3.76,1.36s2.93-.45,3.76-1.36c.84-.9,1.25-2.19,1.25-3.86v-27.46c0-.5.18-.93.54-1.29.36-.36.79-.54,1.29-.54h13.29c.5,0,.93.18,1.29.54.36.36.54.79.54,1.29v27.74c0,4.25-.93,7.75-2.78,10.51-1.85,2.76-4.43,4.79-7.73,6.1-3.3,1.31-7.1,1.97-11.39,1.97Z"/>
          <path class="cls-1" d="M348.27,126.66c-.41,0-.76-.15-1.05-.44-.29-.29-.44-.65-.44-1.05,0-.18.02-.34.07-.47l15.12-43.26c.14-.5.45-.99.95-1.49.5-.5,1.2-.75,2.1-.75h14.72c.9,0,1.6.25,2.1.75.5.5.81.99.95,1.49l15.12,43.26c.04.14.07.3.07.47,0,.41-.15.76-.44,1.05-.29.29-.64.44-1.05.44h-12.55c-.86,0-1.48-.19-1.86-.58-.38-.38-.64-.76-.78-1.12l-1.63-4.48h-14.58l-1.63,4.48c-.14.36-.38.74-.75,1.12-.36.38-1,.58-1.9.58h-12.55ZM368.55,107.27h7.66l-3.87-12.61-3.8,12.61Z"/>
          <path class="cls-1" d="M420.77,127.34c-5.02,0-9.15-.68-12.41-2.03s-5.7-3.14-7.32-5.36c-1.63-2.21-2.49-4.56-2.58-7.05,0-.41.15-.76.44-1.05.29-.29.64-.44,1.05-.44h12.88c.72,0,1.28.1,1.66.3.38.2.8.49,1.25.85.45.32.92.6,1.39.85s1.02.43,1.63.54,1.28.17,2,.17c1.54,0,2.77-.17,3.7-.51.93-.34,1.39-.8,1.39-1.39,0-.54-.26-.99-.78-1.36-.52-.36-1.41-.69-2.68-.98-1.27-.29-3.03-.58-5.29-.85-3.57-.5-6.67-1.33-9.29-2.51-2.62-1.17-4.64-2.79-6.07-4.85-1.42-2.06-2.14-4.58-2.14-7.56s.87-5.79,2.61-8.14c1.74-2.35,4.16-4.18,7.26-5.49,3.1-1.31,6.7-1.97,10.82-1.97,3.39,0,6.4.44,9.02,1.32,2.62.88,4.84,2.03,6.65,3.46,1.81,1.42,3.19,2.95,4.14,4.58.95,1.63,1.45,3.19,1.49,4.68,0,.41-.15.76-.44,1.05-.29.29-.62.44-.98.44h-13.56c-.63,0-1.14-.09-1.53-.27-.38-.18-.78-.45-1.19-.81-.23-.23-.64-.49-1.25-.78-.61-.29-1.39-.44-2.34-.44-1.13,0-1.96.17-2.48.51-.52.34-.78.8-.78,1.39,0,.41.2.79.61,1.15.41.36,1.15.68,2.24.95,1.09.27,2.64.54,4.68.81,4.52.54,8.15,1.41,10.88,2.61,2.73,1.2,4.72,2.79,5.97,4.78,1.24,1.99,1.86,4.45,1.86,7.39,0,3.3-.98,6.15-2.95,8.54-1.97,2.4-4.64,4.24-8.04,5.53-3.39,1.29-7.23,1.93-11.53,1.93Z"/>
          <path class="cls-1" d="M469.86,127.34c-4.34,0-8.17-.66-11.49-1.97s-5.91-3.35-7.76-6.1c-1.85-2.76-2.78-6.26-2.78-10.51v-27.74c0-.5.18-.93.54-1.29.36-.36.79-.54,1.29-.54h13.29c.5,0,.93.18,1.29.54.36.36.54.79.54,1.29v27.46c0,1.67.42,2.96,1.25,3.86.84.9,2.09,1.36,3.76,1.36s2.93-.45,3.76-1.36c.84-.9,1.25-2.19,1.25-3.86v-27.46c0-.5.18-.93.54-1.29.36-.36.79-.54,1.29-.54h13.29c.5,0,.93.18,1.29.54.36.36.54.79.54,1.29v27.74c0,4.25-.93,7.75-2.78,10.51-1.85,2.76-4.43,4.79-7.73,6.1-3.3,1.31-7.1,1.97-11.39,1.97Z"/>
          <path class="cls-1" d="M500.65,126.66c-.5,0-.93-.18-1.29-.54-.36-.36-.54-.79-.54-1.29v-43.81c0-.5.18-.93.54-1.29.36-.36.79-.54,1.29-.54h10.71c.9,0,1.56.2,1.97.61s.68.72.81.95l11.46,18.78v-18.51c0-.5.18-.93.54-1.29.36-.36.79-.54,1.29-.54h12.27c.5,0,.93.18,1.29.54.36.36.54.79.54,1.29v43.81c0,.5-.18.93-.54,1.29-.36.36-.79.54-1.29.54h-10.71c-.91,0-1.56-.21-1.97-.64s-.68-.73-.81-.92l-11.46-17.29v17.02c0,.5-.18.93-.54,1.29-.36.36-.79.54-1.29.54h-12.27Z"/>
          <path class="cls-1" d="M570.5,127.34c-4.34,0-8.18-.63-11.53-1.9-3.35-1.26-6-3.25-7.97-5.97-1.97-2.71-3.04-6.22-3.22-10.51-.05-1.85-.07-3.84-.07-5.97s.02-4.16.07-6.1c.18-4.2,1.28-7.66,3.29-10.38,2.01-2.71,4.7-4.72,8.07-6.04,3.37-1.31,7.15-1.97,11.36-1.97,2.89,0,5.68.33,8.38.98,2.69.66,5.12,1.69,7.29,3.09,2.17,1.4,3.9,3.2,5.19,5.39,1.29,2.19,1.96,4.83,2,7.9,0,.41-.15.76-.44,1.05-.29.29-.64.44-1.05.44h-13.83c-.72,0-1.25-.15-1.59-.44-.34-.29-.64-.8-.92-1.53-.5-1.45-1.18-2.42-2.03-2.92s-1.88-.75-3.05-.75c-1.49,0-2.68.4-3.56,1.19-.88.79-1.37,2.23-1.46,4.31-.14,3.71-.14,7.5,0,11.39.09,2.08.58,3.52,1.46,4.31.88.79,2.07,1.19,3.56,1.19,1.17,0,2.2-.27,3.08-.81.88-.54,1.55-1.49,2-2.85.23-.77.52-1.29.88-1.56.36-.27.9-.41,1.63-.41h13.83c.41,0,.76.15,1.05.44.29.3.44.65.44,1.05-.05,3.08-.71,5.71-2,7.9-1.29,2.19-3.02,3.99-5.19,5.39s-4.6,2.43-7.29,3.09c-2.69.65-5.48.98-8.38.98Z"/>
          <path class="cls-1" d="M600.54,126.66c-.5,0-.93-.17-1.29-.51-.36-.34-.54-.78-.54-1.32v-43.81c0-.5.18-.93.54-1.29.36-.36.79-.54,1.29-.54h13.29c.5,0,.93.18,1.29.54.36.36.54.79.54,1.29v14.24h10.99v-14.24c0-.5.18-.93.54-1.29.36-.36.79-.54,1.29-.54h13.29c.5,0,.93.18,1.29.54.36.36.54.79.54,1.29v43.81c0,.5-.18.93-.54,1.29-.36.36-.79.54-1.29.54h-13.29c-.5,0-.93-.18-1.29-.54-.36-.36-.54-.79-.54-1.29v-14.65h-10.99v14.65c0,.5-.18.93-.54,1.29-.36.36-.79.54-1.29.54h-13.29Z"/>
          <path class="cls-1" d="M672.49,127.34c-4.43,0-8.31-.68-11.63-2.03-3.32-1.36-5.95-3.4-7.87-6.14-1.92-2.73-2.97-6.11-3.15-10.14-.05-1.85-.07-3.82-.07-5.9s.02-4.09.07-6.04c.18-3.98,1.22-7.35,3.12-10.1s4.52-4.86,7.87-6.31c3.35-1.45,7.23-2.17,11.66-2.17s8.32.72,11.66,2.17c3.34,1.45,5.98,3.55,7.9,6.31,1.92,2.76,2.95,6.13,3.09,10.1.09,1.94.14,3.96.14,6.04s-.05,4.05-.14,5.9c-.18,4.02-1.23,7.4-3.15,10.14-1.92,2.74-4.54,4.78-7.87,6.14-3.32,1.36-7.2,2.03-11.63,2.03ZM672.49,114.11c1.49,0,2.69-.44,3.59-1.32.9-.88,1.38-2.27,1.42-4.17.09-1.94.14-3.86.14-5.76s-.05-3.77-.14-5.63c-.05-1.27-.28-2.31-.71-3.12-.43-.81-1.01-1.41-1.73-1.8-.72-.38-1.58-.58-2.58-.58s-1.8.19-2.54.58c-.75.39-1.33.98-1.76,1.8-.43.81-.67,1.85-.71,3.12-.05,1.85-.07,3.73-.07,5.63s.02,3.82.07,5.76c.09,1.9.58,3.29,1.46,4.17.88.88,2.07,1.32,3.56,1.32Z"/>
          <path class="cls-1" d="M721.18,127.34c-5.02,0-9.15-.68-12.41-2.03s-5.7-3.14-7.32-5.36c-1.63-2.21-2.49-4.56-2.58-7.05,0-.41.15-.76.44-1.05.29-.29.64-.44,1.05-.44h12.88c.72,0,1.28.1,1.66.3.38.2.8.49,1.25.85.45.32.92.6,1.39.85s1.02.43,1.63.54,1.28.17,2,.17c1.54,0,2.77-.17,3.7-.51.93-.34,1.39-.8,1.39-1.39,0-.54-.26-.99-.78-1.36-.52-.36-1.41-.69-2.68-.98-1.27-.29-3.03-.58-5.29-.85-3.57-.5-6.67-1.33-9.29-2.51-2.62-1.17-4.64-2.79-6.07-4.85-1.42-2.06-2.14-4.58-2.14-7.56s.87-5.79,2.61-8.14c1.74-2.35,4.16-4.18,7.26-5.49,3.1-1.31,6.7-1.97,10.82-1.97,3.39,0,6.4.44,9.02,1.32,2.62.88,4.84,2.03,6.65,3.46,1.81,1.42,3.19,2.95,4.14,4.58.95,1.63,1.45,3.19,1.49,4.68,0,.41-.15.76-.44,1.05-.29.29-.62.44-.98.44h-13.56c-.63,0-1.14-.09-1.53-.27-.38-.18-.78-.45-1.19-.81-.23-.23-.64-.49-1.25-.78-.61-.29-1.39-.44-2.34-.44-1.13,0-1.96.17-2.48.51-.52.34-.78.8-.78,1.39,0,.41.2.79.61,1.15.41.36,1.15.68,2.24.95,1.09.27,2.64.54,4.68.81,4.52.54,8.15,1.41,10.88,2.61,2.73,1.2,4.72,2.79,5.97,4.78,1.24,1.99,1.86,4.45,1.86,7.39,0,3.3-.98,6.15-2.95,8.54-1.97,2.4-4.64,4.24-8.04,5.53-3.39,1.29-7.23,1.93-11.53,1.93Z"/>
        </g>
        <g>
          <path class="cls-1" d="M107.57,50.97c-2.29,0-4.25-.37-5.88-1.12s-2.89-1.84-3.8-3.29c-.9-1.45-1.4-3.24-1.5-5.39-.02-.99-.04-2.05-.04-3.18s.01-2.22.04-3.25c.1-2.1.6-3.87,1.52-5.33.92-1.46,2.19-2.57,3.83-3.33,1.64-.76,3.58-1.14,5.82-1.14,1.59,0,3.06.2,4.41.6,1.35.4,2.53.98,3.54,1.74,1.01.76,1.8,1.68,2.37,2.75s.86,2.28.89,3.63c.02.22-.04.4-.2.54-.16.14-.34.22-.56.22h-4.88c-.31,0-.55-.07-.72-.2-.17-.13-.31-.38-.43-.74-.34-1.28-.89-2.15-1.65-2.62-.76-.47-1.69-.71-2.8-.71-1.33,0-2.37.37-3.15,1.1-.77.73-1.19,1.96-1.27,3.67-.07,1.98-.07,4,0,6.07.07,1.71.49,2.94,1.27,3.67.77.74,1.82,1.1,3.15,1.1,1.11,0,2.05-.24,2.82-.72.77-.48,1.31-1.35,1.63-2.6.1-.36.23-.61.42-.74.18-.13.43-.2.74-.2h4.88c.22,0,.4.07.56.22.16.14.22.33.2.54-.02,1.35-.32,2.56-.89,3.63s-1.36,1.99-2.37,2.75-2.19,1.34-3.54,1.74c-1.35.4-2.82.6-4.41.6Z"/>
          <path class="cls-1" d="M120.8,50.61c-.19,0-.37-.08-.52-.24-.16-.16-.23-.33-.23-.52,0-.12.01-.23.04-.33l8.5-23.21c.07-.26.22-.5.45-.71s.55-.31.96-.31h5.35c.41,0,.73.1.96.31s.38.44.45.71l8.46,23.21c.05.1.07.21.07.33,0,.19-.08.37-.23.52s-.34.24-.56.24h-4.45c-.36,0-.63-.09-.81-.27-.18-.18-.3-.34-.34-.49l-1.41-3.69h-9.65l-1.37,3.69c-.05.14-.16.31-.33.49-.17.18-.46.27-.87.27h-4.45ZM129.3,40.95h6.73l-3.4-9.55-3.33,9.55Z"/>
          <path class="cls-1" d="M149.04,50.61c-.27,0-.48-.08-.65-.25-.17-.17-.25-.39-.25-.65v-23.5c0-.26.08-.48.25-.65.17-.17.39-.25.65-.25h11.03c2.07,0,3.77.29,5.1.87s2.31,1.4,2.95,2.48c.64,1.07.96,2.34.96,3.82,0,.87-.16,1.63-.49,2.3-.33.66-.72,1.21-1.19,1.65-.47.43-.91.75-1.32.94.92.43,1.73,1.14,2.44,2.13.71.99,1.07,2.14,1.07,3.47,0,1.59-.36,2.96-1.07,4.1-.71,1.15-1.75,2.02-3.11,2.64-1.36.61-3.03.92-5.01.92h-11.35ZM154.61,35.35h4.74c.99,0,1.73-.25,2.22-.76.49-.51.74-1.16.74-1.95s-.25-1.4-.74-1.9c-.49-.49-1.24-.74-2.22-.74h-4.74v5.35ZM154.61,45.91h5.06c1.04,0,1.82-.3,2.35-.9.53-.6.8-1.29.8-2.06,0-.84-.27-1.55-.81-2.13s-1.32-.87-2.33-.87h-5.06v5.97Z"/>
          <path class="cls-1" d="M171.79,50.61c-.19,0-.37-.08-.52-.24-.16-.16-.23-.33-.23-.52,0-.12.01-.23.04-.33l8.5-23.21c.07-.26.22-.5.45-.71s.55-.31.96-.31h5.35c.41,0,.73.1.96.31s.38.44.45.71l8.46,23.21c.05.1.07.21.07.33,0,.19-.08.37-.23.52s-.34.24-.56.24h-4.45c-.36,0-.63-.09-.81-.27-.18-.18-.3-.34-.34-.49l-1.41-3.69h-9.65l-1.37,3.69c-.05.14-.16.31-.33.49-.17.18-.46.27-.87.27h-4.45ZM180.28,40.95h6.73l-3.4-9.55-3.33,9.55Z"/>
          <path class="cls-1" d="M200.02,50.61c-.27,0-.48-.08-.65-.25-.17-.17-.25-.39-.25-.65v-23.5c0-.26.08-.48.25-.65.17-.17.39-.25.65-.25h3.83c.41,0,.71.09.89.27.18.18.29.32.34.42l8.82,13.92v-13.71c0-.26.08-.48.25-.65s.39-.25.65-.25h4.34c.26,0,.48.08.65.25.17.17.25.39.25.65v23.5c0,.24-.08.45-.25.63-.17.18-.39.27-.65.27h-3.87c-.39,0-.67-.1-.85-.29-.18-.19-.3-.33-.34-.4l-8.82-13.38v13.16c0,.26-.08.48-.25.65-.17.17-.39.25-.65.25h-4.34ZM211.78,23.67c-.65,0-1.19-.11-1.63-.33-.43-.22-.83-.43-1.18-.63s-.74-.31-1.17-.31c-.34,0-.58.09-.72.25-.14.17-.28.35-.4.54-.12.19-.31.29-.58.29h-2.17c-.17,0-.31-.07-.43-.2-.12-.13-.18-.27-.18-.42,0-.39.07-.84.2-1.37.13-.53.36-1.04.69-1.54.33-.49.75-.9,1.27-1.23.52-.33,1.15-.49,1.9-.49.67,0,1.23.11,1.66.33.43.22.83.43,1.19.65s.75.33,1.16.33c.34,0,.57-.1.71-.29.13-.19.26-.38.38-.56.12-.18.31-.27.58-.27h2.17c.22,0,.38.07.49.2.11.13.16.28.16.45,0,.39-.07.84-.22,1.36s-.37,1.02-.69,1.52c-.31.5-.74.9-1.27,1.23-.53.33-1.17.49-1.92.49Z"/>
          <path class="cls-1" d="M223.67,50.61c-.19,0-.37-.08-.52-.24-.16-.16-.23-.33-.23-.52,0-.12.01-.23.04-.33l8.5-23.21c.07-.26.22-.5.45-.71s.55-.31.96-.31h5.35c.41,0,.73.1.96.31s.38.44.45.71l8.46,23.21c.05.1.07.21.07.33,0,.19-.08.37-.23.52s-.34.24-.56.24h-4.45c-.36,0-.63-.09-.81-.27-.18-.18-.3-.34-.34-.49l-1.41-3.69h-9.65l-1.37,3.69c-.05.14-.16.31-.33.49-.17.18-.46.27-.87.27h-4.45ZM232.17,40.95h6.73l-3.4-9.55-3.33,9.55Z"/>
        </g>
      </g>
    </g>
  </g>
</svg>