<?xml version="1.0" encoding="UTF-8"?>
<svg id="Capa_2" xmlns="http://www.w3.org/2000/svg" viewBox="0 0 363.46 234">
  <defs>
    <style>
      .cls-1 {
        fill: #1c282f;
      }
    </style>
  </defs>
  <g id="Capa_1-2" data-name="Capa_1">
    <g id="ScNdlz.tif">
      <g>
        <path class="cls-1" d="M154.08,56.32c0-16.94-.01-33.87,0-50.81,0-5.13.32-5.44,5.5-5.45,16.55-.02,33.1-.04,49.66.02,5.8.02,11.53.77,17.05,2.61,9.55,3.19,15.17,9.75,16.51,19.78,1.34,10.02-.56,18.92-9.12,25.42-4.88,3.7-4.86,3.72.38,6.43,19.01,9.82,19.87,39.46,1.48,51.65-7.4,4.9-15.73,6.95-24.46,7.04-17.32.17-34.64.07-51.97.04-4.59,0-5.03-.46-5.04-5.14-.03-17.19-.01-34.39,0-51.58ZM197.05,62.43c-5.91,0-10.01.05-14.1-.02-3.05-.05-4.39,1.28-4.36,4.39.09,7.81.09,15.61,0,23.42-.04,3.13,1.38,4.39,4.4,4.36,8.95-.1,17.91.34,26.85-.61,9.05-.97,14.11-6.02,14.32-14.49.23-9.31-4.56-15.13-13.61-16.56-5.09-.81-10.22-.4-13.51-.49ZM193.73,46.13s0-.05,0-.08c3.97,0,7.94.02,11.91-.01.76,0,1.53-.16,2.28-.3,6.9-1.27,11.02-5.55,11.54-11.98.68-8.38-3.76-13.82-12.77-14.41-8.16-.54-16.38-.2-24.58-.27-2.72-.02-3.51,1.55-3.51,3.95.02,6.4.05,12.81-.01,19.21-.03,2.8,1.31,3.93,3.99,3.9,3.71-.05,7.43-.01,11.14-.01Z"/>
        <path class="cls-1" d="M60.1,39.58c0,10.91.02,21.81,0,32.72-.01,4.03.64,7.96,2.19,11.65,3.46,8.22,12.34,12.32,24.42,11.45,11.27-.81,17.09-4.93,19.63-14.1,1.28-4.61,1.4-9.38,1.41-14.13.04-20.4,0-40.8.03-61.21,0-5.59.32-5.88,5.88-5.9,4.88-.02,9.75.05,14.63,0,2.73-.03,4.02,1.15,3.98,3.92-.33,24.75.97,49.53-.73,74.26-1.38,20.12-14.76,33.59-36.17,36.76-13.03,1.93-25.86,1.25-38.06-4.4-12.6-5.83-18.65-16.33-20.77-29.51-.57-3.53-.84-7.15-.86-10.73-.08-21.56-.04-43.11-.03-64.67,0-5.41.22-5.61,5.67-5.64,4.62-.02,9.24.14,13.86-.05,3.64-.15,5.03,1.23,4.98,4.92-.15,11.55-.05,23.1-.05,34.64Z"/>
        <path class="cls-1" d="M351.24,113.06c-14.77-.3-10.8,2.24-16.04-11.46-1.33-3.47-2.47-7.02-3.58-10.56-.72-2.29-2.13-3.31-4.52-3.3-11.93.04-23.85.05-35.78,0-2.6-.01-3.97,1.21-4.78,3.56-2.04,5.94-4.3,11.81-6.25,17.78-.95,2.9-2.59,4.11-5.63,4.02-5.25-.14-10.51,0-15.77-.04-4.32-.03-4.61-.4-3.1-4.4,8.83-23.39,17.7-46.77,26.57-70.15,4.37-11.51,8.82-22.99,13.09-34.53,1.05-2.84,2.63-4.04,5.68-3.95,5.77.17,11.54.13,17.31.02,2.7-.05,4.18,1.03,5.13,3.59,13.07,35.09,26.2,70.15,39.36,105.2,1.11,2.96.54,4.38-2.85,4.25-2.95-.11-5.9-.02-8.85-.02ZM309.01,69.93c3.72,0,7.43.05,11.15-.02,2.02-.04,3.73-.61,2.85-3.22-4.11-12.14-8.26-24.26-12.43-36.38-.19-.55-.67-1.29-1.12-1.38-.97-.2-1.16.8-1.4,1.48-4.26,11.95-8.48,23.91-12.77,35.86-.92,2.58.03,3.64,2.57,3.65,3.72.02,7.43,0,11.15,0Z"/>
        <path class="cls-1" d="M208.71,173.71c3.62-7.5,9.51-10.18,17.16-9.65,6.89.48,11.84,3.81,14.86,9.96,4.74,9.66,5.05,20.03,4.48,30.45-.32,5.87-1.09,11.71-3.36,17.28-3.08,7.54-8.53,11.76-16.64,12.13-7.81.36-13.59-3-16.93-10.23-.1-.21-.35-.35-.69-.68-1.3.88-.66,2.22-.74,3.36-.19,2.49,1.14,5.98-3.24,5.95-4.42-.03-3.14-3.65-3.15-6.03-.08-23.71-.05-47.42-.05-71.13,0-2.95.04-5.9.01-8.84-.03-2.45.87-3.85,3.56-3.9,2.89-.05,3.8,1.4,3.79,4.05-.05,7.69-.02,15.38.02,23.07,0,1.23-.35,2.55.93,4.21ZM237.77,201.28c.18-7.57-.16-15.13-2.78-22.32-2.34-6.44-6.72-9.45-12.68-9.3-6.1.16-10.54,3.5-12.33,10.23-3.37,12.73-3.38,25.6.06,38.32,1.79,6.62,5.97,9.68,12.13,9.81,6.53.14,10.49-2.73,12.9-9.34,2.05-5.62,2.4-11.5,2.69-17.4Z"/>
        <path class="cls-1" d="M290.22,224.19c-2.45,6.43-7.7,8.99-14.25,9.67-10.57,1.09-17.32-4.06-18.84-14.55-1.76-12.16,2.86-19.52,14.51-22.98,3.81-1.13,7.66-2.13,11.48-3.22,7.34-2.11,9.44-5.99,7.87-14.47-1.1-5.97-5.94-9.43-12.46-8.93-6.95.53-10.68,3.96-12.07,11.25-.35,1.85-.58,3.51-2.99,3.78-3.34.37-4.51-.69-4.14-4.03,1.08-9.81,6.51-15.32,16.26-16.49,2.82-.34,5.63-.32,8.44.06,9.13,1.25,13.93,6.52,14.02,15.78.12,12.82.01,25.64.06,38.47.02,3.88-.14,7.91,5.04,9.05,1.34.3,1.46,1.64,1.23,2.87-.27,1.41-1.12,2.21-2.51,2.58-4.8,1.28-9.02-1.33-10.01-6.22-.17-.84.01-1.85-1.63-2.6ZM291.18,203.98c0-1.61.04-3.91-.01-6.22-.04-1.78-.79-2.28-2.44-1.33-3.72,2.14-7.94,2.81-12.02,3.86-9,2.34-12.51,7.11-11.97,16.38.54,9.31,8.45,14.04,16.94,10.12,4.06-1.88,6.68-5.02,8.14-9.23,1.46-4.21,1.48-8.55,1.36-13.6Z"/>
        <path class="cls-1" d="M183.4,198.92c0,9.61.02,19.23-.01,28.84,0,2.06.1,4.35-2.86,4.53-3.22.2-3.3-2.08-3.37-4.38-.03-.97.34-2.31-.81-2.75-1.22-.46-1.7.91-2.29,1.63-4.41,5.42-10.18,7.62-17.01,7.07-8.81-.71-14.18-6.07-14.46-14.94-.3-9.48-.13-18.97-.15-28.45-.01-6.92.03-13.84.01-20.77,0-2.55.77-4.23,3.73-4.13,2.93.1,3.14,2.07,3.14,4.26,0,13.59,0,27.17.02,40.76,0,1.92-.01,3.85.18,5.76.6,6.15,3.35,10.06,7.75,11.25,5.81,1.57,12.03-.47,15.46-5.16,2.67-3.66,3.65-7.84,3.65-12.32-.02-13.2-.02-26.41.02-39.61,0-1.73-.38-3.72,1.74-4.69,2.82-1.29,5.19.35,5.22,3.86.08,9.74.03,19.48.03,29.22h.01Z"/>
        <path class="cls-1" d="M86.19,201.68c0-8.46-.07-16.92.03-25.38.05-3.72-1.23-5.53-5.22-4.97-2.06.29-4.35.25-4.42-2.8-.07-3.06,2.21-2.92,4.3-3.02,4.86-.24,5.21-.6,5.32-5.37.06-2.82-.05-5.65.22-8.45.73-7.58,8.89-12.77,16.17-10.44,1.45.46,2.05,1.41,2.05,2.85,0,1.48-.63,2.56-2.15,2.69-3.11.28-6.3.45-8.01,3.62-2.13,3.94-1.36,8.25-1.25,12.45.05,1.97,1.52,2.5,3.2,2.58,1.92.09,3.84.08,5.76.21,1.47.1,2.36.94,2.43,2.47.08,1.62-.6,2.81-2.26,3.06-1.51.23-3.07.35-4.59.25-3.52-.23-4.73,1.37-4.71,4.79.09,16.15.04,32.3.03,48.45,0,1.28-.03,2.56-.01,3.85.03,2.17-.51,3.79-3.14,3.85-2.65.06-3.7-1.28-3.7-3.77,0-8.97,0-17.94,0-26.92h-.05Z"/>
        <path class="cls-1" d="M0,99.38c.05-8.47,6.1-14.55,14.52-14.57,8.09-.02,14.68,6.61,14.61,14.71-.07,8.29-6.39,14.47-14.75,14.44C5.78,113.92-.05,108.02,0,99.38Z"/>
        <path class="cls-1" d="M123.89,199.38c0,9.48,0,18.95,0,28.43,0,2.26,0,4.49-3.22,4.56-3.33.07-3.63-2.09-3.63-4.61.01-19.21.01-38.42,0-57.62,0-2.54.36-4.67,3.68-4.56,3.22.1,3.16,2.37,3.17,4.61,0,9.73,0,19.46,0,29.2Z"/>
        <path class="cls-1" d="M123.88,148.92c-.27,2.09.96,5.61-3.66,5.57-1.8-.02-2.97-.82-3.06-2.7-.1-1.91-.07-3.83-.07-5.75,0-2.3,1.01-3.6,3.46-3.6,2.53,0,3.35,1.43,3.33,3.68,0,.77,0,1.54,0,2.8Z"/>
      </g>
    </g>
  </g>
</svg>