<?xml version="1.0" encoding="UTF-8"?>
<svg id="Capa_2" xmlns="http://www.w3.org/2000/svg" viewBox="0 0 130.25 234">
  <defs>
    <style>
      .cls-1 {
        fill: #1c282f;
      }
    </style>
  </defs>
  <g id="Capa_1-2" data-name="Capa_1">
    <g id="kDHqaL.tif">
      <g>
        <path class="cls-1" d="M52.79,39.71c0-.53,0-.95,0-1.38,0-12.2,0-24.41,0-36.61,0-1.7,0-1.7,1.75-1.7,7.42,0,14.85,0,22.27,0,1.49,0,1.52.03,1.52,1.51,0,12.1,0,24.19,0,36.29,0,.57,0,1.15,0,1.99,1.65-.77,3.18-1.4,4.62-2.18,10.5-5.67,17.21-14.32,19.9-25.93.78-3.36.91-6.87,1.22-10.32C104.17.38,104.41,0,105.46,0c7.71.03,15.43.01,23.14.01,1.45,0,1.5.05,1.47,1.54-.17,9.89-2.51,19.26-6.84,28.12-5.81,11.9-14.3,21.43-25.54,28.47-4.97,3.11-10.28,5.45-15.94,6.99-.14.04-.26.1-.39.29,2.1,0,4.2,0,6.3,0,13.62,0,27.23,0,40.85-.01,1.59,0,1.59,0,1.58,1.62,0,7.97,0,15.93,0,23.9,0,1.91,0,1.92-1.86,1.92-15.64,0-31.29-.02-46.93-.03-.18,0-.36,0-.57.1,1.2.34,2.4.66,3.59,1.02,10.05,3.03,18.68,8.44,26.08,15.83,7.56,7.55,12.98,16.44,16.34,26.57,2.1,6.35,3.29,12.88,3.33,19.6.01,1.47.01,1.47-1.4,1.48-7.75,0-15.5-.02-23.25.03-1.08,0-1.32-.39-1.34-1.39-.25-10.27-3.61-19.34-10.68-26.9-4.28-4.58-9.48-7.78-15.34-9.96-.19-.07-.4-.09-.78-.18,0,.49,0,.87,0,1.25,0,11.95-.01,23.9.02,35.85,0,.98-.25,1.3-1.26,1.29-7.42-.05-14.85-.03-22.27-.04-1.45,0-1.45-.02-1.45-1.44,0-11.88,0-23.76,0-35.63,0-.39,0-.78,0-1.4-1.45.55-2.73.99-3.99,1.51-7.93,3.22-14.26,8.35-18.62,15.78-2.31,3.94-3.85,8.18-4.62,12.68-.43,2.49-.64,5.01-.87,7.53-.07.81-.48.96-1.12.96-1.85,0-3.69.02-5.54.01-5.39-.03-10.79-.1-16.18-.1-.95,0-1.24-.27-1.22-1.23.28-15.76,5.07-29.93,15.08-42.19,8.1-9.92,18.36-16.56,30.87-19.6.62-.15,1.26-.26,1.88-.47-2.27,0-4.53,0-6.8,0-13.18,0-26.36,0-39.55.02-1.07,0-1.53-.2-1.52-1.4.06-8.69.05-17.38.06-26.06,0-.06.05-.13.11-.26h50.46s.01-.08.02-.11c-1.88-.6-3.78-1.16-5.65-1.82-10.21-3.61-19.08-9.33-26.54-17.18-7.23-7.6-12.39-16.45-15.45-26.48C1.22,14.21.15,7.81.16,1.24.16.28.43,0,1.38,0c7.39.03,14.78.02,22.16.02,1.57,0,1.53.02,1.59,1.63.35,8.92,2.3,17.34,7.85,24.61,3.21,4.21,7.2,7.53,11.87,9.99,2.23,1.18,4.59,2.13,6.9,3.16.28.13.61.17,1.05.28Z"/>
        <path class="cls-1" d="M102.07,180.07v29.64c-.35.04-.63.1-.91.1-2.28,0-4.56-.03-6.84.02-.92.02-1.17-.3-1.16-1.18.04-3.98.02-7.96.01-11.95,0-10.64,0-21.29,0-31.93,0-1.41,0-1.41,1.44-1.42,2.17,0,4.35.06,6.52-.03,1.02-.04,1.57.35,2.07,1.17,4.07,6.71,8.18,13.4,12.28,20.09,1.66,2.71,3.33,5.43,4.99,8.14.13.21.28.39.58.81,0-.63,0-1.01,0-1.39,0-9.09,0-18.17,0-27.26q0-1.54,1.59-1.54c2.1,0,4.2.03,6.3-.02.82-.02,1.16.21,1.16,1.09-.02,14.77-.02,29.54,0,44.31,0,.78-.25,1.09-1.06,1.08-2.57-.04-5.14.02-7.71-.04-.44-.01-1.04-.34-1.28-.71-4.32-6.9-8.59-13.83-12.87-20.75-1.65-2.66-3.3-5.33-5.1-8.24Z"/>
        <path class="cls-1" d="M27.63,179.2c0-4.85.03-9.71-.02-14.56-.01-1.07.32-1.35,1.35-1.31,2.42.08,4.85.05,7.28.01.8-.01,1.07.25,1.07,1.06-.03,9.38.04,18.76-.08,28.14-.03,2.62-.34,5.29-.94,7.83-1.21,5.06-4.79,8.04-9.62,9.35-5.36,1.46-10.83,1.34-16.18-.19-5.54-1.58-9.41-6.63-9.87-12.37-.87-10.92-.23-21.86-.44-32.79-.02-.83.32-1.05,1.09-1.04,2.43.03,4.85.06,7.28,0,1.06-.03,1.36.33,1.35,1.36-.04,7.71-.03,15.43-.01,23.14,0,2.35.02,4.71.19,7.05.32,4.39,3.19,7.18,7.6,7.34,1.68.06,3.42-.06,5.05-.43,2.62-.6,4.52-2.95,4.61-5.66.2-5.64.28-11.29.4-16.93-.04,0-.08,0-.11,0Z"/>
        <path class="cls-1" d="M70.31,171.54c0,.63,0,1.09,0,1.56,0,11.73,0,23.47,0,35.2,0,1.51,0,1.52-1.47,1.52-2.28,0-4.56-.05-6.84.03-1.11.04-1.41-.33-1.41-1.42.03-11.84.02-23.68.02-35.53,0-.42,0-.84,0-1.36-.55,0-.94,0-1.33,0-3.73,0-7.46-.02-11.19,0-.8,0-1.2-.2-1.17-1.1.05-2.03.04-4.06,0-6.08-.01-.74.24-1.02,1.01-1.02,11.7.02,23.39.02,35.09,0,.82,0,.97.39.97,1.07-.01,1.99-.03,3.98.01,5.97.02.92-.36,1.18-1.23,1.17-3.73-.03-7.46-.01-11.19-.01-.36,0-.71,0-1.26,0Z"/>
        <path class="cls-1" d="M65.24,213.75c21.11,0,42.22,0,63.34,0,1.37,0,2.07,1.16,1.44,2.41-.09.18-.37.31-.59.36-.28.06-.58.02-.87.02-42.01,0-84.01,0-126.02,0-.25,0-.51,0-.76,0-1.44,0-2.2-1.16-1.53-2.46.12-.24.66-.38,1.01-.38,15.75,0,31.5.03,47.26.05,5.58,0,11.15,0,16.73,0Z"/>
        <path class="cls-1" d="M63.14,225.46c0,1.52,0,3.04,0,4.56,0,1.58-.56,2.43-1.84,2.83-1.58.5-2.91.14-3.78-1.06-1.08-1.49-1.05-3.26-1.19-4.98-.1-1.19-.17-2.38-.28-3.57-.02-.25-.07-.53-.21-.72-.2-.28-.49-.5-.74-.75-.15.3-.39.58-.44.89-.07.5-.02,1.01-.02,1.52,0,2.57-.04,5.14.02,7.71.03,1.02-.42,1.2-1.3,1.19-.86-.01-1.45-.05-1.43-1.18.05-3.11,0-6.22.03-9.34.02-1.72.86-2.77,2.36-3.06,1.76-.34,3.23.33,3.76,1.96.39,1.18.53,2.46.69,3.7.2,1.5.25,3.02.47,4.52.06.39.54.72.83,1.08.17-.4.47-.79.48-1.19.03-3,.02-6.01-.03-9.01-.01-.77.15-1.2.99-1.1.71.08,1.69-.38,1.64,1.02-.06,1.66-.01,3.33-.01,4.99h0Z"/>
        <path class="cls-1" d="M75.05,232.26c.32.57.59,1.03.99,1.73-1.37-.28-2.67.54-3.66-.77-.14-.18-.6-.15-.91-.18-1.08-.08-2.17-.05-3.23-.23-1.71-.3-2.74-1.36-2.84-3.09-.13-2.27-.12-4.55-.04-6.82.05-1.66.99-2.96,2.62-3.15,1.97-.23,4.03-.25,5.99.07,1.75.29,2.44,1.55,2.45,3.35.01,1.88-.04,3.76.02,5.64.05,1.35-.29,2.5-1.36,3.44ZM70.68,230.67c-.3-.52-.59-1.02-1.03-1.77,1.52.31,2.98-.59,3.9,1.16.11-.31.21-.47.21-.63.02-2.1.08-4.19.02-6.29-.02-.87-.66-1.35-1.53-1.39-.83-.04-1.66-.04-2.49-.01-1.29.05-1.81.59-1.83,1.9-.02,1.63,0,3.26,0,4.88,0,1.9.73,2.48,2.75,2.15Z"/>
        <path class="cls-1" d="M9.06,228.96c.48.74.88,1.38,1.29,2.01.39.6.79,1.18,1.19,1.79-1.74.7-2.89.36-3.82-1.05-.08-.12-.17-.24-.25-.36-1.49-2.27-1.85-2.42-4.75-1.87,0,.86-.04,1.76.01,2.65.05.84-.39,1.01-1.06.91-.59-.08-1.5.37-1.5-.82,0-3.15-.04-6.3.03-9.45.03-1.49.92-2.53,2.32-2.96,2.04-.62,4.15-.61,6.21-.06,1.71.46,2.47,1.61,2.5,3.36,0,.65-.03,1.31.01,1.95.11,1.72-.47,3.05-2.19,3.88ZM2.75,227.06c.95,0,1.74,0,2.53,0,3.28,0,3.56-.29,3.38-3.6-.06-1.1-.58-1.68-1.66-1.73-.86-.04-1.73,0-2.59.01-.99.02-1.58.6-1.65,1.53-.09,1.21-.02,2.43-.02,3.79Z"/>
        <path class="cls-1" d="M49.69,226.24c0,.9,0,1.81,0,2.71,0,2.39-.91,3.64-3.26,3.95-1.59.2-3.25.14-4.84-.08-1.85-.25-2.85-1.35-2.95-3.21-.13-2.23-.13-4.48,0-6.72.1-1.81,1.07-2.97,2.85-3.19,1.8-.22,3.68-.23,5.48.03,1.87.27,2.73,1.59,2.74,3.48,0,1.01,0,2.03,0,3.04ZM47.12,226.23c0-.9.02-1.81,0-2.71-.04-1.19-.55-1.72-1.73-1.78-.79-.04-1.59-.04-2.39,0-1.27.06-1.78.55-1.8,1.81-.04,1.84-.02,3.69,0,5.53,0,.98.53,1.58,1.51,1.65.9.06,1.81.07,2.71.02,1.19-.06,1.66-.59,1.7-1.8.03-.9,0-1.81,0-2.71Z"/>
        <path class="cls-1" d="M102.41,219.31c.89.16,2.13.27,3.28.63,1.24.39,1.87,1.42,2.06,2.7.09.57-.09.91-.74.87-.85-.05-1.82.28-2.14-1.03-.08-.31-.71-.66-1.11-.69-1.15-.09-2.31-.06-3.46,0-.3.02-.75.27-.83.52-.08.24.15.72.39.89,1.17.84,2.4,1.6,3.59,2.41,1.13.78,2.28,1.53,3.32,2.42.79.67,1.28,1.58.96,2.71-.34,1.18-1.21,1.92-2.33,2.01-1.96.16-3.96.2-5.92.04-1.44-.11-2.51-1.38-2.75-2.72-.14-.75.01-1.17.91-1.12.82.05,1.68-.15,1.9,1.02.04.2.33.51.51.51,1.56.04,3.14.14,4.68-.02.68-.07.41-.76,0-1.06-1.07-.8-2.17-1.55-3.27-2.3-1.16-.79-2.39-1.5-3.49-2.36-.94-.74-1.56-1.75-1.24-3.04.31-1.24,1.3-1.81,2.44-2.05.95-.2,1.93-.22,3.24-.36Z"/>
        <path class="cls-1" d="M16.1,225.08c1.74,0,3.44,0,5.14,0,1.85,0,1.95.13,1.52,2.23-1.71,0-3.47-.04-5.22.02-.61.02-1.55-.44-1.59.83-.07,1.77.3,2.5,1.57,2.57,1.66.09,3.33.07,4.99.04.85-.01,1.28.22,1.23,1.17-.04.8-.26,1.17-1.15,1.13-1.63-.06-3.25,0-4.88-.02-2.94-.03-4.41-1.49-4.43-4.4-.01-1.7-.03-3.4,0-5.1.05-2.49,1.37-3.93,3.86-4.07,1.91-.11,3.83-.02,5.75-.05.82-.01.83.51.83,1.08,0,.6.01,1.2-.85,1.2-1.37,0-2.75,0-4.12,0-2.59,0-3.13.65-2.63,3.37Z"/>
        <path class="cls-1" d="M27.93,226.29c0,.94-.01,1.88,0,2.82.02.99.56,1.55,1.53,1.62.83.06,1.66.06,2.5.03,1.3-.05,1.88-.56,1.86-1.89-.02-1.29.85-.87,1.48-.94.73-.08,1.13.13,1.14,1,.02,2.17-.93,3.61-3.09,3.89-1.69.22-3.47.19-5.16-.04-1.81-.25-2.77-1.39-2.86-3.18-.11-2.24-.1-4.49.01-6.73.09-1.75,1.04-2.84,2.74-3.19,2.07-.43,4.17-.52,6.21.2,1.59.56,2.7,2.67,2.04,4.16-.16.35-1.15.41-1.76.45-.22.01-.64-.41-.68-.67-.27-1.79-.57-2.1-2.34-2.12-3.58-.05-3.63,0-3.61,3.6,0,.33,0,.65,0,.98Z"/>
        <path class="cls-1" d="M129.8,232.88c-1.94.45-2.18.33-2.98-1.24-.13-.25-.53-.5-.81-.51-1.52-.05-3.04-.05-4.56,0-.27,0-.65.29-.78.54-.83,1.54-1.14,1.68-3.1,1.16.45-1.25.89-2.5,1.35-3.74,1.07-2.92,2.18-5.82,3.2-8.75.28-.81.76-.95,1.47-.9.7.04,1.4-.17,1.75.82,1.41,3.98,2.9,7.94,4.35,11.91.08.22.08.48.11.71ZM123.73,223.24c-.73,2.03-1.38,3.8-2.05,5.66h4.11c-.68-1.88-1.33-3.64-2.06-5.66Z"/>
        <path class="cls-1" d="M89.68,225.04c0,1.27,0,2.53,0,3.8,0,2.59-1.1,3.92-3.69,4.14-1.5.13-3.04.03-4.53-.18-1.75-.25-2.83-1.64-2.84-3.44-.02-2.97.04-5.94-.03-8.9-.02-1.1.62-1,1.32-1.03.75-.02,1.32,0,1.29,1.05-.07,2.68-.03,5.35-.02,8.03,0,1.66.56,2.22,2.19,2.27,3.59.09,3.75-.07,3.75-3.61,0-2.24.05-4.49-.02-6.73-.03-1.11.64-1,1.34-1.01.73-.02,1.34-.04,1.27,1.05-.1,1.51-.02,3.04-.02,4.56Z"/>
        <path class="cls-1" d="M112.78,227.37c0-1.59-.02-3.18,0-4.77.01-.65-.23-.93-.88-.9-.61.03-1.23-.03-1.84,0-.89.06-1.21-.31-1.21-1.2,0-.91.41-1.08,1.2-1.07,2.71.03,5.42.03,8.14,0,.82-.01,1.19.23,1.17,1.1-.02.79-.23,1.27-1.11,1.18-.07,0-.14,0-.22,0q-2.56.06-2.56,2.58c0,2.53-.05,5.06.02,7.59.03,1.13-.55,1.18-1.42,1.19-.84,0-1.39-.08-1.34-1.15.07-1.52.02-3.04.02-4.56,0,0,.01,0,.02,0Z"/>
        <path class="cls-1" d="M94.64,226.3c0,1.88-.02,3.76.01,5.64.01.75-.15,1.21-1.01,1.1-.7-.09-1.69.4-1.68-.99.03-3.87.03-7.74,0-11.61-.01-1.18.75-.98,1.46-1.01.71-.02,1.26.02,1.23,1.01-.06,1.95-.02,3.91-.02,5.86h0Z"/>
      </g>
    </g>
  </g>
</svg>