<?xml version="1.0" encoding="UTF-8"?>
<svg id="Capa_2" xmlns="http://www.w3.org/2000/svg" viewBox="0 0 503.49 111.88">
  <defs>
    <style>
      .cls-1 {
        fill: #1c282f;
      }
    </style>
  </defs>
  <g id="Capa_1-2" data-name="Capa_1">
    <g id="_x38_Vp6aL.tif">
      <g>
        <path class="cls-1" d="M244.31,111.84c-71.65,0-143.3-.01-214.95.04-2.05,0-2.92-.51-3.24-2.65-.79-5.3-.91-5.33,4.35-5.33,74.48-.02,148.96,0,223.45-.03,52.74-.01,105.48,0,158.21-.14,13.58-.04,27.14-.82,40.5-3.61,8.48-1.77,15.23-6.23,21.17-12.44,3.11-3.26,6.7-6.36,10.65-8.44,6.33-3.34,12.61-1.44,16.6,4.01,3.65,4.99,3.14,11.92-1.07,17.12-3.47,4.28-8.23,6.09-13.31,7.32-12.04,2.92-24.28,4.13-36.65,4.14-68.57,0-137.13,0-205.7,0ZM499.59,88.53c-.02-2.09-1.74-4.12-3.55-4.17-1.96-.05-3.77,1.93-3.79,4.16-.02,2.33,1.63,4.25,3.66,4.27,1.97.02,3.7-1.98,3.68-4.27Z"/>
        <path class="cls-1" d="M0,.09C6.39.09,12.45.02,18.5.19c.63.02,1.59,1.34,1.78,2.2,2.57,11.2,5.02,22.44,7.52,33.66,2.84,12.77,5.69,25.53,8.55,38.29.12.54.38,1.06.79,2.2.62-1.24,1.04-1.98,1.36-2.76,9.26-22.22,18.52-44.44,27.75-66.68C69.16.09,69.12.07,76.64.05c2.92,0,5.83-.04,8.75,0,2.62.05,2.86.4,1.8,2.78-4.34,9.74-8.72,19.46-13.09,29.18-8.99,19.98-18.02,39.94-26.94,59.94-.89,1.99-1.98,2.69-4.14,2.64-5.75-.14-11.5-.06-17.25,0-1.83.02-2.85-.52-3.33-2.49C15.12,62.18,7.71,32.26.34,2.34.2,1.79.16,1.21,0,.09Z"/>
        <path class="cls-1" d="M412.03,36.17c3.12-2.71,5.81-5.58,8.99-7.71,8.05-5.42,16.92-6.27,26.05-3.34,5.69,1.83,9.18,6.1,11.09,11.71,1.67,4.91,1.87,9.99,1.45,15.07-1.1,13.11-2.42,26.2-3.52,39.31-.22,2.62-1.13,3.58-3.82,3.43-3.98-.22-7.99-.15-11.99-.03-2.29.07-2.85-.85-2.63-3,1.15-11.27,2.22-22.54,3.25-33.82.23-2.48.35-5,.2-7.48-.55-9.05-7.04-13.58-15.79-11.1-6.44,1.83-10.51,6.32-12.07,12.54-1.45,5.77-2.05,11.78-2.75,17.72-.88,7.52-1.53,15.08-2.18,22.63-.15,1.78-.82,2.52-2.62,2.49-4.33-.06-8.66-.08-12.99,0-2.11.04-2.5-.97-2.32-2.81,1.39-14.34,2.74-28.68,4.08-43.02.64-6.88,1.31-13.76,1.83-20.65.16-2.09.88-2.94,3.05-2.86,3.83.14,7.66.08,11.49.03,1.74-.02,2.39.62,2.13,2.41-.4,2.77-.62,5.56-.92,8.47Z"/>
        <path class="cls-1" d="M259.89,35.89c1.13-1.19,2.21-2.43,3.39-3.56,8.39-8.09,18.36-10.56,29.49-7.65,8.54,2.23,12.84,8.63,13.52,17,.51,6.33-.04,12.79-.51,19.16-.77,10.3-1.91,20.56-2.77,30.85-.19,2.25-1.02,3.02-3.25,2.95-4.16-.14-8.33-.1-12.49-.01-2.01.04-2.58-.7-2.39-2.68,1.09-11.69,2.14-23.38,3.04-35.09.24-3.13.19-6.35-.25-9.45-.72-5.1-4.42-8.23-9.55-8.6-7.85-.57-14.09,3.26-17.12,11.04-1.28,3.29-2.1,6.87-2.51,10.38-1.23,10.5-2.2,21.03-3.16,31.56-.19,2.12-.96,2.9-3.09,2.83-4.08-.12-8.16-.1-12.24,0-2.04.05-2.84-.63-2.63-2.77,1.73-17.82,3.39-35.65,5.06-53.47.33-3.48.74-6.96.94-10.45.12-2.05,1.02-2.72,2.99-2.66,3.66.11,7.33.13,10.99,0,2.31-.09,2.89.83,2.59,2.98-.35,2.45-.42,4.94-.62,7.42.19.08.38.16.57.24Z"/>
        <path class="cls-1" d="M227.3,78.9c-.46,4.27-.86,8.36-1.4,12.43-.07.5-.8,1.13-1.35,1.3-13.84,4.27-27.79,6.24-41.31-.7-9.81-5.04-13.88-14.1-14.51-24.66-.79-13.21,2.53-25.09,12.56-34.45,10.33-9.64,30.17-12.26,41.31-5.49,8.91,5.41,12,13.91,12.49,23.67.19,3.8-.35,7.64-.44,11.47-.05,2.06-1.13,2.44-2.9,2.43-8.33-.05-16.66-.02-24.99-.02-6.08,0-12.16.07-18.24-.03-2.16-.04-2.73.71-2.48,2.8.99,8.28,6.98,14.15,15.95,15.35,7.9,1.06,15.41-.5,22.68-3.54.46-.19.92-.39,1.39-.55.15-.05.32,0,1.23,0ZM202.99,53.67c4.57,0,9.14-.05,13.71.03,1.7.03,2.54-.53,2.29-2.3-.26-1.89-.35-3.83-.86-5.65-2.17-7.74-8.04-11.45-15.89-9.97-8.35,1.58-12.23,7.57-14.54,15.07-.63,2.05-.23,2.91,2.08,2.85,4.4-.11,8.81-.03,13.21-.03Z"/>
        <path class="cls-1" d="M345.91,3.44c0,.95.06,1.83-.01,2.7-.46,5.48-.88,10.96-1.47,16.42-.23,2.14.48,2.82,2.56,2.76,3.66-.11,7.33.04,10.99-.05,2.01-.05,2.93.51,2.59,2.72-.43,2.79-.65,5.62-.85,8.45-.12,1.66-.85,2.33-2.53,2.3-4-.07-8,.05-11.99-.04-1.81-.04-2.44.62-2.6,2.41-.82,9.45-1.85,18.89-2.61,28.35-.2,2.53-.02,5.19.51,7.67.78,3.64,2.97,5.39,6.7,5.62,2.05.13,4.16-.1,6.2-.41,1.62-.25,2.39.01,2.21,1.83-.27,2.82-.31,5.66-.73,8.46-.12.82-1.06,1.98-1.82,2.16-6.64,1.53-13.34,1.94-20.02.12-5.66-1.54-9.1-5.19-10.5-10.89-1.61-6.55-.74-13.08-.14-19.63.7-7.71,1.4-15.42,2.22-23.12.22-2.06-.48-2.65-2.44-2.57-2.83.12-5.66-.03-8.49.02-1.67.03-2.5-.53-2.3-2.33.31-2.9.6-5.8.76-8.71.1-1.82.92-2.45,2.69-2.41,3.25.08,6.5-.05,9.74.03,1.7.05,2.35-.61,2.48-2.28.3-4.07.68-8.13,1.2-12.18.12-.9.78-2.22,1.5-2.49,4.93-1.79,9.94-3.35,14.93-4.96.29-.09.64.02,1.25.05Z"/>
        <path class="cls-1" d="M163.95,78.04c0,4.5.05,8.71-.06,12.91-.01.53-.8,1.29-1.39,1.51-10.06,3.69-20.31,5.32-30.84,2.22-11.37-3.34-18.18-11.13-20.68-22.52-4.52-20.63,7.24-40.62,27.4-46.88,10.06-3.13,19.94-1.63,29.68,1.54.57.18,1.16,1.57,1.06,2.3-.47,3.29-1.25,6.54-1.8,9.82-.33,1.98-1.18,2.16-2.92,1.46-6.08-2.45-12.3-3.42-18.79-1.57-14.64,4.16-21.71,24.17-12.67,36.02,4.94,6.47,13.08,8.93,22.05,6.51,2.24-.6,4.36-1.61,6.54-2.43.82-.31,1.64-.6,2.42-.89Z"/>
        <path class="cls-1" d="M368.97,94.59c-2,0-4.01-.11-6,.03-2.24.16-2.89-.67-2.67-2.9,1.06-10.69,1.99-21.4,2.97-32.1.96-10.45,1.99-20.9,2.87-31.36.18-2.18.86-3.09,3.16-3,4.08.15,8.17.14,12.25-.01,2.44-.09,2.99.91,2.77,3.14-1.48,15.17-2.88,30.35-4.31,45.53-.56,5.97-1.18,11.94-1.64,17.92-.15,1.96-.86,2.87-2.91,2.76-2.16-.11-4.33-.03-6.5-.03h0Z"/>
        <path class="cls-1" d="M90.79,94.58c-2.08,0-4.17-.08-6.25.03-2.14.11-2.74-.78-2.53-2.84.81-8.21,1.48-16.43,2.25-24.64,1.21-12.94,2.51-25.87,3.64-38.81.21-2.4,1.13-3.13,3.41-3.06,3.99.14,8,.11,12,.02,2.12-.05,2.75.76,2.54,2.84-1.48,15.26-2.88,30.52-4.3,45.78-.56,5.97-1.19,11.94-1.64,17.92-.15,1.98-.82,2.88-2.87,2.78-2.08-.1-4.16-.02-6.25-.02Z"/>
        <path class="cls-1" d="M377.9.07c2.25,0,4.5.07,6.74-.02,1.85-.07,2.31.81,2.13,2.46-.48,4.3-.95,8.6-1.35,12.91-.14,1.45-.82,2.06-2.24,2.05-4.58-.03-9.16-.03-13.73-.02-1.51,0-2.08-.67-1.93-2.17.43-4.39.83-8.78,1.18-13.18.11-1.46.79-2.06,2.22-2.04,2.33.04,4.66.01,6.99,0Z"/>
        <path class="cls-1" d="M97.8,17.46c-2.17,0-4.33-.04-6.5.02-1.67.05-2.48-.49-2.26-2.33.52-4.3.98-8.6,1.39-12.92.16-1.71,1-2.21,2.62-2.18,4.33.06,8.66.05,12.99-.04,1.74-.04,2.43.53,2.25,2.31-.43,4.31-.8,8.62-1.13,12.94-.13,1.72-1.02,2.27-2.63,2.22-2.25-.07-4.5-.02-6.75-.02Z"/>
      </g>
    </g>
  </g>
</svg>